M48
; DRILL file KiCad 10.0.1 date 2026-06-06T12:40:41
; FORMAT={-:-/ absolute / metric / decimal}
; #@! TF.CreationDate,2026-06-06T12:40:41-04:00
; #@! TF.GenerationSoftware,Kicad,Pcbnew,10.0.1
; #@! TF.FileFunction,Plated,1,2,PTH
FMAT,2
METRIC
; #@! TA.AperFunction,Plated,PTH,ViaDrill
T1C0.300
; #@! TA.AperFunction,Plated,PTH,ComponentDrill
T2C0.600
; #@! TA.AperFunction,Plated,PTH,ComponentDrill
T3C0.700
; #@! TA.AperFunction,Plated,PTH,ComponentDrill
T4C0.800
; #@! TA.AperFunction,Plated,PTH,ComponentDrill
T5C0.900
; #@! TA.AperFunction,Plated,PTH,ComponentDrill
T6C1.000
; #@! TA.AperFunction,Plated,PTH,ComponentDrill
T7C1.100
; #@! TA.AperFunction,Plated,PTH,ComponentDrill
T8C1.600
%
G90
G05
T1
X101.0Y-118.5
X102.5Y-97.5
X104.0Y-105.5
X104.0Y-135.0
X105.0Y-107.5
X106.5Y-83.0
X106.505Y-105.005
X109.0Y-100.5
T2
X124.527Y-86.0
X126.527Y-86.0
T3
X146.0Y-96.46
X146.0Y-99.0
X146.0Y-101.54
T4
X59.17Y-68.0
X59.34Y-83.75
X59.67Y-100.25
X59.84Y-116.0
X59.84Y-131.75
X59.84Y-146.75
X69.33Y-68.0
X69.5Y-83.75
X69.83Y-100.25
X70.0Y-116.0
X70.0Y-131.75
X70.0Y-146.75
X77.0Y-102.92
X77.0Y-113.08
X77.0Y-118.92
X77.0Y-129.08
X77.0Y-135.0
X77.0Y-145.16
X77.039Y-86.92
X77.039Y-97.08
X77.097Y-70.92
X77.097Y-81.08
X77.154Y-54.92
X77.154Y-65.08
X80.19Y-139.36
X80.46Y-123.28
X80.642Y-91.64
X80.69Y-107.784
X80.76Y-75.28
X80.873Y-60.36
X82.73Y-139.36
X83.0Y-123.28
X83.182Y-91.64
X83.23Y-107.784
X83.3Y-75.28
X83.412Y-60.36
X85.27Y-139.36
X85.54Y-123.28
X85.722Y-91.64
X85.77Y-107.784
X85.84Y-75.28
X85.953Y-60.36
X92.0Y-70.92
X92.0Y-81.08
X92.0Y-86.92
X92.0Y-97.08
X92.0Y-102.92
X92.0Y-113.08
X92.128Y-119.0
X92.128Y-129.16
X92.211Y-54.92
X92.211Y-65.08
X92.211Y-134.92
X92.211Y-145.08
X112.38Y-90.26
X112.38Y-92.8
X112.38Y-95.34
X112.38Y-97.88
X112.38Y-100.42
X112.38Y-102.96
X112.38Y-105.5
X112.38Y-108.04
X120.0Y-90.26
X120.0Y-92.8
X120.0Y-95.34
X120.0Y-97.88
X120.0Y-100.42
X120.0Y-102.96
X120.0Y-105.5
X120.0Y-108.04
X123.697Y-114.5
X124.25Y-98.5
X126.75Y-98.5
X127.497Y-114.5
X143.25Y-129.17
X143.25Y-139.33
X146.0Y-77.42
X146.0Y-87.58
T5
X98.46Y-92.0
X98.5Y-108.0
X98.73Y-140.08
X98.77Y-76.003
X98.96Y-60.0
X99.0Y-124.0
X101.0Y-92.0
X101.04Y-108.0
X101.27Y-140.08
X101.31Y-76.003
X101.5Y-60.0
X101.54Y-124.0
X134.235Y-99.0
X136.775Y-99.0
T7
X132.96Y-84.23
X135.5Y-84.23
X138.04Y-84.23
X146.0Y-114.42
X146.0Y-124.58
T8
X60.08Y-60.0
X60.08Y-76.0
X60.08Y-92.0
X60.08Y-108.0
X60.08Y-124.0
X60.08Y-140.08
X68.38Y-60.0
X68.38Y-76.0
X68.38Y-92.0
X68.38Y-108.0
X68.38Y-124.0
X68.38Y-140.08
X71.48Y-60.0
X71.48Y-76.0
X71.48Y-92.0
X71.48Y-108.0
X71.48Y-124.0
X71.48Y-140.08
X135.5Y-133.52
X135.5Y-136.62
X135.5Y-144.92
T6
G00X111.3Y-61.0
M15
G01X111.3Y-63.0
M16
G05
G00X117.0Y-59.0
M15
G01X115.0Y-59.0
M16
G05
G00X117.0Y-65.0
M15
G01X115.0Y-65.0
M16
G05
G00X115.042Y-135.0
M15
G01X117.042Y-135.0
M16
G05
G00X115.042Y-141.0
M15
G01X117.042Y-141.0
M16
G05
G00X120.742Y-139.0
M15
G01X120.742Y-137.0
M16
G05
M30
