%TF.GenerationSoftware,KiCad,Pcbnew,10.0.1*%
%TF.CreationDate,2026-06-06T12:40:39-04:00*%
%TF.ProjectId,g-02-sec-01-rev-a,672d3032-2d73-4656-932d-30312d726576,rev?*%
%TF.SameCoordinates,Original*%
%TF.FileFunction,Legend,Top*%
%TF.FilePolarity,Positive*%
%FSLAX46Y46*%
G04 Gerber Fmt 4.6, Leading zero omitted, Abs format (unit mm)*
G04 Created by KiCad (PCBNEW 10.0.1) date 2026-06-06 12:40:39*
%MOMM*%
%LPD*%
G01*
G04 APERTURE LIST*
%ADD10C,0.300000*%
%ADD11C,0.150000*%
%ADD12C,0.120000*%
%ADD13C,0.159949*%
%ADD14C,1.800000*%
G04 APERTURE END LIST*
D10*
X87197368Y-51800828D02*
X87197368Y-53015114D01*
X87197368Y-53015114D02*
X87125939Y-53157971D01*
X87125939Y-53157971D02*
X87054510Y-53229400D01*
X87054510Y-53229400D02*
X86911653Y-53300828D01*
X86911653Y-53300828D02*
X86697368Y-53300828D01*
X86697368Y-53300828D02*
X86554510Y-53229400D01*
X87197368Y-52729400D02*
X87054510Y-52800828D01*
X87054510Y-52800828D02*
X86768796Y-52800828D01*
X86768796Y-52800828D02*
X86625939Y-52729400D01*
X86625939Y-52729400D02*
X86554510Y-52657971D01*
X86554510Y-52657971D02*
X86483082Y-52515114D01*
X86483082Y-52515114D02*
X86483082Y-52086542D01*
X86483082Y-52086542D02*
X86554510Y-51943685D01*
X86554510Y-51943685D02*
X86625939Y-51872257D01*
X86625939Y-51872257D02*
X86768796Y-51800828D01*
X86768796Y-51800828D02*
X87054510Y-51800828D01*
X87054510Y-51800828D02*
X87197368Y-51872257D01*
X88197368Y-51300828D02*
X88340225Y-51300828D01*
X88340225Y-51300828D02*
X88483082Y-51372257D01*
X88483082Y-51372257D02*
X88554511Y-51443685D01*
X88554511Y-51443685D02*
X88625939Y-51586542D01*
X88625939Y-51586542D02*
X88697368Y-51872257D01*
X88697368Y-51872257D02*
X88697368Y-52229400D01*
X88697368Y-52229400D02*
X88625939Y-52515114D01*
X88625939Y-52515114D02*
X88554511Y-52657971D01*
X88554511Y-52657971D02*
X88483082Y-52729400D01*
X88483082Y-52729400D02*
X88340225Y-52800828D01*
X88340225Y-52800828D02*
X88197368Y-52800828D01*
X88197368Y-52800828D02*
X88054511Y-52729400D01*
X88054511Y-52729400D02*
X87983082Y-52657971D01*
X87983082Y-52657971D02*
X87911653Y-52515114D01*
X87911653Y-52515114D02*
X87840225Y-52229400D01*
X87840225Y-52229400D02*
X87840225Y-51872257D01*
X87840225Y-51872257D02*
X87911653Y-51586542D01*
X87911653Y-51586542D02*
X87983082Y-51443685D01*
X87983082Y-51443685D02*
X88054511Y-51372257D01*
X88054511Y-51372257D02*
X88197368Y-51300828D01*
X89268796Y-51443685D02*
X89340224Y-51372257D01*
X89340224Y-51372257D02*
X89483082Y-51300828D01*
X89483082Y-51300828D02*
X89840224Y-51300828D01*
X89840224Y-51300828D02*
X89983082Y-51372257D01*
X89983082Y-51372257D02*
X90054510Y-51443685D01*
X90054510Y-51443685D02*
X90125939Y-51586542D01*
X90125939Y-51586542D02*
X90125939Y-51729400D01*
X90125939Y-51729400D02*
X90054510Y-51943685D01*
X90054510Y-51943685D02*
X89197367Y-52800828D01*
X89197367Y-52800828D02*
X90125939Y-52800828D01*
X90768795Y-52229400D02*
X91911653Y-52229400D01*
X92554510Y-52729400D02*
X92697367Y-52800828D01*
X92697367Y-52800828D02*
X92983081Y-52800828D01*
X92983081Y-52800828D02*
X93125938Y-52729400D01*
X93125938Y-52729400D02*
X93197367Y-52586542D01*
X93197367Y-52586542D02*
X93197367Y-52515114D01*
X93197367Y-52515114D02*
X93125938Y-52372257D01*
X93125938Y-52372257D02*
X92983081Y-52300828D01*
X92983081Y-52300828D02*
X92768796Y-52300828D01*
X92768796Y-52300828D02*
X92625938Y-52229400D01*
X92625938Y-52229400D02*
X92554510Y-52086542D01*
X92554510Y-52086542D02*
X92554510Y-52015114D01*
X92554510Y-52015114D02*
X92625938Y-51872257D01*
X92625938Y-51872257D02*
X92768796Y-51800828D01*
X92768796Y-51800828D02*
X92983081Y-51800828D01*
X92983081Y-51800828D02*
X93125938Y-51872257D01*
X94411653Y-52729400D02*
X94268796Y-52800828D01*
X94268796Y-52800828D02*
X93983082Y-52800828D01*
X93983082Y-52800828D02*
X93840224Y-52729400D01*
X93840224Y-52729400D02*
X93768796Y-52586542D01*
X93768796Y-52586542D02*
X93768796Y-52015114D01*
X93768796Y-52015114D02*
X93840224Y-51872257D01*
X93840224Y-51872257D02*
X93983082Y-51800828D01*
X93983082Y-51800828D02*
X94268796Y-51800828D01*
X94268796Y-51800828D02*
X94411653Y-51872257D01*
X94411653Y-51872257D02*
X94483082Y-52015114D01*
X94483082Y-52015114D02*
X94483082Y-52157971D01*
X94483082Y-52157971D02*
X93768796Y-52300828D01*
X95768796Y-52729400D02*
X95625938Y-52800828D01*
X95625938Y-52800828D02*
X95340224Y-52800828D01*
X95340224Y-52800828D02*
X95197367Y-52729400D01*
X95197367Y-52729400D02*
X95125938Y-52657971D01*
X95125938Y-52657971D02*
X95054510Y-52515114D01*
X95054510Y-52515114D02*
X95054510Y-52086542D01*
X95054510Y-52086542D02*
X95125938Y-51943685D01*
X95125938Y-51943685D02*
X95197367Y-51872257D01*
X95197367Y-51872257D02*
X95340224Y-51800828D01*
X95340224Y-51800828D02*
X95625938Y-51800828D01*
X95625938Y-51800828D02*
X95768796Y-51872257D01*
X97054510Y-51800828D02*
X97054510Y-52800828D01*
X96411652Y-51800828D02*
X96411652Y-52586542D01*
X96411652Y-52586542D02*
X96483081Y-52729400D01*
X96483081Y-52729400D02*
X96625938Y-52800828D01*
X96625938Y-52800828D02*
X96840224Y-52800828D01*
X96840224Y-52800828D02*
X96983081Y-52729400D01*
X96983081Y-52729400D02*
X97054510Y-52657971D01*
X97768795Y-52229400D02*
X98911653Y-52229400D01*
X99911653Y-51300828D02*
X100054510Y-51300828D01*
X100054510Y-51300828D02*
X100197367Y-51372257D01*
X100197367Y-51372257D02*
X100268796Y-51443685D01*
X100268796Y-51443685D02*
X100340224Y-51586542D01*
X100340224Y-51586542D02*
X100411653Y-51872257D01*
X100411653Y-51872257D02*
X100411653Y-52229400D01*
X100411653Y-52229400D02*
X100340224Y-52515114D01*
X100340224Y-52515114D02*
X100268796Y-52657971D01*
X100268796Y-52657971D02*
X100197367Y-52729400D01*
X100197367Y-52729400D02*
X100054510Y-52800828D01*
X100054510Y-52800828D02*
X99911653Y-52800828D01*
X99911653Y-52800828D02*
X99768796Y-52729400D01*
X99768796Y-52729400D02*
X99697367Y-52657971D01*
X99697367Y-52657971D02*
X99625938Y-52515114D01*
X99625938Y-52515114D02*
X99554510Y-52229400D01*
X99554510Y-52229400D02*
X99554510Y-51872257D01*
X99554510Y-51872257D02*
X99625938Y-51586542D01*
X99625938Y-51586542D02*
X99697367Y-51443685D01*
X99697367Y-51443685D02*
X99768796Y-51372257D01*
X99768796Y-51372257D02*
X99911653Y-51300828D01*
X101840224Y-52800828D02*
X100983081Y-52800828D01*
X101411652Y-52800828D02*
X101411652Y-51300828D01*
X101411652Y-51300828D02*
X101268795Y-51515114D01*
X101268795Y-51515114D02*
X101125938Y-51657971D01*
X101125938Y-51657971D02*
X100983081Y-51729400D01*
X102483080Y-52229400D02*
X103625938Y-52229400D01*
X104340223Y-52800828D02*
X104340223Y-51800828D01*
X104340223Y-52086542D02*
X104411652Y-51943685D01*
X104411652Y-51943685D02*
X104483081Y-51872257D01*
X104483081Y-51872257D02*
X104625938Y-51800828D01*
X104625938Y-51800828D02*
X104768795Y-51800828D01*
X105840223Y-52729400D02*
X105697366Y-52800828D01*
X105697366Y-52800828D02*
X105411652Y-52800828D01*
X105411652Y-52800828D02*
X105268794Y-52729400D01*
X105268794Y-52729400D02*
X105197366Y-52586542D01*
X105197366Y-52586542D02*
X105197366Y-52015114D01*
X105197366Y-52015114D02*
X105268794Y-51872257D01*
X105268794Y-51872257D02*
X105411652Y-51800828D01*
X105411652Y-51800828D02*
X105697366Y-51800828D01*
X105697366Y-51800828D02*
X105840223Y-51872257D01*
X105840223Y-51872257D02*
X105911652Y-52015114D01*
X105911652Y-52015114D02*
X105911652Y-52157971D01*
X105911652Y-52157971D02*
X105197366Y-52300828D01*
X106411651Y-51800828D02*
X106768794Y-52800828D01*
X106768794Y-52800828D02*
X107125937Y-51800828D01*
X107625937Y-52372257D02*
X108340223Y-52372257D01*
X107483080Y-52800828D02*
X107983080Y-51300828D01*
X107983080Y-51300828D02*
X108483080Y-52800828D01*
D11*
X64277142Y-118824819D02*
X63943809Y-118348628D01*
X63705714Y-118824819D02*
X63705714Y-117824819D01*
X63705714Y-117824819D02*
X64086666Y-117824819D01*
X64086666Y-117824819D02*
X64181904Y-117872438D01*
X64181904Y-117872438D02*
X64229523Y-117920057D01*
X64229523Y-117920057D02*
X64277142Y-118015295D01*
X64277142Y-118015295D02*
X64277142Y-118158152D01*
X64277142Y-118158152D02*
X64229523Y-118253390D01*
X64229523Y-118253390D02*
X64181904Y-118301009D01*
X64181904Y-118301009D02*
X64086666Y-118348628D01*
X64086666Y-118348628D02*
X63705714Y-118348628D01*
X64658095Y-117920057D02*
X64705714Y-117872438D01*
X64705714Y-117872438D02*
X64800952Y-117824819D01*
X64800952Y-117824819D02*
X65039047Y-117824819D01*
X65039047Y-117824819D02*
X65134285Y-117872438D01*
X65134285Y-117872438D02*
X65181904Y-117920057D01*
X65181904Y-117920057D02*
X65229523Y-118015295D01*
X65229523Y-118015295D02*
X65229523Y-118110533D01*
X65229523Y-118110533D02*
X65181904Y-118253390D01*
X65181904Y-118253390D02*
X64610476Y-118824819D01*
X64610476Y-118824819D02*
X65229523Y-118824819D01*
X66086666Y-118158152D02*
X66086666Y-118824819D01*
X65848571Y-117777200D02*
X65610476Y-118491485D01*
X65610476Y-118491485D02*
X66229523Y-118491485D01*
X83134761Y-111894096D02*
X83039523Y-111846477D01*
X83039523Y-111846477D02*
X82944285Y-111751239D01*
X82944285Y-111751239D02*
X82801428Y-111608381D01*
X82801428Y-111608381D02*
X82706190Y-111560762D01*
X82706190Y-111560762D02*
X82610952Y-111560762D01*
X82658571Y-111798858D02*
X82563333Y-111751239D01*
X82563333Y-111751239D02*
X82468095Y-111656000D01*
X82468095Y-111656000D02*
X82420476Y-111465524D01*
X82420476Y-111465524D02*
X82420476Y-111132191D01*
X82420476Y-111132191D02*
X82468095Y-110941715D01*
X82468095Y-110941715D02*
X82563333Y-110846477D01*
X82563333Y-110846477D02*
X82658571Y-110798858D01*
X82658571Y-110798858D02*
X82849047Y-110798858D01*
X82849047Y-110798858D02*
X82944285Y-110846477D01*
X82944285Y-110846477D02*
X83039523Y-110941715D01*
X83039523Y-110941715D02*
X83087142Y-111132191D01*
X83087142Y-111132191D02*
X83087142Y-111465524D01*
X83087142Y-111465524D02*
X83039523Y-111656000D01*
X83039523Y-111656000D02*
X82944285Y-111751239D01*
X82944285Y-111751239D02*
X82849047Y-111798858D01*
X82849047Y-111798858D02*
X82658571Y-111798858D01*
X83944285Y-111132191D02*
X83944285Y-111798858D01*
X83706190Y-110751239D02*
X83468095Y-111465524D01*
X83468095Y-111465524D02*
X84087142Y-111465524D01*
X83317261Y-64470057D02*
X83222023Y-64422438D01*
X83222023Y-64422438D02*
X83126785Y-64327200D01*
X83126785Y-64327200D02*
X82983928Y-64184342D01*
X82983928Y-64184342D02*
X82888690Y-64136723D01*
X82888690Y-64136723D02*
X82793452Y-64136723D01*
X82841071Y-64374819D02*
X82745833Y-64327200D01*
X82745833Y-64327200D02*
X82650595Y-64231961D01*
X82650595Y-64231961D02*
X82602976Y-64041485D01*
X82602976Y-64041485D02*
X82602976Y-63708152D01*
X82602976Y-63708152D02*
X82650595Y-63517676D01*
X82650595Y-63517676D02*
X82745833Y-63422438D01*
X82745833Y-63422438D02*
X82841071Y-63374819D01*
X82841071Y-63374819D02*
X83031547Y-63374819D01*
X83031547Y-63374819D02*
X83126785Y-63422438D01*
X83126785Y-63422438D02*
X83222023Y-63517676D01*
X83222023Y-63517676D02*
X83269642Y-63708152D01*
X83269642Y-63708152D02*
X83269642Y-64041485D01*
X83269642Y-64041485D02*
X83222023Y-64231961D01*
X83222023Y-64231961D02*
X83126785Y-64327200D01*
X83126785Y-64327200D02*
X83031547Y-64374819D01*
X83031547Y-64374819D02*
X82841071Y-64374819D01*
X84222023Y-64374819D02*
X83650595Y-64374819D01*
X83936309Y-64374819D02*
X83936309Y-63374819D01*
X83936309Y-63374819D02*
X83841071Y-63517676D01*
X83841071Y-63517676D02*
X83745833Y-63612914D01*
X83745833Y-63612914D02*
X83650595Y-63660533D01*
X98515714Y-96414819D02*
X98515714Y-95414819D01*
X98515714Y-95414819D02*
X98753809Y-95414819D01*
X98753809Y-95414819D02*
X98896666Y-95462438D01*
X98896666Y-95462438D02*
X98991904Y-95557676D01*
X98991904Y-95557676D02*
X99039523Y-95652914D01*
X99039523Y-95652914D02*
X99087142Y-95843390D01*
X99087142Y-95843390D02*
X99087142Y-95986247D01*
X99087142Y-95986247D02*
X99039523Y-96176723D01*
X99039523Y-96176723D02*
X98991904Y-96271961D01*
X98991904Y-96271961D02*
X98896666Y-96367200D01*
X98896666Y-96367200D02*
X98753809Y-96414819D01*
X98753809Y-96414819D02*
X98515714Y-96414819D01*
X100039523Y-96414819D02*
X99468095Y-96414819D01*
X99753809Y-96414819D02*
X99753809Y-95414819D01*
X99753809Y-95414819D02*
X99658571Y-95557676D01*
X99658571Y-95557676D02*
X99563333Y-95652914D01*
X99563333Y-95652914D02*
X99468095Y-95700533D01*
X100991904Y-96414819D02*
X100420476Y-96414819D01*
X100706190Y-96414819D02*
X100706190Y-95414819D01*
X100706190Y-95414819D02*
X100610952Y-95557676D01*
X100610952Y-95557676D02*
X100515714Y-95652914D01*
X100515714Y-95652914D02*
X100420476Y-95700533D01*
X75084819Y-140722857D02*
X74608628Y-141056190D01*
X75084819Y-141294285D02*
X74084819Y-141294285D01*
X74084819Y-141294285D02*
X74084819Y-140913333D01*
X74084819Y-140913333D02*
X74132438Y-140818095D01*
X74132438Y-140818095D02*
X74180057Y-140770476D01*
X74180057Y-140770476D02*
X74275295Y-140722857D01*
X74275295Y-140722857D02*
X74418152Y-140722857D01*
X74418152Y-140722857D02*
X74513390Y-140770476D01*
X74513390Y-140770476D02*
X74561009Y-140818095D01*
X74561009Y-140818095D02*
X74608628Y-140913333D01*
X74608628Y-140913333D02*
X74608628Y-141294285D01*
X75084819Y-139770476D02*
X75084819Y-140341904D01*
X75084819Y-140056190D02*
X74084819Y-140056190D01*
X74084819Y-140056190D02*
X74227676Y-140151428D01*
X74227676Y-140151428D02*
X74322914Y-140246666D01*
X74322914Y-140246666D02*
X74370533Y-140341904D01*
X74513390Y-139199047D02*
X74465771Y-139294285D01*
X74465771Y-139294285D02*
X74418152Y-139341904D01*
X74418152Y-139341904D02*
X74322914Y-139389523D01*
X74322914Y-139389523D02*
X74275295Y-139389523D01*
X74275295Y-139389523D02*
X74180057Y-139341904D01*
X74180057Y-139341904D02*
X74132438Y-139294285D01*
X74132438Y-139294285D02*
X74084819Y-139199047D01*
X74084819Y-139199047D02*
X74084819Y-139008571D01*
X74084819Y-139008571D02*
X74132438Y-138913333D01*
X74132438Y-138913333D02*
X74180057Y-138865714D01*
X74180057Y-138865714D02*
X74275295Y-138818095D01*
X74275295Y-138818095D02*
X74322914Y-138818095D01*
X74322914Y-138818095D02*
X74418152Y-138865714D01*
X74418152Y-138865714D02*
X74465771Y-138913333D01*
X74465771Y-138913333D02*
X74513390Y-139008571D01*
X74513390Y-139008571D02*
X74513390Y-139199047D01*
X74513390Y-139199047D02*
X74561009Y-139294285D01*
X74561009Y-139294285D02*
X74608628Y-139341904D01*
X74608628Y-139341904D02*
X74703866Y-139389523D01*
X74703866Y-139389523D02*
X74894342Y-139389523D01*
X74894342Y-139389523D02*
X74989580Y-139341904D01*
X74989580Y-139341904D02*
X75037200Y-139294285D01*
X75037200Y-139294285D02*
X75084819Y-139199047D01*
X75084819Y-139199047D02*
X75084819Y-139008571D01*
X75084819Y-139008571D02*
X75037200Y-138913333D01*
X75037200Y-138913333D02*
X74989580Y-138865714D01*
X74989580Y-138865714D02*
X74894342Y-138818095D01*
X74894342Y-138818095D02*
X74703866Y-138818095D01*
X74703866Y-138818095D02*
X74608628Y-138865714D01*
X74608628Y-138865714D02*
X74561009Y-138913333D01*
X74561009Y-138913333D02*
X74513390Y-139008571D01*
X90084819Y-92642857D02*
X89608628Y-92976190D01*
X90084819Y-93214285D02*
X89084819Y-93214285D01*
X89084819Y-93214285D02*
X89084819Y-92833333D01*
X89084819Y-92833333D02*
X89132438Y-92738095D01*
X89132438Y-92738095D02*
X89180057Y-92690476D01*
X89180057Y-92690476D02*
X89275295Y-92642857D01*
X89275295Y-92642857D02*
X89418152Y-92642857D01*
X89418152Y-92642857D02*
X89513390Y-92690476D01*
X89513390Y-92690476D02*
X89561009Y-92738095D01*
X89561009Y-92738095D02*
X89608628Y-92833333D01*
X89608628Y-92833333D02*
X89608628Y-93214285D01*
X90084819Y-91690476D02*
X90084819Y-92261904D01*
X90084819Y-91976190D02*
X89084819Y-91976190D01*
X89084819Y-91976190D02*
X89227676Y-92071428D01*
X89227676Y-92071428D02*
X89322914Y-92166666D01*
X89322914Y-92166666D02*
X89370533Y-92261904D01*
X89084819Y-91357142D02*
X89084819Y-90738095D01*
X89084819Y-90738095D02*
X89465771Y-91071428D01*
X89465771Y-91071428D02*
X89465771Y-90928571D01*
X89465771Y-90928571D02*
X89513390Y-90833333D01*
X89513390Y-90833333D02*
X89561009Y-90785714D01*
X89561009Y-90785714D02*
X89656247Y-90738095D01*
X89656247Y-90738095D02*
X89894342Y-90738095D01*
X89894342Y-90738095D02*
X89989580Y-90785714D01*
X89989580Y-90785714D02*
X90037200Y-90833333D01*
X90037200Y-90833333D02*
X90084819Y-90928571D01*
X90084819Y-90928571D02*
X90084819Y-91214285D01*
X90084819Y-91214285D02*
X90037200Y-91309523D01*
X90037200Y-91309523D02*
X89989580Y-91357142D01*
X75238569Y-60166666D02*
X74762378Y-60499999D01*
X75238569Y-60738094D02*
X74238569Y-60738094D01*
X74238569Y-60738094D02*
X74238569Y-60357142D01*
X74238569Y-60357142D02*
X74286188Y-60261904D01*
X74286188Y-60261904D02*
X74333807Y-60214285D01*
X74333807Y-60214285D02*
X74429045Y-60166666D01*
X74429045Y-60166666D02*
X74571902Y-60166666D01*
X74571902Y-60166666D02*
X74667140Y-60214285D01*
X74667140Y-60214285D02*
X74714759Y-60261904D01*
X74714759Y-60261904D02*
X74762378Y-60357142D01*
X74762378Y-60357142D02*
X74762378Y-60738094D01*
X74667140Y-59595237D02*
X74619521Y-59690475D01*
X74619521Y-59690475D02*
X74571902Y-59738094D01*
X74571902Y-59738094D02*
X74476664Y-59785713D01*
X74476664Y-59785713D02*
X74429045Y-59785713D01*
X74429045Y-59785713D02*
X74333807Y-59738094D01*
X74333807Y-59738094D02*
X74286188Y-59690475D01*
X74286188Y-59690475D02*
X74238569Y-59595237D01*
X74238569Y-59595237D02*
X74238569Y-59404761D01*
X74238569Y-59404761D02*
X74286188Y-59309523D01*
X74286188Y-59309523D02*
X74333807Y-59261904D01*
X74333807Y-59261904D02*
X74429045Y-59214285D01*
X74429045Y-59214285D02*
X74476664Y-59214285D01*
X74476664Y-59214285D02*
X74571902Y-59261904D01*
X74571902Y-59261904D02*
X74619521Y-59309523D01*
X74619521Y-59309523D02*
X74667140Y-59404761D01*
X74667140Y-59404761D02*
X74667140Y-59595237D01*
X74667140Y-59595237D02*
X74714759Y-59690475D01*
X74714759Y-59690475D02*
X74762378Y-59738094D01*
X74762378Y-59738094D02*
X74857616Y-59785713D01*
X74857616Y-59785713D02*
X75048092Y-59785713D01*
X75048092Y-59785713D02*
X75143330Y-59738094D01*
X75143330Y-59738094D02*
X75190950Y-59690475D01*
X75190950Y-59690475D02*
X75238569Y-59595237D01*
X75238569Y-59595237D02*
X75238569Y-59404761D01*
X75238569Y-59404761D02*
X75190950Y-59309523D01*
X75190950Y-59309523D02*
X75143330Y-59261904D01*
X75143330Y-59261904D02*
X75048092Y-59214285D01*
X75048092Y-59214285D02*
X74857616Y-59214285D01*
X74857616Y-59214285D02*
X74762378Y-59261904D01*
X74762378Y-59261904D02*
X74714759Y-59309523D01*
X74714759Y-59309523D02*
X74667140Y-59404761D01*
X98785714Y-144494819D02*
X98785714Y-143494819D01*
X98785714Y-143494819D02*
X99023809Y-143494819D01*
X99023809Y-143494819D02*
X99166666Y-143542438D01*
X99166666Y-143542438D02*
X99261904Y-143637676D01*
X99261904Y-143637676D02*
X99309523Y-143732914D01*
X99309523Y-143732914D02*
X99357142Y-143923390D01*
X99357142Y-143923390D02*
X99357142Y-144066247D01*
X99357142Y-144066247D02*
X99309523Y-144256723D01*
X99309523Y-144256723D02*
X99261904Y-144351961D01*
X99261904Y-144351961D02*
X99166666Y-144447200D01*
X99166666Y-144447200D02*
X99023809Y-144494819D01*
X99023809Y-144494819D02*
X98785714Y-144494819D01*
X100309523Y-144494819D02*
X99738095Y-144494819D01*
X100023809Y-144494819D02*
X100023809Y-143494819D01*
X100023809Y-143494819D02*
X99928571Y-143637676D01*
X99928571Y-143637676D02*
X99833333Y-143732914D01*
X99833333Y-143732914D02*
X99738095Y-143780533D01*
X101166666Y-143828152D02*
X101166666Y-144494819D01*
X100928571Y-143447200D02*
X100690476Y-144161485D01*
X100690476Y-144161485D02*
X101309523Y-144161485D01*
X109704819Y-56883333D02*
X110419104Y-56883333D01*
X110419104Y-56883333D02*
X110561961Y-56930952D01*
X110561961Y-56930952D02*
X110657200Y-57026190D01*
X110657200Y-57026190D02*
X110704819Y-57169047D01*
X110704819Y-57169047D02*
X110704819Y-57264285D01*
X109704819Y-56502380D02*
X109704819Y-55883333D01*
X109704819Y-55883333D02*
X110085771Y-56216666D01*
X110085771Y-56216666D02*
X110085771Y-56073809D01*
X110085771Y-56073809D02*
X110133390Y-55978571D01*
X110133390Y-55978571D02*
X110181009Y-55930952D01*
X110181009Y-55930952D02*
X110276247Y-55883333D01*
X110276247Y-55883333D02*
X110514342Y-55883333D01*
X110514342Y-55883333D02*
X110609580Y-55930952D01*
X110609580Y-55930952D02*
X110657200Y-55978571D01*
X110657200Y-55978571D02*
X110704819Y-56073809D01*
X110704819Y-56073809D02*
X110704819Y-56359523D01*
X110704819Y-56359523D02*
X110657200Y-56454761D01*
X110657200Y-56454761D02*
X110609580Y-56502380D01*
X125333333Y-96359580D02*
X125285714Y-96407200D01*
X125285714Y-96407200D02*
X125142857Y-96454819D01*
X125142857Y-96454819D02*
X125047619Y-96454819D01*
X125047619Y-96454819D02*
X124904762Y-96407200D01*
X124904762Y-96407200D02*
X124809524Y-96311961D01*
X124809524Y-96311961D02*
X124761905Y-96216723D01*
X124761905Y-96216723D02*
X124714286Y-96026247D01*
X124714286Y-96026247D02*
X124714286Y-95883390D01*
X124714286Y-95883390D02*
X124761905Y-95692914D01*
X124761905Y-95692914D02*
X124809524Y-95597676D01*
X124809524Y-95597676D02*
X124904762Y-95502438D01*
X124904762Y-95502438D02*
X125047619Y-95454819D01*
X125047619Y-95454819D02*
X125142857Y-95454819D01*
X125142857Y-95454819D02*
X125285714Y-95502438D01*
X125285714Y-95502438D02*
X125333333Y-95550057D01*
X126190476Y-95454819D02*
X126000000Y-95454819D01*
X126000000Y-95454819D02*
X125904762Y-95502438D01*
X125904762Y-95502438D02*
X125857143Y-95550057D01*
X125857143Y-95550057D02*
X125761905Y-95692914D01*
X125761905Y-95692914D02*
X125714286Y-95883390D01*
X125714286Y-95883390D02*
X125714286Y-96264342D01*
X125714286Y-96264342D02*
X125761905Y-96359580D01*
X125761905Y-96359580D02*
X125809524Y-96407200D01*
X125809524Y-96407200D02*
X125904762Y-96454819D01*
X125904762Y-96454819D02*
X126095238Y-96454819D01*
X126095238Y-96454819D02*
X126190476Y-96407200D01*
X126190476Y-96407200D02*
X126238095Y-96359580D01*
X126238095Y-96359580D02*
X126285714Y-96264342D01*
X126285714Y-96264342D02*
X126285714Y-96026247D01*
X126285714Y-96026247D02*
X126238095Y-95931009D01*
X126238095Y-95931009D02*
X126190476Y-95883390D01*
X126190476Y-95883390D02*
X126095238Y-95835771D01*
X126095238Y-95835771D02*
X125904762Y-95835771D01*
X125904762Y-95835771D02*
X125809524Y-95883390D01*
X125809524Y-95883390D02*
X125761905Y-95931009D01*
X125761905Y-95931009D02*
X125714286Y-96026247D01*
X70042819Y-88269333D02*
X70757104Y-88269333D01*
X70757104Y-88269333D02*
X70899961Y-88316952D01*
X70899961Y-88316952D02*
X70995200Y-88412190D01*
X70995200Y-88412190D02*
X71042819Y-88555047D01*
X71042819Y-88555047D02*
X71042819Y-88650285D01*
X71042819Y-87745523D02*
X71042819Y-87555047D01*
X71042819Y-87555047D02*
X70995200Y-87459809D01*
X70995200Y-87459809D02*
X70947580Y-87412190D01*
X70947580Y-87412190D02*
X70804723Y-87316952D01*
X70804723Y-87316952D02*
X70614247Y-87269333D01*
X70614247Y-87269333D02*
X70233295Y-87269333D01*
X70233295Y-87269333D02*
X70138057Y-87316952D01*
X70138057Y-87316952D02*
X70090438Y-87364571D01*
X70090438Y-87364571D02*
X70042819Y-87459809D01*
X70042819Y-87459809D02*
X70042819Y-87650285D01*
X70042819Y-87650285D02*
X70090438Y-87745523D01*
X70090438Y-87745523D02*
X70138057Y-87793142D01*
X70138057Y-87793142D02*
X70233295Y-87840761D01*
X70233295Y-87840761D02*
X70471390Y-87840761D01*
X70471390Y-87840761D02*
X70566628Y-87793142D01*
X70566628Y-87793142D02*
X70614247Y-87745523D01*
X70614247Y-87745523D02*
X70661866Y-87650285D01*
X70661866Y-87650285D02*
X70661866Y-87459809D01*
X70661866Y-87459809D02*
X70614247Y-87364571D01*
X70614247Y-87364571D02*
X70566628Y-87316952D01*
X70566628Y-87316952D02*
X70471390Y-87269333D01*
X90084819Y-76642857D02*
X89608628Y-76976190D01*
X90084819Y-77214285D02*
X89084819Y-77214285D01*
X89084819Y-77214285D02*
X89084819Y-76833333D01*
X89084819Y-76833333D02*
X89132438Y-76738095D01*
X89132438Y-76738095D02*
X89180057Y-76690476D01*
X89180057Y-76690476D02*
X89275295Y-76642857D01*
X89275295Y-76642857D02*
X89418152Y-76642857D01*
X89418152Y-76642857D02*
X89513390Y-76690476D01*
X89513390Y-76690476D02*
X89561009Y-76738095D01*
X89561009Y-76738095D02*
X89608628Y-76833333D01*
X89608628Y-76833333D02*
X89608628Y-77214285D01*
X90084819Y-75690476D02*
X90084819Y-76261904D01*
X90084819Y-75976190D02*
X89084819Y-75976190D01*
X89084819Y-75976190D02*
X89227676Y-76071428D01*
X89227676Y-76071428D02*
X89322914Y-76166666D01*
X89322914Y-76166666D02*
X89370533Y-76261904D01*
X90084819Y-74738095D02*
X90084819Y-75309523D01*
X90084819Y-75023809D02*
X89084819Y-75023809D01*
X89084819Y-75023809D02*
X89227676Y-75119047D01*
X89227676Y-75119047D02*
X89322914Y-75214285D01*
X89322914Y-75214285D02*
X89370533Y-75309523D01*
X75123569Y-92642857D02*
X74647378Y-92976190D01*
X75123569Y-93214285D02*
X74123569Y-93214285D01*
X74123569Y-93214285D02*
X74123569Y-92833333D01*
X74123569Y-92833333D02*
X74171188Y-92738095D01*
X74171188Y-92738095D02*
X74218807Y-92690476D01*
X74218807Y-92690476D02*
X74314045Y-92642857D01*
X74314045Y-92642857D02*
X74456902Y-92642857D01*
X74456902Y-92642857D02*
X74552140Y-92690476D01*
X74552140Y-92690476D02*
X74599759Y-92738095D01*
X74599759Y-92738095D02*
X74647378Y-92833333D01*
X74647378Y-92833333D02*
X74647378Y-93214285D01*
X75123569Y-91690476D02*
X75123569Y-92261904D01*
X75123569Y-91976190D02*
X74123569Y-91976190D01*
X74123569Y-91976190D02*
X74266426Y-92071428D01*
X74266426Y-92071428D02*
X74361664Y-92166666D01*
X74361664Y-92166666D02*
X74409283Y-92261904D01*
X74218807Y-91309523D02*
X74171188Y-91261904D01*
X74171188Y-91261904D02*
X74123569Y-91166666D01*
X74123569Y-91166666D02*
X74123569Y-90928571D01*
X74123569Y-90928571D02*
X74171188Y-90833333D01*
X74171188Y-90833333D02*
X74218807Y-90785714D01*
X74218807Y-90785714D02*
X74314045Y-90738095D01*
X74314045Y-90738095D02*
X74409283Y-90738095D01*
X74409283Y-90738095D02*
X74552140Y-90785714D01*
X74552140Y-90785714D02*
X75123569Y-91357142D01*
X75123569Y-91357142D02*
X75123569Y-90738095D01*
X64107142Y-103074819D02*
X63773809Y-102598628D01*
X63535714Y-103074819D02*
X63535714Y-102074819D01*
X63535714Y-102074819D02*
X63916666Y-102074819D01*
X63916666Y-102074819D02*
X64011904Y-102122438D01*
X64011904Y-102122438D02*
X64059523Y-102170057D01*
X64059523Y-102170057D02*
X64107142Y-102265295D01*
X64107142Y-102265295D02*
X64107142Y-102408152D01*
X64107142Y-102408152D02*
X64059523Y-102503390D01*
X64059523Y-102503390D02*
X64011904Y-102551009D01*
X64011904Y-102551009D02*
X63916666Y-102598628D01*
X63916666Y-102598628D02*
X63535714Y-102598628D01*
X64488095Y-102170057D02*
X64535714Y-102122438D01*
X64535714Y-102122438D02*
X64630952Y-102074819D01*
X64630952Y-102074819D02*
X64869047Y-102074819D01*
X64869047Y-102074819D02*
X64964285Y-102122438D01*
X64964285Y-102122438D02*
X65011904Y-102170057D01*
X65011904Y-102170057D02*
X65059523Y-102265295D01*
X65059523Y-102265295D02*
X65059523Y-102360533D01*
X65059523Y-102360533D02*
X65011904Y-102503390D01*
X65011904Y-102503390D02*
X64440476Y-103074819D01*
X64440476Y-103074819D02*
X65059523Y-103074819D01*
X65392857Y-102074819D02*
X66011904Y-102074819D01*
X66011904Y-102074819D02*
X65678571Y-102455771D01*
X65678571Y-102455771D02*
X65821428Y-102455771D01*
X65821428Y-102455771D02*
X65916666Y-102503390D01*
X65916666Y-102503390D02*
X65964285Y-102551009D01*
X65964285Y-102551009D02*
X66011904Y-102646247D01*
X66011904Y-102646247D02*
X66011904Y-102884342D01*
X66011904Y-102884342D02*
X65964285Y-102979580D01*
X65964285Y-102979580D02*
X65916666Y-103027200D01*
X65916666Y-103027200D02*
X65821428Y-103074819D01*
X65821428Y-103074819D02*
X65535714Y-103074819D01*
X65535714Y-103074819D02*
X65440476Y-103027200D01*
X65440476Y-103027200D02*
X65392857Y-102979580D01*
X144084819Y-82666666D02*
X143608628Y-82999999D01*
X144084819Y-83238094D02*
X143084819Y-83238094D01*
X143084819Y-83238094D02*
X143084819Y-82857142D01*
X143084819Y-82857142D02*
X143132438Y-82761904D01*
X143132438Y-82761904D02*
X143180057Y-82714285D01*
X143180057Y-82714285D02*
X143275295Y-82666666D01*
X143275295Y-82666666D02*
X143418152Y-82666666D01*
X143418152Y-82666666D02*
X143513390Y-82714285D01*
X143513390Y-82714285D02*
X143561009Y-82761904D01*
X143561009Y-82761904D02*
X143608628Y-82857142D01*
X143608628Y-82857142D02*
X143608628Y-83238094D01*
X143084819Y-82333332D02*
X143084819Y-81666666D01*
X143084819Y-81666666D02*
X144084819Y-82095237D01*
X83087261Y-95750057D02*
X82992023Y-95702438D01*
X82992023Y-95702438D02*
X82896785Y-95607200D01*
X82896785Y-95607200D02*
X82753928Y-95464342D01*
X82753928Y-95464342D02*
X82658690Y-95416723D01*
X82658690Y-95416723D02*
X82563452Y-95416723D01*
X82611071Y-95654819D02*
X82515833Y-95607200D01*
X82515833Y-95607200D02*
X82420595Y-95511961D01*
X82420595Y-95511961D02*
X82372976Y-95321485D01*
X82372976Y-95321485D02*
X82372976Y-94988152D01*
X82372976Y-94988152D02*
X82420595Y-94797676D01*
X82420595Y-94797676D02*
X82515833Y-94702438D01*
X82515833Y-94702438D02*
X82611071Y-94654819D01*
X82611071Y-94654819D02*
X82801547Y-94654819D01*
X82801547Y-94654819D02*
X82896785Y-94702438D01*
X82896785Y-94702438D02*
X82992023Y-94797676D01*
X82992023Y-94797676D02*
X83039642Y-94988152D01*
X83039642Y-94988152D02*
X83039642Y-95321485D01*
X83039642Y-95321485D02*
X82992023Y-95511961D01*
X82992023Y-95511961D02*
X82896785Y-95607200D01*
X82896785Y-95607200D02*
X82801547Y-95654819D01*
X82801547Y-95654819D02*
X82611071Y-95654819D01*
X83372976Y-94654819D02*
X83992023Y-94654819D01*
X83992023Y-94654819D02*
X83658690Y-95035771D01*
X83658690Y-95035771D02*
X83801547Y-95035771D01*
X83801547Y-95035771D02*
X83896785Y-95083390D01*
X83896785Y-95083390D02*
X83944404Y-95131009D01*
X83944404Y-95131009D02*
X83992023Y-95226247D01*
X83992023Y-95226247D02*
X83992023Y-95464342D01*
X83992023Y-95464342D02*
X83944404Y-95559580D01*
X83944404Y-95559580D02*
X83896785Y-95607200D01*
X83896785Y-95607200D02*
X83801547Y-95654819D01*
X83801547Y-95654819D02*
X83515833Y-95654819D01*
X83515833Y-95654819D02*
X83420595Y-95607200D01*
X83420595Y-95607200D02*
X83372976Y-95559580D01*
X98825971Y-80417738D02*
X98825971Y-79417738D01*
X98825971Y-79417738D02*
X99064066Y-79417738D01*
X99064066Y-79417738D02*
X99206923Y-79465357D01*
X99206923Y-79465357D02*
X99302161Y-79560595D01*
X99302161Y-79560595D02*
X99349780Y-79655833D01*
X99349780Y-79655833D02*
X99397399Y-79846309D01*
X99397399Y-79846309D02*
X99397399Y-79989166D01*
X99397399Y-79989166D02*
X99349780Y-80179642D01*
X99349780Y-80179642D02*
X99302161Y-80274880D01*
X99302161Y-80274880D02*
X99206923Y-80370119D01*
X99206923Y-80370119D02*
X99064066Y-80417738D01*
X99064066Y-80417738D02*
X98825971Y-80417738D01*
X100349780Y-80417738D02*
X99778352Y-80417738D01*
X100064066Y-80417738D02*
X100064066Y-79417738D01*
X100064066Y-79417738D02*
X99968828Y-79560595D01*
X99968828Y-79560595D02*
X99873590Y-79655833D01*
X99873590Y-79655833D02*
X99778352Y-79703452D01*
X100968828Y-79417738D02*
X101064066Y-79417738D01*
X101064066Y-79417738D02*
X101159304Y-79465357D01*
X101159304Y-79465357D02*
X101206923Y-79512976D01*
X101206923Y-79512976D02*
X101254542Y-79608214D01*
X101254542Y-79608214D02*
X101302161Y-79798690D01*
X101302161Y-79798690D02*
X101302161Y-80036785D01*
X101302161Y-80036785D02*
X101254542Y-80227261D01*
X101254542Y-80227261D02*
X101206923Y-80322499D01*
X101206923Y-80322499D02*
X101159304Y-80370119D01*
X101159304Y-80370119D02*
X101064066Y-80417738D01*
X101064066Y-80417738D02*
X100968828Y-80417738D01*
X100968828Y-80417738D02*
X100873590Y-80370119D01*
X100873590Y-80370119D02*
X100825971Y-80322499D01*
X100825971Y-80322499D02*
X100778352Y-80227261D01*
X100778352Y-80227261D02*
X100730733Y-80036785D01*
X100730733Y-80036785D02*
X100730733Y-79798690D01*
X100730733Y-79798690D02*
X100778352Y-79608214D01*
X100778352Y-79608214D02*
X100825971Y-79512976D01*
X100825971Y-79512976D02*
X100873590Y-79465357D01*
X100873590Y-79465357D02*
X100968828Y-79417738D01*
X148924819Y-120238094D02*
X147924819Y-120238094D01*
X147924819Y-120238094D02*
X147924819Y-119999999D01*
X147924819Y-119999999D02*
X147972438Y-119857142D01*
X147972438Y-119857142D02*
X148067676Y-119761904D01*
X148067676Y-119761904D02*
X148162914Y-119714285D01*
X148162914Y-119714285D02*
X148353390Y-119666666D01*
X148353390Y-119666666D02*
X148496247Y-119666666D01*
X148496247Y-119666666D02*
X148686723Y-119714285D01*
X148686723Y-119714285D02*
X148781961Y-119761904D01*
X148781961Y-119761904D02*
X148877200Y-119857142D01*
X148877200Y-119857142D02*
X148924819Y-119999999D01*
X148924819Y-119999999D02*
X148924819Y-120238094D01*
X147924819Y-118809523D02*
X147924819Y-118999999D01*
X147924819Y-118999999D02*
X147972438Y-119095237D01*
X147972438Y-119095237D02*
X148020057Y-119142856D01*
X148020057Y-119142856D02*
X148162914Y-119238094D01*
X148162914Y-119238094D02*
X148353390Y-119285713D01*
X148353390Y-119285713D02*
X148734342Y-119285713D01*
X148734342Y-119285713D02*
X148829580Y-119238094D01*
X148829580Y-119238094D02*
X148877200Y-119190475D01*
X148877200Y-119190475D02*
X148924819Y-119095237D01*
X148924819Y-119095237D02*
X148924819Y-118904761D01*
X148924819Y-118904761D02*
X148877200Y-118809523D01*
X148877200Y-118809523D02*
X148829580Y-118761904D01*
X148829580Y-118761904D02*
X148734342Y-118714285D01*
X148734342Y-118714285D02*
X148496247Y-118714285D01*
X148496247Y-118714285D02*
X148401009Y-118761904D01*
X148401009Y-118761904D02*
X148353390Y-118809523D01*
X148353390Y-118809523D02*
X148305771Y-118904761D01*
X148305771Y-118904761D02*
X148305771Y-119095237D01*
X148305771Y-119095237D02*
X148353390Y-119190475D01*
X148353390Y-119190475D02*
X148401009Y-119238094D01*
X148401009Y-119238094D02*
X148496247Y-119285713D01*
X148554819Y-114681904D02*
X147554819Y-114681904D01*
X148554819Y-114110476D02*
X147983390Y-114539047D01*
X147554819Y-114110476D02*
X148126247Y-114681904D01*
X63607142Y-70824819D02*
X63273809Y-70348628D01*
X63035714Y-70824819D02*
X63035714Y-69824819D01*
X63035714Y-69824819D02*
X63416666Y-69824819D01*
X63416666Y-69824819D02*
X63511904Y-69872438D01*
X63511904Y-69872438D02*
X63559523Y-69920057D01*
X63559523Y-69920057D02*
X63607142Y-70015295D01*
X63607142Y-70015295D02*
X63607142Y-70158152D01*
X63607142Y-70158152D02*
X63559523Y-70253390D01*
X63559523Y-70253390D02*
X63511904Y-70301009D01*
X63511904Y-70301009D02*
X63416666Y-70348628D01*
X63416666Y-70348628D02*
X63035714Y-70348628D01*
X63988095Y-69920057D02*
X64035714Y-69872438D01*
X64035714Y-69872438D02*
X64130952Y-69824819D01*
X64130952Y-69824819D02*
X64369047Y-69824819D01*
X64369047Y-69824819D02*
X64464285Y-69872438D01*
X64464285Y-69872438D02*
X64511904Y-69920057D01*
X64511904Y-69920057D02*
X64559523Y-70015295D01*
X64559523Y-70015295D02*
X64559523Y-70110533D01*
X64559523Y-70110533D02*
X64511904Y-70253390D01*
X64511904Y-70253390D02*
X63940476Y-70824819D01*
X63940476Y-70824819D02*
X64559523Y-70824819D01*
X65511904Y-70824819D02*
X64940476Y-70824819D01*
X65226190Y-70824819D02*
X65226190Y-69824819D01*
X65226190Y-69824819D02*
X65130952Y-69967676D01*
X65130952Y-69967676D02*
X65035714Y-70062914D01*
X65035714Y-70062914D02*
X64940476Y-70110533D01*
X146074819Y-134892857D02*
X145598628Y-135226190D01*
X146074819Y-135464285D02*
X145074819Y-135464285D01*
X145074819Y-135464285D02*
X145074819Y-135083333D01*
X145074819Y-135083333D02*
X145122438Y-134988095D01*
X145122438Y-134988095D02*
X145170057Y-134940476D01*
X145170057Y-134940476D02*
X145265295Y-134892857D01*
X145265295Y-134892857D02*
X145408152Y-134892857D01*
X145408152Y-134892857D02*
X145503390Y-134940476D01*
X145503390Y-134940476D02*
X145551009Y-134988095D01*
X145551009Y-134988095D02*
X145598628Y-135083333D01*
X145598628Y-135083333D02*
X145598628Y-135464285D01*
X145170057Y-134511904D02*
X145122438Y-134464285D01*
X145122438Y-134464285D02*
X145074819Y-134369047D01*
X145074819Y-134369047D02*
X145074819Y-134130952D01*
X145074819Y-134130952D02*
X145122438Y-134035714D01*
X145122438Y-134035714D02*
X145170057Y-133988095D01*
X145170057Y-133988095D02*
X145265295Y-133940476D01*
X145265295Y-133940476D02*
X145360533Y-133940476D01*
X145360533Y-133940476D02*
X145503390Y-133988095D01*
X145503390Y-133988095D02*
X146074819Y-134559523D01*
X146074819Y-134559523D02*
X146074819Y-133940476D01*
X145074819Y-133321428D02*
X145074819Y-133226190D01*
X145074819Y-133226190D02*
X145122438Y-133130952D01*
X145122438Y-133130952D02*
X145170057Y-133083333D01*
X145170057Y-133083333D02*
X145265295Y-133035714D01*
X145265295Y-133035714D02*
X145455771Y-132988095D01*
X145455771Y-132988095D02*
X145693866Y-132988095D01*
X145693866Y-132988095D02*
X145884342Y-133035714D01*
X145884342Y-133035714D02*
X145979580Y-133083333D01*
X145979580Y-133083333D02*
X146027200Y-133130952D01*
X146027200Y-133130952D02*
X146074819Y-133226190D01*
X146074819Y-133226190D02*
X146074819Y-133321428D01*
X146074819Y-133321428D02*
X146027200Y-133416666D01*
X146027200Y-133416666D02*
X145979580Y-133464285D01*
X145979580Y-133464285D02*
X145884342Y-133511904D01*
X145884342Y-133511904D02*
X145693866Y-133559523D01*
X145693866Y-133559523D02*
X145455771Y-133559523D01*
X145455771Y-133559523D02*
X145265295Y-133511904D01*
X145265295Y-133511904D02*
X145170057Y-133464285D01*
X145170057Y-133464285D02*
X145122438Y-133416666D01*
X145122438Y-133416666D02*
X145074819Y-133321428D01*
X75084819Y-124642857D02*
X74608628Y-124976190D01*
X75084819Y-125214285D02*
X74084819Y-125214285D01*
X74084819Y-125214285D02*
X74084819Y-124833333D01*
X74084819Y-124833333D02*
X74132438Y-124738095D01*
X74132438Y-124738095D02*
X74180057Y-124690476D01*
X74180057Y-124690476D02*
X74275295Y-124642857D01*
X74275295Y-124642857D02*
X74418152Y-124642857D01*
X74418152Y-124642857D02*
X74513390Y-124690476D01*
X74513390Y-124690476D02*
X74561009Y-124738095D01*
X74561009Y-124738095D02*
X74608628Y-124833333D01*
X74608628Y-124833333D02*
X74608628Y-125214285D01*
X75084819Y-123690476D02*
X75084819Y-124261904D01*
X75084819Y-123976190D02*
X74084819Y-123976190D01*
X74084819Y-123976190D02*
X74227676Y-124071428D01*
X74227676Y-124071428D02*
X74322914Y-124166666D01*
X74322914Y-124166666D02*
X74370533Y-124261904D01*
X74084819Y-122833333D02*
X74084819Y-123023809D01*
X74084819Y-123023809D02*
X74132438Y-123119047D01*
X74132438Y-123119047D02*
X74180057Y-123166666D01*
X74180057Y-123166666D02*
X74322914Y-123261904D01*
X74322914Y-123261904D02*
X74513390Y-123309523D01*
X74513390Y-123309523D02*
X74894342Y-123309523D01*
X74894342Y-123309523D02*
X74989580Y-123261904D01*
X74989580Y-123261904D02*
X75037200Y-123214285D01*
X75037200Y-123214285D02*
X75084819Y-123119047D01*
X75084819Y-123119047D02*
X75084819Y-122928571D01*
X75084819Y-122928571D02*
X75037200Y-122833333D01*
X75037200Y-122833333D02*
X74989580Y-122785714D01*
X74989580Y-122785714D02*
X74894342Y-122738095D01*
X74894342Y-122738095D02*
X74656247Y-122738095D01*
X74656247Y-122738095D02*
X74561009Y-122785714D01*
X74561009Y-122785714D02*
X74513390Y-122833333D01*
X74513390Y-122833333D02*
X74465771Y-122928571D01*
X74465771Y-122928571D02*
X74465771Y-123119047D01*
X74465771Y-123119047D02*
X74513390Y-123214285D01*
X74513390Y-123214285D02*
X74561009Y-123261904D01*
X74561009Y-123261904D02*
X74656247Y-123309523D01*
X63777142Y-86574819D02*
X63443809Y-86098628D01*
X63205714Y-86574819D02*
X63205714Y-85574819D01*
X63205714Y-85574819D02*
X63586666Y-85574819D01*
X63586666Y-85574819D02*
X63681904Y-85622438D01*
X63681904Y-85622438D02*
X63729523Y-85670057D01*
X63729523Y-85670057D02*
X63777142Y-85765295D01*
X63777142Y-85765295D02*
X63777142Y-85908152D01*
X63777142Y-85908152D02*
X63729523Y-86003390D01*
X63729523Y-86003390D02*
X63681904Y-86051009D01*
X63681904Y-86051009D02*
X63586666Y-86098628D01*
X63586666Y-86098628D02*
X63205714Y-86098628D01*
X64158095Y-85670057D02*
X64205714Y-85622438D01*
X64205714Y-85622438D02*
X64300952Y-85574819D01*
X64300952Y-85574819D02*
X64539047Y-85574819D01*
X64539047Y-85574819D02*
X64634285Y-85622438D01*
X64634285Y-85622438D02*
X64681904Y-85670057D01*
X64681904Y-85670057D02*
X64729523Y-85765295D01*
X64729523Y-85765295D02*
X64729523Y-85860533D01*
X64729523Y-85860533D02*
X64681904Y-86003390D01*
X64681904Y-86003390D02*
X64110476Y-86574819D01*
X64110476Y-86574819D02*
X64729523Y-86574819D01*
X65110476Y-85670057D02*
X65158095Y-85622438D01*
X65158095Y-85622438D02*
X65253333Y-85574819D01*
X65253333Y-85574819D02*
X65491428Y-85574819D01*
X65491428Y-85574819D02*
X65586666Y-85622438D01*
X65586666Y-85622438D02*
X65634285Y-85670057D01*
X65634285Y-85670057D02*
X65681904Y-85765295D01*
X65681904Y-85765295D02*
X65681904Y-85860533D01*
X65681904Y-85860533D02*
X65634285Y-86003390D01*
X65634285Y-86003390D02*
X65062857Y-86574819D01*
X65062857Y-86574819D02*
X65681904Y-86574819D01*
X70042819Y-136825523D02*
X70757104Y-136825523D01*
X70757104Y-136825523D02*
X70899961Y-136873142D01*
X70899961Y-136873142D02*
X70995200Y-136968380D01*
X70995200Y-136968380D02*
X71042819Y-137111237D01*
X71042819Y-137111237D02*
X71042819Y-137206475D01*
X71042819Y-135825523D02*
X71042819Y-136396951D01*
X71042819Y-136111237D02*
X70042819Y-136111237D01*
X70042819Y-136111237D02*
X70185676Y-136206475D01*
X70185676Y-136206475D02*
X70280914Y-136301713D01*
X70280914Y-136301713D02*
X70328533Y-136396951D01*
X70138057Y-135444570D02*
X70090438Y-135396951D01*
X70090438Y-135396951D02*
X70042819Y-135301713D01*
X70042819Y-135301713D02*
X70042819Y-135063618D01*
X70042819Y-135063618D02*
X70090438Y-134968380D01*
X70090438Y-134968380D02*
X70138057Y-134920761D01*
X70138057Y-134920761D02*
X70233295Y-134873142D01*
X70233295Y-134873142D02*
X70328533Y-134873142D01*
X70328533Y-134873142D02*
X70471390Y-134920761D01*
X70471390Y-134920761D02*
X71042819Y-135492189D01*
X71042819Y-135492189D02*
X71042819Y-134873142D01*
X90296069Y-60166666D02*
X89819878Y-60499999D01*
X90296069Y-60738094D02*
X89296069Y-60738094D01*
X89296069Y-60738094D02*
X89296069Y-60357142D01*
X89296069Y-60357142D02*
X89343688Y-60261904D01*
X89343688Y-60261904D02*
X89391307Y-60214285D01*
X89391307Y-60214285D02*
X89486545Y-60166666D01*
X89486545Y-60166666D02*
X89629402Y-60166666D01*
X89629402Y-60166666D02*
X89724640Y-60214285D01*
X89724640Y-60214285D02*
X89772259Y-60261904D01*
X89772259Y-60261904D02*
X89819878Y-60357142D01*
X89819878Y-60357142D02*
X89819878Y-60738094D01*
X90296069Y-59690475D02*
X90296069Y-59499999D01*
X90296069Y-59499999D02*
X90248450Y-59404761D01*
X90248450Y-59404761D02*
X90200830Y-59357142D01*
X90200830Y-59357142D02*
X90057973Y-59261904D01*
X90057973Y-59261904D02*
X89867497Y-59214285D01*
X89867497Y-59214285D02*
X89486545Y-59214285D01*
X89486545Y-59214285D02*
X89391307Y-59261904D01*
X89391307Y-59261904D02*
X89343688Y-59309523D01*
X89343688Y-59309523D02*
X89296069Y-59404761D01*
X89296069Y-59404761D02*
X89296069Y-59595237D01*
X89296069Y-59595237D02*
X89343688Y-59690475D01*
X89343688Y-59690475D02*
X89391307Y-59738094D01*
X89391307Y-59738094D02*
X89486545Y-59785713D01*
X89486545Y-59785713D02*
X89724640Y-59785713D01*
X89724640Y-59785713D02*
X89819878Y-59738094D01*
X89819878Y-59738094D02*
X89867497Y-59690475D01*
X89867497Y-59690475D02*
X89915116Y-59595237D01*
X89915116Y-59595237D02*
X89915116Y-59404761D01*
X89915116Y-59404761D02*
X89867497Y-59309523D01*
X89867497Y-59309523D02*
X89819878Y-59261904D01*
X89819878Y-59261904D02*
X89724640Y-59214285D01*
X125360734Y-83109580D02*
X125313115Y-83157200D01*
X125313115Y-83157200D02*
X125170258Y-83204819D01*
X125170258Y-83204819D02*
X125075020Y-83204819D01*
X125075020Y-83204819D02*
X124932163Y-83157200D01*
X124932163Y-83157200D02*
X124836925Y-83061961D01*
X124836925Y-83061961D02*
X124789306Y-82966723D01*
X124789306Y-82966723D02*
X124741687Y-82776247D01*
X124741687Y-82776247D02*
X124741687Y-82633390D01*
X124741687Y-82633390D02*
X124789306Y-82442914D01*
X124789306Y-82442914D02*
X124836925Y-82347676D01*
X124836925Y-82347676D02*
X124932163Y-82252438D01*
X124932163Y-82252438D02*
X125075020Y-82204819D01*
X125075020Y-82204819D02*
X125170258Y-82204819D01*
X125170258Y-82204819D02*
X125313115Y-82252438D01*
X125313115Y-82252438D02*
X125360734Y-82300057D01*
X126265496Y-82204819D02*
X125789306Y-82204819D01*
X125789306Y-82204819D02*
X125741687Y-82681009D01*
X125741687Y-82681009D02*
X125789306Y-82633390D01*
X125789306Y-82633390D02*
X125884544Y-82585771D01*
X125884544Y-82585771D02*
X126122639Y-82585771D01*
X126122639Y-82585771D02*
X126217877Y-82633390D01*
X126217877Y-82633390D02*
X126265496Y-82681009D01*
X126265496Y-82681009D02*
X126313115Y-82776247D01*
X126313115Y-82776247D02*
X126313115Y-83014342D01*
X126313115Y-83014342D02*
X126265496Y-83109580D01*
X126265496Y-83109580D02*
X126217877Y-83157200D01*
X126217877Y-83157200D02*
X126122639Y-83204819D01*
X126122639Y-83204819D02*
X125884544Y-83204819D01*
X125884544Y-83204819D02*
X125789306Y-83157200D01*
X125789306Y-83157200D02*
X125741687Y-83109580D01*
X115428095Y-87384819D02*
X115428095Y-88194342D01*
X115428095Y-88194342D02*
X115475714Y-88289580D01*
X115475714Y-88289580D02*
X115523333Y-88337200D01*
X115523333Y-88337200D02*
X115618571Y-88384819D01*
X115618571Y-88384819D02*
X115809047Y-88384819D01*
X115809047Y-88384819D02*
X115904285Y-88337200D01*
X115904285Y-88337200D02*
X115951904Y-88289580D01*
X115951904Y-88289580D02*
X115999523Y-88194342D01*
X115999523Y-88194342D02*
X115999523Y-87384819D01*
X116999523Y-88384819D02*
X116428095Y-88384819D01*
X116713809Y-88384819D02*
X116713809Y-87384819D01*
X116713809Y-87384819D02*
X116618571Y-87527676D01*
X116618571Y-87527676D02*
X116523333Y-87622914D01*
X116523333Y-87622914D02*
X116428095Y-87670533D01*
X75182319Y-76642857D02*
X74706128Y-76976190D01*
X75182319Y-77214285D02*
X74182319Y-77214285D01*
X74182319Y-77214285D02*
X74182319Y-76833333D01*
X74182319Y-76833333D02*
X74229938Y-76738095D01*
X74229938Y-76738095D02*
X74277557Y-76690476D01*
X74277557Y-76690476D02*
X74372795Y-76642857D01*
X74372795Y-76642857D02*
X74515652Y-76642857D01*
X74515652Y-76642857D02*
X74610890Y-76690476D01*
X74610890Y-76690476D02*
X74658509Y-76738095D01*
X74658509Y-76738095D02*
X74706128Y-76833333D01*
X74706128Y-76833333D02*
X74706128Y-77214285D01*
X75182319Y-75690476D02*
X75182319Y-76261904D01*
X75182319Y-75976190D02*
X74182319Y-75976190D01*
X74182319Y-75976190D02*
X74325176Y-76071428D01*
X74325176Y-76071428D02*
X74420414Y-76166666D01*
X74420414Y-76166666D02*
X74468033Y-76261904D01*
X74182319Y-75071428D02*
X74182319Y-74976190D01*
X74182319Y-74976190D02*
X74229938Y-74880952D01*
X74229938Y-74880952D02*
X74277557Y-74833333D01*
X74277557Y-74833333D02*
X74372795Y-74785714D01*
X74372795Y-74785714D02*
X74563271Y-74738095D01*
X74563271Y-74738095D02*
X74801366Y-74738095D01*
X74801366Y-74738095D02*
X74991842Y-74785714D01*
X74991842Y-74785714D02*
X75087080Y-74833333D01*
X75087080Y-74833333D02*
X75134700Y-74880952D01*
X75134700Y-74880952D02*
X75182319Y-74976190D01*
X75182319Y-74976190D02*
X75182319Y-75071428D01*
X75182319Y-75071428D02*
X75134700Y-75166666D01*
X75134700Y-75166666D02*
X75087080Y-75214285D01*
X75087080Y-75214285D02*
X74991842Y-75261904D01*
X74991842Y-75261904D02*
X74801366Y-75309523D01*
X74801366Y-75309523D02*
X74563271Y-75309523D01*
X74563271Y-75309523D02*
X74372795Y-75261904D01*
X74372795Y-75261904D02*
X74277557Y-75214285D01*
X74277557Y-75214285D02*
X74229938Y-75166666D01*
X74229938Y-75166666D02*
X74182319Y-75071428D01*
X134766905Y-103414819D02*
X134766905Y-102414819D01*
X134766905Y-102414819D02*
X135005000Y-102414819D01*
X135005000Y-102414819D02*
X135147857Y-102462438D01*
X135147857Y-102462438D02*
X135243095Y-102557676D01*
X135243095Y-102557676D02*
X135290714Y-102652914D01*
X135290714Y-102652914D02*
X135338333Y-102843390D01*
X135338333Y-102843390D02*
X135338333Y-102986247D01*
X135338333Y-102986247D02*
X135290714Y-103176723D01*
X135290714Y-103176723D02*
X135243095Y-103271961D01*
X135243095Y-103271961D02*
X135147857Y-103367200D01*
X135147857Y-103367200D02*
X135005000Y-103414819D01*
X135005000Y-103414819D02*
X134766905Y-103414819D01*
X135909762Y-102843390D02*
X135814524Y-102795771D01*
X135814524Y-102795771D02*
X135766905Y-102748152D01*
X135766905Y-102748152D02*
X135719286Y-102652914D01*
X135719286Y-102652914D02*
X135719286Y-102605295D01*
X135719286Y-102605295D02*
X135766905Y-102510057D01*
X135766905Y-102510057D02*
X135814524Y-102462438D01*
X135814524Y-102462438D02*
X135909762Y-102414819D01*
X135909762Y-102414819D02*
X136100238Y-102414819D01*
X136100238Y-102414819D02*
X136195476Y-102462438D01*
X136195476Y-102462438D02*
X136243095Y-102510057D01*
X136243095Y-102510057D02*
X136290714Y-102605295D01*
X136290714Y-102605295D02*
X136290714Y-102652914D01*
X136290714Y-102652914D02*
X136243095Y-102748152D01*
X136243095Y-102748152D02*
X136195476Y-102795771D01*
X136195476Y-102795771D02*
X136100238Y-102843390D01*
X136100238Y-102843390D02*
X135909762Y-102843390D01*
X135909762Y-102843390D02*
X135814524Y-102891009D01*
X135814524Y-102891009D02*
X135766905Y-102938628D01*
X135766905Y-102938628D02*
X135719286Y-103033866D01*
X135719286Y-103033866D02*
X135719286Y-103224342D01*
X135719286Y-103224342D02*
X135766905Y-103319580D01*
X135766905Y-103319580D02*
X135814524Y-103367200D01*
X135814524Y-103367200D02*
X135909762Y-103414819D01*
X135909762Y-103414819D02*
X136100238Y-103414819D01*
X136100238Y-103414819D02*
X136195476Y-103367200D01*
X136195476Y-103367200D02*
X136243095Y-103319580D01*
X136243095Y-103319580D02*
X136290714Y-103224342D01*
X136290714Y-103224342D02*
X136290714Y-103033866D01*
X136290714Y-103033866D02*
X136243095Y-102938628D01*
X136243095Y-102938628D02*
X136195476Y-102891009D01*
X136195476Y-102891009D02*
X136100238Y-102843390D01*
X99055714Y-128414819D02*
X99055714Y-127414819D01*
X99055714Y-127414819D02*
X99293809Y-127414819D01*
X99293809Y-127414819D02*
X99436666Y-127462438D01*
X99436666Y-127462438D02*
X99531904Y-127557676D01*
X99531904Y-127557676D02*
X99579523Y-127652914D01*
X99579523Y-127652914D02*
X99627142Y-127843390D01*
X99627142Y-127843390D02*
X99627142Y-127986247D01*
X99627142Y-127986247D02*
X99579523Y-128176723D01*
X99579523Y-128176723D02*
X99531904Y-128271961D01*
X99531904Y-128271961D02*
X99436666Y-128367200D01*
X99436666Y-128367200D02*
X99293809Y-128414819D01*
X99293809Y-128414819D02*
X99055714Y-128414819D01*
X100579523Y-128414819D02*
X100008095Y-128414819D01*
X100293809Y-128414819D02*
X100293809Y-127414819D01*
X100293809Y-127414819D02*
X100198571Y-127557676D01*
X100198571Y-127557676D02*
X100103333Y-127652914D01*
X100103333Y-127652914D02*
X100008095Y-127700533D01*
X100912857Y-127414819D02*
X101531904Y-127414819D01*
X101531904Y-127414819D02*
X101198571Y-127795771D01*
X101198571Y-127795771D02*
X101341428Y-127795771D01*
X101341428Y-127795771D02*
X101436666Y-127843390D01*
X101436666Y-127843390D02*
X101484285Y-127891009D01*
X101484285Y-127891009D02*
X101531904Y-127986247D01*
X101531904Y-127986247D02*
X101531904Y-128224342D01*
X101531904Y-128224342D02*
X101484285Y-128319580D01*
X101484285Y-128319580D02*
X101436666Y-128367200D01*
X101436666Y-128367200D02*
X101341428Y-128414819D01*
X101341428Y-128414819D02*
X101055714Y-128414819D01*
X101055714Y-128414819D02*
X100960476Y-128367200D01*
X100960476Y-128367200D02*
X100912857Y-128319580D01*
X131102666Y-133866819D02*
X131102666Y-134581104D01*
X131102666Y-134581104D02*
X131055047Y-134723961D01*
X131055047Y-134723961D02*
X130959809Y-134819200D01*
X130959809Y-134819200D02*
X130816952Y-134866819D01*
X130816952Y-134866819D02*
X130721714Y-134866819D01*
X132007428Y-133866819D02*
X131816952Y-133866819D01*
X131816952Y-133866819D02*
X131721714Y-133914438D01*
X131721714Y-133914438D02*
X131674095Y-133962057D01*
X131674095Y-133962057D02*
X131578857Y-134104914D01*
X131578857Y-134104914D02*
X131531238Y-134295390D01*
X131531238Y-134295390D02*
X131531238Y-134676342D01*
X131531238Y-134676342D02*
X131578857Y-134771580D01*
X131578857Y-134771580D02*
X131626476Y-134819200D01*
X131626476Y-134819200D02*
X131721714Y-134866819D01*
X131721714Y-134866819D02*
X131912190Y-134866819D01*
X131912190Y-134866819D02*
X132007428Y-134819200D01*
X132007428Y-134819200D02*
X132055047Y-134771580D01*
X132055047Y-134771580D02*
X132102666Y-134676342D01*
X132102666Y-134676342D02*
X132102666Y-134438247D01*
X132102666Y-134438247D02*
X132055047Y-134343009D01*
X132055047Y-134343009D02*
X132007428Y-134295390D01*
X132007428Y-134295390D02*
X131912190Y-134247771D01*
X131912190Y-134247771D02*
X131721714Y-134247771D01*
X131721714Y-134247771D02*
X131626476Y-134295390D01*
X131626476Y-134295390D02*
X131578857Y-134343009D01*
X131578857Y-134343009D02*
X131531238Y-134438247D01*
X99491905Y-64414819D02*
X99491905Y-63414819D01*
X99491905Y-63414819D02*
X99730000Y-63414819D01*
X99730000Y-63414819D02*
X99872857Y-63462438D01*
X99872857Y-63462438D02*
X99968095Y-63557676D01*
X99968095Y-63557676D02*
X100015714Y-63652914D01*
X100015714Y-63652914D02*
X100063333Y-63843390D01*
X100063333Y-63843390D02*
X100063333Y-63986247D01*
X100063333Y-63986247D02*
X100015714Y-64176723D01*
X100015714Y-64176723D02*
X99968095Y-64271961D01*
X99968095Y-64271961D02*
X99872857Y-64367200D01*
X99872857Y-64367200D02*
X99730000Y-64414819D01*
X99730000Y-64414819D02*
X99491905Y-64414819D01*
X100539524Y-64414819D02*
X100730000Y-64414819D01*
X100730000Y-64414819D02*
X100825238Y-64367200D01*
X100825238Y-64367200D02*
X100872857Y-64319580D01*
X100872857Y-64319580D02*
X100968095Y-64176723D01*
X100968095Y-64176723D02*
X101015714Y-63986247D01*
X101015714Y-63986247D02*
X101015714Y-63605295D01*
X101015714Y-63605295D02*
X100968095Y-63510057D01*
X100968095Y-63510057D02*
X100920476Y-63462438D01*
X100920476Y-63462438D02*
X100825238Y-63414819D01*
X100825238Y-63414819D02*
X100634762Y-63414819D01*
X100634762Y-63414819D02*
X100539524Y-63462438D01*
X100539524Y-63462438D02*
X100491905Y-63510057D01*
X100491905Y-63510057D02*
X100444286Y-63605295D01*
X100444286Y-63605295D02*
X100444286Y-63843390D01*
X100444286Y-63843390D02*
X100491905Y-63938628D01*
X100491905Y-63938628D02*
X100539524Y-63986247D01*
X100539524Y-63986247D02*
X100634762Y-64033866D01*
X100634762Y-64033866D02*
X100825238Y-64033866D01*
X100825238Y-64033866D02*
X100920476Y-63986247D01*
X100920476Y-63986247D02*
X100968095Y-63938628D01*
X100968095Y-63938628D02*
X101015714Y-63843390D01*
X121247319Y-143783333D02*
X121961604Y-143783333D01*
X121961604Y-143783333D02*
X122104461Y-143830952D01*
X122104461Y-143830952D02*
X122199700Y-143926190D01*
X122199700Y-143926190D02*
X122247319Y-144069047D01*
X122247319Y-144069047D02*
X122247319Y-144164285D01*
X122247319Y-142783333D02*
X122247319Y-143354761D01*
X122247319Y-143069047D02*
X121247319Y-143069047D01*
X121247319Y-143069047D02*
X121390176Y-143164285D01*
X121390176Y-143164285D02*
X121485414Y-143259523D01*
X121485414Y-143259523D02*
X121533033Y-143354761D01*
X125430682Y-109609580D02*
X125383063Y-109657200D01*
X125383063Y-109657200D02*
X125240206Y-109704819D01*
X125240206Y-109704819D02*
X125144968Y-109704819D01*
X125144968Y-109704819D02*
X125002111Y-109657200D01*
X125002111Y-109657200D02*
X124906873Y-109561961D01*
X124906873Y-109561961D02*
X124859254Y-109466723D01*
X124859254Y-109466723D02*
X124811635Y-109276247D01*
X124811635Y-109276247D02*
X124811635Y-109133390D01*
X124811635Y-109133390D02*
X124859254Y-108942914D01*
X124859254Y-108942914D02*
X124906873Y-108847676D01*
X124906873Y-108847676D02*
X125002111Y-108752438D01*
X125002111Y-108752438D02*
X125144968Y-108704819D01*
X125144968Y-108704819D02*
X125240206Y-108704819D01*
X125240206Y-108704819D02*
X125383063Y-108752438D01*
X125383063Y-108752438D02*
X125430682Y-108800057D01*
X126287825Y-109038152D02*
X126287825Y-109704819D01*
X126049730Y-108657200D02*
X125811635Y-109371485D01*
X125811635Y-109371485D02*
X126430682Y-109371485D01*
X70042819Y-72269333D02*
X70757104Y-72269333D01*
X70757104Y-72269333D02*
X70899961Y-72316952D01*
X70899961Y-72316952D02*
X70995200Y-72412190D01*
X70995200Y-72412190D02*
X71042819Y-72555047D01*
X71042819Y-72555047D02*
X71042819Y-72650285D01*
X70471390Y-71650285D02*
X70423771Y-71745523D01*
X70423771Y-71745523D02*
X70376152Y-71793142D01*
X70376152Y-71793142D02*
X70280914Y-71840761D01*
X70280914Y-71840761D02*
X70233295Y-71840761D01*
X70233295Y-71840761D02*
X70138057Y-71793142D01*
X70138057Y-71793142D02*
X70090438Y-71745523D01*
X70090438Y-71745523D02*
X70042819Y-71650285D01*
X70042819Y-71650285D02*
X70042819Y-71459809D01*
X70042819Y-71459809D02*
X70090438Y-71364571D01*
X70090438Y-71364571D02*
X70138057Y-71316952D01*
X70138057Y-71316952D02*
X70233295Y-71269333D01*
X70233295Y-71269333D02*
X70280914Y-71269333D01*
X70280914Y-71269333D02*
X70376152Y-71316952D01*
X70376152Y-71316952D02*
X70423771Y-71364571D01*
X70423771Y-71364571D02*
X70471390Y-71459809D01*
X70471390Y-71459809D02*
X70471390Y-71650285D01*
X70471390Y-71650285D02*
X70519009Y-71745523D01*
X70519009Y-71745523D02*
X70566628Y-71793142D01*
X70566628Y-71793142D02*
X70661866Y-71840761D01*
X70661866Y-71840761D02*
X70852342Y-71840761D01*
X70852342Y-71840761D02*
X70947580Y-71793142D01*
X70947580Y-71793142D02*
X70995200Y-71745523D01*
X70995200Y-71745523D02*
X71042819Y-71650285D01*
X71042819Y-71650285D02*
X71042819Y-71459809D01*
X71042819Y-71459809D02*
X70995200Y-71364571D01*
X70995200Y-71364571D02*
X70947580Y-71316952D01*
X70947580Y-71316952D02*
X70852342Y-71269333D01*
X70852342Y-71269333D02*
X70661866Y-71269333D01*
X70661866Y-71269333D02*
X70566628Y-71316952D01*
X70566628Y-71316952D02*
X70519009Y-71364571D01*
X70519009Y-71364571D02*
X70471390Y-71459809D01*
X143457200Y-100333332D02*
X143504819Y-100190475D01*
X143504819Y-100190475D02*
X143504819Y-99952380D01*
X143504819Y-99952380D02*
X143457200Y-99857142D01*
X143457200Y-99857142D02*
X143409580Y-99809523D01*
X143409580Y-99809523D02*
X143314342Y-99761904D01*
X143314342Y-99761904D02*
X143219104Y-99761904D01*
X143219104Y-99761904D02*
X143123866Y-99809523D01*
X143123866Y-99809523D02*
X143076247Y-99857142D01*
X143076247Y-99857142D02*
X143028628Y-99952380D01*
X143028628Y-99952380D02*
X142981009Y-100142856D01*
X142981009Y-100142856D02*
X142933390Y-100238094D01*
X142933390Y-100238094D02*
X142885771Y-100285713D01*
X142885771Y-100285713D02*
X142790533Y-100333332D01*
X142790533Y-100333332D02*
X142695295Y-100333332D01*
X142695295Y-100333332D02*
X142600057Y-100285713D01*
X142600057Y-100285713D02*
X142552438Y-100238094D01*
X142552438Y-100238094D02*
X142504819Y-100142856D01*
X142504819Y-100142856D02*
X142504819Y-99904761D01*
X142504819Y-99904761D02*
X142552438Y-99761904D01*
X142504819Y-99428570D02*
X143504819Y-99190475D01*
X143504819Y-99190475D02*
X142790533Y-98999999D01*
X142790533Y-98999999D02*
X143504819Y-98809523D01*
X143504819Y-98809523D02*
X142504819Y-98571428D01*
X142504819Y-98285713D02*
X142504819Y-97666666D01*
X142504819Y-97666666D02*
X142885771Y-97999999D01*
X142885771Y-97999999D02*
X142885771Y-97857142D01*
X142885771Y-97857142D02*
X142933390Y-97761904D01*
X142933390Y-97761904D02*
X142981009Y-97714285D01*
X142981009Y-97714285D02*
X143076247Y-97666666D01*
X143076247Y-97666666D02*
X143314342Y-97666666D01*
X143314342Y-97666666D02*
X143409580Y-97714285D01*
X143409580Y-97714285D02*
X143457200Y-97761904D01*
X143457200Y-97761904D02*
X143504819Y-97857142D01*
X143504819Y-97857142D02*
X143504819Y-98142856D01*
X143504819Y-98142856D02*
X143457200Y-98238094D01*
X143457200Y-98238094D02*
X143409580Y-98285713D01*
X64277142Y-134574819D02*
X63943809Y-134098628D01*
X63705714Y-134574819D02*
X63705714Y-133574819D01*
X63705714Y-133574819D02*
X64086666Y-133574819D01*
X64086666Y-133574819D02*
X64181904Y-133622438D01*
X64181904Y-133622438D02*
X64229523Y-133670057D01*
X64229523Y-133670057D02*
X64277142Y-133765295D01*
X64277142Y-133765295D02*
X64277142Y-133908152D01*
X64277142Y-133908152D02*
X64229523Y-134003390D01*
X64229523Y-134003390D02*
X64181904Y-134051009D01*
X64181904Y-134051009D02*
X64086666Y-134098628D01*
X64086666Y-134098628D02*
X63705714Y-134098628D01*
X64658095Y-133670057D02*
X64705714Y-133622438D01*
X64705714Y-133622438D02*
X64800952Y-133574819D01*
X64800952Y-133574819D02*
X65039047Y-133574819D01*
X65039047Y-133574819D02*
X65134285Y-133622438D01*
X65134285Y-133622438D02*
X65181904Y-133670057D01*
X65181904Y-133670057D02*
X65229523Y-133765295D01*
X65229523Y-133765295D02*
X65229523Y-133860533D01*
X65229523Y-133860533D02*
X65181904Y-134003390D01*
X65181904Y-134003390D02*
X64610476Y-134574819D01*
X64610476Y-134574819D02*
X65229523Y-134574819D01*
X66134285Y-133574819D02*
X65658095Y-133574819D01*
X65658095Y-133574819D02*
X65610476Y-134051009D01*
X65610476Y-134051009D02*
X65658095Y-134003390D01*
X65658095Y-134003390D02*
X65753333Y-133955771D01*
X65753333Y-133955771D02*
X65991428Y-133955771D01*
X65991428Y-133955771D02*
X66086666Y-134003390D01*
X66086666Y-134003390D02*
X66134285Y-134051009D01*
X66134285Y-134051009D02*
X66181904Y-134146247D01*
X66181904Y-134146247D02*
X66181904Y-134384342D01*
X66181904Y-134384342D02*
X66134285Y-134479580D01*
X66134285Y-134479580D02*
X66086666Y-134527200D01*
X66086666Y-134527200D02*
X65991428Y-134574819D01*
X65991428Y-134574819D02*
X65753333Y-134574819D01*
X65753333Y-134574819D02*
X65658095Y-134527200D01*
X65658095Y-134527200D02*
X65610476Y-134479580D01*
X90084819Y-108642857D02*
X89608628Y-108976190D01*
X90084819Y-109214285D02*
X89084819Y-109214285D01*
X89084819Y-109214285D02*
X89084819Y-108833333D01*
X89084819Y-108833333D02*
X89132438Y-108738095D01*
X89132438Y-108738095D02*
X89180057Y-108690476D01*
X89180057Y-108690476D02*
X89275295Y-108642857D01*
X89275295Y-108642857D02*
X89418152Y-108642857D01*
X89418152Y-108642857D02*
X89513390Y-108690476D01*
X89513390Y-108690476D02*
X89561009Y-108738095D01*
X89561009Y-108738095D02*
X89608628Y-108833333D01*
X89608628Y-108833333D02*
X89608628Y-109214285D01*
X90084819Y-107690476D02*
X90084819Y-108261904D01*
X90084819Y-107976190D02*
X89084819Y-107976190D01*
X89084819Y-107976190D02*
X89227676Y-108071428D01*
X89227676Y-108071428D02*
X89322914Y-108166666D01*
X89322914Y-108166666D02*
X89370533Y-108261904D01*
X89084819Y-106785714D02*
X89084819Y-107261904D01*
X89084819Y-107261904D02*
X89561009Y-107309523D01*
X89561009Y-107309523D02*
X89513390Y-107261904D01*
X89513390Y-107261904D02*
X89465771Y-107166666D01*
X89465771Y-107166666D02*
X89465771Y-106928571D01*
X89465771Y-106928571D02*
X89513390Y-106833333D01*
X89513390Y-106833333D02*
X89561009Y-106785714D01*
X89561009Y-106785714D02*
X89656247Y-106738095D01*
X89656247Y-106738095D02*
X89894342Y-106738095D01*
X89894342Y-106738095D02*
X89989580Y-106785714D01*
X89989580Y-106785714D02*
X90037200Y-106833333D01*
X90037200Y-106833333D02*
X90084819Y-106928571D01*
X90084819Y-106928571D02*
X90084819Y-107166666D01*
X90084819Y-107166666D02*
X90037200Y-107261904D01*
X90037200Y-107261904D02*
X89989580Y-107309523D01*
X70042819Y-104745523D02*
X70757104Y-104745523D01*
X70757104Y-104745523D02*
X70899961Y-104793142D01*
X70899961Y-104793142D02*
X70995200Y-104888380D01*
X70995200Y-104888380D02*
X71042819Y-105031237D01*
X71042819Y-105031237D02*
X71042819Y-105126475D01*
X71042819Y-103745523D02*
X71042819Y-104316951D01*
X71042819Y-104031237D02*
X70042819Y-104031237D01*
X70042819Y-104031237D02*
X70185676Y-104126475D01*
X70185676Y-104126475D02*
X70280914Y-104221713D01*
X70280914Y-104221713D02*
X70328533Y-104316951D01*
X70042819Y-103126475D02*
X70042819Y-103031237D01*
X70042819Y-103031237D02*
X70090438Y-102935999D01*
X70090438Y-102935999D02*
X70138057Y-102888380D01*
X70138057Y-102888380D02*
X70233295Y-102840761D01*
X70233295Y-102840761D02*
X70423771Y-102793142D01*
X70423771Y-102793142D02*
X70661866Y-102793142D01*
X70661866Y-102793142D02*
X70852342Y-102840761D01*
X70852342Y-102840761D02*
X70947580Y-102888380D01*
X70947580Y-102888380D02*
X70995200Y-102935999D01*
X70995200Y-102935999D02*
X71042819Y-103031237D01*
X71042819Y-103031237D02*
X71042819Y-103126475D01*
X71042819Y-103126475D02*
X70995200Y-103221713D01*
X70995200Y-103221713D02*
X70947580Y-103269332D01*
X70947580Y-103269332D02*
X70852342Y-103316951D01*
X70852342Y-103316951D02*
X70661866Y-103364570D01*
X70661866Y-103364570D02*
X70423771Y-103364570D01*
X70423771Y-103364570D02*
X70233295Y-103316951D01*
X70233295Y-103316951D02*
X70138057Y-103269332D01*
X70138057Y-103269332D02*
X70090438Y-103221713D01*
X70090438Y-103221713D02*
X70042819Y-103126475D01*
X90296069Y-140642857D02*
X89819878Y-140976190D01*
X90296069Y-141214285D02*
X89296069Y-141214285D01*
X89296069Y-141214285D02*
X89296069Y-140833333D01*
X89296069Y-140833333D02*
X89343688Y-140738095D01*
X89343688Y-140738095D02*
X89391307Y-140690476D01*
X89391307Y-140690476D02*
X89486545Y-140642857D01*
X89486545Y-140642857D02*
X89629402Y-140642857D01*
X89629402Y-140642857D02*
X89724640Y-140690476D01*
X89724640Y-140690476D02*
X89772259Y-140738095D01*
X89772259Y-140738095D02*
X89819878Y-140833333D01*
X89819878Y-140833333D02*
X89819878Y-141214285D01*
X90296069Y-139690476D02*
X90296069Y-140261904D01*
X90296069Y-139976190D02*
X89296069Y-139976190D01*
X89296069Y-139976190D02*
X89438926Y-140071428D01*
X89438926Y-140071428D02*
X89534164Y-140166666D01*
X89534164Y-140166666D02*
X89581783Y-140261904D01*
X90296069Y-139214285D02*
X90296069Y-139023809D01*
X90296069Y-139023809D02*
X90248450Y-138928571D01*
X90248450Y-138928571D02*
X90200830Y-138880952D01*
X90200830Y-138880952D02*
X90057973Y-138785714D01*
X90057973Y-138785714D02*
X89867497Y-138738095D01*
X89867497Y-138738095D02*
X89486545Y-138738095D01*
X89486545Y-138738095D02*
X89391307Y-138785714D01*
X89391307Y-138785714D02*
X89343688Y-138833333D01*
X89343688Y-138833333D02*
X89296069Y-138928571D01*
X89296069Y-138928571D02*
X89296069Y-139119047D01*
X89296069Y-139119047D02*
X89343688Y-139214285D01*
X89343688Y-139214285D02*
X89391307Y-139261904D01*
X89391307Y-139261904D02*
X89486545Y-139309523D01*
X89486545Y-139309523D02*
X89724640Y-139309523D01*
X89724640Y-139309523D02*
X89819878Y-139261904D01*
X89819878Y-139261904D02*
X89867497Y-139214285D01*
X89867497Y-139214285D02*
X89915116Y-139119047D01*
X89915116Y-139119047D02*
X89915116Y-138928571D01*
X89915116Y-138928571D02*
X89867497Y-138833333D01*
X89867497Y-138833333D02*
X89819878Y-138785714D01*
X89819878Y-138785714D02*
X89724640Y-138738095D01*
X82904761Y-127390057D02*
X82809523Y-127342438D01*
X82809523Y-127342438D02*
X82714285Y-127247200D01*
X82714285Y-127247200D02*
X82571428Y-127104342D01*
X82571428Y-127104342D02*
X82476190Y-127056723D01*
X82476190Y-127056723D02*
X82380952Y-127056723D01*
X82428571Y-127294819D02*
X82333333Y-127247200D01*
X82333333Y-127247200D02*
X82238095Y-127151961D01*
X82238095Y-127151961D02*
X82190476Y-126961485D01*
X82190476Y-126961485D02*
X82190476Y-126628152D01*
X82190476Y-126628152D02*
X82238095Y-126437676D01*
X82238095Y-126437676D02*
X82333333Y-126342438D01*
X82333333Y-126342438D02*
X82428571Y-126294819D01*
X82428571Y-126294819D02*
X82619047Y-126294819D01*
X82619047Y-126294819D02*
X82714285Y-126342438D01*
X82714285Y-126342438D02*
X82809523Y-126437676D01*
X82809523Y-126437676D02*
X82857142Y-126628152D01*
X82857142Y-126628152D02*
X82857142Y-126961485D01*
X82857142Y-126961485D02*
X82809523Y-127151961D01*
X82809523Y-127151961D02*
X82714285Y-127247200D01*
X82714285Y-127247200D02*
X82619047Y-127294819D01*
X82619047Y-127294819D02*
X82428571Y-127294819D01*
X83761904Y-126294819D02*
X83285714Y-126294819D01*
X83285714Y-126294819D02*
X83238095Y-126771009D01*
X83238095Y-126771009D02*
X83285714Y-126723390D01*
X83285714Y-126723390D02*
X83380952Y-126675771D01*
X83380952Y-126675771D02*
X83619047Y-126675771D01*
X83619047Y-126675771D02*
X83714285Y-126723390D01*
X83714285Y-126723390D02*
X83761904Y-126771009D01*
X83761904Y-126771009D02*
X83809523Y-126866247D01*
X83809523Y-126866247D02*
X83809523Y-127104342D01*
X83809523Y-127104342D02*
X83761904Y-127199580D01*
X83761904Y-127199580D02*
X83714285Y-127247200D01*
X83714285Y-127247200D02*
X83619047Y-127294819D01*
X83619047Y-127294819D02*
X83380952Y-127294819D01*
X83380952Y-127294819D02*
X83285714Y-127247200D01*
X83285714Y-127247200D02*
X83238095Y-127199580D01*
X98555714Y-112414819D02*
X98555714Y-111414819D01*
X98555714Y-111414819D02*
X98793809Y-111414819D01*
X98793809Y-111414819D02*
X98936666Y-111462438D01*
X98936666Y-111462438D02*
X99031904Y-111557676D01*
X99031904Y-111557676D02*
X99079523Y-111652914D01*
X99079523Y-111652914D02*
X99127142Y-111843390D01*
X99127142Y-111843390D02*
X99127142Y-111986247D01*
X99127142Y-111986247D02*
X99079523Y-112176723D01*
X99079523Y-112176723D02*
X99031904Y-112271961D01*
X99031904Y-112271961D02*
X98936666Y-112367200D01*
X98936666Y-112367200D02*
X98793809Y-112414819D01*
X98793809Y-112414819D02*
X98555714Y-112414819D01*
X100079523Y-112414819D02*
X99508095Y-112414819D01*
X99793809Y-112414819D02*
X99793809Y-111414819D01*
X99793809Y-111414819D02*
X99698571Y-111557676D01*
X99698571Y-111557676D02*
X99603333Y-111652914D01*
X99603333Y-111652914D02*
X99508095Y-111700533D01*
X100460476Y-111510057D02*
X100508095Y-111462438D01*
X100508095Y-111462438D02*
X100603333Y-111414819D01*
X100603333Y-111414819D02*
X100841428Y-111414819D01*
X100841428Y-111414819D02*
X100936666Y-111462438D01*
X100936666Y-111462438D02*
X100984285Y-111510057D01*
X100984285Y-111510057D02*
X101031904Y-111605295D01*
X101031904Y-111605295D02*
X101031904Y-111700533D01*
X101031904Y-111700533D02*
X100984285Y-111843390D01*
X100984285Y-111843390D02*
X100412857Y-112414819D01*
X100412857Y-112414819D02*
X101031904Y-112414819D01*
X70042819Y-120745523D02*
X70757104Y-120745523D01*
X70757104Y-120745523D02*
X70899961Y-120793142D01*
X70899961Y-120793142D02*
X70995200Y-120888380D01*
X70995200Y-120888380D02*
X71042819Y-121031237D01*
X71042819Y-121031237D02*
X71042819Y-121126475D01*
X71042819Y-119745523D02*
X71042819Y-120316951D01*
X71042819Y-120031237D02*
X70042819Y-120031237D01*
X70042819Y-120031237D02*
X70185676Y-120126475D01*
X70185676Y-120126475D02*
X70280914Y-120221713D01*
X70280914Y-120221713D02*
X70328533Y-120316951D01*
X71042819Y-118793142D02*
X71042819Y-119364570D01*
X71042819Y-119078856D02*
X70042819Y-119078856D01*
X70042819Y-119078856D02*
X70185676Y-119174094D01*
X70185676Y-119174094D02*
X70280914Y-119269332D01*
X70280914Y-119269332D02*
X70328533Y-119364570D01*
X134738095Y-63274819D02*
X134738095Y-64084342D01*
X134738095Y-64084342D02*
X134785714Y-64179580D01*
X134785714Y-64179580D02*
X134833333Y-64227200D01*
X134833333Y-64227200D02*
X134928571Y-64274819D01*
X134928571Y-64274819D02*
X135119047Y-64274819D01*
X135119047Y-64274819D02*
X135214285Y-64227200D01*
X135214285Y-64227200D02*
X135261904Y-64179580D01*
X135261904Y-64179580D02*
X135309523Y-64084342D01*
X135309523Y-64084342D02*
X135309523Y-63274819D01*
X135690476Y-63274819D02*
X136309523Y-63274819D01*
X136309523Y-63274819D02*
X135976190Y-63655771D01*
X135976190Y-63655771D02*
X136119047Y-63655771D01*
X136119047Y-63655771D02*
X136214285Y-63703390D01*
X136214285Y-63703390D02*
X136261904Y-63751009D01*
X136261904Y-63751009D02*
X136309523Y-63846247D01*
X136309523Y-63846247D02*
X136309523Y-64084342D01*
X136309523Y-64084342D02*
X136261904Y-64179580D01*
X136261904Y-64179580D02*
X136214285Y-64227200D01*
X136214285Y-64227200D02*
X136119047Y-64274819D01*
X136119047Y-64274819D02*
X135833333Y-64274819D01*
X135833333Y-64274819D02*
X135738095Y-64227200D01*
X135738095Y-64227200D02*
X135690476Y-64179580D01*
X83204761Y-79390057D02*
X83109523Y-79342438D01*
X83109523Y-79342438D02*
X83014285Y-79247200D01*
X83014285Y-79247200D02*
X82871428Y-79104342D01*
X82871428Y-79104342D02*
X82776190Y-79056723D01*
X82776190Y-79056723D02*
X82680952Y-79056723D01*
X82728571Y-79294819D02*
X82633333Y-79247200D01*
X82633333Y-79247200D02*
X82538095Y-79151961D01*
X82538095Y-79151961D02*
X82490476Y-78961485D01*
X82490476Y-78961485D02*
X82490476Y-78628152D01*
X82490476Y-78628152D02*
X82538095Y-78437676D01*
X82538095Y-78437676D02*
X82633333Y-78342438D01*
X82633333Y-78342438D02*
X82728571Y-78294819D01*
X82728571Y-78294819D02*
X82919047Y-78294819D01*
X82919047Y-78294819D02*
X83014285Y-78342438D01*
X83014285Y-78342438D02*
X83109523Y-78437676D01*
X83109523Y-78437676D02*
X83157142Y-78628152D01*
X83157142Y-78628152D02*
X83157142Y-78961485D01*
X83157142Y-78961485D02*
X83109523Y-79151961D01*
X83109523Y-79151961D02*
X83014285Y-79247200D01*
X83014285Y-79247200D02*
X82919047Y-79294819D01*
X82919047Y-79294819D02*
X82728571Y-79294819D01*
X83538095Y-78390057D02*
X83585714Y-78342438D01*
X83585714Y-78342438D02*
X83680952Y-78294819D01*
X83680952Y-78294819D02*
X83919047Y-78294819D01*
X83919047Y-78294819D02*
X84014285Y-78342438D01*
X84014285Y-78342438D02*
X84061904Y-78390057D01*
X84061904Y-78390057D02*
X84109523Y-78485295D01*
X84109523Y-78485295D02*
X84109523Y-78580533D01*
X84109523Y-78580533D02*
X84061904Y-78723390D01*
X84061904Y-78723390D02*
X83490476Y-79294819D01*
X83490476Y-79294819D02*
X84109523Y-79294819D01*
X75084819Y-108642857D02*
X74608628Y-108976190D01*
X75084819Y-109214285D02*
X74084819Y-109214285D01*
X74084819Y-109214285D02*
X74084819Y-108833333D01*
X74084819Y-108833333D02*
X74132438Y-108738095D01*
X74132438Y-108738095D02*
X74180057Y-108690476D01*
X74180057Y-108690476D02*
X74275295Y-108642857D01*
X74275295Y-108642857D02*
X74418152Y-108642857D01*
X74418152Y-108642857D02*
X74513390Y-108690476D01*
X74513390Y-108690476D02*
X74561009Y-108738095D01*
X74561009Y-108738095D02*
X74608628Y-108833333D01*
X74608628Y-108833333D02*
X74608628Y-109214285D01*
X75084819Y-107690476D02*
X75084819Y-108261904D01*
X75084819Y-107976190D02*
X74084819Y-107976190D01*
X74084819Y-107976190D02*
X74227676Y-108071428D01*
X74227676Y-108071428D02*
X74322914Y-108166666D01*
X74322914Y-108166666D02*
X74370533Y-108261904D01*
X74418152Y-106833333D02*
X75084819Y-106833333D01*
X74037200Y-107071428D02*
X74751485Y-107309523D01*
X74751485Y-107309523D02*
X74751485Y-106690476D01*
X64277142Y-149574819D02*
X63943809Y-149098628D01*
X63705714Y-149574819D02*
X63705714Y-148574819D01*
X63705714Y-148574819D02*
X64086666Y-148574819D01*
X64086666Y-148574819D02*
X64181904Y-148622438D01*
X64181904Y-148622438D02*
X64229523Y-148670057D01*
X64229523Y-148670057D02*
X64277142Y-148765295D01*
X64277142Y-148765295D02*
X64277142Y-148908152D01*
X64277142Y-148908152D02*
X64229523Y-149003390D01*
X64229523Y-149003390D02*
X64181904Y-149051009D01*
X64181904Y-149051009D02*
X64086666Y-149098628D01*
X64086666Y-149098628D02*
X63705714Y-149098628D01*
X64658095Y-148670057D02*
X64705714Y-148622438D01*
X64705714Y-148622438D02*
X64800952Y-148574819D01*
X64800952Y-148574819D02*
X65039047Y-148574819D01*
X65039047Y-148574819D02*
X65134285Y-148622438D01*
X65134285Y-148622438D02*
X65181904Y-148670057D01*
X65181904Y-148670057D02*
X65229523Y-148765295D01*
X65229523Y-148765295D02*
X65229523Y-148860533D01*
X65229523Y-148860533D02*
X65181904Y-149003390D01*
X65181904Y-149003390D02*
X64610476Y-149574819D01*
X64610476Y-149574819D02*
X65229523Y-149574819D01*
X66086666Y-148574819D02*
X65896190Y-148574819D01*
X65896190Y-148574819D02*
X65800952Y-148622438D01*
X65800952Y-148622438D02*
X65753333Y-148670057D01*
X65753333Y-148670057D02*
X65658095Y-148812914D01*
X65658095Y-148812914D02*
X65610476Y-149003390D01*
X65610476Y-149003390D02*
X65610476Y-149384342D01*
X65610476Y-149384342D02*
X65658095Y-149479580D01*
X65658095Y-149479580D02*
X65705714Y-149527200D01*
X65705714Y-149527200D02*
X65800952Y-149574819D01*
X65800952Y-149574819D02*
X65991428Y-149574819D01*
X65991428Y-149574819D02*
X66086666Y-149527200D01*
X66086666Y-149527200D02*
X66134285Y-149479580D01*
X66134285Y-149479580D02*
X66181904Y-149384342D01*
X66181904Y-149384342D02*
X66181904Y-149146247D01*
X66181904Y-149146247D02*
X66134285Y-149051009D01*
X66134285Y-149051009D02*
X66086666Y-149003390D01*
X66086666Y-149003390D02*
X65991428Y-148955771D01*
X65991428Y-148955771D02*
X65800952Y-148955771D01*
X65800952Y-148955771D02*
X65705714Y-149003390D01*
X65705714Y-149003390D02*
X65658095Y-149051009D01*
X65658095Y-149051009D02*
X65610476Y-149146247D01*
X82634761Y-143470057D02*
X82539523Y-143422438D01*
X82539523Y-143422438D02*
X82444285Y-143327200D01*
X82444285Y-143327200D02*
X82301428Y-143184342D01*
X82301428Y-143184342D02*
X82206190Y-143136723D01*
X82206190Y-143136723D02*
X82110952Y-143136723D01*
X82158571Y-143374819D02*
X82063333Y-143327200D01*
X82063333Y-143327200D02*
X81968095Y-143231961D01*
X81968095Y-143231961D02*
X81920476Y-143041485D01*
X81920476Y-143041485D02*
X81920476Y-142708152D01*
X81920476Y-142708152D02*
X81968095Y-142517676D01*
X81968095Y-142517676D02*
X82063333Y-142422438D01*
X82063333Y-142422438D02*
X82158571Y-142374819D01*
X82158571Y-142374819D02*
X82349047Y-142374819D01*
X82349047Y-142374819D02*
X82444285Y-142422438D01*
X82444285Y-142422438D02*
X82539523Y-142517676D01*
X82539523Y-142517676D02*
X82587142Y-142708152D01*
X82587142Y-142708152D02*
X82587142Y-143041485D01*
X82587142Y-143041485D02*
X82539523Y-143231961D01*
X82539523Y-143231961D02*
X82444285Y-143327200D01*
X82444285Y-143327200D02*
X82349047Y-143374819D01*
X82349047Y-143374819D02*
X82158571Y-143374819D01*
X83444285Y-142374819D02*
X83253809Y-142374819D01*
X83253809Y-142374819D02*
X83158571Y-142422438D01*
X83158571Y-142422438D02*
X83110952Y-142470057D01*
X83110952Y-142470057D02*
X83015714Y-142612914D01*
X83015714Y-142612914D02*
X82968095Y-142803390D01*
X82968095Y-142803390D02*
X82968095Y-143184342D01*
X82968095Y-143184342D02*
X83015714Y-143279580D01*
X83015714Y-143279580D02*
X83063333Y-143327200D01*
X83063333Y-143327200D02*
X83158571Y-143374819D01*
X83158571Y-143374819D02*
X83349047Y-143374819D01*
X83349047Y-143374819D02*
X83444285Y-143327200D01*
X83444285Y-143327200D02*
X83491904Y-143279580D01*
X83491904Y-143279580D02*
X83539523Y-143184342D01*
X83539523Y-143184342D02*
X83539523Y-142946247D01*
X83539523Y-142946247D02*
X83491904Y-142851009D01*
X83491904Y-142851009D02*
X83444285Y-142803390D01*
X83444285Y-142803390D02*
X83349047Y-142755771D01*
X83349047Y-142755771D02*
X83158571Y-142755771D01*
X83158571Y-142755771D02*
X83063333Y-142803390D01*
X83063333Y-142803390D02*
X83015714Y-142851009D01*
X83015714Y-142851009D02*
X82968095Y-142946247D01*
X90213121Y-124722857D02*
X89736930Y-125056190D01*
X90213121Y-125294285D02*
X89213121Y-125294285D01*
X89213121Y-125294285D02*
X89213121Y-124913333D01*
X89213121Y-124913333D02*
X89260740Y-124818095D01*
X89260740Y-124818095D02*
X89308359Y-124770476D01*
X89308359Y-124770476D02*
X89403597Y-124722857D01*
X89403597Y-124722857D02*
X89546454Y-124722857D01*
X89546454Y-124722857D02*
X89641692Y-124770476D01*
X89641692Y-124770476D02*
X89689311Y-124818095D01*
X89689311Y-124818095D02*
X89736930Y-124913333D01*
X89736930Y-124913333D02*
X89736930Y-125294285D01*
X90213121Y-123770476D02*
X90213121Y-124341904D01*
X90213121Y-124056190D02*
X89213121Y-124056190D01*
X89213121Y-124056190D02*
X89355978Y-124151428D01*
X89355978Y-124151428D02*
X89451216Y-124246666D01*
X89451216Y-124246666D02*
X89498835Y-124341904D01*
X89213121Y-123437142D02*
X89213121Y-122770476D01*
X89213121Y-122770476D02*
X90213121Y-123199047D01*
X70042819Y-56269333D02*
X70757104Y-56269333D01*
X70757104Y-56269333D02*
X70899961Y-56316952D01*
X70899961Y-56316952D02*
X70995200Y-56412190D01*
X70995200Y-56412190D02*
X71042819Y-56555047D01*
X71042819Y-56555047D02*
X71042819Y-56650285D01*
X70042819Y-55888380D02*
X70042819Y-55221714D01*
X70042819Y-55221714D02*
X71042819Y-55650285D01*
%TO.C,R24*%
D12*
X60880000Y-116000000D02*
X61650000Y-116000000D01*
X68960000Y-116000000D02*
X68190000Y-116000000D01*
X61650000Y-114630000D02*
X68190000Y-114630000D01*
X68190000Y-117370000D01*
X61650000Y-117370000D01*
X61650000Y-114630000D01*
%TO.C,Q4*%
X85030000Y-105934039D02*
X81430000Y-105934039D01*
X80905816Y-106661244D02*
G75*
G02*
X81430000Y-105934039I2324184J-1122795D01*
G01*
X83230000Y-110384039D02*
G75*
G02*
X80873600Y-108882846I0J2600000D01*
G01*
X85030000Y-105934039D02*
G75*
G02*
X85554184Y-106661244I-1800000J-1850000D01*
G01*
X85586400Y-108882846D02*
G75*
G02*
X83230000Y-110384039I-2356400J1098807D01*
G01*
%TO.C,Q1*%
X85212500Y-58510000D02*
X81612500Y-58510000D01*
X81088316Y-59237205D02*
G75*
G02*
X81612500Y-58510000I2324184J-1122795D01*
G01*
X83412500Y-62960000D02*
G75*
G02*
X81056100Y-61458807I0J2600000D01*
G01*
X85212500Y-58510000D02*
G75*
G02*
X85736684Y-59237205I-1800000J-1850000D01*
G01*
X85768900Y-61458807D02*
G75*
G02*
X83412500Y-62960000I-2356400J1098807D01*
G01*
%TO.C,D11*%
X102290000Y-93545000D02*
X102290000Y-90455000D01*
X96740000Y-92000000D02*
G75*
G02*
X102290000Y-90455170I2990000J0D01*
G01*
X102290000Y-93544830D02*
G75*
G02*
X96740000Y-92000000I-2560000J1544830D01*
G01*
X102230000Y-92000000D02*
G75*
G02*
X97230000Y-92000000I-2500000J0D01*
G01*
X97230000Y-92000000D02*
G75*
G02*
X102230000Y-92000000I2500000J0D01*
G01*
%TO.C,R18*%
X77000000Y-136040000D02*
X77000000Y-136810000D01*
X77000000Y-144120000D02*
X77000000Y-143350000D01*
X75630000Y-136810000D02*
X78370000Y-136810000D01*
X78370000Y-143350000D01*
X75630000Y-143350000D01*
X75630000Y-136810000D01*
%TO.C,R13*%
X92000000Y-87960000D02*
X92000000Y-88730000D01*
X92000000Y-96040000D02*
X92000000Y-95270000D01*
X90630000Y-88730000D02*
X93370000Y-88730000D01*
X93370000Y-95270000D01*
X90630000Y-95270000D01*
X90630000Y-88730000D01*
%TO.C,R8*%
X77153750Y-55960000D02*
X77153750Y-56730000D01*
X77153750Y-64040000D02*
X77153750Y-63270000D01*
X75783750Y-56730000D02*
X78523750Y-56730000D01*
X78523750Y-63270000D01*
X75783750Y-63270000D01*
X75783750Y-56730000D01*
%TO.C,D14*%
X102560000Y-141625000D02*
X102560000Y-138535000D01*
X97010000Y-140080000D02*
G75*
G02*
X102560000Y-138535170I2990000J0D01*
G01*
X102560000Y-141624830D02*
G75*
G02*
X97010000Y-140080000I-2560000J1544830D01*
G01*
X102500000Y-140080000D02*
G75*
G02*
X97500000Y-140080000I-2500000J0D01*
G01*
X97500000Y-140080000D02*
G75*
G02*
X102500000Y-140080000I2500000J0D01*
G01*
%TO.C,J3*%
X111400000Y-51200000D02*
X120600000Y-51200000D01*
X111400000Y-60000000D02*
X111400000Y-51200000D01*
X111400000Y-65900000D02*
X111400000Y-64000000D01*
X114100000Y-65900000D02*
X111400000Y-65900000D01*
X119750000Y-66100000D02*
X120800000Y-66100000D01*
X120600000Y-51200000D02*
X120600000Y-65900000D01*
X120600000Y-65900000D02*
X118000000Y-65900000D01*
X120800000Y-65050000D02*
X120800000Y-66100000D01*
%TO.C,C6*%
X122880000Y-97130000D02*
X128120000Y-97130000D01*
X122880000Y-99870000D02*
X122880000Y-97130000D01*
X128120000Y-97130000D02*
X128120000Y-99870000D01*
X128120000Y-99870000D02*
X122880000Y-99870000D01*
%TO.C,J9*%
D11*
X58800000Y-87500000D02*
X69700000Y-87500000D01*
X58800000Y-96500000D02*
X58800000Y-87500000D01*
X58800000Y-96500000D02*
X69700000Y-96500000D01*
X63200000Y-92000000D02*
X66800000Y-92000000D01*
X65000000Y-93800000D02*
X65000000Y-90200000D01*
X69700000Y-96500000D02*
X69700000Y-87500000D01*
X66800000Y-92000000D02*
G75*
G02*
X63200000Y-92000000I-1800000J0D01*
G01*
X63200000Y-92000000D02*
G75*
G02*
X66800000Y-92000000I1800000J0D01*
G01*
%TO.C,R11*%
D12*
X92000000Y-71960000D02*
X92000000Y-72730000D01*
X92000000Y-80040000D02*
X92000000Y-79270000D01*
X90630000Y-72730000D02*
X93370000Y-72730000D01*
X93370000Y-79270000D01*
X90630000Y-79270000D01*
X90630000Y-72730000D01*
%TO.C,R12*%
X77038750Y-87960000D02*
X77038750Y-88730000D01*
X77038750Y-96040000D02*
X77038750Y-95270000D01*
X75668750Y-88730000D02*
X78408750Y-88730000D01*
X78408750Y-95270000D01*
X75668750Y-95270000D01*
X75668750Y-88730000D01*
%TO.C,R23*%
X60710000Y-100250000D02*
X61480000Y-100250000D01*
X68790000Y-100250000D02*
X68020000Y-100250000D01*
X61480000Y-98880000D02*
X68020000Y-98880000D01*
X68020000Y-101620000D01*
X61480000Y-101620000D01*
X61480000Y-98880000D01*
%TO.C,R7*%
X146000000Y-78460000D02*
X146000000Y-79230000D01*
X146000000Y-86540000D02*
X146000000Y-85770000D01*
X144630000Y-79230000D02*
X147370000Y-79230000D01*
X147370000Y-85770000D01*
X144630000Y-85770000D01*
X144630000Y-79230000D01*
%TO.C,Q3*%
X84982500Y-89790000D02*
X81382500Y-89790000D01*
X80858316Y-90517205D02*
G75*
G02*
X81382500Y-89790000I2324184J-1122795D01*
G01*
X83182500Y-94240000D02*
G75*
G02*
X80826100Y-92738807I0J2600000D01*
G01*
X84982500Y-89790000D02*
G75*
G02*
X85506684Y-90517205I-1800000J-1850000D01*
G01*
X85538900Y-92738807D02*
G75*
G02*
X83182500Y-94240000I-2356400J1098807D01*
G01*
%TO.C,D10*%
X102600257Y-77547919D02*
X102600257Y-74457919D01*
X97050257Y-76002919D02*
G75*
G02*
X102600257Y-74458089I2990000J0D01*
G01*
X102600257Y-77547749D02*
G75*
G02*
X97050257Y-76002919I-2560000J1544830D01*
G01*
X102540257Y-76002919D02*
G75*
G02*
X97540257Y-76002919I-2500000J0D01*
G01*
X97540257Y-76002919D02*
G75*
G02*
X102540257Y-76002919I2500000J0D01*
G01*
%TO.C,D6*%
X146000000Y-115760000D02*
X146000000Y-116780000D01*
X146000000Y-123240000D02*
X146000000Y-122220000D01*
X147470000Y-117560000D02*
X144530000Y-117560000D01*
X147470000Y-117680000D02*
X144530000Y-117680000D01*
X147470000Y-117800000D02*
X144530000Y-117800000D01*
X144530000Y-116780000D02*
X147470000Y-116780000D01*
X147470000Y-122220000D01*
X144530000Y-122220000D01*
X144530000Y-116780000D01*
%TO.C,R21*%
X60210000Y-68000000D02*
X60980000Y-68000000D01*
X68290000Y-68000000D02*
X67520000Y-68000000D01*
X60980000Y-66630000D02*
X67520000Y-66630000D01*
X67520000Y-69370000D01*
X60980000Y-69370000D01*
X60980000Y-66630000D01*
%TO.C,R20*%
X143250000Y-130210000D02*
X143250000Y-130980000D01*
X143250000Y-138290000D02*
X143250000Y-137520000D01*
X141880000Y-130980000D02*
X144620000Y-130980000D01*
X144620000Y-137520000D01*
X141880000Y-137520000D01*
X141880000Y-130980000D01*
%TO.C,R16*%
X77000000Y-119960000D02*
X77000000Y-120730000D01*
X77000000Y-128040000D02*
X77000000Y-127270000D01*
X75630000Y-120730000D02*
X78370000Y-120730000D01*
X78370000Y-127270000D01*
X75630000Y-127270000D01*
X75630000Y-120730000D01*
%TO.C,R22*%
X60380000Y-83750000D02*
X61150000Y-83750000D01*
X68460000Y-83750000D02*
X67690000Y-83750000D01*
X61150000Y-82380000D02*
X67690000Y-82380000D01*
X67690000Y-85120000D01*
X61150000Y-85120000D01*
X61150000Y-82380000D01*
%TO.C,J12*%
D11*
X58800000Y-135580000D02*
X69700000Y-135580000D01*
X58800000Y-144580000D02*
X58800000Y-135580000D01*
X58800000Y-144580000D02*
X69700000Y-144580000D01*
X63200000Y-140080000D02*
X66800000Y-140080000D01*
X65000000Y-141880000D02*
X65000000Y-138280000D01*
X69700000Y-144580000D02*
X69700000Y-135580000D01*
X66800000Y-140080000D02*
G75*
G02*
X63200000Y-140080000I-1800000J0D01*
G01*
X63200000Y-140080000D02*
G75*
G02*
X66800000Y-140080000I1800000J0D01*
G01*
%TO.C,R9*%
D12*
X92211250Y-55960000D02*
X92211250Y-56730000D01*
X92211250Y-64040000D02*
X92211250Y-63270000D01*
X90841250Y-56730000D02*
X93581250Y-56730000D01*
X93581250Y-63270000D01*
X90841250Y-63270000D01*
X90841250Y-56730000D01*
%TO.C,C5*%
X123257600Y-84805000D02*
X123657600Y-84805000D01*
X123457600Y-84605000D02*
X123457600Y-85005000D01*
X125527401Y-83920000D02*
X125527401Y-88080000D01*
X125567401Y-83920000D02*
X125567401Y-88080000D01*
X125607401Y-83922000D02*
X125607401Y-88078000D01*
X125647401Y-83923000D02*
X125647401Y-88077000D01*
X125687401Y-83926000D02*
X125687401Y-88074000D01*
X125727401Y-83929000D02*
X125727401Y-85160000D01*
X125727401Y-86840000D02*
X125727401Y-88071000D01*
X125767401Y-83934000D02*
X125767401Y-85160000D01*
X125767401Y-86840000D02*
X125767401Y-88066000D01*
X125807401Y-83939000D02*
X125807401Y-85160000D01*
X125807401Y-86840000D02*
X125807401Y-88061000D01*
X125847401Y-83944000D02*
X125847401Y-85160000D01*
X125847401Y-86840000D02*
X125847401Y-88056000D01*
X125887401Y-83951000D02*
X125887401Y-85160000D01*
X125887401Y-86840000D02*
X125887401Y-88049000D01*
X125927401Y-83958000D02*
X125927401Y-85160000D01*
X125927401Y-86840000D02*
X125927401Y-88042000D01*
X125967401Y-83966000D02*
X125967401Y-85160000D01*
X125967401Y-86840000D02*
X125967401Y-88034000D01*
X126007401Y-83975000D02*
X126007401Y-85160000D01*
X126007401Y-86840000D02*
X126007401Y-88025000D01*
X126047401Y-83985000D02*
X126047401Y-85160000D01*
X126047401Y-86840000D02*
X126047401Y-88015000D01*
X126087401Y-83995000D02*
X126087401Y-85160000D01*
X126087401Y-86840000D02*
X126087401Y-88005000D01*
X126127401Y-84007000D02*
X126127401Y-85160000D01*
X126127401Y-86840000D02*
X126127401Y-87993000D01*
X126167401Y-84019000D02*
X126167401Y-85160000D01*
X126167401Y-86840000D02*
X126167401Y-87981000D01*
X126207401Y-84032000D02*
X126207401Y-85160000D01*
X126207401Y-86840000D02*
X126207401Y-87968000D01*
X126247401Y-84046000D02*
X126247401Y-85160000D01*
X126247401Y-86840000D02*
X126247401Y-87954000D01*
X126287401Y-84061000D02*
X126287401Y-85160000D01*
X126287401Y-86840000D02*
X126287401Y-87939000D01*
X126327401Y-84077000D02*
X126327401Y-85160000D01*
X126327401Y-86840000D02*
X126327401Y-87923000D01*
X126367401Y-84094000D02*
X126367401Y-85160000D01*
X126367401Y-86840000D02*
X126367401Y-87906000D01*
X126407401Y-84111000D02*
X126407401Y-85160000D01*
X126407401Y-86840000D02*
X126407401Y-87889000D01*
X126447401Y-84130000D02*
X126447401Y-85160000D01*
X126447401Y-86840000D02*
X126447401Y-87870000D01*
X126487401Y-84150000D02*
X126487401Y-85160000D01*
X126487401Y-86840000D02*
X126487401Y-87850000D01*
X126527401Y-84171000D02*
X126527401Y-85160000D01*
X126527401Y-86840000D02*
X126527401Y-87829000D01*
X126567401Y-84193000D02*
X126567401Y-85160000D01*
X126567401Y-86840000D02*
X126567401Y-87807000D01*
X126607401Y-84216000D02*
X126607401Y-85160000D01*
X126607401Y-86840000D02*
X126607401Y-87784000D01*
X126647401Y-84240000D02*
X126647401Y-85160000D01*
X126647401Y-86840000D02*
X126647401Y-87760000D01*
X126687401Y-84266000D02*
X126687401Y-85160000D01*
X126687401Y-86840000D02*
X126687401Y-87734000D01*
X126727401Y-84292000D02*
X126727401Y-85160000D01*
X126727401Y-86840000D02*
X126727401Y-87708000D01*
X126767401Y-84320000D02*
X126767401Y-85160000D01*
X126767401Y-86840000D02*
X126767401Y-87680000D01*
X126807401Y-84350000D02*
X126807401Y-85160000D01*
X126807401Y-86840000D02*
X126807401Y-87650000D01*
X126847401Y-84381000D02*
X126847401Y-85160000D01*
X126847401Y-86840000D02*
X126847401Y-87619000D01*
X126887401Y-84414000D02*
X126887401Y-85160000D01*
X126887401Y-86840000D02*
X126887401Y-87586000D01*
X126927401Y-84448000D02*
X126927401Y-85160000D01*
X126927401Y-86840000D02*
X126927401Y-87552000D01*
X126967401Y-84484000D02*
X126967401Y-85160000D01*
X126967401Y-86840000D02*
X126967401Y-87516000D01*
X127007401Y-84522000D02*
X127007401Y-85160000D01*
X127007401Y-86840000D02*
X127007401Y-87478000D01*
X127047401Y-84562000D02*
X127047401Y-85160000D01*
X127047401Y-86840000D02*
X127047401Y-87438000D01*
X127087401Y-84604000D02*
X127087401Y-85160000D01*
X127087401Y-86840000D02*
X127087401Y-87396000D01*
X127127401Y-84649000D02*
X127127401Y-85160000D01*
X127127401Y-86840000D02*
X127127401Y-87351000D01*
X127167401Y-84697000D02*
X127167401Y-85160000D01*
X127167401Y-86840000D02*
X127167401Y-87303000D01*
X127207401Y-84747000D02*
X127207401Y-85160000D01*
X127207401Y-86840000D02*
X127207401Y-87253000D01*
X127247401Y-84801000D02*
X127247401Y-85160000D01*
X127247401Y-86840000D02*
X127247401Y-87199000D01*
X127287401Y-84858000D02*
X127287401Y-85160000D01*
X127287401Y-86840000D02*
X127287401Y-87142000D01*
X127327401Y-84920000D02*
X127327401Y-85160000D01*
X127327401Y-86840000D02*
X127327401Y-87080000D01*
X127367401Y-84987000D02*
X127367401Y-87013000D01*
X127407401Y-85060000D02*
X127407401Y-86940000D01*
X127447401Y-85141000D02*
X127447401Y-86859000D01*
X127487401Y-85232000D02*
X127487401Y-86768000D01*
X127527401Y-85337000D02*
X127527401Y-86663000D01*
X127567401Y-85463000D02*
X127567401Y-86537000D01*
X127607401Y-85630000D02*
X127607401Y-86370000D01*
X127647401Y-86000000D02*
G75*
G02*
X123407401Y-86000000I-2120000J0D01*
G01*
X123407401Y-86000000D02*
G75*
G02*
X127647401Y-86000000I2120000J0D01*
G01*
%TO.C,U1*%
X113540000Y-88930000D02*
X113540000Y-109370000D01*
X113540000Y-109370000D02*
X118840000Y-109370000D01*
X115190000Y-88930000D02*
X113540000Y-88930000D01*
X118840000Y-88930000D02*
X117190000Y-88930000D01*
X118840000Y-109370000D02*
X118840000Y-88930000D01*
X117190000Y-88930000D02*
G75*
G02*
X115190000Y-88930000I-1000000J0D01*
G01*
%TO.C,R10*%
X77097500Y-71960000D02*
X77097500Y-72730000D01*
X77097500Y-80040000D02*
X77097500Y-79270000D01*
X75727500Y-72730000D02*
X78467500Y-72730000D01*
X78467500Y-79270000D01*
X75727500Y-79270000D01*
X75727500Y-72730000D01*
%TO.C,D8*%
X138065000Y-100545000D02*
X138065000Y-97455000D01*
X132515000Y-99000000D02*
G75*
G02*
X138065000Y-97455170I2990000J0D01*
G01*
X138065000Y-100544830D02*
G75*
G02*
X132515000Y-99000000I-2560000J1544830D01*
G01*
X138005000Y-99000000D02*
G75*
G02*
X133005000Y-99000000I-2500000J0D01*
G01*
X133005000Y-99000000D02*
G75*
G02*
X138005000Y-99000000I2500000J0D01*
G01*
%TO.C,D13*%
X102830000Y-125545000D02*
X102830000Y-122455000D01*
X97280000Y-124000000D02*
G75*
G02*
X102830000Y-122455170I2990000J0D01*
G01*
X102830000Y-125544830D02*
G75*
G02*
X97280000Y-124000000I-2560000J1544830D01*
G01*
X102770000Y-124000000D02*
G75*
G02*
X97770000Y-124000000I-2500000J0D01*
G01*
X97770000Y-124000000D02*
G75*
G02*
X102770000Y-124000000I2500000J0D01*
G01*
%TO.C,J6*%
D11*
X131000000Y-146200000D02*
X131000000Y-135300000D01*
X135500000Y-141800000D02*
X135500000Y-138200000D01*
X137300000Y-140000000D02*
X133700000Y-140000000D01*
X140000000Y-135300000D02*
X131000000Y-135300000D01*
X140000000Y-146200000D02*
X131000000Y-146200000D01*
X140000000Y-146200000D02*
X140000000Y-135300000D01*
X137300000Y-140000000D02*
G75*
G02*
X133700000Y-140000000I-1800000J0D01*
G01*
X133700000Y-140000000D02*
G75*
G02*
X137300000Y-140000000I1800000J0D01*
G01*
%TO.C,D9*%
D12*
X102790000Y-61545000D02*
X102790000Y-58455000D01*
X97240000Y-60000000D02*
G75*
G02*
X102790000Y-58455170I2990000J0D01*
G01*
X102790000Y-61544830D02*
G75*
G02*
X97240000Y-60000000I-2560000J1544830D01*
G01*
X102730000Y-60000000D02*
G75*
G02*
X97730000Y-60000000I-2500000J0D01*
G01*
X97730000Y-60000000D02*
G75*
G02*
X102730000Y-60000000I2500000J0D01*
G01*
%TO.C,J1*%
X111242500Y-134950000D02*
X111242500Y-133900000D01*
X111442500Y-134100000D02*
X114042500Y-134100000D01*
X111442500Y-148800000D02*
X111442500Y-134100000D01*
X112292500Y-133900000D02*
X111242500Y-133900000D01*
X117942500Y-134100000D02*
X120642500Y-134100000D01*
X120642500Y-134100000D02*
X120642500Y-136000000D01*
X120642500Y-140000000D02*
X120642500Y-148800000D01*
X120642500Y-148800000D02*
X111442500Y-148800000D01*
%TO.C,C4*%
X121187651Y-112185000D02*
X121987651Y-112185000D01*
X121587651Y-111785000D02*
X121587651Y-112585000D01*
X125597349Y-110420000D02*
X125597349Y-118580000D01*
X125637349Y-110420000D02*
X125637349Y-118580000D01*
X125677349Y-110421000D02*
X125677349Y-118579000D01*
X125717349Y-110422000D02*
X125717349Y-118578000D01*
X125757349Y-110423000D02*
X125757349Y-118577000D01*
X125797349Y-110425000D02*
X125797349Y-118575000D01*
X125837349Y-110427000D02*
X125837349Y-118573000D01*
X125877349Y-110430000D02*
X125877349Y-118570000D01*
X125917349Y-110432000D02*
X125917349Y-118568000D01*
X125957349Y-110436000D02*
X125957349Y-118564000D01*
X125997349Y-110439000D02*
X125997349Y-118561000D01*
X126037349Y-110444000D02*
X126037349Y-118556000D01*
X126077349Y-110448000D02*
X126077349Y-118552000D01*
X126117349Y-110453000D02*
X126117349Y-118547000D01*
X126157349Y-110458000D02*
X126157349Y-118542000D01*
X126197349Y-110464000D02*
X126197349Y-118536000D01*
X126237349Y-110470000D02*
X126237349Y-118530000D01*
X126277349Y-110477000D02*
X126277349Y-118523000D01*
X126317349Y-110483000D02*
X126317349Y-118517000D01*
X126357349Y-110491000D02*
X126357349Y-118509000D01*
X126397349Y-110498000D02*
X126397349Y-118502000D01*
X126437349Y-110507000D02*
X126437349Y-118493000D01*
X126477349Y-110515000D02*
X126477349Y-113460000D01*
X126477349Y-115540000D02*
X126477349Y-118485000D01*
X126517349Y-110524000D02*
X126517349Y-113460000D01*
X126517349Y-115540000D02*
X126517349Y-118476000D01*
X126557349Y-110533000D02*
X126557349Y-113460000D01*
X126557349Y-115540000D02*
X126557349Y-118467000D01*
X126597349Y-110543000D02*
X126597349Y-113460000D01*
X126597349Y-115540000D02*
X126597349Y-118457000D01*
X126637349Y-110553000D02*
X126637349Y-113460000D01*
X126637349Y-115540000D02*
X126637349Y-118447000D01*
X126677349Y-110564000D02*
X126677349Y-113460000D01*
X126677349Y-115540000D02*
X126677349Y-118436000D01*
X126717349Y-110575000D02*
X126717349Y-113460000D01*
X126717349Y-115540000D02*
X126717349Y-118425000D01*
X126757349Y-110587000D02*
X126757349Y-113460000D01*
X126757349Y-115540000D02*
X126757349Y-118413000D01*
X126797349Y-110599000D02*
X126797349Y-113460000D01*
X126797349Y-115540000D02*
X126797349Y-118401000D01*
X126837349Y-110611000D02*
X126837349Y-113460000D01*
X126837349Y-115540000D02*
X126837349Y-118389000D01*
X126877349Y-110624000D02*
X126877349Y-113460000D01*
X126877349Y-115540000D02*
X126877349Y-118376000D01*
X126917349Y-110637000D02*
X126917349Y-113460000D01*
X126917349Y-115540000D02*
X126917349Y-118363000D01*
X126957349Y-110651000D02*
X126957349Y-113460000D01*
X126957349Y-115540000D02*
X126957349Y-118349000D01*
X126997349Y-110665000D02*
X126997349Y-113460000D01*
X126997349Y-115540000D02*
X126997349Y-118335000D01*
X127037349Y-110680000D02*
X127037349Y-113460000D01*
X127037349Y-115540000D02*
X127037349Y-118320000D01*
X127077349Y-110695000D02*
X127077349Y-113460000D01*
X127077349Y-115540000D02*
X127077349Y-118305000D01*
X127117349Y-110711000D02*
X127117349Y-113460000D01*
X127117349Y-115540000D02*
X127117349Y-118289000D01*
X127157349Y-110727000D02*
X127157349Y-113460000D01*
X127157349Y-115540000D02*
X127157349Y-118273000D01*
X127197349Y-110743000D02*
X127197349Y-113460000D01*
X127197349Y-115540000D02*
X127197349Y-118257000D01*
X127237349Y-110760000D02*
X127237349Y-113460000D01*
X127237349Y-115540000D02*
X127237349Y-118240000D01*
X127277349Y-110778000D02*
X127277349Y-113460000D01*
X127277349Y-115540000D02*
X127277349Y-118222000D01*
X127317349Y-110796000D02*
X127317349Y-113460000D01*
X127317349Y-115540000D02*
X127317349Y-118204000D01*
X127357349Y-110815000D02*
X127357349Y-113460000D01*
X127357349Y-115540000D02*
X127357349Y-118185000D01*
X127397349Y-110834000D02*
X127397349Y-113460000D01*
X127397349Y-115540000D02*
X127397349Y-118166000D01*
X127437349Y-110854000D02*
X127437349Y-113460000D01*
X127437349Y-115540000D02*
X127437349Y-118146000D01*
X127477349Y-110874000D02*
X127477349Y-113460000D01*
X127477349Y-115540000D02*
X127477349Y-118126000D01*
X127517349Y-110895000D02*
X127517349Y-113460000D01*
X127517349Y-115540000D02*
X127517349Y-118105000D01*
X127557349Y-110916000D02*
X127557349Y-113460000D01*
X127557349Y-115540000D02*
X127557349Y-118084000D01*
X127597349Y-110938000D02*
X127597349Y-113460000D01*
X127597349Y-115540000D02*
X127597349Y-118062000D01*
X127637349Y-110961000D02*
X127637349Y-113460000D01*
X127637349Y-115540000D02*
X127637349Y-118039000D01*
X127677349Y-110984000D02*
X127677349Y-113460000D01*
X127677349Y-115540000D02*
X127677349Y-118016000D01*
X127717349Y-111007000D02*
X127717349Y-113460000D01*
X127717349Y-115540000D02*
X127717349Y-117993000D01*
X127757349Y-111032000D02*
X127757349Y-113460000D01*
X127757349Y-115540000D02*
X127757349Y-117968000D01*
X127797349Y-111057000D02*
X127797349Y-113460000D01*
X127797349Y-115540000D02*
X127797349Y-117943000D01*
X127837349Y-111082000D02*
X127837349Y-113460000D01*
X127837349Y-115540000D02*
X127837349Y-117918000D01*
X127877349Y-111108000D02*
X127877349Y-113460000D01*
X127877349Y-115540000D02*
X127877349Y-117892000D01*
X127917349Y-111135000D02*
X127917349Y-113460000D01*
X127917349Y-115540000D02*
X127917349Y-117865000D01*
X127957349Y-111163000D02*
X127957349Y-113460000D01*
X127957349Y-115540000D02*
X127957349Y-117837000D01*
X127997349Y-111191000D02*
X127997349Y-113460000D01*
X127997349Y-115540000D02*
X127997349Y-117809000D01*
X128037349Y-111220000D02*
X128037349Y-113460000D01*
X128037349Y-115540000D02*
X128037349Y-117780000D01*
X128077349Y-111250000D02*
X128077349Y-113460000D01*
X128077349Y-115540000D02*
X128077349Y-117750000D01*
X128117349Y-111281000D02*
X128117349Y-113460000D01*
X128117349Y-115540000D02*
X128117349Y-117719000D01*
X128157349Y-111312000D02*
X128157349Y-113460000D01*
X128157349Y-115540000D02*
X128157349Y-117688000D01*
X128197349Y-111344000D02*
X128197349Y-113460000D01*
X128197349Y-115540000D02*
X128197349Y-117656000D01*
X128237349Y-111377000D02*
X128237349Y-113460000D01*
X128237349Y-115540000D02*
X128237349Y-117623000D01*
X128277349Y-111411000D02*
X128277349Y-113460000D01*
X128277349Y-115540000D02*
X128277349Y-117589000D01*
X128317349Y-111445000D02*
X128317349Y-113460000D01*
X128317349Y-115540000D02*
X128317349Y-117555000D01*
X128357349Y-111481000D02*
X128357349Y-113460000D01*
X128357349Y-115540000D02*
X128357349Y-117519000D01*
X128397349Y-111518000D02*
X128397349Y-113460000D01*
X128397349Y-115540000D02*
X128397349Y-117482000D01*
X128437349Y-111555000D02*
X128437349Y-113460000D01*
X128437349Y-115540000D02*
X128437349Y-117445000D01*
X128477349Y-111594000D02*
X128477349Y-113460000D01*
X128477349Y-115540000D02*
X128477349Y-117406000D01*
X128517349Y-111633000D02*
X128517349Y-113460000D01*
X128517349Y-115540000D02*
X128517349Y-117367000D01*
X128557349Y-111674000D02*
X128557349Y-117326000D01*
X128597349Y-111716000D02*
X128597349Y-117284000D01*
X128637349Y-111759000D02*
X128637349Y-117241000D01*
X128677349Y-111804000D02*
X128677349Y-117196000D01*
X128717349Y-111849000D02*
X128717349Y-117151000D01*
X128757349Y-111896000D02*
X128757349Y-117104000D01*
X128797349Y-111945000D02*
X128797349Y-117055000D01*
X128837349Y-111995000D02*
X128837349Y-117005000D01*
X128877349Y-112047000D02*
X128877349Y-116953000D01*
X128917349Y-112100000D02*
X128917349Y-116900000D01*
X128957349Y-112156000D02*
X128957349Y-116844000D01*
X128997349Y-112213000D02*
X128997349Y-116787000D01*
X129037349Y-112273000D02*
X129037349Y-116727000D01*
X129077349Y-112335000D02*
X129077349Y-116665000D01*
X129117349Y-112399000D02*
X129117349Y-116601000D01*
X129157349Y-112466000D02*
X129157349Y-116534000D01*
X129197349Y-112536000D02*
X129197349Y-116464000D01*
X129237349Y-112610000D02*
X129237349Y-116390000D01*
X129277349Y-112687000D02*
X129277349Y-116313000D01*
X129317349Y-112769000D02*
X129317349Y-116231000D01*
X129357349Y-112856000D02*
X129357349Y-116144000D01*
X129397349Y-112948000D02*
X129397349Y-116052000D01*
X129437349Y-113047000D02*
X129437349Y-115953000D01*
X129477349Y-113154000D02*
X129477349Y-115846000D01*
X129517349Y-113272000D02*
X129517349Y-115728000D01*
X129557349Y-113403000D02*
X129557349Y-115597000D01*
X129597349Y-113553000D02*
X129597349Y-115447000D01*
X129637349Y-113732000D02*
X129637349Y-115268000D01*
X129677349Y-113967000D02*
X129677349Y-115033000D01*
X129717349Y-114500000D02*
G75*
G02*
X121477349Y-114500000I-4120000J0D01*
G01*
X121477349Y-114500000D02*
G75*
G02*
X129717349Y-114500000I4120000J0D01*
G01*
%TO.C,J8*%
D11*
X58800000Y-71500000D02*
X69700000Y-71500000D01*
X58800000Y-80500000D02*
X58800000Y-71500000D01*
X58800000Y-80500000D02*
X69700000Y-80500000D01*
X63200000Y-76000000D02*
X66800000Y-76000000D01*
X65000000Y-77800000D02*
X65000000Y-74200000D01*
X69700000Y-80500000D02*
X69700000Y-71500000D01*
X66800000Y-76000000D02*
G75*
G02*
X63200000Y-76000000I-1800000J0D01*
G01*
X63200000Y-76000000D02*
G75*
G02*
X66800000Y-76000000I1800000J0D01*
G01*
%TO.C,SW3*%
X144222000Y-94682000D02*
X147778000Y-94682000D01*
X144222000Y-103318000D02*
X144222000Y-94682000D01*
X145100000Y-100600000D02*
X145100000Y-97400000D01*
D13*
X145187458Y-97400000D02*
X146000000Y-97400000D01*
D11*
X145238000Y-100000000D02*
X146762000Y-100000000D01*
D13*
X146000000Y-97400000D02*
X146812542Y-97400000D01*
D11*
X146000000Y-100600000D02*
X145100000Y-100600000D01*
X146900000Y-97400000D02*
X146900000Y-100600000D01*
X146900000Y-100600000D02*
X146000000Y-100600000D01*
X147778000Y-94682000D02*
X147778000Y-103318000D01*
X147778000Y-103318000D02*
X144222000Y-103318000D01*
%TO.C,R25*%
D12*
X60880000Y-131750000D02*
X61650000Y-131750000D01*
X68960000Y-131750000D02*
X68190000Y-131750000D01*
X61650000Y-130380000D02*
X68190000Y-130380000D01*
X68190000Y-133120000D01*
X61650000Y-133120000D01*
X61650000Y-130380000D01*
%TO.C,R15*%
X92000000Y-103960000D02*
X92000000Y-104730000D01*
X92000000Y-112040000D02*
X92000000Y-111270000D01*
X90630000Y-104730000D02*
X93370000Y-104730000D01*
X93370000Y-111270000D01*
X90630000Y-111270000D01*
X90630000Y-104730000D01*
%TO.C,J10*%
D11*
X58800000Y-103500000D02*
X69700000Y-103500000D01*
X58800000Y-112500000D02*
X58800000Y-103500000D01*
X58800000Y-112500000D02*
X69700000Y-112500000D01*
X63200000Y-108000000D02*
X66800000Y-108000000D01*
X65000000Y-109800000D02*
X65000000Y-106200000D01*
X69700000Y-112500000D02*
X69700000Y-103500000D01*
X66800000Y-108000000D02*
G75*
G02*
X63200000Y-108000000I-1800000J0D01*
G01*
X63200000Y-108000000D02*
G75*
G02*
X66800000Y-108000000I1800000J0D01*
G01*
%TO.C,R19*%
D12*
X92211250Y-135960000D02*
X92211250Y-136730000D01*
X92211250Y-144040000D02*
X92211250Y-143270000D01*
X90841250Y-136730000D02*
X93581250Y-136730000D01*
X93581250Y-143270000D01*
X90841250Y-143270000D01*
X90841250Y-136730000D01*
%TO.C,Q5*%
X84800000Y-121430000D02*
X81200000Y-121430000D01*
X80675816Y-122157205D02*
G75*
G02*
X81200000Y-121430000I2324184J-1122795D01*
G01*
X83000000Y-125880000D02*
G75*
G02*
X80643600Y-124378807I0J2600000D01*
G01*
X84800000Y-121430000D02*
G75*
G02*
X85324184Y-122157205I-1800000J-1850000D01*
G01*
X85356400Y-124378807D02*
G75*
G02*
X83000000Y-125880000I-2356400J1098807D01*
G01*
%TO.C,D12*%
X102330000Y-109545000D02*
X102330000Y-106455000D01*
X96780000Y-108000000D02*
G75*
G02*
X102330000Y-106455170I2990000J0D01*
G01*
X102330000Y-109544830D02*
G75*
G02*
X96780000Y-108000000I-2560000J1544830D01*
G01*
X102270000Y-108000000D02*
G75*
G02*
X97270000Y-108000000I-2500000J0D01*
G01*
X97270000Y-108000000D02*
G75*
G02*
X102270000Y-108000000I2500000J0D01*
G01*
%TO.C,J11*%
D11*
X58800000Y-119500000D02*
X69700000Y-119500000D01*
X58800000Y-128500000D02*
X58800000Y-119500000D01*
X58800000Y-128500000D02*
X69700000Y-128500000D01*
X63200000Y-124000000D02*
X66800000Y-124000000D01*
X65000000Y-125800000D02*
X65000000Y-122200000D01*
X69700000Y-128500000D02*
X69700000Y-119500000D01*
X66800000Y-124000000D02*
G75*
G02*
X63200000Y-124000000I-1800000J0D01*
G01*
X63200000Y-124000000D02*
G75*
G02*
X66800000Y-124000000I1800000J0D01*
G01*
%TO.C,U3*%
D12*
X130390000Y-64660000D02*
X140610000Y-64660000D01*
X130390000Y-80530000D02*
X130390000Y-64660000D01*
X130390000Y-80530000D02*
X140610000Y-80530000D01*
X132475000Y-80530000D02*
X132475000Y-82970000D01*
X133445000Y-80530000D02*
X133445000Y-82970000D01*
X135015000Y-80530000D02*
X135015000Y-82970000D01*
X135985000Y-80530000D02*
X135985000Y-82970000D01*
X137555000Y-80530000D02*
X137555000Y-82970000D01*
X138525000Y-80530000D02*
X138525000Y-82970000D01*
X140610000Y-80530000D02*
X140610000Y-64660000D01*
%TO.C,Q2*%
X85100000Y-73430000D02*
X81500000Y-73430000D01*
X80975816Y-74157205D02*
G75*
G02*
X81500000Y-73430000I2324184J-1122795D01*
G01*
X83300000Y-77880000D02*
G75*
G02*
X80943600Y-76378807I0J2600000D01*
G01*
X85100000Y-73430000D02*
G75*
G02*
X85624184Y-74157205I-1800000J-1850000D01*
G01*
X85656400Y-76378807D02*
G75*
G02*
X83300000Y-77880000I-2356400J1098807D01*
G01*
%TO.C,R14*%
X77000000Y-103960000D02*
X77000000Y-104730000D01*
X77000000Y-112040000D02*
X77000000Y-111270000D01*
X75630000Y-104730000D02*
X78370000Y-104730000D01*
X78370000Y-111270000D01*
X75630000Y-111270000D01*
X75630000Y-104730000D01*
%TO.C,R26*%
X60880000Y-146750000D02*
X61650000Y-146750000D01*
X68960000Y-146750000D02*
X68190000Y-146750000D01*
X61650000Y-145380000D02*
X68190000Y-145380000D01*
X68190000Y-148120000D01*
X61650000Y-148120000D01*
X61650000Y-145380000D01*
%TO.C,Q6*%
X84530000Y-137510000D02*
X80930000Y-137510000D01*
X80405816Y-138237205D02*
G75*
G02*
X80930000Y-137510000I2324184J-1122795D01*
G01*
X82730000Y-141960000D02*
G75*
G02*
X80373600Y-140458807I0J2600000D01*
G01*
X84530000Y-137510000D02*
G75*
G02*
X85054184Y-138237205I-1800000J-1850000D01*
G01*
X85086400Y-140458807D02*
G75*
G02*
X82730000Y-141960000I-2356400J1098807D01*
G01*
%TO.C,R17*%
X92128302Y-120040000D02*
X92128302Y-120810000D01*
X92128302Y-128120000D02*
X92128302Y-127350000D01*
X90758302Y-120810000D02*
X93498302Y-120810000D01*
X93498302Y-127350000D01*
X90758302Y-127350000D01*
X90758302Y-120810000D01*
%TO.C,J7*%
D11*
X58800000Y-55500000D02*
X69700000Y-55500000D01*
X58800000Y-64500000D02*
X58800000Y-55500000D01*
X58800000Y-64500000D02*
X69700000Y-64500000D01*
X63200000Y-60000000D02*
X66800000Y-60000000D01*
X65000000Y-61800000D02*
X65000000Y-58200000D01*
X69700000Y-64500000D02*
X69700000Y-55500000D01*
X66800000Y-60000000D02*
G75*
G02*
X63200000Y-60000000I-1800000J0D01*
G01*
X63200000Y-60000000D02*
G75*
G02*
X66800000Y-60000000I1800000J0D01*
G01*
%TD*%
D14*
%TO.C,J9*%
X71480000Y-92000000D03*
X68380000Y-92000000D03*
X60080000Y-92000000D03*
%TD*%
%TO.C,J12*%
X71480000Y-140080000D03*
X68380000Y-140080000D03*
X60080000Y-140080000D03*
%TD*%
%TO.C,J6*%
X135500000Y-133520000D03*
X135500000Y-136620000D03*
X135500000Y-144920000D03*
%TD*%
%TO.C,J8*%
X71480000Y-76000000D03*
X68380000Y-76000000D03*
X60080000Y-76000000D03*
%TD*%
%TO.C,J10*%
X71480000Y-108000000D03*
X68380000Y-108000000D03*
X60080000Y-108000000D03*
%TD*%
%TO.C,J11*%
X71480000Y-124000000D03*
X68380000Y-124000000D03*
X60080000Y-124000000D03*
%TD*%
%TO.C,J7*%
X71480000Y-60000000D03*
X68380000Y-60000000D03*
X60080000Y-60000000D03*
%TD*%
M02*
