%TF.GenerationSoftware,KiCad,Pcbnew,10.0.1*%
%TF.CreationDate,2026-06-06T12:40:39-04:00*%
%TF.ProjectId,g-02-sec-01-rev-a,672d3032-2d73-4656-932d-30312d726576,rev?*%
%TF.SameCoordinates,Original*%
%TF.FileFunction,Soldermask,Top*%
%TF.FilePolarity,Negative*%
%FSLAX46Y46*%
G04 Gerber Fmt 4.6, Leading zero omitted, Abs format (unit mm)*
G04 Created by KiCad (PCBNEW 10.0.1) date 2026-06-06 12:40:39*
%MOMM*%
%LPD*%
G01*
G04 APERTURE LIST*
G04 Aperture macros list*
%AMRoundRect*
0 Rectangle with rounded corners*
0 $1 Rounding radius*
0 $2 $3 $4 $5 $6 $7 $8 $9 X,Y pos of 4 corners*
0 Add a 4 corners polygon primitive as box body*
4,1,4,$2,$3,$4,$5,$6,$7,$8,$9,$2,$3,0*
0 Add four circle primitives for the rounded corners*
1,1,$1+$1,$2,$3*
1,1,$1+$1,$4,$5*
1,1,$1+$1,$6,$7*
1,1,$1+$1,$8,$9*
0 Add four rect primitives between the rounded corners*
20,1,$1+$1,$2,$3,$4,$5,0*
20,1,$1+$1,$4,$5,$6,$7,0*
20,1,$1+$1,$6,$7,$8,$9,0*
20,1,$1+$1,$8,$9,$2,$3,0*%
G04 Aperture macros list end*
%ADD10C,1.600000*%
%ADD11C,3.200000*%
%ADD12R,1.500000X1.500000*%
%ADD13C,1.500000*%
%ADD14R,1.800000X1.800000*%
%ADD15C,1.800000*%
%ADD16R,3.500000X3.500000*%
%ADD17RoundRect,0.750000X-1.000000X0.750000X-1.000000X-0.750000X1.000000X-0.750000X1.000000X0.750000X0*%
%ADD18RoundRect,0.875000X-0.875000X0.875000X-0.875000X-0.875000X0.875000X-0.875000X0.875000X0.875000X0*%
%ADD19RoundRect,0.249999X-0.850001X0.850001X-0.850001X-0.850001X0.850001X-0.850001X0.850001X0.850001X0*%
%ADD20C,2.200000*%
%ADD21RoundRect,0.250000X-0.350000X-0.350000X0.350000X-0.350000X0.350000X0.350000X-0.350000X0.350000X0*%
%ADD22C,1.200000*%
%ADD23RoundRect,0.250000X-0.550000X-0.550000X0.550000X-0.550000X0.550000X0.550000X-0.550000X0.550000X0*%
%ADD24RoundRect,0.750000X1.000000X-0.750000X1.000000X0.750000X-1.000000X0.750000X-1.000000X-0.750000X0*%
%ADD25RoundRect,0.875000X0.875000X-0.875000X0.875000X0.875000X-0.875000X0.875000X-0.875000X-0.875000X0*%
%ADD26C,3.500000*%
%ADD27R,1.905000X2.000000*%
%ADD28O,1.905000X2.000000*%
G04 APERTURE END LIST*
D10*
%TO.C,R24*%
X70000000Y-116000000D03*
X59840000Y-116000000D03*
%TD*%
D11*
%TO.C,H2*%
X55000000Y-55000000D03*
%TD*%
D12*
%TO.C,Q4*%
X85770000Y-107784039D03*
D13*
X83230000Y-107784039D03*
X80690000Y-107784039D03*
%TD*%
D12*
%TO.C,Q1*%
X85952500Y-60360000D03*
D13*
X83412500Y-60360000D03*
X80872500Y-60360000D03*
%TD*%
D14*
%TO.C,D11*%
X101000000Y-92000000D03*
D15*
X98460000Y-92000000D03*
%TD*%
D10*
%TO.C,R18*%
X77000000Y-145160000D03*
X77000000Y-135000000D03*
%TD*%
%TO.C,R13*%
X92000000Y-97080000D03*
X92000000Y-86920000D03*
%TD*%
%TO.C,R8*%
X77153750Y-65080000D03*
X77153750Y-54920000D03*
%TD*%
D14*
%TO.C,D14*%
X101270000Y-140080000D03*
D15*
X98730000Y-140080000D03*
%TD*%
D16*
%TO.C,J3*%
X116000000Y-65000000D03*
D17*
X116000000Y-59000000D03*
D18*
X111300000Y-62000000D03*
%TD*%
D10*
%TO.C,C6*%
X124250000Y-98500000D03*
X126750000Y-98500000D03*
%TD*%
D15*
%TO.C,J9*%
X71480000Y-92000000D03*
X68380000Y-92000000D03*
X60080000Y-92000000D03*
%TD*%
D10*
%TO.C,R11*%
X92000000Y-81080000D03*
X92000000Y-70920000D03*
%TD*%
D11*
%TO.C,H1*%
X145000000Y-55000000D03*
%TD*%
D10*
%TO.C,R12*%
X77038750Y-97080000D03*
X77038750Y-86920000D03*
%TD*%
%TO.C,R23*%
X69830000Y-100250000D03*
X59670000Y-100250000D03*
%TD*%
%TO.C,R7*%
X146000000Y-87580000D03*
X146000000Y-77420000D03*
%TD*%
D11*
%TO.C,H4*%
X145000000Y-145000000D03*
%TD*%
D12*
%TO.C,Q3*%
X85722500Y-91640000D03*
D13*
X83182500Y-91640000D03*
X80642500Y-91640000D03*
%TD*%
D14*
%TO.C,D10*%
X101310257Y-76002919D03*
D15*
X98770257Y-76002919D03*
%TD*%
D19*
%TO.C,D6*%
X146000000Y-114420000D03*
D20*
X146000000Y-124580000D03*
%TD*%
D10*
%TO.C,R21*%
X69330000Y-68000000D03*
X59170000Y-68000000D03*
%TD*%
%TO.C,R20*%
X143250000Y-129170000D03*
X143250000Y-139330000D03*
%TD*%
%TO.C,R16*%
X77000000Y-129080000D03*
X77000000Y-118920000D03*
%TD*%
%TO.C,R22*%
X69500000Y-83750000D03*
X59340000Y-83750000D03*
%TD*%
D15*
%TO.C,J12*%
X71480000Y-140080000D03*
X68380000Y-140080000D03*
X60080000Y-140080000D03*
%TD*%
D10*
%TO.C,R9*%
X92211250Y-65080000D03*
X92211250Y-54920000D03*
%TD*%
D21*
%TO.C,C5*%
X124527401Y-86000000D03*
D22*
X126527401Y-86000000D03*
%TD*%
D23*
%TO.C,U1*%
X112380000Y-90260000D03*
D10*
X112380000Y-92800000D03*
X112380000Y-95340000D03*
X112380000Y-97880000D03*
X112380000Y-100420000D03*
X112380000Y-102960000D03*
X112380000Y-105500000D03*
X112380000Y-108040000D03*
X120000000Y-108040000D03*
X120000000Y-105500000D03*
X120000000Y-102960000D03*
X120000000Y-100420000D03*
X120000000Y-97880000D03*
X120000000Y-95340000D03*
X120000000Y-92800000D03*
X120000000Y-90260000D03*
%TD*%
%TO.C,R10*%
X77097500Y-81080000D03*
X77097500Y-70920000D03*
%TD*%
D14*
%TO.C,D8*%
X136775000Y-99000000D03*
D15*
X134235000Y-99000000D03*
%TD*%
D11*
%TO.C,H3*%
X55000000Y-145000000D03*
%TD*%
D14*
%TO.C,D13*%
X101540000Y-124000000D03*
D15*
X99000000Y-124000000D03*
%TD*%
%TO.C,J6*%
X135500000Y-133520000D03*
X135500000Y-136620000D03*
X135500000Y-144920000D03*
%TD*%
D14*
%TO.C,D9*%
X101500000Y-60000000D03*
D15*
X98960000Y-60000000D03*
%TD*%
D16*
%TO.C,J1*%
X116042500Y-135000000D03*
D24*
X116042500Y-141000000D03*
D25*
X120742500Y-138000000D03*
%TD*%
D23*
%TO.C,C4*%
X123697349Y-114500000D03*
D10*
X127497349Y-114500000D03*
%TD*%
D15*
%TO.C,J8*%
X71480000Y-76000000D03*
X68380000Y-76000000D03*
X60080000Y-76000000D03*
%TD*%
D12*
%TO.C,SW3*%
X146000000Y-101540000D03*
X146000000Y-99000000D03*
X146000000Y-96460000D03*
%TD*%
D10*
%TO.C,R25*%
X70000000Y-131750000D03*
X59840000Y-131750000D03*
%TD*%
%TO.C,R15*%
X92000000Y-113080000D03*
X92000000Y-102920000D03*
%TD*%
D15*
%TO.C,J10*%
X71480000Y-108000000D03*
X68380000Y-108000000D03*
X60080000Y-108000000D03*
%TD*%
D10*
%TO.C,R19*%
X92211250Y-145080000D03*
X92211250Y-134920000D03*
%TD*%
D12*
%TO.C,Q5*%
X85540000Y-123280000D03*
D13*
X83000000Y-123280000D03*
X80460000Y-123280000D03*
%TD*%
D14*
%TO.C,D12*%
X101040000Y-108000000D03*
D15*
X98500000Y-108000000D03*
%TD*%
%TO.C,J11*%
X71480000Y-124000000D03*
X68380000Y-124000000D03*
X60080000Y-124000000D03*
%TD*%
D26*
%TO.C,U3*%
X135500000Y-67570000D03*
D27*
X132960000Y-84230000D03*
D28*
X135500000Y-84230000D03*
X138040000Y-84230000D03*
%TD*%
D12*
%TO.C,Q2*%
X85840000Y-75280000D03*
D13*
X83300000Y-75280000D03*
X80760000Y-75280000D03*
%TD*%
D10*
%TO.C,R14*%
X77000000Y-113080000D03*
X77000000Y-102920000D03*
%TD*%
%TO.C,R26*%
X70000000Y-146750000D03*
X59840000Y-146750000D03*
%TD*%
D12*
%TO.C,Q6*%
X85270000Y-139360000D03*
D13*
X82730000Y-139360000D03*
X80190000Y-139360000D03*
%TD*%
D10*
%TO.C,R17*%
X92128302Y-129160000D03*
X92128302Y-119000000D03*
%TD*%
D15*
%TO.C,J7*%
X71480000Y-60000000D03*
X68380000Y-60000000D03*
X60080000Y-60000000D03*
%TD*%
M02*
