%TF.GenerationSoftware,KiCad,Pcbnew,10.0.1*%
%TF.CreationDate,2026-06-06T14:49:55-04:00*%
%TF.ProjectId,g-03-osc-02-rev-a,672d3033-2d6f-4736-932d-30322d726576,rev?*%
%TF.SameCoordinates,Original*%
%TF.FileFunction,Soldermask,Bot*%
%TF.FilePolarity,Negative*%
%FSLAX46Y46*%
G04 Gerber Fmt 4.6, Leading zero omitted, Abs format (unit mm)*
G04 Created by KiCad (PCBNEW 10.0.1) date 2026-06-06 14:49:55*
%MOMM*%
%LPD*%
G01*
G04 APERTURE LIST*
G04 Aperture macros list*
%AMRoundRect*
0 Rectangle with rounded corners*
0 $1 Rounding radius*
0 $2 $3 $4 $5 $6 $7 $8 $9 X,Y pos of 4 corners*
0 Add a 4 corners polygon primitive as box body*
4,1,4,$2,$3,$4,$5,$6,$7,$8,$9,$2,$3,0*
0 Add four circle primitives for the rounded corners*
1,1,$1+$1,$2,$3*
1,1,$1+$1,$4,$5*
1,1,$1+$1,$6,$7*
1,1,$1+$1,$8,$9*
0 Add four rect primitives between the rounded corners*
20,1,$1+$1,$2,$3,$4,$5,0*
20,1,$1+$1,$4,$5,$6,$7,0*
20,1,$1+$1,$6,$7,$8,$9,0*
20,1,$1+$1,$8,$9,$2,$3,0*%
G04 Aperture macros list end*
%ADD10C,1.800000*%
%ADD11RoundRect,0.250000X-0.350000X-0.350000X0.350000X-0.350000X0.350000X0.350000X-0.350000X0.350000X0*%
%ADD12C,1.200000*%
%ADD13C,1.600000*%
%ADD14RoundRect,0.250000X-0.550000X-0.550000X0.550000X-0.550000X0.550000X0.550000X-0.550000X0.550000X0*%
%ADD15R,3.500000X3.500000*%
%ADD16RoundRect,0.750000X-0.750000X-1.000000X0.750000X-1.000000X0.750000X1.000000X-0.750000X1.000000X0*%
%ADD17RoundRect,0.875000X-0.875000X-0.875000X0.875000X-0.875000X0.875000X0.875000X-0.875000X0.875000X0*%
%ADD18C,3.200000*%
%ADD19R,1.800000X1.800000*%
%ADD20R,3.000000X3.000000*%
%ADD21C,3.000000*%
%ADD22RoundRect,0.250000X-0.950000X-0.550000X0.950000X-0.550000X0.950000X0.550000X-0.950000X0.550000X0*%
%ADD23O,2.400000X1.600000*%
%ADD24RoundRect,0.249999X0.850001X0.850001X-0.850001X0.850001X-0.850001X-0.850001X0.850001X-0.850001X0*%
%ADD25C,2.200000*%
%ADD26R,1.500000X1.500000*%
%ADD27R,1.700000X1.700000*%
%ADD28C,1.700000*%
%ADD29C,3.500000*%
%ADD30R,2.000000X1.905000*%
%ADD31O,2.000000X1.905000*%
G04 APERTURE END LIST*
D10*
%TO.C,J4*%
X146200000Y-84480000D03*
X146200000Y-81380000D03*
X146200000Y-73080000D03*
%TD*%
D11*
%TO.C,C8*%
X132000000Y-106000000D03*
D12*
X134000000Y-106000000D03*
%TD*%
D13*
%TO.C,C7*%
X155000000Y-77500000D03*
X155000000Y-75000000D03*
%TD*%
D14*
%TO.C,C3*%
X163700000Y-122000000D03*
D13*
X165700000Y-122000000D03*
%TD*%
D15*
%TO.C,J3*%
X111200000Y-101000000D03*
D16*
X105200000Y-101000000D03*
D17*
X108200000Y-105700000D03*
%TD*%
D13*
%TO.C,R3*%
X175700000Y-92580000D03*
X175700000Y-82420000D03*
%TD*%
D18*
%TO.C,H2*%
X192200000Y-134000000D03*
%TD*%
D19*
%TO.C,D8*%
X188350000Y-85460000D03*
D10*
X185810000Y-85460000D03*
%TD*%
D18*
%TO.C,H4*%
X102200000Y-134000000D03*
%TD*%
D20*
%TO.C,RV2*%
X171200000Y-73000000D03*
D21*
X166200000Y-73000000D03*
X161200000Y-73000000D03*
%TD*%
D11*
%TO.C,C5*%
X138727401Y-87500000D03*
D12*
X140727401Y-87500000D03*
%TD*%
D15*
%TO.C,J1*%
X111200000Y-88365000D03*
D16*
X105200000Y-88365000D03*
D17*
X108200000Y-93065000D03*
%TD*%
D13*
%TO.C,R4*%
X155200000Y-93000000D03*
X155200000Y-82840000D03*
%TD*%
D14*
%TO.C,C4*%
X163900000Y-86500000D03*
D13*
X167700000Y-86500000D03*
%TD*%
%TO.C,R2*%
X138700000Y-105080000D03*
X138700000Y-94920000D03*
%TD*%
D22*
%TO.C,U3*%
X161580000Y-96380000D03*
D23*
X161580000Y-98920000D03*
X161580000Y-101460000D03*
X161580000Y-104000000D03*
X161580000Y-106540000D03*
X161580000Y-109080000D03*
X161580000Y-111620000D03*
X169200000Y-111620000D03*
X169200000Y-109080000D03*
X169200000Y-106540000D03*
X169200000Y-104000000D03*
X169200000Y-101460000D03*
X169200000Y-98920000D03*
X169200000Y-96380000D03*
%TD*%
D19*
%TO.C,D1*%
X188350000Y-122460000D03*
D10*
X185810000Y-122460000D03*
%TD*%
D24*
%TO.C,D2*%
X129280000Y-101000000D03*
D25*
X119120000Y-101000000D03*
%TD*%
D22*
%TO.C,U1*%
X143580000Y-95110000D03*
D23*
X143580000Y-97650000D03*
X143580000Y-100190000D03*
X143580000Y-102730000D03*
X143580000Y-105270000D03*
X143580000Y-107810000D03*
X143580000Y-110350000D03*
X143580000Y-112890000D03*
X151200000Y-112890000D03*
X151200000Y-110350000D03*
X151200000Y-107810000D03*
X151200000Y-105270000D03*
X151200000Y-102730000D03*
X151200000Y-100190000D03*
X151200000Y-97650000D03*
X151200000Y-95110000D03*
%TD*%
D14*
%TO.C,C2*%
X174200000Y-122000000D03*
D13*
X176200000Y-122000000D03*
%TD*%
D18*
%TO.C,H3*%
X102200000Y-74000000D03*
%TD*%
D26*
%TO.C,SW3*%
X119160000Y-87500000D03*
X121700000Y-87500000D03*
X124240000Y-87500000D03*
%TD*%
D20*
%TO.C,RV1*%
X161200000Y-135000000D03*
D21*
X166200000Y-135000000D03*
X171200000Y-135000000D03*
%TD*%
D13*
%TO.C,C6*%
X105700000Y-116500000D03*
X105700000Y-114000000D03*
%TD*%
D27*
%TO.C,J5*%
X99700000Y-113960000D03*
D28*
X99700000Y-116500000D03*
X99700000Y-119040000D03*
%TD*%
D18*
%TO.C,H1*%
X192200000Y-74000000D03*
%TD*%
D22*
%TO.C,U2*%
X179770000Y-94840000D03*
D23*
X179770000Y-97380000D03*
X179770000Y-99920000D03*
X179770000Y-102460000D03*
X179770000Y-105000000D03*
X179770000Y-107540000D03*
X179770000Y-110080000D03*
X179770000Y-112620000D03*
X187390000Y-112620000D03*
X187390000Y-110080000D03*
X187390000Y-107540000D03*
X187390000Y-105000000D03*
X187390000Y-102460000D03*
X187390000Y-99920000D03*
X187390000Y-97380000D03*
X187390000Y-94840000D03*
%TD*%
D29*
%TO.C,U4*%
X118770000Y-75000000D03*
D30*
X135430000Y-77540000D03*
D31*
X135430000Y-75000000D03*
X135430000Y-72460000D03*
%TD*%
D13*
%TO.C,R1*%
X192200000Y-94500000D03*
X192200000Y-104660000D03*
%TD*%
M02*
