%TF.GenerationSoftware,KiCad,Pcbnew,10.0.1*%
%TF.CreationDate,2026-06-06T14:49:55-04:00*%
%TF.ProjectId,g-03-osc-02-rev-a,672d3033-2d6f-4736-932d-30322d726576,rev?*%
%TF.SameCoordinates,Original*%
%TF.FileFunction,Copper,L1,Top*%
%TF.FilePolarity,Positive*%
%FSLAX46Y46*%
G04 Gerber Fmt 4.6, Leading zero omitted, Abs format (unit mm)*
G04 Created by KiCad (PCBNEW 10.0.1) date 2026-06-06 14:49:55*
%MOMM*%
%LPD*%
G01*
G04 APERTURE LIST*
G04 Aperture macros list*
%AMRoundRect*
0 Rectangle with rounded corners*
0 $1 Rounding radius*
0 $2 $3 $4 $5 $6 $7 $8 $9 X,Y pos of 4 corners*
0 Add a 4 corners polygon primitive as box body*
4,1,4,$2,$3,$4,$5,$6,$7,$8,$9,$2,$3,0*
0 Add four circle primitives for the rounded corners*
1,1,$1+$1,$2,$3*
1,1,$1+$1,$4,$5*
1,1,$1+$1,$6,$7*
1,1,$1+$1,$8,$9*
0 Add four rect primitives between the rounded corners*
20,1,$1+$1,$2,$3,$4,$5,0*
20,1,$1+$1,$4,$5,$6,$7,0*
20,1,$1+$1,$6,$7,$8,$9,0*
20,1,$1+$1,$8,$9,$2,$3,0*%
G04 Aperture macros list end*
%TA.AperFunction,ComponentPad*%
%ADD10C,1.800000*%
%TD*%
%TA.AperFunction,ComponentPad*%
%ADD11RoundRect,0.250000X-0.350000X-0.350000X0.350000X-0.350000X0.350000X0.350000X-0.350000X0.350000X0*%
%TD*%
%TA.AperFunction,ComponentPad*%
%ADD12C,1.200000*%
%TD*%
%TA.AperFunction,ComponentPad*%
%ADD13C,1.600000*%
%TD*%
%TA.AperFunction,ComponentPad*%
%ADD14RoundRect,0.250000X-0.550000X-0.550000X0.550000X-0.550000X0.550000X0.550000X-0.550000X0.550000X0*%
%TD*%
%TA.AperFunction,ComponentPad*%
%ADD15R,3.500000X3.500000*%
%TD*%
%TA.AperFunction,ComponentPad*%
%ADD16RoundRect,0.750000X-0.750000X-1.000000X0.750000X-1.000000X0.750000X1.000000X-0.750000X1.000000X0*%
%TD*%
%TA.AperFunction,ComponentPad*%
%ADD17RoundRect,0.875000X-0.875000X-0.875000X0.875000X-0.875000X0.875000X0.875000X-0.875000X0.875000X0*%
%TD*%
%TA.AperFunction,ComponentPad*%
%ADD18R,1.800000X1.800000*%
%TD*%
%TA.AperFunction,ComponentPad*%
%ADD19R,3.000000X3.000000*%
%TD*%
%TA.AperFunction,ComponentPad*%
%ADD20C,3.000000*%
%TD*%
%TA.AperFunction,ComponentPad*%
%ADD21RoundRect,0.250000X-0.950000X-0.550000X0.950000X-0.550000X0.950000X0.550000X-0.950000X0.550000X0*%
%TD*%
%TA.AperFunction,ComponentPad*%
%ADD22O,2.400000X1.600000*%
%TD*%
%TA.AperFunction,ComponentPad*%
%ADD23RoundRect,0.249999X0.850001X0.850001X-0.850001X0.850001X-0.850001X-0.850001X0.850001X-0.850001X0*%
%TD*%
%TA.AperFunction,ComponentPad*%
%ADD24C,2.200000*%
%TD*%
%TA.AperFunction,ComponentPad*%
%ADD25R,1.500000X1.500000*%
%TD*%
%TA.AperFunction,ComponentPad*%
%ADD26R,1.700000X1.700000*%
%TD*%
%TA.AperFunction,ComponentPad*%
%ADD27C,1.700000*%
%TD*%
%TA.AperFunction,ComponentPad*%
%ADD28R,2.000000X1.905000*%
%TD*%
%TA.AperFunction,ComponentPad*%
%ADD29O,2.000000X1.905000*%
%TD*%
%TA.AperFunction,ViaPad*%
%ADD30C,0.600000*%
%TD*%
%TA.AperFunction,Conductor*%
%ADD31C,0.400000*%
%TD*%
G04 APERTURE END LIST*
D10*
%TO.P,J4,1*%
%TO.N,GND*%
X146200000Y-84480000D03*
%TO.P,J4,2*%
%TO.N,unconnected-(J4-Pad2)*%
X146200000Y-81380000D03*
%TO.P,J4,3*%
%TO.N,Net-(C7-Pad2)*%
X146200000Y-73080000D03*
%TD*%
D11*
%TO.P,C8,1*%
%TO.N,Net-(C8-Pad1)*%
X132000000Y-106000000D03*
D12*
%TO.P,C8,2*%
%TO.N,GND*%
X134000000Y-106000000D03*
%TD*%
D13*
%TO.P,C7,1*%
%TO.N,Net-(U1-CLK)*%
X155000000Y-77500000D03*
%TO.P,C7,2*%
%TO.N,Net-(C7-Pad2)*%
X155000000Y-75000000D03*
%TD*%
D14*
%TO.P,C3,1*%
%TO.N,Net-(C3-Pad1)*%
X163700000Y-122000000D03*
D13*
%TO.P,C3,2*%
%TO.N,GND*%
X165700000Y-122000000D03*
%TD*%
D15*
%TO.P,J3,1*%
%TO.N,Net-(SW3-A)*%
X111200000Y-101000000D03*
D16*
%TO.P,J3,2*%
%TO.N,GND*%
X105200000Y-101000000D03*
D17*
%TO.P,J3,3*%
%TO.N,unconnected-(J3-Pad3)*%
X108200000Y-105700000D03*
%TD*%
D13*
%TO.P,R3,1*%
%TO.N,Net-(U2-PCP)*%
X175700000Y-92580000D03*
%TO.P,R3,2*%
%TO.N,Net-(D1-A)*%
X175700000Y-82420000D03*
%TD*%
D18*
%TO.P,D8,1,K_1*%
%TO.N,Net-(D8-K)*%
X188350000Y-85460000D03*
D10*
%TO.P,D8,2,A_2*%
%TO.N,+5V*%
X185810000Y-85460000D03*
%TD*%
D19*
%TO.P,RV2,1,1_1*%
%TO.N,Net-(C3-Pad1)*%
X171200000Y-73000000D03*
D20*
%TO.P,RV2,2,2_2*%
%TO.N,Net-(RV2-Pad2)*%
X166200000Y-73000000D03*
%TO.P,RV2,3,3_3*%
%TO.N,unconnected-(RV2-Pad3)*%
X161200000Y-73000000D03*
%TD*%
D11*
%TO.P,C5,1*%
%TO.N,+5V*%
X138727401Y-87500000D03*
D12*
%TO.P,C5,2*%
%TO.N,GND*%
X140727401Y-87500000D03*
%TD*%
D15*
%TO.P,J1,1*%
%TO.N,Net-(SW3-A)*%
X111200000Y-88365000D03*
D16*
%TO.P,J1,2*%
%TO.N,GND*%
X105200000Y-88365000D03*
D17*
%TO.P,J1,3*%
%TO.N,unconnected-(J1-Pad3)*%
X108200000Y-93065000D03*
%TD*%
D13*
%TO.P,R4,1*%
%TO.N,GND*%
X155200000Y-93000000D03*
%TO.P,R4,2*%
%TO.N,Net-(D8-K)*%
X155200000Y-82840000D03*
%TD*%
D14*
%TO.P,C4,1*%
%TO.N,+12V*%
X163900000Y-86500000D03*
D13*
%TO.P,C4,2*%
%TO.N,GND*%
X167700000Y-86500000D03*
%TD*%
%TO.P,R2,1*%
%TO.N,Net-(U2-VCOin)*%
X138700000Y-105080000D03*
%TO.P,R2,2*%
%TO.N,Net-(C8-Pad1)*%
X138700000Y-94920000D03*
%TD*%
D21*
%TO.P,U3,1*%
%TO.N,Net-(C3-Pad1)*%
X161580000Y-96380000D03*
D22*
%TO.P,U3,2*%
%TO.N,Net-(RV2-Pad2)*%
X161580000Y-98920000D03*
%TO.P,U3,3*%
X161580000Y-101460000D03*
%TO.P,U3,4*%
%TO.N,Net-(U2-SigIn)*%
X161580000Y-104000000D03*
%TO.P,U3,5*%
%TO.N,N/C*%
X161580000Y-106540000D03*
%TO.P,U3,6*%
X161580000Y-109080000D03*
%TO.P,U3,7,VSS_7*%
%TO.N,GND*%
X161580000Y-111620000D03*
%TO.P,U3,8*%
%TO.N,N/C*%
X169200000Y-111620000D03*
%TO.P,U3,9*%
X169200000Y-109080000D03*
%TO.P,U3,10*%
X169200000Y-106540000D03*
%TO.P,U3,11*%
X169200000Y-104000000D03*
%TO.P,U3,12*%
X169200000Y-101460000D03*
%TO.P,U3,13*%
X169200000Y-98920000D03*
%TO.P,U3,14,VDD_14*%
%TO.N,+5V*%
X169200000Y-96380000D03*
%TD*%
D18*
%TO.P,D1,1,K_1*%
%TO.N,GND*%
X188350000Y-122460000D03*
D10*
%TO.P,D1,2,A_2*%
%TO.N,Net-(D1-A)*%
X185810000Y-122460000D03*
%TD*%
D23*
%TO.P,D2,1,K_1*%
%TO.N,+12V*%
X129280000Y-101000000D03*
D24*
%TO.P,D2,2,A_2*%
%TO.N,Net-(D2-A)*%
X119120000Y-101000000D03*
%TD*%
D21*
%TO.P,U1,1,Q5_1*%
%TO.N,unconnected-(U1-Q5-Pad1)*%
X143580000Y-95110000D03*
D22*
%TO.P,U1,2,Q1_2*%
%TO.N,unconnected-(U1-Q1-Pad2)*%
X143580000Y-97650000D03*
%TO.P,U1,3,Q0_3*%
%TO.N,Net-(U1-Q0)*%
X143580000Y-100190000D03*
%TO.P,U1,4,Q2_4*%
%TO.N,unconnected-(U1-Q2-Pad4)*%
X143580000Y-102730000D03*
%TO.P,U1,5,Q6_5*%
%TO.N,Net-(U1-Q6)*%
X143580000Y-105270000D03*
%TO.P,U1,6,Q7_6*%
%TO.N,unconnected-(U1-Q7-Pad6)*%
X143580000Y-107810000D03*
%TO.P,U1,7,Q3_7*%
%TO.N,unconnected-(U1-Q3-Pad7)*%
X143580000Y-110350000D03*
%TO.P,U1,8,VSS_8*%
%TO.N,GND*%
X143580000Y-112890000D03*
%TO.P,U1,9,Q8_9*%
%TO.N,unconnected-(U1-Q8-Pad9)*%
X151200000Y-112890000D03*
%TO.P,U1,10,Q4_10*%
%TO.N,unconnected-(U1-Q4-Pad10)*%
X151200000Y-110350000D03*
%TO.P,U1,11,Q9_11*%
%TO.N,unconnected-(U1-Q9-Pad11)*%
X151200000Y-107810000D03*
%TO.P,U1,12,Cout_12*%
%TO.N,unconnected-(U1-Cout-Pad12)*%
X151200000Y-105270000D03*
%TO.P,U1,13,CKEN_13*%
%TO.N,GND*%
X151200000Y-102730000D03*
%TO.P,U1,14,CLK_14*%
%TO.N,Net-(U1-CLK)*%
X151200000Y-100190000D03*
%TO.P,U1,15,Reset_15*%
%TO.N,Net-(U1-Q6)*%
X151200000Y-97650000D03*
%TO.P,U1,16,VDD_16*%
%TO.N,+5V*%
X151200000Y-95110000D03*
%TD*%
D14*
%TO.P,C2,1*%
%TO.N,Net-(U2-C1)*%
X174200000Y-122000000D03*
D13*
%TO.P,C2,2*%
%TO.N,Net-(U2-C2)*%
X176200000Y-122000000D03*
%TD*%
D25*
%TO.P,SW3,1,A_1*%
%TO.N,Net-(SW3-A)*%
X119160000Y-87500000D03*
%TO.P,SW3,2,B_2*%
%TO.N,Net-(D2-A)*%
X121700000Y-87500000D03*
%TO.P,SW3,3,C_3*%
%TO.N,unconnected-(SW3-C-Pad3)*%
X124240000Y-87500000D03*
%TD*%
D19*
%TO.P,RV1,1,1_1*%
%TO.N,GND*%
X161200000Y-135000000D03*
D20*
%TO.P,RV1,2,2_2*%
%TO.N,Net-(U2-R1)*%
X166200000Y-135000000D03*
%TO.P,RV1,3,3_3*%
%TO.N,unconnected-(RV1-Pad3)*%
X171200000Y-135000000D03*
%TD*%
D13*
%TO.P,C6,1*%
%TO.N,+5V*%
X105700000Y-116500000D03*
%TO.P,C6,2*%
%TO.N,GND*%
X105700000Y-114000000D03*
%TD*%
D26*
%TO.P,J5,1,Pin_1_1*%
%TO.N,GND*%
X99700000Y-113960000D03*
D27*
%TO.P,J5,2,Pin_2_2*%
%TO.N,+5V*%
X99700000Y-116500000D03*
%TO.P,J5,3,Pin_3_3*%
%TO.N,+12V*%
X99700000Y-119040000D03*
%TD*%
D21*
%TO.P,U2,1,PCP_1*%
%TO.N,Net-(U2-PCP)*%
X179770000Y-94840000D03*
D22*
%TO.P,U2,2,PC1_2*%
%TO.N,unconnected-(U2-PC1-Pad2)*%
X179770000Y-97380000D03*
%TO.P,U2,3,RefIn_3*%
%TO.N,Net-(U1-Q0)*%
X179770000Y-99920000D03*
%TO.P,U2,4,FOUT_4*%
%TO.N,Net-(U1-CLK)*%
X179770000Y-102460000D03*
%TO.P,U2,5,Inh_5*%
%TO.N,GND*%
X179770000Y-105000000D03*
%TO.P,U2,6,C1_6*%
%TO.N,Net-(U2-C1)*%
X179770000Y-107540000D03*
%TO.P,U2,7,C2_7*%
%TO.N,Net-(U2-C2)*%
X179770000Y-110080000D03*
%TO.P,U2,8,VSS_8*%
%TO.N,GND*%
X179770000Y-112620000D03*
%TO.P,U2,9,VCOin_9*%
%TO.N,Net-(U2-VCOin)*%
X187390000Y-112620000D03*
%TO.P,U2,10,SFout_10*%
%TO.N,unconnected-(U2-SFout-Pad10)*%
X187390000Y-110080000D03*
%TO.P,U2,11,R1_11*%
%TO.N,Net-(U2-R1)*%
X187390000Y-107540000D03*
%TO.P,U2,12,R2_12*%
%TO.N,unconnected-(U2-R2-Pad12)*%
X187390000Y-105000000D03*
%TO.P,U2,13,PC2_13*%
%TO.N,Net-(U2-PC2)*%
X187390000Y-102460000D03*
%TO.P,U2,14,SigIn_14*%
%TO.N,Net-(U2-SigIn)*%
X187390000Y-99920000D03*
%TO.P,U2,15,ZOUT_15*%
%TO.N,unconnected-(U2-ZOUT-Pad15)*%
X187390000Y-97380000D03*
%TO.P,U2,16,VDD_16*%
%TO.N,+5V*%
X187390000Y-94840000D03*
%TD*%
D28*
%TO.P,U4,1,IN_1*%
%TO.N,+12V*%
X135430000Y-77540000D03*
D29*
%TO.P,U4,2,GND_2*%
%TO.N,GND*%
X135430000Y-75000000D03*
%TO.P,U4,3,OUT_3*%
%TO.N,+5V*%
X135430000Y-72460000D03*
%TD*%
D13*
%TO.P,R1,1*%
%TO.N,Net-(U2-PC2)*%
X192200000Y-94500000D03*
%TO.P,R1,2*%
%TO.N,Net-(U2-VCOin)*%
X192200000Y-104660000D03*
%TD*%
D30*
%TO.N,Net-(C3-Pad1)*%
X171200000Y-83500000D03*
X171200000Y-79000000D03*
X157200000Y-97500000D03*
%TO.N,+12V*%
X135430000Y-91000000D03*
%TO.N,+5V*%
X144200000Y-89500000D03*
%TO.N,Net-(U1-CLK)*%
X162200000Y-117000000D03*
X172200000Y-110030000D03*
%TO.N,GND*%
X146200000Y-92000000D03*
X146200000Y-90300000D03*
%TO.N,Net-(RV2-Pad2)*%
X160200000Y-83000000D03*
%TO.N,Net-(U1-Q0)*%
X158200000Y-102000000D03*
X147200000Y-99000000D03*
%TO.N,Net-(U2-SigIn)*%
X185090000Y-100500000D03*
%TD*%
%TO.N,Net-(U1-CLK)*%
D31*
X156000000Y-99300000D02*
X155800000Y-99500000D01*
X155800000Y-99500000D02*
X151890000Y-99500000D01*
X151890000Y-99500000D02*
X151200000Y-100190000D01*
%TO.N,Net-(C8-Pad1)*%
X132000000Y-106000000D02*
X132000000Y-101620000D01*
X132000000Y-101620000D02*
X138700000Y-94920000D01*
%TO.N,Net-(U1-CLK)*%
X153000000Y-96000000D02*
X154000000Y-96000000D01*
X154000000Y-96000000D02*
X156000000Y-98000000D01*
X155000000Y-77500000D02*
X153000000Y-79500000D01*
X153000000Y-79500000D02*
X153000000Y-96000000D01*
X156000000Y-98000000D02*
X156000000Y-99300000D01*
%TO.N,Net-(C7-Pad2)*%
X146200000Y-73080000D02*
X153080000Y-73080000D01*
X153080000Y-73080000D02*
X155000000Y-75000000D01*
%TO.N,Net-(U2-C2)*%
X176200000Y-122000000D02*
X176200000Y-113650000D01*
X176200000Y-113650000D02*
X179770000Y-110080000D01*
%TO.N,Net-(U2-C1)*%
X174200000Y-122000000D02*
X174200000Y-113110000D01*
X174200000Y-113110000D02*
X179770000Y-107540000D01*
%TO.N,Net-(C3-Pad1)*%
X161580000Y-96380000D02*
X161580000Y-94120000D01*
X168200000Y-92500000D02*
X171200000Y-89500000D01*
X163700000Y-122000000D02*
X157200000Y-115500000D01*
X161580000Y-94120000D02*
X163200000Y-92500000D01*
X157200000Y-115500000D02*
X157200000Y-97500000D01*
X163200000Y-92500000D02*
X168200000Y-92500000D01*
X171200000Y-73000000D02*
X171200000Y-79000000D01*
X171200000Y-89500000D02*
X171200000Y-83500000D01*
%TO.N,+12V*%
X129280000Y-99650000D02*
X135430000Y-93500000D01*
X135430000Y-77540000D02*
X135430000Y-91000000D01*
X135430000Y-91000000D02*
X135430000Y-93500000D01*
X129280000Y-101000000D02*
X129280000Y-99650000D01*
%TO.N,+5V*%
X148700000Y-89500000D02*
X151200000Y-92000000D01*
X99700000Y-116500000D02*
X105700000Y-116500000D01*
X138727401Y-87500000D02*
X140700000Y-85527401D01*
X140700000Y-72000000D02*
X135890000Y-72000000D01*
X144200000Y-89500000D02*
X148700000Y-89500000D01*
X135890000Y-72000000D02*
X135430000Y-72460000D01*
X140700000Y-85527401D02*
X140700000Y-72000000D01*
X151200000Y-92000000D02*
X151200000Y-95110000D01*
%TO.N,Net-(U1-CLK)*%
X169700000Y-117000000D02*
X162200000Y-117000000D01*
X172200000Y-110030000D02*
X172200000Y-114500000D01*
X172200000Y-114500000D02*
X169700000Y-117000000D01*
%TO.N,GND*%
X146200000Y-92000000D02*
X146200000Y-90300000D01*
%TO.N,Net-(D1-A)*%
X175700000Y-82420000D02*
X185790000Y-92510000D01*
X185790000Y-122440000D02*
X185810000Y-122460000D01*
X185790000Y-92510000D02*
X185790000Y-122440000D01*
%TO.N,Net-(D2-A)*%
X121700000Y-98420000D02*
X119120000Y-101000000D01*
X121700000Y-87500000D02*
X121700000Y-98420000D01*
%TO.N,Net-(D8-K)*%
X183390000Y-80500000D02*
X155700000Y-80500000D01*
X155200000Y-81000000D02*
X155200000Y-82840000D01*
X155700000Y-80500000D02*
X155200000Y-81000000D01*
X188350000Y-85460000D02*
X183390000Y-80500000D01*
%TO.N,Net-(SW3-A)*%
X119160000Y-91040000D02*
X119160000Y-87500000D01*
X111200000Y-88365000D02*
X118295000Y-88365000D01*
X111200000Y-101000000D02*
X118200000Y-94000000D01*
X118200000Y-92000000D02*
X119160000Y-91040000D01*
X118200000Y-94000000D02*
X118200000Y-92000000D01*
X118295000Y-88365000D02*
X119160000Y-87500000D01*
%TO.N,Net-(U2-R1)*%
X193700000Y-127500000D02*
X193700000Y-113850000D01*
X193700000Y-113850000D02*
X187390000Y-107540000D01*
X166200000Y-135000000D02*
X173700000Y-127500000D01*
X173700000Y-127500000D02*
X193700000Y-127500000D01*
%TO.N,Net-(RV2-Pad2)*%
X161580000Y-98920000D02*
X161580000Y-101460000D01*
X159980000Y-97320000D02*
X161580000Y-98920000D01*
X159980000Y-83220000D02*
X159980000Y-97320000D01*
X160200000Y-83000000D02*
X159980000Y-83220000D01*
%TO.N,Net-(U1-Q6)*%
X151200000Y-97650000D02*
X143580000Y-105270000D01*
%TO.N,Net-(U1-Q0)*%
X162477056Y-102660000D02*
X158860000Y-102660000D01*
X179770000Y-99920000D02*
X179430000Y-100260000D01*
X164877056Y-100260000D02*
X162477056Y-102660000D01*
X158860000Y-102660000D02*
X158200000Y-102000000D01*
X179430000Y-100260000D02*
X164877056Y-100260000D01*
X146010000Y-100190000D02*
X143580000Y-100190000D01*
X147200000Y-99000000D02*
X146010000Y-100190000D01*
%TO.N,Net-(U2-SigIn)*%
X174931900Y-105201044D02*
X178872944Y-101260000D01*
X162781044Y-105201044D02*
X174931900Y-105201044D01*
X178872944Y-101260000D02*
X184330000Y-101260000D01*
X184330000Y-101260000D02*
X185090000Y-100500000D01*
X161580000Y-104000000D02*
X162781044Y-105201044D01*
%TD*%
%TA.AperFunction,Conductor*%
%TO.N,GND*%
G36*
X174851360Y-81220185D02*
G01*
X174897115Y-81272989D01*
X174907059Y-81342147D01*
X174878034Y-81405703D01*
X174857207Y-81424818D01*
X174852782Y-81428032D01*
X174708028Y-81572786D01*
X174587715Y-81738386D01*
X174494781Y-81920776D01*
X174431522Y-82115465D01*
X174403505Y-82292363D01*
X174399500Y-82317648D01*
X174399500Y-82522352D01*
X174401577Y-82535465D01*
X174431522Y-82724534D01*
X174494781Y-82919223D01*
X174587715Y-83101613D01*
X174708028Y-83267213D01*
X174852786Y-83411971D01*
X174988112Y-83510289D01*
X175018390Y-83532287D01*
X175109767Y-83578846D01*
X175200776Y-83625218D01*
X175200778Y-83625218D01*
X175200781Y-83625220D01*
X175251480Y-83641693D01*
X175395465Y-83688477D01*
X175486787Y-83702941D01*
X175597648Y-83720500D01*
X175597649Y-83720500D01*
X175802350Y-83720500D01*
X175802352Y-83720500D01*
X175919068Y-83702013D01*
X175988362Y-83710967D01*
X176026148Y-83736805D01*
X185053181Y-92763838D01*
X185086666Y-92825161D01*
X185089500Y-92851519D01*
X185089500Y-99582152D01*
X185069815Y-99649191D01*
X185017011Y-99694946D01*
X184989692Y-99703769D01*
X184856508Y-99730261D01*
X184856498Y-99730264D01*
X184710827Y-99790602D01*
X184710814Y-99790609D01*
X184579711Y-99878210D01*
X184579707Y-99878213D01*
X184468213Y-99989707D01*
X184468210Y-99989711D01*
X184380609Y-100120814D01*
X184380604Y-100120823D01*
X184320809Y-100265184D01*
X184293929Y-100305412D01*
X184076160Y-100523182D01*
X184014840Y-100556666D01*
X183988481Y-100559500D01*
X181500311Y-100559500D01*
X181433272Y-100539815D01*
X181387517Y-100487011D01*
X181377573Y-100417853D01*
X181382378Y-100397187D01*
X181438477Y-100224534D01*
X181470500Y-100022352D01*
X181470500Y-99817648D01*
X181464411Y-99779205D01*
X181438477Y-99615465D01*
X181381110Y-99438910D01*
X181375220Y-99420781D01*
X181375218Y-99420778D01*
X181375218Y-99420776D01*
X181341503Y-99354607D01*
X181282287Y-99238390D01*
X181256904Y-99203453D01*
X181161971Y-99072786D01*
X181017213Y-98928028D01*
X180851614Y-98807715D01*
X180813498Y-98788294D01*
X180758917Y-98760483D01*
X180708123Y-98712511D01*
X180691328Y-98644690D01*
X180713865Y-98578555D01*
X180758917Y-98539516D01*
X180851610Y-98492287D01*
X180872770Y-98476913D01*
X181017213Y-98371971D01*
X181017215Y-98371968D01*
X181017219Y-98371966D01*
X181161966Y-98227219D01*
X181161968Y-98227215D01*
X181161971Y-98227213D01*
X181274167Y-98072786D01*
X181282287Y-98061610D01*
X181375220Y-97879219D01*
X181438477Y-97684534D01*
X181470500Y-97482352D01*
X181470500Y-97277648D01*
X181438477Y-97075466D01*
X181375220Y-96880781D01*
X181375218Y-96880778D01*
X181375218Y-96880776D01*
X181341503Y-96814607D01*
X181282287Y-96698390D01*
X181252967Y-96658034D01*
X181161971Y-96532786D01*
X181017219Y-96388034D01*
X181004065Y-96378477D01*
X180923547Y-96319978D01*
X180880882Y-96264649D01*
X180874903Y-96195036D01*
X180907508Y-96133240D01*
X180957426Y-96101955D01*
X181039334Y-96074814D01*
X181188656Y-95982712D01*
X181312712Y-95858656D01*
X181404814Y-95709334D01*
X181459999Y-95542797D01*
X181470500Y-95440009D01*
X181470499Y-94239992D01*
X181459999Y-94137203D01*
X181404814Y-93970666D01*
X181312712Y-93821344D01*
X181188656Y-93697288D01*
X181039334Y-93605186D01*
X180872797Y-93550001D01*
X180872795Y-93550000D01*
X180770010Y-93539500D01*
X178769998Y-93539500D01*
X178769981Y-93539501D01*
X178667203Y-93550000D01*
X178667200Y-93550001D01*
X178500668Y-93605185D01*
X178500663Y-93605187D01*
X178351342Y-93697289D01*
X178227289Y-93821342D01*
X178135187Y-93970663D01*
X178135185Y-93970668D01*
X178125207Y-94000781D01*
X178080001Y-94137203D01*
X178080001Y-94137204D01*
X178080000Y-94137204D01*
X178069500Y-94239983D01*
X178069500Y-95440001D01*
X178069501Y-95440018D01*
X178080000Y-95542796D01*
X178080001Y-95542799D01*
X178135185Y-95709331D01*
X178135187Y-95709336D01*
X178135608Y-95710018D01*
X178227288Y-95858656D01*
X178351344Y-95982712D01*
X178500666Y-96074814D01*
X178582570Y-96101954D01*
X178640015Y-96141727D01*
X178666838Y-96206243D01*
X178654523Y-96275018D01*
X178616451Y-96319978D01*
X178522787Y-96388028D01*
X178522782Y-96388032D01*
X178378028Y-96532786D01*
X178257715Y-96698386D01*
X178164781Y-96880776D01*
X178101522Y-97075465D01*
X178069500Y-97277648D01*
X178069500Y-97482351D01*
X178101522Y-97684534D01*
X178164781Y-97879223D01*
X178257715Y-98061613D01*
X178378028Y-98227213D01*
X178522786Y-98371971D01*
X178677749Y-98484556D01*
X178688390Y-98492287D01*
X178779840Y-98538883D01*
X178781080Y-98539515D01*
X178831876Y-98587490D01*
X178848671Y-98655311D01*
X178826134Y-98721446D01*
X178781080Y-98760485D01*
X178688386Y-98807715D01*
X178522786Y-98928028D01*
X178378028Y-99072786D01*
X178257715Y-99238386D01*
X178164781Y-99420776D01*
X178162127Y-99428945D01*
X178149592Y-99467526D01*
X178147547Y-99473819D01*
X178108109Y-99531494D01*
X178043750Y-99558692D01*
X178029616Y-99559500D01*
X170930311Y-99559500D01*
X170863272Y-99539815D01*
X170817517Y-99487011D01*
X170807573Y-99417853D01*
X170812378Y-99397187D01*
X170868477Y-99224534D01*
X170900500Y-99022352D01*
X170900500Y-98817648D01*
X170869326Y-98620827D01*
X170868477Y-98615465D01*
X170830056Y-98497219D01*
X170805220Y-98420781D01*
X170805218Y-98420778D01*
X170805218Y-98420776D01*
X170764834Y-98341519D01*
X170712287Y-98238390D01*
X170703016Y-98225630D01*
X170591971Y-98072786D01*
X170447213Y-97928028D01*
X170281614Y-97807715D01*
X170275006Y-97804348D01*
X170188917Y-97760483D01*
X170138123Y-97712511D01*
X170121328Y-97644690D01*
X170143865Y-97578555D01*
X170188917Y-97539516D01*
X170281610Y-97492287D01*
X170302770Y-97476913D01*
X170447213Y-97371971D01*
X170447215Y-97371968D01*
X170447219Y-97371966D01*
X170591966Y-97227219D01*
X170591968Y-97227215D01*
X170591971Y-97227213D01*
X170647505Y-97150776D01*
X170712287Y-97061610D01*
X170805220Y-96879219D01*
X170868477Y-96684534D01*
X170900500Y-96482352D01*
X170900500Y-96277648D01*
X170891731Y-96222284D01*
X170868477Y-96075465D01*
X170815354Y-95911971D01*
X170805220Y-95880781D01*
X170805218Y-95880778D01*
X170805218Y-95880776D01*
X170764315Y-95800500D01*
X170712287Y-95698390D01*
X170696892Y-95677200D01*
X170591971Y-95532786D01*
X170447213Y-95388028D01*
X170281613Y-95267715D01*
X170281612Y-95267714D01*
X170281610Y-95267713D01*
X170196867Y-95224534D01*
X170099223Y-95174781D01*
X169904534Y-95111522D01*
X169729995Y-95083878D01*
X169702352Y-95079500D01*
X168697648Y-95079500D01*
X168673329Y-95083351D01*
X168495465Y-95111522D01*
X168300776Y-95174781D01*
X168118386Y-95267715D01*
X167952786Y-95388028D01*
X167808028Y-95532786D01*
X167687715Y-95698386D01*
X167594781Y-95880776D01*
X167531522Y-96075465D01*
X167499500Y-96277648D01*
X167499500Y-96482351D01*
X167531522Y-96684534D01*
X167594781Y-96879223D01*
X167687715Y-97061613D01*
X167808028Y-97227213D01*
X167952786Y-97371971D01*
X168107749Y-97484556D01*
X168118390Y-97492287D01*
X168181274Y-97524328D01*
X168211080Y-97539515D01*
X168261876Y-97587490D01*
X168278671Y-97655311D01*
X168256134Y-97721446D01*
X168211080Y-97760485D01*
X168118386Y-97807715D01*
X167952786Y-97928028D01*
X167808028Y-98072786D01*
X167687715Y-98238386D01*
X167594781Y-98420776D01*
X167531522Y-98615465D01*
X167499500Y-98817648D01*
X167499500Y-99022351D01*
X167531522Y-99224534D01*
X167561953Y-99318189D01*
X167587620Y-99397182D01*
X167589615Y-99467023D01*
X167553535Y-99526856D01*
X167490834Y-99557684D01*
X167469689Y-99559500D01*
X164808060Y-99559500D01*
X164672733Y-99586418D01*
X164672723Y-99586421D01*
X164545248Y-99639222D01*
X164430510Y-99715887D01*
X163306036Y-100840361D01*
X163244713Y-100873846D01*
X163175021Y-100868862D01*
X163119088Y-100826990D01*
X163107873Y-100808980D01*
X163092287Y-100778390D01*
X163092285Y-100778387D01*
X163092284Y-100778385D01*
X162971971Y-100612786D01*
X162827213Y-100468028D01*
X162661614Y-100347715D01*
X162655006Y-100344348D01*
X162568917Y-100300483D01*
X162518123Y-100252511D01*
X162501328Y-100184690D01*
X162523865Y-100118555D01*
X162568917Y-100079516D01*
X162661610Y-100032287D01*
X162702142Y-100002839D01*
X162827213Y-99911971D01*
X162827215Y-99911968D01*
X162827219Y-99911966D01*
X162971966Y-99767219D01*
X162971968Y-99767215D01*
X162971971Y-99767213D01*
X163034359Y-99681342D01*
X163092287Y-99601610D01*
X163185220Y-99419219D01*
X163248477Y-99224534D01*
X163280500Y-99022352D01*
X163280500Y-98817648D01*
X163249326Y-98620827D01*
X163248477Y-98615465D01*
X163210056Y-98497219D01*
X163185220Y-98420781D01*
X163185218Y-98420778D01*
X163185218Y-98420776D01*
X163144834Y-98341519D01*
X163092287Y-98238390D01*
X163083016Y-98225630D01*
X162971971Y-98072786D01*
X162827219Y-97928034D01*
X162778295Y-97892489D01*
X162733547Y-97859978D01*
X162690882Y-97804649D01*
X162684903Y-97735036D01*
X162717508Y-97673240D01*
X162767426Y-97641955D01*
X162849334Y-97614814D01*
X162998656Y-97522712D01*
X163122712Y-97398656D01*
X163214814Y-97249334D01*
X163269999Y-97082797D01*
X163280500Y-96980009D01*
X163280499Y-95779992D01*
X163269999Y-95677203D01*
X163214814Y-95510666D01*
X163122712Y-95361344D01*
X162998656Y-95237288D01*
X162849334Y-95145186D01*
X162682797Y-95090001D01*
X162682795Y-95090000D01*
X162580016Y-95079500D01*
X162580009Y-95079500D01*
X162404500Y-95079500D01*
X162337461Y-95059815D01*
X162291706Y-95007011D01*
X162280500Y-94955500D01*
X162280500Y-94461519D01*
X162300185Y-94394480D01*
X162316819Y-94373838D01*
X163453838Y-93236819D01*
X163515161Y-93203334D01*
X163541519Y-93200500D01*
X168268996Y-93200500D01*
X168360040Y-93182389D01*
X168404328Y-93173580D01*
X168468069Y-93147177D01*
X168531807Y-93120777D01*
X168531808Y-93120776D01*
X168531811Y-93120775D01*
X168646543Y-93044114D01*
X168969472Y-92721185D01*
X169213010Y-92477648D01*
X174399500Y-92477648D01*
X174399500Y-92682352D01*
X174403878Y-92709995D01*
X174431522Y-92884534D01*
X174494781Y-93079223D01*
X174542858Y-93173578D01*
X174582852Y-93252070D01*
X174587715Y-93261613D01*
X174708028Y-93427213D01*
X174852786Y-93571971D01*
X175003335Y-93681349D01*
X175018390Y-93692287D01*
X175124124Y-93746161D01*
X175200776Y-93785218D01*
X175200778Y-93785218D01*
X175200781Y-93785220D01*
X175299082Y-93817160D01*
X175395465Y-93848477D01*
X175486622Y-93862915D01*
X175597648Y-93880500D01*
X175597649Y-93880500D01*
X175802351Y-93880500D01*
X175802352Y-93880500D01*
X176004534Y-93848477D01*
X176199219Y-93785220D01*
X176381610Y-93692287D01*
X176501494Y-93605187D01*
X176547213Y-93571971D01*
X176547215Y-93571968D01*
X176547219Y-93571966D01*
X176691966Y-93427219D01*
X176691968Y-93427215D01*
X176691971Y-93427213D01*
X176769806Y-93320080D01*
X176812287Y-93261610D01*
X176905220Y-93079219D01*
X176968477Y-92884534D01*
X177000500Y-92682352D01*
X177000500Y-92477648D01*
X176973261Y-92305672D01*
X176968477Y-92275465D01*
X176936870Y-92178189D01*
X176905220Y-92080781D01*
X176905218Y-92080778D01*
X176905218Y-92080776D01*
X176841583Y-91955887D01*
X176812287Y-91898390D01*
X176759999Y-91826421D01*
X176691971Y-91732786D01*
X176547213Y-91588028D01*
X176381613Y-91467715D01*
X176381612Y-91467714D01*
X176381610Y-91467713D01*
X176324653Y-91438691D01*
X176199223Y-91374781D01*
X176004534Y-91311522D01*
X175829995Y-91283878D01*
X175802352Y-91279500D01*
X175597648Y-91279500D01*
X175573329Y-91283351D01*
X175395465Y-91311522D01*
X175200776Y-91374781D01*
X175018386Y-91467715D01*
X174852786Y-91588028D01*
X174708028Y-91732786D01*
X174587715Y-91898386D01*
X174494781Y-92080776D01*
X174431522Y-92275465D01*
X174414159Y-92385095D01*
X174399500Y-92477648D01*
X169213010Y-92477648D01*
X169305563Y-92385095D01*
X171744111Y-89946546D01*
X171744112Y-89946545D01*
X171744114Y-89946543D01*
X171820775Y-89831811D01*
X171873580Y-89704328D01*
X171882389Y-89660040D01*
X171900500Y-89568996D01*
X171900500Y-83925316D01*
X171909939Y-83877864D01*
X171938478Y-83808963D01*
X171969737Y-83733497D01*
X172000500Y-83578842D01*
X172000500Y-83421158D01*
X172000500Y-83421155D01*
X172000499Y-83421153D01*
X171984202Y-83339223D01*
X171969737Y-83266503D01*
X171921899Y-83151011D01*
X171909397Y-83120827D01*
X171909390Y-83120814D01*
X171821789Y-82989711D01*
X171821786Y-82989707D01*
X171710292Y-82878213D01*
X171710288Y-82878210D01*
X171579185Y-82790609D01*
X171579172Y-82790602D01*
X171433501Y-82730264D01*
X171433489Y-82730261D01*
X171278845Y-82699500D01*
X171278842Y-82699500D01*
X171121158Y-82699500D01*
X171121155Y-82699500D01*
X170966510Y-82730261D01*
X170966498Y-82730264D01*
X170820827Y-82790602D01*
X170820814Y-82790609D01*
X170689711Y-82878210D01*
X170689707Y-82878213D01*
X170578213Y-82989707D01*
X170578210Y-82989711D01*
X170490609Y-83120814D01*
X170490602Y-83120827D01*
X170430264Y-83266498D01*
X170430261Y-83266510D01*
X170399500Y-83421153D01*
X170399500Y-83578846D01*
X170430261Y-83733489D01*
X170430264Y-83733501D01*
X170490061Y-83877864D01*
X170499500Y-83925316D01*
X170499500Y-89158481D01*
X170479815Y-89225520D01*
X170463181Y-89246162D01*
X167946162Y-91763181D01*
X167884839Y-91796666D01*
X167858481Y-91799500D01*
X163131004Y-91799500D01*
X162995677Y-91826418D01*
X162995667Y-91826421D01*
X162868192Y-91879222D01*
X162753454Y-91955887D01*
X161035888Y-93673453D01*
X160959222Y-93788192D01*
X160919061Y-93885153D01*
X160875220Y-93939557D01*
X160808926Y-93961622D01*
X160741227Y-93944343D01*
X160693616Y-93893206D01*
X160680500Y-93837701D01*
X160680500Y-85899983D01*
X162599500Y-85899983D01*
X162599500Y-87100001D01*
X162599501Y-87100018D01*
X162610000Y-87202796D01*
X162610001Y-87202799D01*
X162647445Y-87315795D01*
X162665186Y-87369334D01*
X162757288Y-87518656D01*
X162881344Y-87642712D01*
X163030666Y-87734814D01*
X163197203Y-87789999D01*
X163299991Y-87800500D01*
X164500008Y-87800499D01*
X164602797Y-87789999D01*
X164769334Y-87734814D01*
X164918656Y-87642712D01*
X165042712Y-87518656D01*
X165134814Y-87369334D01*
X165189999Y-87202797D01*
X165200500Y-87100009D01*
X165200499Y-86397682D01*
X166400000Y-86397682D01*
X166400000Y-86602317D01*
X166432009Y-86804417D01*
X166495244Y-86999031D01*
X166588141Y-87181350D01*
X166588147Y-87181359D01*
X166620523Y-87225921D01*
X166620524Y-87225922D01*
X167300000Y-86546446D01*
X167300000Y-86552661D01*
X167327259Y-86654394D01*
X167379920Y-86745606D01*
X167454394Y-86820080D01*
X167545606Y-86872741D01*
X167647339Y-86900000D01*
X167653553Y-86900000D01*
X166974076Y-87579474D01*
X167018650Y-87611859D01*
X167200968Y-87704755D01*
X167395582Y-87767990D01*
X167597683Y-87800000D01*
X167802317Y-87800000D01*
X168004417Y-87767990D01*
X168199031Y-87704755D01*
X168381349Y-87611859D01*
X168425921Y-87579474D01*
X167746447Y-86900000D01*
X167752661Y-86900000D01*
X167854394Y-86872741D01*
X167945606Y-86820080D01*
X168020080Y-86745606D01*
X168072741Y-86654394D01*
X168100000Y-86552661D01*
X168100000Y-86546448D01*
X168779474Y-87225922D01*
X168779474Y-87225921D01*
X168811859Y-87181349D01*
X168904755Y-86999031D01*
X168967990Y-86804417D01*
X169000000Y-86602317D01*
X169000000Y-86397682D01*
X168967990Y-86195582D01*
X168904755Y-86000968D01*
X168811859Y-85818650D01*
X168779474Y-85774077D01*
X168779474Y-85774076D01*
X168100000Y-86453551D01*
X168100000Y-86447339D01*
X168072741Y-86345606D01*
X168020080Y-86254394D01*
X167945606Y-86179920D01*
X167854394Y-86127259D01*
X167752661Y-86100000D01*
X167746446Y-86100000D01*
X168425922Y-85420524D01*
X168425921Y-85420523D01*
X168381359Y-85388147D01*
X168381350Y-85388141D01*
X168199031Y-85295244D01*
X168004417Y-85232009D01*
X167802317Y-85200000D01*
X167597683Y-85200000D01*
X167395582Y-85232009D01*
X167200968Y-85295244D01*
X167018644Y-85388143D01*
X166974077Y-85420523D01*
X166974077Y-85420524D01*
X167653554Y-86100000D01*
X167647339Y-86100000D01*
X167545606Y-86127259D01*
X167454394Y-86179920D01*
X167379920Y-86254394D01*
X167327259Y-86345606D01*
X167300000Y-86447339D01*
X167300000Y-86453553D01*
X166620524Y-85774077D01*
X166620523Y-85774077D01*
X166588143Y-85818644D01*
X166495244Y-86000968D01*
X166432009Y-86195582D01*
X166400000Y-86397682D01*
X165200499Y-86397682D01*
X165200499Y-85899992D01*
X165189999Y-85797203D01*
X165134814Y-85630666D01*
X165097531Y-85570221D01*
X165074500Y-85532881D01*
X165074499Y-85532880D01*
X165042712Y-85481344D01*
X164918656Y-85357288D01*
X164818066Y-85295244D01*
X164769336Y-85265187D01*
X164769331Y-85265185D01*
X164767862Y-85264698D01*
X164602797Y-85210001D01*
X164602795Y-85210000D01*
X164500010Y-85199500D01*
X163299998Y-85199500D01*
X163299981Y-85199501D01*
X163197203Y-85210000D01*
X163197200Y-85210001D01*
X163030668Y-85265185D01*
X163030663Y-85265187D01*
X162881342Y-85357289D01*
X162757289Y-85481342D01*
X162665187Y-85630663D01*
X162665185Y-85630668D01*
X162665053Y-85631066D01*
X162610001Y-85797203D01*
X162610001Y-85797204D01*
X162610000Y-85797204D01*
X162599500Y-85899983D01*
X160680500Y-85899983D01*
X160680500Y-83702941D01*
X160700185Y-83635902D01*
X160716819Y-83615260D01*
X160821786Y-83510292D01*
X160821789Y-83510289D01*
X160909394Y-83379179D01*
X160969737Y-83233497D01*
X161000500Y-83078842D01*
X161000500Y-82921158D01*
X161000500Y-82921155D01*
X161000499Y-82921153D01*
X160974531Y-82790606D01*
X160969737Y-82766503D01*
X160957785Y-82737648D01*
X160909397Y-82620827D01*
X160909390Y-82620814D01*
X160821789Y-82489711D01*
X160821786Y-82489707D01*
X160710292Y-82378213D01*
X160710288Y-82378210D01*
X160579185Y-82290609D01*
X160579172Y-82290602D01*
X160433501Y-82230264D01*
X160433489Y-82230261D01*
X160278845Y-82199500D01*
X160278842Y-82199500D01*
X160121158Y-82199500D01*
X160121155Y-82199500D01*
X159966510Y-82230261D01*
X159966498Y-82230264D01*
X159820827Y-82290602D01*
X159820814Y-82290609D01*
X159689711Y-82378210D01*
X159689707Y-82378213D01*
X159578213Y-82489707D01*
X159578210Y-82489711D01*
X159490609Y-82620814D01*
X159490602Y-82620827D01*
X159430263Y-82766499D01*
X159428495Y-82772330D01*
X159427484Y-82772023D01*
X159412208Y-82808890D01*
X159359229Y-82888182D01*
X159359223Y-82888192D01*
X159306420Y-83015671D01*
X159306418Y-83015679D01*
X159280789Y-83144526D01*
X159280788Y-83144533D01*
X159280788Y-83144534D01*
X159279500Y-83151007D01*
X159279500Y-97251006D01*
X159279500Y-97388994D01*
X159279500Y-97388996D01*
X159279499Y-97388996D01*
X159306418Y-97524322D01*
X159306421Y-97524332D01*
X159359222Y-97651807D01*
X159435887Y-97766545D01*
X159435888Y-97766546D01*
X159950008Y-98280665D01*
X159983493Y-98341988D01*
X159978509Y-98411679D01*
X159976514Y-98416228D01*
X159976643Y-98416282D01*
X159974779Y-98420781D01*
X159911523Y-98615461D01*
X159911523Y-98615464D01*
X159879500Y-98817648D01*
X159879500Y-99022351D01*
X159911522Y-99224534D01*
X159974781Y-99419223D01*
X160029624Y-99526856D01*
X160066842Y-99599901D01*
X160067715Y-99601613D01*
X160188028Y-99767213D01*
X160332786Y-99911971D01*
X160487749Y-100024556D01*
X160498390Y-100032287D01*
X160589840Y-100078883D01*
X160591080Y-100079515D01*
X160641876Y-100127490D01*
X160658671Y-100195311D01*
X160636134Y-100261446D01*
X160591080Y-100300485D01*
X160498386Y-100347715D01*
X160332786Y-100468028D01*
X160188028Y-100612786D01*
X160067715Y-100778386D01*
X159974781Y-100960776D01*
X159911522Y-101155465D01*
X159890118Y-101290609D01*
X159879500Y-101357648D01*
X159879500Y-101562352D01*
X159888269Y-101617715D01*
X159911523Y-101764535D01*
X159911524Y-101764542D01*
X159922130Y-101797183D01*
X159924125Y-101867024D01*
X159888044Y-101926857D01*
X159825343Y-101957684D01*
X159804199Y-101959500D01*
X159201519Y-101959500D01*
X159172078Y-101950855D01*
X159142092Y-101944332D01*
X159137076Y-101940577D01*
X159134480Y-101939815D01*
X159113838Y-101923181D01*
X158996071Y-101805414D01*
X158969191Y-101765185D01*
X158909397Y-101620827D01*
X158909390Y-101620814D01*
X158821789Y-101489711D01*
X158821786Y-101489707D01*
X158710292Y-101378213D01*
X158710288Y-101378210D01*
X158579185Y-101290609D01*
X158579172Y-101290602D01*
X158433501Y-101230264D01*
X158433489Y-101230261D01*
X158278845Y-101199500D01*
X158278842Y-101199500D01*
X158121158Y-101199500D01*
X158121155Y-101199500D01*
X158048691Y-101213914D01*
X157979100Y-101207687D01*
X157923922Y-101164824D01*
X157900678Y-101098934D01*
X157900500Y-101092297D01*
X157900500Y-97925316D01*
X157909939Y-97877864D01*
X157961927Y-97752351D01*
X157969737Y-97733497D01*
X158000500Y-97578842D01*
X158000500Y-97421158D01*
X158000500Y-97421155D01*
X158000499Y-97421153D01*
X157996024Y-97398656D01*
X157969737Y-97266503D01*
X157969735Y-97266498D01*
X157909397Y-97120827D01*
X157909390Y-97120814D01*
X157821789Y-96989711D01*
X157821786Y-96989707D01*
X157710292Y-96878213D01*
X157710288Y-96878210D01*
X157579185Y-96790609D01*
X157579172Y-96790602D01*
X157433501Y-96730264D01*
X157433489Y-96730261D01*
X157278845Y-96699500D01*
X157278842Y-96699500D01*
X157121158Y-96699500D01*
X157121155Y-96699500D01*
X156966510Y-96730261D01*
X156966498Y-96730264D01*
X156820827Y-96790602D01*
X156820814Y-96790609D01*
X156689711Y-96878210D01*
X156689707Y-96878213D01*
X156578213Y-96989707D01*
X156578210Y-96989711D01*
X156490609Y-97120814D01*
X156490604Y-97120823D01*
X156450580Y-97217452D01*
X156406739Y-97271855D01*
X156340445Y-97293920D01*
X156272746Y-97276641D01*
X156248338Y-97257680D01*
X154446545Y-95455887D01*
X154331807Y-95379222D01*
X154204332Y-95326421D01*
X154204322Y-95326418D01*
X154068996Y-95299500D01*
X154068994Y-95299500D01*
X154068993Y-95299500D01*
X153824500Y-95299500D01*
X153757461Y-95279815D01*
X153711706Y-95227011D01*
X153700500Y-95175500D01*
X153700500Y-93374808D01*
X153720185Y-93307769D01*
X153772989Y-93262014D01*
X153842147Y-93252070D01*
X153905703Y-93281095D01*
X153942431Y-93336489D01*
X153995244Y-93499031D01*
X154088141Y-93681350D01*
X154088147Y-93681359D01*
X154120523Y-93725921D01*
X154120524Y-93725922D01*
X154800000Y-93046446D01*
X154800000Y-93052661D01*
X154827259Y-93154394D01*
X154879920Y-93245606D01*
X154954394Y-93320080D01*
X155045606Y-93372741D01*
X155147339Y-93400000D01*
X155153553Y-93400000D01*
X154474076Y-94079474D01*
X154518650Y-94111859D01*
X154700968Y-94204755D01*
X154895582Y-94267990D01*
X155097683Y-94300000D01*
X155302317Y-94300000D01*
X155504417Y-94267990D01*
X155699031Y-94204755D01*
X155881349Y-94111859D01*
X155925921Y-94079474D01*
X155246447Y-93400000D01*
X155252661Y-93400000D01*
X155354394Y-93372741D01*
X155445606Y-93320080D01*
X155520080Y-93245606D01*
X155572741Y-93154394D01*
X155600000Y-93052661D01*
X155600000Y-93046447D01*
X156279474Y-93725921D01*
X156311859Y-93681349D01*
X156404755Y-93499031D01*
X156467990Y-93304417D01*
X156500000Y-93102317D01*
X156500000Y-92897682D01*
X156467990Y-92695582D01*
X156404755Y-92500968D01*
X156311859Y-92318650D01*
X156279474Y-92274077D01*
X156279474Y-92274076D01*
X155600000Y-92953551D01*
X155600000Y-92947339D01*
X155572741Y-92845606D01*
X155520080Y-92754394D01*
X155445606Y-92679920D01*
X155354394Y-92627259D01*
X155252661Y-92600000D01*
X155246446Y-92600000D01*
X155925922Y-91920524D01*
X155925921Y-91920523D01*
X155881359Y-91888147D01*
X155881350Y-91888141D01*
X155699031Y-91795244D01*
X155504417Y-91732009D01*
X155302317Y-91700000D01*
X155097683Y-91700000D01*
X154895582Y-91732009D01*
X154700968Y-91795244D01*
X154518644Y-91888143D01*
X154474077Y-91920523D01*
X154474077Y-91920524D01*
X155153554Y-92600000D01*
X155147339Y-92600000D01*
X155045606Y-92627259D01*
X154954394Y-92679920D01*
X154879920Y-92754394D01*
X154827259Y-92845606D01*
X154800000Y-92947339D01*
X154800000Y-92953553D01*
X154120524Y-92274077D01*
X154120523Y-92274077D01*
X154088143Y-92318644D01*
X153995244Y-92500968D01*
X153942431Y-92663510D01*
X153902993Y-92721185D01*
X153838634Y-92748383D01*
X153769788Y-92736468D01*
X153718312Y-92689224D01*
X153700500Y-92625191D01*
X153700500Y-83216424D01*
X153720185Y-83149385D01*
X153772989Y-83103630D01*
X153842147Y-83093686D01*
X153905703Y-83122711D01*
X153942431Y-83178106D01*
X153954881Y-83216424D01*
X153994780Y-83339219D01*
X154081946Y-83510292D01*
X154087715Y-83521613D01*
X154208028Y-83687213D01*
X154352786Y-83831971D01*
X154481267Y-83925316D01*
X154518390Y-83952287D01*
X154634607Y-84011503D01*
X154700776Y-84045218D01*
X154700778Y-84045218D01*
X154700781Y-84045220D01*
X154767099Y-84066768D01*
X154895465Y-84108477D01*
X154944264Y-84116206D01*
X155097648Y-84140500D01*
X155097649Y-84140500D01*
X155302351Y-84140500D01*
X155302352Y-84140500D01*
X155504534Y-84108477D01*
X155699219Y-84045220D01*
X155881610Y-83952287D01*
X156019653Y-83851994D01*
X156047213Y-83831971D01*
X156047215Y-83831968D01*
X156047219Y-83831966D01*
X156191966Y-83687219D01*
X156191968Y-83687215D01*
X156191971Y-83687213D01*
X156270706Y-83578842D01*
X156312287Y-83521610D01*
X156405220Y-83339219D01*
X156468477Y-83144534D01*
X156500500Y-82942352D01*
X156500500Y-82737648D01*
X156481995Y-82620814D01*
X156468477Y-82535465D01*
X156405218Y-82340776D01*
X156371503Y-82274607D01*
X156312287Y-82158390D01*
X156281101Y-82115466D01*
X156191971Y-81992786D01*
X156047217Y-81848032D01*
X156047212Y-81848028D01*
X155951615Y-81778573D01*
X155908949Y-81723243D01*
X155900500Y-81678255D01*
X155900500Y-81341519D01*
X155909144Y-81312078D01*
X155915668Y-81282092D01*
X155919422Y-81277076D01*
X155920185Y-81274480D01*
X155936819Y-81253838D01*
X155953838Y-81236819D01*
X156015161Y-81203334D01*
X156041519Y-81200500D01*
X174784321Y-81200500D01*
X174851360Y-81220185D01*
G37*
%TD.AperFunction*%
%TA.AperFunction,Conductor*%
G36*
X192202702Y-69500617D02*
G01*
X192586773Y-69517386D01*
X192597505Y-69518326D01*
X192975963Y-69568150D01*
X192986601Y-69570025D01*
X193359279Y-69652647D01*
X193369720Y-69655445D01*
X193733765Y-69770227D01*
X193743911Y-69773920D01*
X194096578Y-69920000D01*
X194106369Y-69924566D01*
X194444942Y-70100816D01*
X194454310Y-70106224D01*
X194776244Y-70311318D01*
X194785105Y-70317523D01*
X195087930Y-70549889D01*
X195096217Y-70556843D01*
X195377635Y-70814715D01*
X195385284Y-70822364D01*
X195643156Y-71103782D01*
X195650110Y-71112069D01*
X195882476Y-71414894D01*
X195888681Y-71423755D01*
X196093775Y-71745689D01*
X196099183Y-71755057D01*
X196275430Y-72093623D01*
X196280002Y-72103427D01*
X196426075Y-72456078D01*
X196429775Y-72466244D01*
X196544553Y-72830276D01*
X196547353Y-72840724D01*
X196629972Y-73213390D01*
X196631850Y-73224044D01*
X196681671Y-73602472D01*
X196682613Y-73613247D01*
X196695701Y-73913000D01*
X196699382Y-73997297D01*
X196699500Y-74002706D01*
X196699500Y-133997293D01*
X196699382Y-134002702D01*
X196682614Y-134386751D01*
X196681671Y-134397527D01*
X196631850Y-134775955D01*
X196629972Y-134786609D01*
X196547353Y-135159275D01*
X196544553Y-135169723D01*
X196429775Y-135533755D01*
X196426075Y-135543921D01*
X196280002Y-135896572D01*
X196275430Y-135906376D01*
X196099183Y-136244942D01*
X196093775Y-136254310D01*
X195888681Y-136576244D01*
X195882476Y-136585105D01*
X195650110Y-136887930D01*
X195643156Y-136896217D01*
X195385284Y-137177635D01*
X195377635Y-137185284D01*
X195096217Y-137443156D01*
X195087930Y-137450110D01*
X194785105Y-137682476D01*
X194776244Y-137688681D01*
X194454310Y-137893775D01*
X194444942Y-137899183D01*
X194106376Y-138075430D01*
X194096572Y-138080002D01*
X193743921Y-138226075D01*
X193733755Y-138229775D01*
X193369723Y-138344553D01*
X193359275Y-138347353D01*
X192986609Y-138429972D01*
X192975955Y-138431850D01*
X192597527Y-138481671D01*
X192586751Y-138482614D01*
X192202703Y-138499382D01*
X192197294Y-138499500D01*
X102202706Y-138499500D01*
X102197297Y-138499382D01*
X101813248Y-138482614D01*
X101802474Y-138481671D01*
X101740007Y-138473447D01*
X101424044Y-138431850D01*
X101413390Y-138429972D01*
X101040724Y-138347353D01*
X101030276Y-138344553D01*
X100666244Y-138229775D01*
X100656078Y-138226075D01*
X100303427Y-138080002D01*
X100293623Y-138075430D01*
X99955057Y-137899183D01*
X99945689Y-137893775D01*
X99623755Y-137688681D01*
X99614894Y-137682476D01*
X99312069Y-137450110D01*
X99303782Y-137443156D01*
X99022364Y-137185284D01*
X99014715Y-137177635D01*
X98756843Y-136896217D01*
X98749889Y-136887930D01*
X98517523Y-136585105D01*
X98511318Y-136576244D01*
X98467384Y-136507282D01*
X98306223Y-136254309D01*
X98300816Y-136244942D01*
X98124569Y-135906376D01*
X98119997Y-135896572D01*
X98115904Y-135886690D01*
X97973920Y-135543911D01*
X97970224Y-135533755D01*
X97926243Y-135394265D01*
X97855445Y-135169720D01*
X97852646Y-135159275D01*
X97844638Y-135123152D01*
X97770025Y-134786601D01*
X97768149Y-134775955D01*
X97755642Y-134680953D01*
X97718326Y-134397505D01*
X97717386Y-134386773D01*
X97700618Y-134002702D01*
X97700500Y-133997293D01*
X97700500Y-133878711D01*
X100349500Y-133878711D01*
X100349500Y-134121288D01*
X100381161Y-134361785D01*
X100443947Y-134596104D01*
X100522857Y-134786609D01*
X100536776Y-134820212D01*
X100658064Y-135030289D01*
X100658066Y-135030292D01*
X100658067Y-135030293D01*
X100805733Y-135222736D01*
X100805739Y-135222743D01*
X100977256Y-135394260D01*
X100977262Y-135394265D01*
X101169711Y-135541936D01*
X101379788Y-135663224D01*
X101603900Y-135756054D01*
X101838211Y-135818838D01*
X102018586Y-135842584D01*
X102078711Y-135850500D01*
X102078712Y-135850500D01*
X102321289Y-135850500D01*
X102369388Y-135844167D01*
X102561789Y-135818838D01*
X102796100Y-135756054D01*
X103020212Y-135663224D01*
X103230289Y-135541936D01*
X103422738Y-135394265D01*
X103594265Y-135222738D01*
X103655204Y-135143319D01*
X103670680Y-135123152D01*
X103679751Y-135111330D01*
X103741936Y-135030289D01*
X103863224Y-134820212D01*
X103956054Y-134596100D01*
X104018838Y-134361789D01*
X104050500Y-134121288D01*
X104050500Y-133878712D01*
X104018838Y-133638211D01*
X103968984Y-133452155D01*
X159200000Y-133452155D01*
X159200000Y-134750000D01*
X160651518Y-134750000D01*
X160640889Y-134768409D01*
X160600000Y-134921009D01*
X160600000Y-135078991D01*
X160640889Y-135231591D01*
X160651518Y-135250000D01*
X159200000Y-135250000D01*
X159200000Y-136547844D01*
X159206401Y-136607372D01*
X159206403Y-136607379D01*
X159256645Y-136742086D01*
X159256649Y-136742093D01*
X159342809Y-136857187D01*
X159342812Y-136857190D01*
X159457906Y-136943350D01*
X159457913Y-136943354D01*
X159592620Y-136993596D01*
X159592627Y-136993598D01*
X159652155Y-136999999D01*
X159652172Y-137000000D01*
X160950000Y-137000000D01*
X160950000Y-135548482D01*
X160968409Y-135559111D01*
X161121009Y-135600000D01*
X161278991Y-135600000D01*
X161431591Y-135559111D01*
X161450000Y-135548482D01*
X161450000Y-137000000D01*
X162747828Y-137000000D01*
X162747844Y-136999999D01*
X162807372Y-136993598D01*
X162807379Y-136993596D01*
X162942086Y-136943354D01*
X162942093Y-136943350D01*
X163057187Y-136857190D01*
X163057190Y-136857187D01*
X163143350Y-136742093D01*
X163143354Y-136742086D01*
X163193596Y-136607379D01*
X163193598Y-136607372D01*
X163199999Y-136547844D01*
X163200000Y-136547827D01*
X163200000Y-135250000D01*
X161748482Y-135250000D01*
X161759111Y-135231591D01*
X161800000Y-135078991D01*
X161800000Y-134921009D01*
X161759111Y-134768409D01*
X161748482Y-134750000D01*
X163200000Y-134750000D01*
X163200000Y-133452172D01*
X163199999Y-133452155D01*
X163193598Y-133392627D01*
X163193596Y-133392620D01*
X163143354Y-133257913D01*
X163143350Y-133257906D01*
X163057190Y-133142812D01*
X163057187Y-133142809D01*
X162942093Y-133056649D01*
X162942086Y-133056645D01*
X162807379Y-133006403D01*
X162807372Y-133006401D01*
X162747844Y-133000000D01*
X161450000Y-133000000D01*
X161450000Y-134451517D01*
X161431591Y-134440889D01*
X161278991Y-134400000D01*
X161121009Y-134400000D01*
X160968409Y-134440889D01*
X160950000Y-134451517D01*
X160950000Y-133000000D01*
X159652155Y-133000000D01*
X159592627Y-133006401D01*
X159592620Y-133006403D01*
X159457913Y-133056645D01*
X159457906Y-133056649D01*
X159342812Y-133142809D01*
X159342809Y-133142812D01*
X159256649Y-133257906D01*
X159256645Y-133257913D01*
X159206403Y-133392620D01*
X159206401Y-133392627D01*
X159200000Y-133452155D01*
X103968984Y-133452155D01*
X103956054Y-133403900D01*
X103863224Y-133179788D01*
X103741936Y-132969711D01*
X103594265Y-132777262D01*
X103594260Y-132777256D01*
X103422743Y-132605739D01*
X103422736Y-132605733D01*
X103230293Y-132458067D01*
X103230292Y-132458066D01*
X103230289Y-132458064D01*
X103020212Y-132336776D01*
X103020205Y-132336773D01*
X102796104Y-132243947D01*
X102561785Y-132181161D01*
X102321289Y-132149500D01*
X102321288Y-132149500D01*
X102078712Y-132149500D01*
X102078711Y-132149500D01*
X101838214Y-132181161D01*
X101603895Y-132243947D01*
X101379794Y-132336773D01*
X101379785Y-132336777D01*
X101169706Y-132458067D01*
X100977263Y-132605733D01*
X100977256Y-132605739D01*
X100805739Y-132777256D01*
X100805733Y-132777263D01*
X100658067Y-132969706D01*
X100536777Y-133179785D01*
X100536773Y-133179794D01*
X100443947Y-133403895D01*
X100381161Y-133638214D01*
X100349500Y-133878711D01*
X97700500Y-133878711D01*
X97700500Y-116393713D01*
X98349500Y-116393713D01*
X98349500Y-116606287D01*
X98382754Y-116816243D01*
X98416841Y-116921153D01*
X98448444Y-117018414D01*
X98544951Y-117207820D01*
X98669890Y-117379786D01*
X98820213Y-117530109D01*
X98992182Y-117655050D01*
X99000946Y-117659516D01*
X99051742Y-117707491D01*
X99068536Y-117775312D01*
X99045998Y-117841447D01*
X99000946Y-117880484D01*
X98992182Y-117884949D01*
X98820213Y-118009890D01*
X98669890Y-118160213D01*
X98544951Y-118332179D01*
X98448444Y-118521585D01*
X98382753Y-118723760D01*
X98349500Y-118933713D01*
X98349500Y-119146286D01*
X98382753Y-119356239D01*
X98448444Y-119558414D01*
X98544951Y-119747820D01*
X98669890Y-119919786D01*
X98820213Y-120070109D01*
X98992179Y-120195048D01*
X98992181Y-120195049D01*
X98992184Y-120195051D01*
X99181588Y-120291557D01*
X99383757Y-120357246D01*
X99593713Y-120390500D01*
X99593714Y-120390500D01*
X99806286Y-120390500D01*
X99806287Y-120390500D01*
X100016243Y-120357246D01*
X100218412Y-120291557D01*
X100407816Y-120195051D01*
X100429789Y-120179086D01*
X100579786Y-120070109D01*
X100579788Y-120070106D01*
X100579792Y-120070104D01*
X100730104Y-119919792D01*
X100730106Y-119919788D01*
X100730109Y-119919786D01*
X100855048Y-119747820D01*
X100855047Y-119747820D01*
X100855051Y-119747816D01*
X100951557Y-119558412D01*
X101017246Y-119356243D01*
X101050500Y-119146287D01*
X101050500Y-118933713D01*
X101017246Y-118723757D01*
X100951557Y-118521588D01*
X100855051Y-118332184D01*
X100855049Y-118332181D01*
X100855048Y-118332179D01*
X100730109Y-118160213D01*
X100579786Y-118009890D01*
X100407820Y-117884951D01*
X100407115Y-117884591D01*
X100399054Y-117880485D01*
X100348259Y-117832512D01*
X100331463Y-117764692D01*
X100353999Y-117698556D01*
X100399054Y-117659515D01*
X100407816Y-117655051D01*
X100453602Y-117621786D01*
X100579786Y-117530109D01*
X100579788Y-117530106D01*
X100579792Y-117530104D01*
X100730104Y-117379792D01*
X100730555Y-117379172D01*
X100741687Y-117363848D01*
X100823229Y-117251614D01*
X100878558Y-117208949D01*
X100923547Y-117200500D01*
X104538256Y-117200500D01*
X104605295Y-117220185D01*
X104638575Y-117251616D01*
X104708030Y-117347215D01*
X104852786Y-117491971D01*
X105007749Y-117604556D01*
X105018390Y-117612287D01*
X105102319Y-117655051D01*
X105200776Y-117705218D01*
X105200778Y-117705218D01*
X105200781Y-117705220D01*
X105305137Y-117739127D01*
X105395465Y-117768477D01*
X105496557Y-117784488D01*
X105597648Y-117800500D01*
X105597649Y-117800500D01*
X105802351Y-117800500D01*
X105802352Y-117800500D01*
X106004534Y-117768477D01*
X106199219Y-117705220D01*
X106381610Y-117612287D01*
X106494726Y-117530104D01*
X106547213Y-117491971D01*
X106547215Y-117491968D01*
X106547219Y-117491966D01*
X106691966Y-117347219D01*
X106691968Y-117347215D01*
X106691971Y-117347213D01*
X106774595Y-117233489D01*
X106812287Y-117181610D01*
X106905220Y-116999219D01*
X106968477Y-116804534D01*
X107000500Y-116602352D01*
X107000500Y-116397648D01*
X106973989Y-116230264D01*
X106968477Y-116195465D01*
X106905218Y-116000776D01*
X106819125Y-115831811D01*
X106812287Y-115818390D01*
X106798563Y-115799500D01*
X106691971Y-115652786D01*
X106547213Y-115508028D01*
X106381611Y-115387713D01*
X106327621Y-115360203D01*
X106276825Y-115312228D01*
X106260031Y-115244407D01*
X106282569Y-115178272D01*
X106327624Y-115139233D01*
X106381349Y-115111859D01*
X106425921Y-115079474D01*
X105746447Y-114400000D01*
X105752661Y-114400000D01*
X105854394Y-114372741D01*
X105945606Y-114320080D01*
X106020080Y-114245606D01*
X106072741Y-114154394D01*
X106100000Y-114052661D01*
X106100000Y-114046447D01*
X106779474Y-114725921D01*
X106811859Y-114681349D01*
X106904755Y-114499031D01*
X106967990Y-114304417D01*
X107000000Y-114102317D01*
X107000000Y-113897682D01*
X106967990Y-113695582D01*
X106904755Y-113500968D01*
X106811859Y-113318650D01*
X106779474Y-113274077D01*
X106779474Y-113274076D01*
X106100000Y-113953551D01*
X106100000Y-113947339D01*
X106072741Y-113845606D01*
X106020080Y-113754394D01*
X105945606Y-113679920D01*
X105854394Y-113627259D01*
X105752661Y-113600000D01*
X105746446Y-113600000D01*
X106331191Y-113015256D01*
X106425922Y-112920524D01*
X106425921Y-112920523D01*
X106381359Y-112888147D01*
X106381350Y-112888141D01*
X106199031Y-112795244D01*
X106004417Y-112732009D01*
X105802317Y-112700000D01*
X105597683Y-112700000D01*
X105395582Y-112732009D01*
X105200968Y-112795244D01*
X105018644Y-112888143D01*
X104974077Y-112920523D01*
X104974077Y-112920524D01*
X105653554Y-113600000D01*
X105647339Y-113600000D01*
X105545606Y-113627259D01*
X105454394Y-113679920D01*
X105379920Y-113754394D01*
X105327259Y-113845606D01*
X105300000Y-113947339D01*
X105300000Y-113953553D01*
X104620524Y-113274077D01*
X104620523Y-113274077D01*
X104588143Y-113318644D01*
X104495244Y-113500968D01*
X104432009Y-113695582D01*
X104400000Y-113897682D01*
X104400000Y-114102317D01*
X104432009Y-114304417D01*
X104495244Y-114499031D01*
X104588141Y-114681350D01*
X104588147Y-114681359D01*
X104620523Y-114725921D01*
X104620524Y-114725922D01*
X105300000Y-114046446D01*
X105300000Y-114052661D01*
X105327259Y-114154394D01*
X105379920Y-114245606D01*
X105454394Y-114320080D01*
X105545606Y-114372741D01*
X105647339Y-114400000D01*
X105653553Y-114400000D01*
X104974076Y-115079474D01*
X105018652Y-115111861D01*
X105072376Y-115139234D01*
X105123172Y-115187208D01*
X105139968Y-115255028D01*
X105117431Y-115321164D01*
X105072379Y-115360203D01*
X105018386Y-115387714D01*
X104852786Y-115508028D01*
X104708030Y-115652784D01*
X104638575Y-115748384D01*
X104583245Y-115791051D01*
X104538256Y-115799500D01*
X100923547Y-115799500D01*
X100856508Y-115779815D01*
X100823230Y-115748385D01*
X100781682Y-115691200D01*
X100730107Y-115620211D01*
X100616181Y-115506285D01*
X100582696Y-115444962D01*
X100587680Y-115375270D01*
X100629552Y-115319337D01*
X100660529Y-115302422D01*
X100792086Y-115253354D01*
X100792093Y-115253350D01*
X100907187Y-115167190D01*
X100907190Y-115167187D01*
X100993350Y-115052093D01*
X100993354Y-115052086D01*
X101043596Y-114917379D01*
X101043598Y-114917372D01*
X101049999Y-114857844D01*
X101050000Y-114857827D01*
X101050000Y-114210000D01*
X100133012Y-114210000D01*
X100165925Y-114152993D01*
X100200000Y-114025826D01*
X100200000Y-113894174D01*
X100165925Y-113767007D01*
X100133012Y-113710000D01*
X101050000Y-113710000D01*
X101050000Y-113062172D01*
X101049999Y-113062155D01*
X101043598Y-113002623D01*
X100993354Y-112867913D01*
X100993350Y-112867906D01*
X100907190Y-112752812D01*
X100907187Y-112752809D01*
X100792093Y-112666649D01*
X100792086Y-112666645D01*
X100657379Y-112616403D01*
X100657372Y-112616401D01*
X100597844Y-112610000D01*
X99950000Y-112610000D01*
X99950000Y-113526988D01*
X99892993Y-113494075D01*
X99765826Y-113460000D01*
X99634174Y-113460000D01*
X99507007Y-113494075D01*
X99450000Y-113526988D01*
X99450000Y-112610000D01*
X98802155Y-112610000D01*
X98742627Y-112616401D01*
X98742620Y-112616403D01*
X98607913Y-112666645D01*
X98607906Y-112666649D01*
X98492812Y-112752809D01*
X98492809Y-112752812D01*
X98406649Y-112867906D01*
X98406645Y-112867913D01*
X98356403Y-113002620D01*
X98356401Y-113002627D01*
X98350000Y-113062155D01*
X98350000Y-113710000D01*
X99266988Y-113710000D01*
X99234075Y-113767007D01*
X99200000Y-113894174D01*
X99200000Y-114025826D01*
X99234075Y-114152993D01*
X99266988Y-114210000D01*
X98350000Y-114210000D01*
X98350000Y-114857844D01*
X98356401Y-114917372D01*
X98356403Y-114917379D01*
X98406645Y-115052086D01*
X98406649Y-115052093D01*
X98492809Y-115167187D01*
X98492812Y-115167190D01*
X98607906Y-115253350D01*
X98607913Y-115253354D01*
X98739470Y-115302422D01*
X98795404Y-115344293D01*
X98819821Y-115409758D01*
X98804969Y-115478031D01*
X98783819Y-115506285D01*
X98669889Y-115620215D01*
X98544951Y-115792179D01*
X98448444Y-115981585D01*
X98382753Y-116183760D01*
X98365830Y-116290609D01*
X98349500Y-116393713D01*
X97700500Y-116393713D01*
X97700500Y-99935803D01*
X103200000Y-99935803D01*
X103200000Y-100750000D01*
X104700000Y-100750000D01*
X104700000Y-101250000D01*
X103200001Y-101250000D01*
X103200001Y-102064197D01*
X103210400Y-102196332D01*
X103265377Y-102414519D01*
X103358428Y-102619374D01*
X103358431Y-102619380D01*
X103486559Y-102804323D01*
X103486569Y-102804335D01*
X103645664Y-102963430D01*
X103645676Y-102963440D01*
X103830619Y-103091568D01*
X103830625Y-103091571D01*
X104035480Y-103184622D01*
X104253667Y-103239599D01*
X104385810Y-103249999D01*
X104949999Y-103249999D01*
X104950000Y-103249998D01*
X104950000Y-102433012D01*
X105007007Y-102465925D01*
X105134174Y-102500000D01*
X105265826Y-102500000D01*
X105392993Y-102465925D01*
X105450000Y-102433012D01*
X105450000Y-103249999D01*
X106014182Y-103249999D01*
X106014197Y-103249998D01*
X106146332Y-103239599D01*
X106364519Y-103184622D01*
X106569374Y-103091571D01*
X106569380Y-103091568D01*
X106754323Y-102963440D01*
X106754335Y-102963430D01*
X106913430Y-102804335D01*
X106913440Y-102804323D01*
X107041568Y-102619380D01*
X107041571Y-102619374D01*
X107134622Y-102414519D01*
X107189599Y-102196332D01*
X107199999Y-102064196D01*
X107200000Y-102064184D01*
X107200000Y-101250000D01*
X105700000Y-101250000D01*
X105700000Y-100750000D01*
X107199999Y-100750000D01*
X107199999Y-99935817D01*
X107199998Y-99935802D01*
X107189599Y-99803667D01*
X107134622Y-99585480D01*
X107041571Y-99380625D01*
X107041568Y-99380619D01*
X106913440Y-99195676D01*
X106913430Y-99195664D01*
X106754335Y-99036569D01*
X106754323Y-99036559D01*
X106569380Y-98908431D01*
X106569374Y-98908428D01*
X106364519Y-98815377D01*
X106146332Y-98760400D01*
X106014196Y-98750000D01*
X105450000Y-98750000D01*
X105450000Y-99566988D01*
X105392993Y-99534075D01*
X105265826Y-99500000D01*
X105134174Y-99500000D01*
X105007007Y-99534075D01*
X104950000Y-99566988D01*
X104950000Y-98750000D01*
X104385817Y-98750000D01*
X104385802Y-98750001D01*
X104253667Y-98760400D01*
X104035480Y-98815377D01*
X103830625Y-98908428D01*
X103830619Y-98908431D01*
X103645676Y-99036559D01*
X103645664Y-99036569D01*
X103486569Y-99195664D01*
X103486559Y-99195676D01*
X103358431Y-99380619D01*
X103358428Y-99380625D01*
X103265377Y-99585480D01*
X103210400Y-99803667D01*
X103200000Y-99935803D01*
X97700500Y-99935803D01*
X97700500Y-92096386D01*
X105949500Y-92096386D01*
X105949500Y-94033613D01*
X105949501Y-94033652D01*
X105952295Y-94086243D01*
X105952295Y-94086244D01*
X105982032Y-94239998D01*
X105996755Y-94316126D01*
X106032241Y-94410157D01*
X106079425Y-94535189D01*
X106197929Y-94737131D01*
X106197934Y-94737138D01*
X106348856Y-94916141D01*
X106348858Y-94916143D01*
X106527861Y-95067065D01*
X106527868Y-95067070D01*
X106729810Y-95185574D01*
X106948874Y-95268245D01*
X107178759Y-95312705D01*
X107231378Y-95315500D01*
X107231386Y-95315500D01*
X109168614Y-95315500D01*
X109168622Y-95315500D01*
X109221241Y-95312705D01*
X109451126Y-95268245D01*
X109670190Y-95185574D01*
X109872132Y-95067070D01*
X110020055Y-94942352D01*
X110051141Y-94916143D01*
X110051143Y-94916141D01*
X110202065Y-94737138D01*
X110202065Y-94737137D01*
X110202070Y-94737132D01*
X110320574Y-94535190D01*
X110403245Y-94316126D01*
X110447705Y-94086241D01*
X110450500Y-94033622D01*
X110450500Y-92096378D01*
X110447705Y-92043759D01*
X110403245Y-91813874D01*
X110320574Y-91594810D01*
X110202070Y-91392868D01*
X110202065Y-91392861D01*
X110051143Y-91213858D01*
X110051141Y-91213856D01*
X109872138Y-91062934D01*
X109872131Y-91062929D01*
X109670189Y-90944425D01*
X109572513Y-90907564D01*
X109451126Y-90861755D01*
X109451121Y-90861754D01*
X109451116Y-90861752D01*
X109448470Y-90861240D01*
X109447451Y-90860713D01*
X109446050Y-90860317D01*
X109446130Y-90860031D01*
X109386392Y-90829177D01*
X109351503Y-90768641D01*
X109354881Y-90698853D01*
X109395452Y-90641970D01*
X109460337Y-90616052D01*
X109472009Y-90615499D01*
X112997872Y-90615499D01*
X113057483Y-90609091D01*
X113192331Y-90558796D01*
X113307546Y-90472546D01*
X113393796Y-90357331D01*
X113444091Y-90222483D01*
X113450500Y-90162873D01*
X113450500Y-89189500D01*
X113470185Y-89122461D01*
X113522989Y-89076706D01*
X113574500Y-89065500D01*
X118335500Y-89065500D01*
X118402539Y-89085185D01*
X118448294Y-89137989D01*
X118459500Y-89189500D01*
X118459500Y-90698480D01*
X118439815Y-90765519D01*
X118423181Y-90786161D01*
X117655888Y-91553453D01*
X117655887Y-91553454D01*
X117631763Y-91589558D01*
X117607748Y-91625501D01*
X117593437Y-91646918D01*
X117579223Y-91668191D01*
X117526421Y-91795667D01*
X117526418Y-91795677D01*
X117499500Y-91931004D01*
X117499500Y-93658480D01*
X117479815Y-93725519D01*
X117463181Y-93746161D01*
X112496160Y-98713181D01*
X112434837Y-98746666D01*
X112408479Y-98749500D01*
X109402129Y-98749500D01*
X109402123Y-98749501D01*
X109342516Y-98755908D01*
X109207671Y-98806202D01*
X109207664Y-98806206D01*
X109092455Y-98892452D01*
X109092452Y-98892455D01*
X109006206Y-99007664D01*
X109006202Y-99007671D01*
X108955908Y-99142517D01*
X108949501Y-99202116D01*
X108949500Y-99202135D01*
X108949500Y-102797870D01*
X108949501Y-102797876D01*
X108955908Y-102857483D01*
X109006202Y-102992328D01*
X109006206Y-102992335D01*
X109092452Y-103107544D01*
X109092455Y-103107547D01*
X109207664Y-103193793D01*
X109207673Y-103193798D01*
X109254937Y-103211426D01*
X109310871Y-103253296D01*
X109335289Y-103318760D01*
X109320438Y-103387033D01*
X109271033Y-103436439D01*
X109205028Y-103451433D01*
X109168657Y-103449501D01*
X109168628Y-103449500D01*
X109168622Y-103449500D01*
X107231378Y-103449500D01*
X107231370Y-103449500D01*
X107231347Y-103449501D01*
X107178756Y-103452295D01*
X107178755Y-103452295D01*
X106948878Y-103496754D01*
X106948876Y-103496754D01*
X106948874Y-103496755D01*
X106879809Y-103522819D01*
X106729810Y-103579425D01*
X106527868Y-103697929D01*
X106527861Y-103697934D01*
X106348858Y-103848856D01*
X106348856Y-103848858D01*
X106197934Y-104027861D01*
X106197929Y-104027868D01*
X106079425Y-104229810D01*
X106030711Y-104358897D01*
X105996755Y-104448874D01*
X105996754Y-104448876D01*
X105996754Y-104448878D01*
X105952295Y-104678755D01*
X105952295Y-104678756D01*
X105949501Y-104731347D01*
X105949500Y-104731386D01*
X105949500Y-106668613D01*
X105949501Y-106668652D01*
X105952295Y-106721243D01*
X105952295Y-106721244D01*
X105995127Y-106942710D01*
X105996755Y-106951126D01*
X106042716Y-107072914D01*
X106079425Y-107170189D01*
X106197929Y-107372131D01*
X106197934Y-107372138D01*
X106348856Y-107551141D01*
X106348858Y-107551143D01*
X106527861Y-107702065D01*
X106527868Y-107702070D01*
X106729810Y-107820574D01*
X106948874Y-107903245D01*
X107178759Y-107947705D01*
X107231378Y-107950500D01*
X107231386Y-107950500D01*
X109168614Y-107950500D01*
X109168622Y-107950500D01*
X109221241Y-107947705D01*
X109451126Y-107903245D01*
X109670190Y-107820574D01*
X109872132Y-107702070D01*
X109942961Y-107642352D01*
X110051141Y-107551143D01*
X110051143Y-107551141D01*
X110202065Y-107372138D01*
X110202065Y-107372137D01*
X110202070Y-107372132D01*
X110320574Y-107170190D01*
X110403245Y-106951126D01*
X110447705Y-106721241D01*
X110450500Y-106668622D01*
X110450500Y-105599983D01*
X130899500Y-105599983D01*
X130899500Y-106400001D01*
X130899501Y-106400019D01*
X130910000Y-106502796D01*
X130910001Y-106502799D01*
X130965185Y-106669331D01*
X130965187Y-106669336D01*
X130979648Y-106692781D01*
X131057288Y-106818656D01*
X131181344Y-106942712D01*
X131330666Y-107034814D01*
X131497203Y-107089999D01*
X131599991Y-107100500D01*
X132400008Y-107100499D01*
X132400016Y-107100498D01*
X132400019Y-107100498D01*
X132456302Y-107094748D01*
X132502797Y-107089999D01*
X132669334Y-107034814D01*
X132818656Y-106942712D01*
X132825079Y-106936289D01*
X133417261Y-106936289D01*
X133417262Y-106936290D01*
X133423471Y-106940801D01*
X133577742Y-107019408D01*
X133742415Y-107072914D01*
X133913429Y-107100000D01*
X134086571Y-107100000D01*
X134257584Y-107072914D01*
X134422257Y-107019408D01*
X134576525Y-106940803D01*
X134582736Y-106936289D01*
X134582737Y-106936289D01*
X134000001Y-106353553D01*
X134000000Y-106353553D01*
X133417261Y-106936289D01*
X132825079Y-106936289D01*
X132942712Y-106818656D01*
X133034814Y-106669334D01*
X133054167Y-106610930D01*
X133084191Y-106562254D01*
X133646446Y-106000000D01*
X133646446Y-105999999D01*
X133606951Y-105960504D01*
X133700000Y-105960504D01*
X133700000Y-106039496D01*
X133720444Y-106115796D01*
X133759940Y-106184205D01*
X133815795Y-106240060D01*
X133884204Y-106279556D01*
X133960504Y-106300000D01*
X134039496Y-106300000D01*
X134115796Y-106279556D01*
X134184205Y-106240060D01*
X134240060Y-106184205D01*
X134279556Y-106115796D01*
X134300000Y-106039496D01*
X134300000Y-105999999D01*
X134353553Y-105999999D01*
X134353553Y-106000000D01*
X134936289Y-106582736D01*
X134940803Y-106576525D01*
X135019408Y-106422257D01*
X135072914Y-106257584D01*
X135100000Y-106086571D01*
X135100000Y-105913428D01*
X135072914Y-105742415D01*
X135019408Y-105577742D01*
X134940801Y-105423471D01*
X134936290Y-105417262D01*
X134936289Y-105417261D01*
X134353553Y-105999999D01*
X134300000Y-105999999D01*
X134300000Y-105960504D01*
X134279556Y-105884204D01*
X134240060Y-105815795D01*
X134184205Y-105759940D01*
X134115796Y-105720444D01*
X134039496Y-105700000D01*
X133960504Y-105700000D01*
X133884204Y-105720444D01*
X133815795Y-105759940D01*
X133759940Y-105815795D01*
X133720444Y-105884204D01*
X133700000Y-105960504D01*
X133606951Y-105960504D01*
X133084190Y-105437743D01*
X133054166Y-105389066D01*
X133034814Y-105330666D01*
X132942712Y-105181344D01*
X132825076Y-105063708D01*
X133417261Y-105063708D01*
X133417261Y-105063709D01*
X134000000Y-105646446D01*
X134000001Y-105646446D01*
X134582737Y-105063709D01*
X134576523Y-105059195D01*
X134422259Y-104980592D01*
X134413198Y-104977648D01*
X137399500Y-104977648D01*
X137399500Y-105182351D01*
X137431522Y-105384534D01*
X137494781Y-105579223D01*
X137531849Y-105651971D01*
X137586862Y-105759940D01*
X137587715Y-105761613D01*
X137708028Y-105927213D01*
X137852786Y-106071971D01*
X138007266Y-106184205D01*
X138018390Y-106192287D01*
X138111051Y-106239500D01*
X138200776Y-106285218D01*
X138200778Y-106285218D01*
X138200781Y-106285220D01*
X138305137Y-106319127D01*
X138395465Y-106348477D01*
X138496557Y-106364488D01*
X138597648Y-106380500D01*
X138597649Y-106380500D01*
X138802351Y-106380500D01*
X138802352Y-106380500D01*
X139004534Y-106348477D01*
X139199219Y-106285220D01*
X139381610Y-106192287D01*
X139486892Y-106115796D01*
X139547213Y-106071971D01*
X139547215Y-106071968D01*
X139547219Y-106071966D01*
X139691966Y-105927219D01*
X139691968Y-105927215D01*
X139691971Y-105927213D01*
X139750325Y-105846894D01*
X139812287Y-105761610D01*
X139905220Y-105579219D01*
X139968477Y-105384534D01*
X140000500Y-105182352D01*
X140000500Y-104977648D01*
X139995699Y-104947339D01*
X139968477Y-104775465D01*
X139921428Y-104630665D01*
X139905220Y-104580781D01*
X139905218Y-104580778D01*
X139905218Y-104580776D01*
X139854307Y-104480859D01*
X139812287Y-104398390D01*
X139781101Y-104355466D01*
X139691971Y-104232786D01*
X139547213Y-104088028D01*
X139381613Y-103967715D01*
X139381612Y-103967714D01*
X139381610Y-103967713D01*
X139304205Y-103928273D01*
X139199223Y-103874781D01*
X139004534Y-103811522D01*
X138829995Y-103783878D01*
X138802352Y-103779500D01*
X138597648Y-103779500D01*
X138573329Y-103783351D01*
X138395465Y-103811522D01*
X138200776Y-103874781D01*
X138018386Y-103967715D01*
X137852786Y-104088028D01*
X137708028Y-104232786D01*
X137587715Y-104398386D01*
X137494781Y-104580776D01*
X137431522Y-104775465D01*
X137399500Y-104977648D01*
X134413198Y-104977648D01*
X134257584Y-104927085D01*
X134086571Y-104900000D01*
X133913429Y-104900000D01*
X133742415Y-104927085D01*
X133577740Y-104980592D01*
X133423480Y-105059193D01*
X133423463Y-105059203D01*
X133417261Y-105063708D01*
X132825076Y-105063708D01*
X132818656Y-105057288D01*
X132818655Y-105057287D01*
X132759402Y-105020739D01*
X132712678Y-104968791D01*
X132700500Y-104915201D01*
X132700500Y-101961518D01*
X132720185Y-101894479D01*
X132736814Y-101873842D01*
X138373852Y-96236803D01*
X138435173Y-96203320D01*
X138480929Y-96202013D01*
X138507636Y-96206243D01*
X138597648Y-96220500D01*
X138597649Y-96220500D01*
X138802351Y-96220500D01*
X138802352Y-96220500D01*
X139004534Y-96188477D01*
X139199219Y-96125220D01*
X139381610Y-96032287D01*
X139484941Y-95957213D01*
X139547213Y-95911971D01*
X139547215Y-95911968D01*
X139547219Y-95911966D01*
X139691966Y-95767219D01*
X139691968Y-95767215D01*
X139691971Y-95767213D01*
X139757368Y-95677200D01*
X139812287Y-95601610D01*
X139905220Y-95419219D01*
X139968477Y-95224534D01*
X140000500Y-95022352D01*
X140000500Y-94817648D01*
X139968477Y-94615466D01*
X139968476Y-94615462D01*
X139968476Y-94615461D01*
X139945631Y-94545152D01*
X139934203Y-94509983D01*
X141879500Y-94509983D01*
X141879500Y-95710001D01*
X141879501Y-95710018D01*
X141890000Y-95812796D01*
X141890001Y-95812799D01*
X141945185Y-95979331D01*
X141945187Y-95979336D01*
X141957634Y-95999515D01*
X142037288Y-96128656D01*
X142161344Y-96252712D01*
X142310666Y-96344814D01*
X142392570Y-96371954D01*
X142450015Y-96411727D01*
X142476838Y-96476243D01*
X142464523Y-96545018D01*
X142426451Y-96589978D01*
X142332787Y-96658028D01*
X142332782Y-96658032D01*
X142188028Y-96802786D01*
X142067715Y-96968386D01*
X141974781Y-97150776D01*
X141911522Y-97345465D01*
X141879500Y-97547648D01*
X141879500Y-97752351D01*
X141911522Y-97954534D01*
X141974781Y-98149223D01*
X142020213Y-98238386D01*
X142046820Y-98290606D01*
X142067715Y-98331613D01*
X142188028Y-98497213D01*
X142332786Y-98641971D01*
X142449836Y-98727011D01*
X142498390Y-98762287D01*
X142584578Y-98806202D01*
X142591080Y-98809515D01*
X142641876Y-98857490D01*
X142658671Y-98925311D01*
X142636134Y-98991446D01*
X142591080Y-99030485D01*
X142498386Y-99077715D01*
X142332786Y-99198028D01*
X142188028Y-99342786D01*
X142067715Y-99508386D01*
X141974781Y-99690776D01*
X141911522Y-99885465D01*
X141879500Y-100087648D01*
X141879500Y-100292352D01*
X141881569Y-100305412D01*
X141911522Y-100494534D01*
X141974781Y-100689223D01*
X142014520Y-100767213D01*
X142063620Y-100863578D01*
X142067715Y-100871613D01*
X142188028Y-101037213D01*
X142332786Y-101181971D01*
X142478986Y-101288189D01*
X142498390Y-101302287D01*
X142587543Y-101347713D01*
X142591080Y-101349515D01*
X142641876Y-101397490D01*
X142658671Y-101465311D01*
X142636134Y-101531446D01*
X142591080Y-101570485D01*
X142498386Y-101617715D01*
X142332786Y-101738028D01*
X142188028Y-101882786D01*
X142067715Y-102048386D01*
X141974781Y-102230776D01*
X141911522Y-102425465D01*
X141879500Y-102627648D01*
X141879500Y-102832351D01*
X141911522Y-103034534D01*
X141974781Y-103229223D01*
X142027955Y-103333581D01*
X142055190Y-103387033D01*
X142067715Y-103411613D01*
X142188028Y-103577213D01*
X142332786Y-103721971D01*
X142457778Y-103812781D01*
X142498390Y-103842287D01*
X142587543Y-103887713D01*
X142591080Y-103889515D01*
X142641876Y-103937490D01*
X142658671Y-104005311D01*
X142636134Y-104071446D01*
X142591080Y-104110485D01*
X142498386Y-104157715D01*
X142332786Y-104278028D01*
X142188028Y-104422786D01*
X142067715Y-104588386D01*
X141974781Y-104770776D01*
X141911522Y-104965465D01*
X141889842Y-105102351D01*
X141879500Y-105167648D01*
X141879500Y-105372352D01*
X141882147Y-105389065D01*
X141911522Y-105574534D01*
X141974781Y-105769223D01*
X142067715Y-105951613D01*
X142188028Y-106117213D01*
X142332786Y-106261971D01*
X142487749Y-106374556D01*
X142498390Y-106382287D01*
X142587543Y-106427713D01*
X142591080Y-106429515D01*
X142641876Y-106477490D01*
X142658671Y-106545311D01*
X142636134Y-106611446D01*
X142591080Y-106650485D01*
X142498386Y-106697715D01*
X142332786Y-106818028D01*
X142188028Y-106962786D01*
X142067715Y-107128386D01*
X141974781Y-107310776D01*
X141911522Y-107505465D01*
X141879500Y-107707648D01*
X141879500Y-107912351D01*
X141911522Y-108114534D01*
X141974781Y-108309223D01*
X142067715Y-108491613D01*
X142188028Y-108657213D01*
X142332786Y-108801971D01*
X142487749Y-108914556D01*
X142498390Y-108922287D01*
X142587543Y-108967713D01*
X142591080Y-108969515D01*
X142641876Y-109017490D01*
X142658671Y-109085311D01*
X142636134Y-109151446D01*
X142591080Y-109190485D01*
X142498386Y-109237715D01*
X142332786Y-109358028D01*
X142188028Y-109502786D01*
X142067715Y-109668386D01*
X141974781Y-109850776D01*
X141911522Y-110045465D01*
X141901484Y-110108846D01*
X141879500Y-110247648D01*
X141879500Y-110452352D01*
X141880788Y-110460485D01*
X141911522Y-110654534D01*
X141974781Y-110849223D01*
X142067715Y-111031613D01*
X142188028Y-111197213D01*
X142332786Y-111341971D01*
X142487749Y-111454556D01*
X142498390Y-111462287D01*
X142570424Y-111498990D01*
X142591629Y-111509795D01*
X142642425Y-111557770D01*
X142659220Y-111625591D01*
X142636682Y-111691726D01*
X142591629Y-111730765D01*
X142498650Y-111778140D01*
X142333105Y-111898417D01*
X142333104Y-111898417D01*
X142188417Y-112043104D01*
X142188417Y-112043105D01*
X142068140Y-112208650D01*
X141975244Y-112390970D01*
X141912009Y-112585586D01*
X141903391Y-112640000D01*
X143264314Y-112640000D01*
X143259920Y-112644394D01*
X143207259Y-112735606D01*
X143180000Y-112837339D01*
X143180000Y-112942661D01*
X143207259Y-113044394D01*
X143259920Y-113135606D01*
X143264314Y-113140000D01*
X141903391Y-113140000D01*
X141912009Y-113194413D01*
X141975244Y-113389029D01*
X142068140Y-113571349D01*
X142188417Y-113736894D01*
X142188417Y-113736895D01*
X142333104Y-113881582D01*
X142498650Y-114001859D01*
X142680968Y-114094755D01*
X142875582Y-114157990D01*
X143077683Y-114190000D01*
X143330000Y-114190000D01*
X143330000Y-113205686D01*
X143334394Y-113210080D01*
X143425606Y-113262741D01*
X143527339Y-113290000D01*
X143632661Y-113290000D01*
X143734394Y-113262741D01*
X143825606Y-113210080D01*
X143830000Y-113205686D01*
X143830000Y-114190000D01*
X144082317Y-114190000D01*
X144284417Y-114157990D01*
X144479031Y-114094755D01*
X144661349Y-114001859D01*
X144826894Y-113881582D01*
X144826895Y-113881582D01*
X144971582Y-113736895D01*
X144971582Y-113736894D01*
X145091859Y-113571349D01*
X145184755Y-113389029D01*
X145247990Y-113194413D01*
X145256609Y-113140000D01*
X143895686Y-113140000D01*
X143900080Y-113135606D01*
X143952741Y-113044394D01*
X143980000Y-112942661D01*
X143980000Y-112837339D01*
X143952741Y-112735606D01*
X143900080Y-112644394D01*
X143895686Y-112640000D01*
X145256609Y-112640000D01*
X145247990Y-112585586D01*
X145184755Y-112390970D01*
X145091859Y-112208650D01*
X144971582Y-112043105D01*
X144971582Y-112043104D01*
X144826895Y-111898417D01*
X144661349Y-111778140D01*
X144568370Y-111730765D01*
X144517574Y-111682790D01*
X144500779Y-111614969D01*
X144523316Y-111548835D01*
X144568370Y-111509795D01*
X144568920Y-111509515D01*
X144661610Y-111462287D01*
X144682770Y-111446913D01*
X144827213Y-111341971D01*
X144827215Y-111341968D01*
X144827219Y-111341966D01*
X144971966Y-111197219D01*
X144971968Y-111197215D01*
X144971971Y-111197213D01*
X145062963Y-111071971D01*
X145092287Y-111031610D01*
X145185220Y-110849219D01*
X145248477Y-110654534D01*
X145280500Y-110452352D01*
X145280500Y-110247648D01*
X145248477Y-110045466D01*
X145185220Y-109850781D01*
X145185218Y-109850778D01*
X145185218Y-109850776D01*
X145146845Y-109775466D01*
X145092287Y-109668390D01*
X145079527Y-109650827D01*
X144971971Y-109502786D01*
X144827213Y-109358028D01*
X144661614Y-109237715D01*
X144645491Y-109229500D01*
X144568917Y-109190483D01*
X144518123Y-109142511D01*
X144501328Y-109074690D01*
X144523865Y-109008555D01*
X144568917Y-108969516D01*
X144661610Y-108922287D01*
X144682770Y-108906913D01*
X144827213Y-108801971D01*
X144827215Y-108801968D01*
X144827219Y-108801966D01*
X144971966Y-108657219D01*
X144971968Y-108657215D01*
X144971971Y-108657213D01*
X145062963Y-108531971D01*
X145092287Y-108491610D01*
X145185220Y-108309219D01*
X145248477Y-108114534D01*
X145280500Y-107912352D01*
X145280500Y-107707648D01*
X145255712Y-107551143D01*
X145248477Y-107505465D01*
X145185218Y-107310776D01*
X145146845Y-107235466D01*
X145092287Y-107128390D01*
X145072023Y-107100499D01*
X144971971Y-106962786D01*
X144827213Y-106818028D01*
X144661614Y-106697715D01*
X144651930Y-106692781D01*
X144568917Y-106650483D01*
X144518123Y-106602511D01*
X144501328Y-106534690D01*
X144523865Y-106468555D01*
X144568917Y-106429516D01*
X144661610Y-106382287D01*
X144708146Y-106348477D01*
X144827213Y-106261971D01*
X144827215Y-106261968D01*
X144827219Y-106261966D01*
X144971966Y-106117219D01*
X144971968Y-106117215D01*
X144971971Y-106117213D01*
X145057130Y-106000000D01*
X145092287Y-105951610D01*
X145185220Y-105769219D01*
X145248477Y-105574534D01*
X145280500Y-105372352D01*
X145280500Y-105167648D01*
X145263324Y-105059203D01*
X145248477Y-104965465D01*
X145186742Y-104775466D01*
X145185220Y-104770781D01*
X145185218Y-104770777D01*
X145183356Y-104766282D01*
X145185450Y-104765414D01*
X145174292Y-104705955D01*
X145200577Y-104641218D01*
X145209981Y-104630674D01*
X149342974Y-100497681D01*
X149404295Y-100464198D01*
X149473987Y-100469182D01*
X149529920Y-100511054D01*
X149548584Y-100547045D01*
X149594781Y-100689223D01*
X149634520Y-100767213D01*
X149683620Y-100863578D01*
X149687715Y-100871613D01*
X149808028Y-101037213D01*
X149952786Y-101181971D01*
X150098986Y-101288189D01*
X150118390Y-101302287D01*
X150190424Y-101338990D01*
X150211629Y-101349795D01*
X150262425Y-101397770D01*
X150279220Y-101465591D01*
X150256682Y-101531726D01*
X150211629Y-101570765D01*
X150118650Y-101618140D01*
X149953105Y-101738417D01*
X149953104Y-101738417D01*
X149808417Y-101883104D01*
X149808417Y-101883105D01*
X149688140Y-102048650D01*
X149595244Y-102230970D01*
X149532009Y-102425586D01*
X149523391Y-102480000D01*
X150884314Y-102480000D01*
X150879920Y-102484394D01*
X150827259Y-102575606D01*
X150800000Y-102677339D01*
X150800000Y-102782661D01*
X150827259Y-102884394D01*
X150879920Y-102975606D01*
X150884314Y-102980000D01*
X149523391Y-102980000D01*
X149532009Y-103034413D01*
X149595244Y-103229029D01*
X149688140Y-103411349D01*
X149808417Y-103576894D01*
X149808417Y-103576895D01*
X149953104Y-103721582D01*
X150118652Y-103841861D01*
X150211628Y-103889234D01*
X150262425Y-103937208D01*
X150279220Y-104005029D01*
X150256683Y-104071164D01*
X150211630Y-104110203D01*
X150118388Y-104157713D01*
X149952786Y-104278028D01*
X149808028Y-104422786D01*
X149687715Y-104588386D01*
X149594781Y-104770776D01*
X149531522Y-104965465D01*
X149509842Y-105102351D01*
X149499500Y-105167648D01*
X149499500Y-105372352D01*
X149502147Y-105389065D01*
X149531522Y-105574534D01*
X149594781Y-105769223D01*
X149687715Y-105951613D01*
X149808028Y-106117213D01*
X149952786Y-106261971D01*
X150107749Y-106374556D01*
X150118390Y-106382287D01*
X150207543Y-106427713D01*
X150211080Y-106429515D01*
X150261876Y-106477490D01*
X150278671Y-106545311D01*
X150256134Y-106611446D01*
X150211080Y-106650485D01*
X150118386Y-106697715D01*
X149952786Y-106818028D01*
X149808028Y-106962786D01*
X149687715Y-107128386D01*
X149594781Y-107310776D01*
X149531522Y-107505465D01*
X149499500Y-107707648D01*
X149499500Y-107912351D01*
X149531522Y-108114534D01*
X149594781Y-108309223D01*
X149687715Y-108491613D01*
X149808028Y-108657213D01*
X149952786Y-108801971D01*
X150107749Y-108914556D01*
X150118390Y-108922287D01*
X150207543Y-108967713D01*
X150211080Y-108969515D01*
X150261876Y-109017490D01*
X150278671Y-109085311D01*
X150256134Y-109151446D01*
X150211080Y-109190485D01*
X150118386Y-109237715D01*
X149952786Y-109358028D01*
X149808028Y-109502786D01*
X149687715Y-109668386D01*
X149594781Y-109850776D01*
X149531522Y-110045465D01*
X149521484Y-110108846D01*
X149499500Y-110247648D01*
X149499500Y-110452352D01*
X149500788Y-110460485D01*
X149531522Y-110654534D01*
X149594781Y-110849223D01*
X149687715Y-111031613D01*
X149808028Y-111197213D01*
X149952786Y-111341971D01*
X150107749Y-111454556D01*
X150118390Y-111462287D01*
X150207543Y-111507713D01*
X150211080Y-111509515D01*
X150261876Y-111557490D01*
X150278671Y-111625311D01*
X150256134Y-111691446D01*
X150211080Y-111730485D01*
X150118386Y-111777715D01*
X149952786Y-111898028D01*
X149808028Y-112042786D01*
X149687715Y-112208386D01*
X149594781Y-112390776D01*
X149531522Y-112585465D01*
X149501599Y-112774394D01*
X149499500Y-112787648D01*
X149499500Y-112992352D01*
X149503128Y-113015256D01*
X149531522Y-113194534D01*
X149594781Y-113389223D01*
X149687715Y-113571613D01*
X149808028Y-113737213D01*
X149952786Y-113881971D01*
X150103566Y-113991517D01*
X150118390Y-114002287D01*
X150234607Y-114061503D01*
X150300776Y-114095218D01*
X150300778Y-114095218D01*
X150300781Y-114095220D01*
X150405137Y-114129127D01*
X150495465Y-114158477D01*
X150537666Y-114165161D01*
X150697648Y-114190500D01*
X150697649Y-114190500D01*
X151702351Y-114190500D01*
X151702352Y-114190500D01*
X151904534Y-114158477D01*
X152099219Y-114095220D01*
X152281610Y-114002287D01*
X152394181Y-113920500D01*
X152447213Y-113881971D01*
X152447215Y-113881968D01*
X152447219Y-113881966D01*
X152591966Y-113737219D01*
X152591968Y-113737215D01*
X152591971Y-113737213D01*
X152657916Y-113646446D01*
X152712287Y-113571610D01*
X152805220Y-113389219D01*
X152868477Y-113194534D01*
X152900500Y-112992352D01*
X152900500Y-112787648D01*
X152880829Y-112663454D01*
X152868477Y-112585465D01*
X152829532Y-112465606D01*
X152805220Y-112390781D01*
X152805218Y-112390778D01*
X152805218Y-112390776D01*
X152766845Y-112315466D01*
X152712287Y-112208390D01*
X152704556Y-112197749D01*
X152591971Y-112042786D01*
X152447213Y-111898028D01*
X152281614Y-111777715D01*
X152271930Y-111772781D01*
X152188917Y-111730483D01*
X152138123Y-111682511D01*
X152121328Y-111614690D01*
X152143865Y-111548555D01*
X152188917Y-111509516D01*
X152281610Y-111462287D01*
X152302770Y-111446913D01*
X152447213Y-111341971D01*
X152447215Y-111341968D01*
X152447219Y-111341966D01*
X152591966Y-111197219D01*
X152591968Y-111197215D01*
X152591971Y-111197213D01*
X152682963Y-111071971D01*
X152712287Y-111031610D01*
X152805220Y-110849219D01*
X152868477Y-110654534D01*
X152900500Y-110452352D01*
X152900500Y-110247648D01*
X152868477Y-110045466D01*
X152805220Y-109850781D01*
X152805218Y-109850778D01*
X152805218Y-109850776D01*
X152766845Y-109775466D01*
X152712287Y-109668390D01*
X152699527Y-109650827D01*
X152591971Y-109502786D01*
X152447213Y-109358028D01*
X152281614Y-109237715D01*
X152265491Y-109229500D01*
X152188917Y-109190483D01*
X152138123Y-109142511D01*
X152121328Y-109074690D01*
X152143865Y-109008555D01*
X152188917Y-108969516D01*
X152281610Y-108922287D01*
X152302770Y-108906913D01*
X152447213Y-108801971D01*
X152447215Y-108801968D01*
X152447219Y-108801966D01*
X152591966Y-108657219D01*
X152591968Y-108657215D01*
X152591971Y-108657213D01*
X152682963Y-108531971D01*
X152712287Y-108491610D01*
X152805220Y-108309219D01*
X152868477Y-108114534D01*
X152900500Y-107912352D01*
X152900500Y-107707648D01*
X152875712Y-107551143D01*
X152868477Y-107505465D01*
X152805218Y-107310776D01*
X152766845Y-107235466D01*
X152712287Y-107128390D01*
X152692023Y-107100499D01*
X152591971Y-106962786D01*
X152447213Y-106818028D01*
X152281614Y-106697715D01*
X152271930Y-106692781D01*
X152188917Y-106650483D01*
X152138123Y-106602511D01*
X152121328Y-106534690D01*
X152143865Y-106468555D01*
X152188917Y-106429516D01*
X152281610Y-106382287D01*
X152328146Y-106348477D01*
X152447213Y-106261971D01*
X152447215Y-106261968D01*
X152447219Y-106261966D01*
X152591966Y-106117219D01*
X152591968Y-106117215D01*
X152591971Y-106117213D01*
X152677130Y-106000000D01*
X152712287Y-105951610D01*
X152805220Y-105769219D01*
X152868477Y-105574534D01*
X152900500Y-105372352D01*
X152900500Y-105167648D01*
X152883324Y-105059203D01*
X152868477Y-104965465D01*
X152805218Y-104770776D01*
X152766287Y-104694370D01*
X152712287Y-104588390D01*
X152689952Y-104557648D01*
X152591971Y-104422786D01*
X152447213Y-104278028D01*
X152281611Y-104157713D01*
X152188369Y-104110203D01*
X152137574Y-104062229D01*
X152120779Y-103994407D01*
X152143317Y-103928273D01*
X152188371Y-103889234D01*
X152281347Y-103841861D01*
X152446894Y-103721582D01*
X152446895Y-103721582D01*
X152591582Y-103576895D01*
X152591582Y-103576894D01*
X152711859Y-103411349D01*
X152804755Y-103229029D01*
X152867990Y-103034413D01*
X152876609Y-102980000D01*
X151515686Y-102980000D01*
X151520080Y-102975606D01*
X151572741Y-102884394D01*
X151600000Y-102782661D01*
X151600000Y-102677339D01*
X151572741Y-102575606D01*
X151520080Y-102484394D01*
X151515686Y-102480000D01*
X152876609Y-102480000D01*
X152867990Y-102425586D01*
X152804755Y-102230970D01*
X152711859Y-102048650D01*
X152591582Y-101883105D01*
X152591582Y-101883104D01*
X152446895Y-101738417D01*
X152281349Y-101618140D01*
X152188370Y-101570765D01*
X152137574Y-101522790D01*
X152120779Y-101454969D01*
X152143316Y-101388835D01*
X152188370Y-101349795D01*
X152188920Y-101349515D01*
X152281610Y-101302287D01*
X152343114Y-101257602D01*
X152447213Y-101181971D01*
X152447215Y-101181968D01*
X152447219Y-101181966D01*
X152591966Y-101037219D01*
X152591968Y-101037215D01*
X152591971Y-101037213D01*
X152682963Y-100911971D01*
X152712287Y-100871610D01*
X152805220Y-100689219D01*
X152868477Y-100494534D01*
X152898480Y-100305100D01*
X152928409Y-100241967D01*
X152987721Y-100205036D01*
X153020953Y-100200500D01*
X155868996Y-100200500D01*
X155960040Y-100182389D01*
X156004328Y-100173580D01*
X156068069Y-100147177D01*
X156131807Y-100120777D01*
X156131808Y-100120776D01*
X156131811Y-100120775D01*
X156246543Y-100044114D01*
X156287818Y-100002839D01*
X156349141Y-99969353D01*
X156418832Y-99974337D01*
X156474766Y-100016207D01*
X156499184Y-100081672D01*
X156499500Y-100090519D01*
X156499500Y-115431006D01*
X156499500Y-115568994D01*
X156499500Y-115568996D01*
X156499499Y-115568996D01*
X156526418Y-115704322D01*
X156526421Y-115704332D01*
X156579222Y-115831807D01*
X156655887Y-115946545D01*
X156655888Y-115946546D01*
X162363181Y-121653838D01*
X162396666Y-121715161D01*
X162399500Y-121741519D01*
X162399500Y-122600001D01*
X162399501Y-122600019D01*
X162410000Y-122702796D01*
X162410001Y-122702799D01*
X162448868Y-122820090D01*
X162465186Y-122869334D01*
X162557288Y-123018656D01*
X162681344Y-123142712D01*
X162830666Y-123234814D01*
X162997203Y-123289999D01*
X163099991Y-123300500D01*
X164300008Y-123300499D01*
X164402797Y-123289999D01*
X164569334Y-123234814D01*
X164718656Y-123142712D01*
X164787879Y-123073489D01*
X164849202Y-123040004D01*
X164918894Y-123044988D01*
X164948446Y-123060853D01*
X165018646Y-123111857D01*
X165200968Y-123204755D01*
X165395582Y-123267990D01*
X165597683Y-123300000D01*
X165802317Y-123300000D01*
X166004417Y-123267990D01*
X166199031Y-123204755D01*
X166381349Y-123111859D01*
X166425921Y-123079474D01*
X165746447Y-122400000D01*
X165752661Y-122400000D01*
X165854394Y-122372741D01*
X165945606Y-122320080D01*
X166020080Y-122245606D01*
X166072741Y-122154394D01*
X166100000Y-122052661D01*
X166100000Y-122046447D01*
X166779474Y-122725921D01*
X166811859Y-122681349D01*
X166904755Y-122499031D01*
X166967990Y-122304417D01*
X167000000Y-122102317D01*
X167000000Y-121897682D01*
X166967990Y-121695582D01*
X166904754Y-121500965D01*
X166880381Y-121453130D01*
X166880380Y-121453129D01*
X166811859Y-121318650D01*
X166779474Y-121274077D01*
X166779474Y-121274076D01*
X166100000Y-121953551D01*
X166100000Y-121947339D01*
X166072741Y-121845606D01*
X166020080Y-121754394D01*
X165945606Y-121679920D01*
X165854394Y-121627259D01*
X165752661Y-121600000D01*
X165746446Y-121600000D01*
X166425922Y-120920524D01*
X166425921Y-120920523D01*
X166381359Y-120888147D01*
X166381350Y-120888141D01*
X166199031Y-120795244D01*
X166004417Y-120732009D01*
X165802317Y-120700000D01*
X165597683Y-120700000D01*
X165395582Y-120732009D01*
X165200968Y-120795244D01*
X165018651Y-120888139D01*
X164948444Y-120939148D01*
X164882637Y-120962627D01*
X164814583Y-120946801D01*
X164787878Y-120926510D01*
X164718657Y-120857289D01*
X164718656Y-120857288D01*
X164569334Y-120765186D01*
X164402797Y-120710001D01*
X164402795Y-120710000D01*
X164300016Y-120699500D01*
X164300009Y-120699500D01*
X163441519Y-120699500D01*
X163374480Y-120679815D01*
X163353838Y-120663181D01*
X159611810Y-116921153D01*
X161399500Y-116921153D01*
X161399500Y-117078846D01*
X161430261Y-117233489D01*
X161430264Y-117233501D01*
X161490602Y-117379172D01*
X161490609Y-117379185D01*
X161578210Y-117510288D01*
X161578213Y-117510292D01*
X161689707Y-117621786D01*
X161689711Y-117621789D01*
X161820814Y-117709390D01*
X161820827Y-117709397D01*
X161922612Y-117751557D01*
X161966503Y-117769737D01*
X162121153Y-117800499D01*
X162121156Y-117800500D01*
X162121158Y-117800500D01*
X162278844Y-117800500D01*
X162278845Y-117800499D01*
X162433497Y-117769737D01*
X162508963Y-117738478D01*
X162577864Y-117709939D01*
X162625316Y-117700500D01*
X169768996Y-117700500D01*
X169860040Y-117682389D01*
X169904328Y-117673580D01*
X169968069Y-117647177D01*
X170031807Y-117620777D01*
X170031808Y-117620776D01*
X170031811Y-117620775D01*
X170146543Y-117544114D01*
X172744114Y-114946543D01*
X172820775Y-114831811D01*
X172873580Y-114704328D01*
X172900500Y-114568994D01*
X172900500Y-114431006D01*
X172900500Y-110455316D01*
X172909939Y-110407864D01*
X172969735Y-110263501D01*
X172969737Y-110263497D01*
X173000500Y-110108842D01*
X173000500Y-109951158D01*
X173000500Y-109951155D01*
X173000499Y-109951153D01*
X172995737Y-109927213D01*
X172969737Y-109796503D01*
X172955284Y-109761610D01*
X172909397Y-109650827D01*
X172909390Y-109650814D01*
X172821789Y-109519711D01*
X172821786Y-109519707D01*
X172710292Y-109408213D01*
X172710288Y-109408210D01*
X172579185Y-109320609D01*
X172579172Y-109320602D01*
X172433501Y-109260264D01*
X172433489Y-109260261D01*
X172278845Y-109229500D01*
X172278842Y-109229500D01*
X172121158Y-109229500D01*
X172121155Y-109229500D01*
X171966510Y-109260261D01*
X171966498Y-109260264D01*
X171820827Y-109320602D01*
X171820814Y-109320609D01*
X171689711Y-109408210D01*
X171689707Y-109408213D01*
X171578213Y-109519707D01*
X171578210Y-109519711D01*
X171490609Y-109650814D01*
X171490602Y-109650827D01*
X171430264Y-109796498D01*
X171430261Y-109796510D01*
X171399500Y-109951153D01*
X171399500Y-110108846D01*
X171430261Y-110263489D01*
X171430264Y-110263501D01*
X171490061Y-110407864D01*
X171499500Y-110455316D01*
X171499500Y-114158481D01*
X171479815Y-114225520D01*
X171463181Y-114246162D01*
X169446162Y-116263181D01*
X169384839Y-116296666D01*
X169358481Y-116299500D01*
X162625316Y-116299500D01*
X162577864Y-116290061D01*
X162433501Y-116230264D01*
X162433489Y-116230261D01*
X162278845Y-116199500D01*
X162278842Y-116199500D01*
X162121158Y-116199500D01*
X162121155Y-116199500D01*
X161966510Y-116230261D01*
X161966498Y-116230264D01*
X161820827Y-116290602D01*
X161820814Y-116290609D01*
X161689711Y-116378210D01*
X161689707Y-116378213D01*
X161578213Y-116489707D01*
X161578210Y-116489711D01*
X161490609Y-116620814D01*
X161490602Y-116620827D01*
X161430264Y-116766498D01*
X161430261Y-116766510D01*
X161399500Y-116921153D01*
X159611810Y-116921153D01*
X157936819Y-115246162D01*
X157903334Y-115184839D01*
X157900500Y-115158481D01*
X157900500Y-102990519D01*
X157920185Y-102923480D01*
X157972989Y-102877725D01*
X158042147Y-102867781D01*
X158105703Y-102896806D01*
X158112181Y-102902838D01*
X158413453Y-103204111D01*
X158413454Y-103204112D01*
X158528192Y-103280777D01*
X158619002Y-103318391D01*
X158655672Y-103333580D01*
X158655676Y-103333580D01*
X158655677Y-103333581D01*
X158791003Y-103360500D01*
X158791006Y-103360500D01*
X158791007Y-103360500D01*
X159849689Y-103360500D01*
X159916728Y-103380185D01*
X159962483Y-103432989D01*
X159972427Y-103502147D01*
X159967621Y-103522812D01*
X159951547Y-103572284D01*
X159911522Y-103695465D01*
X159883122Y-103874780D01*
X159879500Y-103897648D01*
X159879500Y-104102352D01*
X159880788Y-104110485D01*
X159911522Y-104304534D01*
X159974781Y-104499223D01*
X160038691Y-104624653D01*
X160066260Y-104678759D01*
X160067715Y-104681613D01*
X160188028Y-104847213D01*
X160332786Y-104991971D01*
X160487749Y-105104556D01*
X160498390Y-105112287D01*
X160581030Y-105154394D01*
X160591080Y-105159515D01*
X160641876Y-105207490D01*
X160658671Y-105275311D01*
X160636134Y-105341446D01*
X160591080Y-105380485D01*
X160498386Y-105427715D01*
X160332786Y-105548028D01*
X160188028Y-105692786D01*
X160067715Y-105858386D01*
X159974781Y-106040776D01*
X159911522Y-106235465D01*
X159879500Y-106437648D01*
X159879500Y-106642351D01*
X159911522Y-106844534D01*
X159974781Y-107039223D01*
X160067715Y-107221613D01*
X160188028Y-107387213D01*
X160332786Y-107531971D01*
X160487749Y-107644556D01*
X160498390Y-107652287D01*
X160589840Y-107698883D01*
X160591080Y-107699515D01*
X160641876Y-107747490D01*
X160658671Y-107815311D01*
X160636134Y-107881446D01*
X160591080Y-107920485D01*
X160498386Y-107967715D01*
X160332786Y-108088028D01*
X160188028Y-108232786D01*
X160067715Y-108398386D01*
X159974781Y-108580776D01*
X159911522Y-108775465D01*
X159879500Y-108977648D01*
X159879500Y-109182351D01*
X159911522Y-109384534D01*
X159974781Y-109579223D01*
X160067715Y-109761613D01*
X160188028Y-109927213D01*
X160332786Y-110071971D01*
X160487749Y-110184556D01*
X160498390Y-110192287D01*
X160561578Y-110224483D01*
X160591629Y-110239795D01*
X160642425Y-110287770D01*
X160659220Y-110355591D01*
X160636682Y-110421726D01*
X160591629Y-110460765D01*
X160498650Y-110508140D01*
X160333105Y-110628417D01*
X160333104Y-110628417D01*
X160188417Y-110773104D01*
X160188417Y-110773105D01*
X160068140Y-110938650D01*
X159975244Y-111120970D01*
X159912009Y-111315586D01*
X159903391Y-111370000D01*
X161264314Y-111370000D01*
X161259920Y-111374394D01*
X161207259Y-111465606D01*
X161180000Y-111567339D01*
X161180000Y-111672661D01*
X161207259Y-111774394D01*
X161259920Y-111865606D01*
X161264314Y-111870000D01*
X159903391Y-111870000D01*
X159912009Y-111924413D01*
X159975244Y-112119029D01*
X160068140Y-112301349D01*
X160188417Y-112466894D01*
X160188417Y-112466895D01*
X160333104Y-112611582D01*
X160498650Y-112731859D01*
X160680968Y-112824755D01*
X160875582Y-112887990D01*
X161077683Y-112920000D01*
X161330000Y-112920000D01*
X161330000Y-111935686D01*
X161334394Y-111940080D01*
X161425606Y-111992741D01*
X161527339Y-112020000D01*
X161632661Y-112020000D01*
X161734394Y-111992741D01*
X161825606Y-111940080D01*
X161830000Y-111935686D01*
X161830000Y-112920000D01*
X162082317Y-112920000D01*
X162284417Y-112887990D01*
X162479031Y-112824755D01*
X162661349Y-112731859D01*
X162826894Y-112611582D01*
X162826895Y-112611582D01*
X162971582Y-112466895D01*
X162971582Y-112466894D01*
X163091859Y-112301349D01*
X163184755Y-112119029D01*
X163247990Y-111924413D01*
X163256609Y-111870000D01*
X161895686Y-111870000D01*
X161900080Y-111865606D01*
X161952741Y-111774394D01*
X161980000Y-111672661D01*
X161980000Y-111567339D01*
X161952741Y-111465606D01*
X161900080Y-111374394D01*
X161895686Y-111370000D01*
X163256609Y-111370000D01*
X163247990Y-111315586D01*
X163184755Y-111120970D01*
X163091859Y-110938650D01*
X162971582Y-110773105D01*
X162971582Y-110773104D01*
X162826895Y-110628417D01*
X162661349Y-110508140D01*
X162568370Y-110460765D01*
X162517574Y-110412790D01*
X162500779Y-110344969D01*
X162523316Y-110278835D01*
X162568370Y-110239795D01*
X162568920Y-110239515D01*
X162661610Y-110192287D01*
X162776458Y-110108846D01*
X162827213Y-110071971D01*
X162827215Y-110071968D01*
X162827219Y-110071966D01*
X162971966Y-109927219D01*
X162971968Y-109927215D01*
X162971971Y-109927213D01*
X163027505Y-109850776D01*
X163092287Y-109761610D01*
X163185220Y-109579219D01*
X163248477Y-109384534D01*
X163280500Y-109182352D01*
X163280500Y-108977648D01*
X163248477Y-108775466D01*
X163238649Y-108745220D01*
X163185218Y-108580776D01*
X163151503Y-108514607D01*
X163092287Y-108398390D01*
X163084167Y-108387213D01*
X162971971Y-108232786D01*
X162827213Y-108088028D01*
X162661614Y-107967715D01*
X162655006Y-107964348D01*
X162568917Y-107920483D01*
X162518123Y-107872511D01*
X162501328Y-107804690D01*
X162523865Y-107738555D01*
X162568917Y-107699516D01*
X162661610Y-107652287D01*
X162682770Y-107636913D01*
X162827213Y-107531971D01*
X162827215Y-107531968D01*
X162827219Y-107531966D01*
X162971966Y-107387219D01*
X162971968Y-107387215D01*
X162971971Y-107387213D01*
X163027505Y-107310776D01*
X163092287Y-107221610D01*
X163185220Y-107039219D01*
X163248477Y-106844534D01*
X163280500Y-106642352D01*
X163280500Y-106437648D01*
X163274540Y-106400019D01*
X163248477Y-106235465D01*
X163210054Y-106117213D01*
X163192718Y-106063860D01*
X163190724Y-105994022D01*
X163226804Y-105934189D01*
X163289505Y-105903360D01*
X163310650Y-105901544D01*
X167469350Y-105901544D01*
X167536389Y-105921229D01*
X167582144Y-105974033D01*
X167592088Y-106043191D01*
X167587283Y-106063854D01*
X167584646Y-106071971D01*
X167531522Y-106235465D01*
X167499500Y-106437648D01*
X167499500Y-106642351D01*
X167531522Y-106844534D01*
X167594781Y-107039223D01*
X167687715Y-107221613D01*
X167808028Y-107387213D01*
X167952786Y-107531971D01*
X168107749Y-107644556D01*
X168118390Y-107652287D01*
X168209840Y-107698883D01*
X168211080Y-107699515D01*
X168261876Y-107747490D01*
X168278671Y-107815311D01*
X168256134Y-107881446D01*
X168211080Y-107920485D01*
X168118386Y-107967715D01*
X167952786Y-108088028D01*
X167808028Y-108232786D01*
X167687715Y-108398386D01*
X167594781Y-108580776D01*
X167531522Y-108775465D01*
X167499500Y-108977648D01*
X167499500Y-109182351D01*
X167531522Y-109384534D01*
X167594781Y-109579223D01*
X167687715Y-109761613D01*
X167808028Y-109927213D01*
X167952786Y-110071971D01*
X168107749Y-110184556D01*
X168118390Y-110192287D01*
X168209840Y-110238883D01*
X168211080Y-110239515D01*
X168261876Y-110287490D01*
X168278671Y-110355311D01*
X168256134Y-110421446D01*
X168211080Y-110460485D01*
X168118386Y-110507715D01*
X167952786Y-110628028D01*
X167808028Y-110772786D01*
X167687715Y-110938386D01*
X167594781Y-111120776D01*
X167531522Y-111315465D01*
X167499500Y-111517648D01*
X167499500Y-111722351D01*
X167531522Y-111924534D01*
X167594781Y-112119223D01*
X167687715Y-112301613D01*
X167808028Y-112467213D01*
X167952786Y-112611971D01*
X168107749Y-112724556D01*
X168118390Y-112732287D01*
X168227042Y-112787648D01*
X168300776Y-112825218D01*
X168300778Y-112825218D01*
X168300781Y-112825220D01*
X168405137Y-112859127D01*
X168495465Y-112888477D01*
X168596557Y-112904488D01*
X168697648Y-112920500D01*
X168697649Y-112920500D01*
X169702351Y-112920500D01*
X169702352Y-112920500D01*
X169904534Y-112888477D01*
X170099219Y-112825220D01*
X170281610Y-112732287D01*
X170376351Y-112663454D01*
X170447213Y-112611971D01*
X170447215Y-112611968D01*
X170447219Y-112611966D01*
X170591966Y-112467219D01*
X170591968Y-112467215D01*
X170591971Y-112467213D01*
X170647505Y-112390776D01*
X170712287Y-112301610D01*
X170805220Y-112119219D01*
X170868477Y-111924534D01*
X170900500Y-111722352D01*
X170900500Y-111517648D01*
X170891731Y-111462284D01*
X170868477Y-111315465D01*
X170805218Y-111120776D01*
X170771503Y-111054607D01*
X170712287Y-110938390D01*
X170704167Y-110927213D01*
X170591971Y-110772786D01*
X170447213Y-110628028D01*
X170281614Y-110507715D01*
X170275006Y-110504348D01*
X170188917Y-110460483D01*
X170138123Y-110412511D01*
X170121328Y-110344690D01*
X170143865Y-110278555D01*
X170188917Y-110239516D01*
X170281610Y-110192287D01*
X170396458Y-110108846D01*
X170447213Y-110071971D01*
X170447215Y-110071968D01*
X170447219Y-110071966D01*
X170591966Y-109927219D01*
X170591968Y-109927215D01*
X170591971Y-109927213D01*
X170647505Y-109850776D01*
X170712287Y-109761610D01*
X170805220Y-109579219D01*
X170868477Y-109384534D01*
X170900500Y-109182352D01*
X170900500Y-108977648D01*
X170868477Y-108775466D01*
X170858649Y-108745220D01*
X170805218Y-108580776D01*
X170771503Y-108514607D01*
X170712287Y-108398390D01*
X170704167Y-108387213D01*
X170591971Y-108232786D01*
X170447213Y-108088028D01*
X170281614Y-107967715D01*
X170275006Y-107964348D01*
X170188917Y-107920483D01*
X170138123Y-107872511D01*
X170121328Y-107804690D01*
X170143865Y-107738555D01*
X170188917Y-107699516D01*
X170281610Y-107652287D01*
X170302770Y-107636913D01*
X170447213Y-107531971D01*
X170447215Y-107531968D01*
X170447219Y-107531966D01*
X170591966Y-107387219D01*
X170591968Y-107387215D01*
X170591971Y-107387213D01*
X170647505Y-107310776D01*
X170712287Y-107221610D01*
X170805220Y-107039219D01*
X170868477Y-106844534D01*
X170900500Y-106642352D01*
X170900500Y-106437648D01*
X170894540Y-106400019D01*
X170868477Y-106235465D01*
X170830054Y-106117213D01*
X170812718Y-106063860D01*
X170810724Y-105994022D01*
X170846804Y-105934189D01*
X170909505Y-105903360D01*
X170930650Y-105901544D01*
X175000896Y-105901544D01*
X175091940Y-105883433D01*
X175136228Y-105874624D01*
X175203174Y-105846894D01*
X175263707Y-105821821D01*
X175263708Y-105821820D01*
X175263711Y-105821819D01*
X175378443Y-105745158D01*
X178043964Y-103079635D01*
X178105285Y-103046152D01*
X178174976Y-103051136D01*
X178230910Y-103093008D01*
X178242127Y-103111022D01*
X178257713Y-103141611D01*
X178378028Y-103307213D01*
X178522786Y-103451971D01*
X178654569Y-103547715D01*
X178688390Y-103572287D01*
X178760424Y-103608990D01*
X178781629Y-103619795D01*
X178832425Y-103667770D01*
X178849220Y-103735591D01*
X178826682Y-103801726D01*
X178781629Y-103840765D01*
X178688650Y-103888140D01*
X178523105Y-104008417D01*
X178523104Y-104008417D01*
X178378417Y-104153104D01*
X178378417Y-104153105D01*
X178258140Y-104318650D01*
X178165244Y-104500970D01*
X178102009Y-104695586D01*
X178093391Y-104750000D01*
X179454314Y-104750000D01*
X179449920Y-104754394D01*
X179397259Y-104845606D01*
X179370000Y-104947339D01*
X179370000Y-105052661D01*
X179397259Y-105154394D01*
X179449920Y-105245606D01*
X179454314Y-105250000D01*
X178093391Y-105250000D01*
X178102009Y-105304413D01*
X178165244Y-105499029D01*
X178258140Y-105681349D01*
X178378417Y-105846894D01*
X178378417Y-105846895D01*
X178523104Y-105991582D01*
X178688652Y-106111861D01*
X178781628Y-106159234D01*
X178832425Y-106207208D01*
X178849220Y-106275029D01*
X178826683Y-106341164D01*
X178781630Y-106380203D01*
X178688388Y-106427713D01*
X178522786Y-106548028D01*
X178378028Y-106692786D01*
X178257715Y-106858386D01*
X178164781Y-107040776D01*
X178101522Y-107235465D01*
X178069500Y-107437648D01*
X178069500Y-107642351D01*
X178101522Y-107844534D01*
X178113516Y-107881446D01*
X178164780Y-108039219D01*
X178164781Y-108039220D01*
X178164784Y-108039229D01*
X178166647Y-108043728D01*
X178164549Y-108044596D01*
X178175707Y-108104039D01*
X178149424Y-108168777D01*
X178140008Y-108179333D01*
X173655887Y-112663454D01*
X173579222Y-112778192D01*
X173526421Y-112905667D01*
X173526418Y-112905679D01*
X173501844Y-113029221D01*
X173499500Y-113041005D01*
X173499500Y-120619699D01*
X173479815Y-120686738D01*
X173427011Y-120732493D01*
X173414507Y-120737403D01*
X173381962Y-120748188D01*
X173330668Y-120765185D01*
X173330663Y-120765187D01*
X173181342Y-120857289D01*
X173057289Y-120981342D01*
X172965187Y-121130663D01*
X172965186Y-121130666D01*
X172910001Y-121297203D01*
X172910001Y-121297204D01*
X172910000Y-121297204D01*
X172899500Y-121399983D01*
X172899500Y-122600001D01*
X172899501Y-122600018D01*
X172910000Y-122702796D01*
X172910001Y-122702799D01*
X172948868Y-122820090D01*
X172965186Y-122869334D01*
X173057288Y-123018656D01*
X173181344Y-123142712D01*
X173330666Y-123234814D01*
X173497203Y-123289999D01*
X173599991Y-123300500D01*
X174800008Y-123300499D01*
X174902797Y-123289999D01*
X175069334Y-123234814D01*
X175218656Y-123142712D01*
X175287524Y-123073843D01*
X175348843Y-123040361D01*
X175418535Y-123045345D01*
X175448082Y-123061206D01*
X175518390Y-123112287D01*
X175604561Y-123156193D01*
X175700776Y-123205218D01*
X175700778Y-123205218D01*
X175700781Y-123205220D01*
X175791856Y-123234812D01*
X175895465Y-123268477D01*
X175996557Y-123284488D01*
X176097648Y-123300500D01*
X176097649Y-123300500D01*
X176302351Y-123300500D01*
X176302352Y-123300500D01*
X176504534Y-123268477D01*
X176699219Y-123205220D01*
X176881610Y-123112287D01*
X176974590Y-123044732D01*
X177047213Y-122991971D01*
X177047215Y-122991968D01*
X177047219Y-122991966D01*
X177191966Y-122847219D01*
X177191968Y-122847215D01*
X177191971Y-122847213D01*
X177280093Y-122725921D01*
X177312287Y-122681610D01*
X177405220Y-122499219D01*
X177468477Y-122304534D01*
X177500500Y-122102352D01*
X177500500Y-121897648D01*
X177481849Y-121779889D01*
X177468477Y-121695465D01*
X177408921Y-121512172D01*
X177405220Y-121500781D01*
X177405218Y-121500778D01*
X177405218Y-121500776D01*
X177353865Y-121399991D01*
X177312287Y-121318390D01*
X177296894Y-121297203D01*
X177191971Y-121152786D01*
X177047217Y-121008032D01*
X177047212Y-121008028D01*
X176951615Y-120938573D01*
X176908949Y-120883243D01*
X176900500Y-120838255D01*
X176900500Y-113991517D01*
X176920185Y-113924478D01*
X176936814Y-113903841D01*
X177913373Y-112927282D01*
X177974692Y-112893800D01*
X178044383Y-112898784D01*
X178100317Y-112940656D01*
X178118981Y-112976647D01*
X178165245Y-113119031D01*
X178258140Y-113301349D01*
X178378417Y-113466894D01*
X178378417Y-113466895D01*
X178523104Y-113611582D01*
X178688650Y-113731859D01*
X178870968Y-113824755D01*
X179065582Y-113887990D01*
X179267683Y-113920000D01*
X179520000Y-113920000D01*
X179520000Y-112935686D01*
X179524394Y-112940080D01*
X179615606Y-112992741D01*
X179717339Y-113020000D01*
X179822661Y-113020000D01*
X179924394Y-112992741D01*
X180015606Y-112940080D01*
X180020000Y-112935686D01*
X180020000Y-113920000D01*
X180272317Y-113920000D01*
X180474417Y-113887990D01*
X180669031Y-113824755D01*
X180851349Y-113731859D01*
X181016894Y-113611582D01*
X181016895Y-113611582D01*
X181161582Y-113466895D01*
X181161582Y-113466894D01*
X181281859Y-113301349D01*
X181374755Y-113119029D01*
X181437990Y-112924413D01*
X181446609Y-112870000D01*
X180085686Y-112870000D01*
X180090080Y-112865606D01*
X180142741Y-112774394D01*
X180170000Y-112672661D01*
X180170000Y-112567339D01*
X180142741Y-112465606D01*
X180090080Y-112374394D01*
X180085686Y-112370000D01*
X181446609Y-112370000D01*
X181437990Y-112315586D01*
X181374755Y-112120970D01*
X181281859Y-111938650D01*
X181161582Y-111773105D01*
X181161582Y-111773104D01*
X181016895Y-111628417D01*
X180851349Y-111508140D01*
X180758370Y-111460765D01*
X180707574Y-111412790D01*
X180690779Y-111344969D01*
X180713316Y-111278835D01*
X180758370Y-111239795D01*
X180758920Y-111239515D01*
X180851610Y-111192287D01*
X180872770Y-111176913D01*
X181017213Y-111071971D01*
X181017215Y-111071968D01*
X181017219Y-111071966D01*
X181161966Y-110927219D01*
X181161968Y-110927215D01*
X181161971Y-110927213D01*
X181273935Y-110773105D01*
X181282287Y-110761610D01*
X181375220Y-110579219D01*
X181438477Y-110384534D01*
X181470500Y-110182352D01*
X181470500Y-109977648D01*
X181438477Y-109775466D01*
X181375220Y-109580781D01*
X181375218Y-109580778D01*
X181375218Y-109580776D01*
X181341503Y-109514607D01*
X181282287Y-109398390D01*
X181252963Y-109358028D01*
X181161971Y-109232786D01*
X181017213Y-109088028D01*
X180851614Y-108967715D01*
X180845006Y-108964348D01*
X180758917Y-108920483D01*
X180708123Y-108872511D01*
X180691328Y-108804690D01*
X180713865Y-108738555D01*
X180758917Y-108699516D01*
X180851610Y-108652287D01*
X180872770Y-108636913D01*
X181017213Y-108531971D01*
X181017215Y-108531968D01*
X181017219Y-108531966D01*
X181161966Y-108387219D01*
X181161968Y-108387215D01*
X181161971Y-108387213D01*
X181274167Y-108232786D01*
X181282287Y-108221610D01*
X181375220Y-108039219D01*
X181438477Y-107844534D01*
X181470500Y-107642352D01*
X181470500Y-107437648D01*
X181438477Y-107235466D01*
X181375220Y-107040781D01*
X181375218Y-107040778D01*
X181375218Y-107040776D01*
X181341503Y-106974607D01*
X181282287Y-106858390D01*
X181252963Y-106818028D01*
X181161971Y-106692786D01*
X181017213Y-106548028D01*
X180851611Y-106427713D01*
X180758369Y-106380203D01*
X180707574Y-106332229D01*
X180690779Y-106264407D01*
X180713317Y-106198273D01*
X180758371Y-106159234D01*
X180851347Y-106111861D01*
X181016894Y-105991582D01*
X181016895Y-105991582D01*
X181161582Y-105846895D01*
X181161582Y-105846894D01*
X181281859Y-105681349D01*
X181374755Y-105499029D01*
X181437990Y-105304413D01*
X181446609Y-105250000D01*
X180085686Y-105250000D01*
X180090080Y-105245606D01*
X180142741Y-105154394D01*
X180170000Y-105052661D01*
X180170000Y-104947339D01*
X180142741Y-104845606D01*
X180090080Y-104754394D01*
X180085686Y-104750000D01*
X181446609Y-104750000D01*
X181437990Y-104695586D01*
X181374755Y-104500970D01*
X181281859Y-104318650D01*
X181161582Y-104153105D01*
X181161582Y-104153104D01*
X181016895Y-104008417D01*
X180851349Y-103888140D01*
X180758370Y-103840765D01*
X180707574Y-103792790D01*
X180690779Y-103724969D01*
X180713316Y-103658835D01*
X180758370Y-103619795D01*
X180758920Y-103619515D01*
X180851610Y-103572287D01*
X180885431Y-103547715D01*
X181017213Y-103451971D01*
X181017215Y-103451968D01*
X181017219Y-103451966D01*
X181161966Y-103307219D01*
X181161968Y-103307215D01*
X181161971Y-103307213D01*
X181231563Y-103211426D01*
X181282287Y-103141610D01*
X181375220Y-102959219D01*
X181438477Y-102764534D01*
X181470500Y-102562352D01*
X181470500Y-102357648D01*
X181438477Y-102155466D01*
X181438475Y-102155462D01*
X181438475Y-102155457D01*
X181427870Y-102122817D01*
X181425875Y-102052976D01*
X181461956Y-101993143D01*
X181524657Y-101962316D01*
X181545801Y-101960500D01*
X184398996Y-101960500D01*
X184502983Y-101939815D01*
X184534328Y-101933580D01*
X184615357Y-101900017D01*
X184661807Y-101880777D01*
X184661808Y-101880776D01*
X184661811Y-101880775D01*
X184776543Y-101804114D01*
X184877820Y-101702836D01*
X184939141Y-101669353D01*
X185008833Y-101674337D01*
X185064767Y-101716208D01*
X185089184Y-101781672D01*
X185089500Y-101790519D01*
X185089500Y-121189178D01*
X185069815Y-121256217D01*
X185038385Y-121289496D01*
X184897641Y-121391752D01*
X184897636Y-121391756D01*
X184741756Y-121547636D01*
X184741752Y-121547641D01*
X184612187Y-121725974D01*
X184512104Y-121922393D01*
X184512103Y-121922396D01*
X184443985Y-122132047D01*
X184416666Y-122304534D01*
X184409500Y-122349778D01*
X184409500Y-122570222D01*
X184419553Y-122633694D01*
X184443985Y-122787952D01*
X184512103Y-122997603D01*
X184512104Y-122997606D01*
X184612187Y-123194025D01*
X184741752Y-123372358D01*
X184741756Y-123372363D01*
X184897636Y-123528243D01*
X184897641Y-123528247D01*
X185053192Y-123641260D01*
X185075978Y-123657815D01*
X185192501Y-123717187D01*
X185272393Y-123757895D01*
X185272396Y-123757896D01*
X185377221Y-123791955D01*
X185482049Y-123826015D01*
X185699778Y-123860500D01*
X185699779Y-123860500D01*
X185920221Y-123860500D01*
X185920222Y-123860500D01*
X186137951Y-123826015D01*
X186347606Y-123757895D01*
X186544022Y-123657815D01*
X186722365Y-123528242D01*
X186772924Y-123477682D01*
X186834245Y-123444198D01*
X186903936Y-123449182D01*
X186959870Y-123491053D01*
X186976786Y-123522030D01*
X187006646Y-123602087D01*
X187006649Y-123602093D01*
X187092809Y-123717187D01*
X187092812Y-123717190D01*
X187207906Y-123803350D01*
X187207913Y-123803354D01*
X187342620Y-123853596D01*
X187342627Y-123853598D01*
X187402155Y-123859999D01*
X187402172Y-123860000D01*
X188100000Y-123860000D01*
X188100000Y-122835277D01*
X188176306Y-122879333D01*
X188290756Y-122910000D01*
X188409244Y-122910000D01*
X188523694Y-122879333D01*
X188600000Y-122835277D01*
X188600000Y-123860000D01*
X189297828Y-123860000D01*
X189297844Y-123859999D01*
X189357372Y-123853598D01*
X189357379Y-123853596D01*
X189492086Y-123803354D01*
X189492093Y-123803350D01*
X189607187Y-123717190D01*
X189607190Y-123717187D01*
X189693350Y-123602093D01*
X189693354Y-123602086D01*
X189743596Y-123467379D01*
X189743598Y-123467372D01*
X189749999Y-123407844D01*
X189750000Y-123407827D01*
X189750000Y-122710000D01*
X188725278Y-122710000D01*
X188769333Y-122633694D01*
X188800000Y-122519244D01*
X188800000Y-122400756D01*
X188769333Y-122286306D01*
X188725278Y-122210000D01*
X189750000Y-122210000D01*
X189750000Y-121512172D01*
X189749999Y-121512155D01*
X189743598Y-121452627D01*
X189743596Y-121452620D01*
X189693354Y-121317913D01*
X189693350Y-121317906D01*
X189607190Y-121202812D01*
X189607187Y-121202809D01*
X189492093Y-121116649D01*
X189492086Y-121116645D01*
X189357379Y-121066403D01*
X189357372Y-121066401D01*
X189297844Y-121060000D01*
X188600000Y-121060000D01*
X188600000Y-122084722D01*
X188523694Y-122040667D01*
X188409244Y-122010000D01*
X188290756Y-122010000D01*
X188176306Y-122040667D01*
X188100000Y-122084722D01*
X188100000Y-121060000D01*
X187402155Y-121060000D01*
X187342627Y-121066401D01*
X187342620Y-121066403D01*
X187207913Y-121116645D01*
X187207906Y-121116649D01*
X187092812Y-121202809D01*
X187092809Y-121202812D01*
X187006649Y-121317906D01*
X187006643Y-121317918D01*
X186976785Y-121397969D01*
X186934914Y-121453903D01*
X186869449Y-121478319D01*
X186801176Y-121463467D01*
X186772923Y-121442316D01*
X186722363Y-121391756D01*
X186722358Y-121391752D01*
X186541615Y-121260435D01*
X186498949Y-121205105D01*
X186490500Y-121160117D01*
X186490500Y-113995800D01*
X186510185Y-113928761D01*
X186562989Y-113883006D01*
X186632147Y-113873062D01*
X186652820Y-113877870D01*
X186685458Y-113888475D01*
X186685461Y-113888475D01*
X186685466Y-113888477D01*
X186887648Y-113920500D01*
X186887649Y-113920500D01*
X187892351Y-113920500D01*
X187892352Y-113920500D01*
X188094534Y-113888477D01*
X188289219Y-113825220D01*
X188471610Y-113732287D01*
X188589761Y-113646446D01*
X188637213Y-113611971D01*
X188637215Y-113611968D01*
X188637219Y-113611966D01*
X188781966Y-113467219D01*
X188781968Y-113467215D01*
X188781971Y-113467213D01*
X188857077Y-113363837D01*
X188902287Y-113301610D01*
X188995220Y-113119219D01*
X189058477Y-112924534D01*
X189090500Y-112722352D01*
X189090500Y-112517648D01*
X189068889Y-112381206D01*
X189058477Y-112315465D01*
X188995218Y-112120776D01*
X188955642Y-112043105D01*
X188902287Y-111938390D01*
X188872963Y-111898028D01*
X188781971Y-111772786D01*
X188637213Y-111628028D01*
X188471614Y-111507715D01*
X188388970Y-111465606D01*
X188378917Y-111460483D01*
X188328123Y-111412511D01*
X188311328Y-111344690D01*
X188333865Y-111278555D01*
X188378917Y-111239516D01*
X188471610Y-111192287D01*
X188492770Y-111176913D01*
X188637213Y-111071971D01*
X188637215Y-111071968D01*
X188637219Y-111071966D01*
X188781966Y-110927219D01*
X188781968Y-110927215D01*
X188781971Y-110927213D01*
X188893935Y-110773105D01*
X188902287Y-110761610D01*
X188995220Y-110579219D01*
X189041415Y-110437043D01*
X189080851Y-110379371D01*
X189145210Y-110352172D01*
X189214056Y-110364086D01*
X189247026Y-110387683D01*
X192963181Y-114103838D01*
X192996666Y-114165161D01*
X192999500Y-114191519D01*
X192999500Y-126675500D01*
X192979815Y-126742539D01*
X192927011Y-126788294D01*
X192875500Y-126799500D01*
X173631004Y-126799500D01*
X173495677Y-126826418D01*
X173495667Y-126826421D01*
X173368192Y-126879222D01*
X173253454Y-126955887D01*
X167089201Y-133120140D01*
X167027878Y-133153625D01*
X166958186Y-133148641D01*
X166954079Y-133147024D01*
X166889174Y-133120140D01*
X166844428Y-133101605D01*
X166844421Y-133101603D01*
X166844419Y-133101602D01*
X166591116Y-133033730D01*
X166533339Y-133026123D01*
X166331127Y-132999500D01*
X166331120Y-132999500D01*
X166068880Y-132999500D01*
X166068872Y-132999500D01*
X165837772Y-133029926D01*
X165808884Y-133033730D01*
X165723364Y-133056645D01*
X165555581Y-133101602D01*
X165555571Y-133101605D01*
X165313309Y-133201953D01*
X165313299Y-133201958D01*
X165086196Y-133333075D01*
X164878148Y-133492718D01*
X164692718Y-133678148D01*
X164533075Y-133886196D01*
X164401958Y-134113299D01*
X164401953Y-134113309D01*
X164301605Y-134355571D01*
X164301602Y-134355581D01*
X164237155Y-134596104D01*
X164233730Y-134608885D01*
X164199500Y-134868872D01*
X164199500Y-135131127D01*
X164215151Y-135250000D01*
X164233730Y-135391116D01*
X164271950Y-135533755D01*
X164301602Y-135644418D01*
X164301605Y-135644428D01*
X164401953Y-135886690D01*
X164401958Y-135886700D01*
X164533075Y-136113803D01*
X164692718Y-136321851D01*
X164692726Y-136321860D01*
X164878140Y-136507274D01*
X164878148Y-136507281D01*
X165086196Y-136666924D01*
X165313299Y-136798041D01*
X165313309Y-136798046D01*
X165555571Y-136898394D01*
X165555581Y-136898398D01*
X165808884Y-136966270D01*
X166057188Y-136998960D01*
X166065074Y-136999999D01*
X166068880Y-137000500D01*
X166068887Y-137000500D01*
X166331113Y-137000500D01*
X166331120Y-137000500D01*
X166591116Y-136966270D01*
X166844419Y-136898398D01*
X167086697Y-136798043D01*
X167313803Y-136666924D01*
X167521851Y-136507282D01*
X167521855Y-136507277D01*
X167521860Y-136507274D01*
X167707274Y-136321860D01*
X167707277Y-136321855D01*
X167707282Y-136321851D01*
X167866924Y-136113803D01*
X167998043Y-135886697D01*
X168098398Y-135644419D01*
X168166270Y-135391116D01*
X168200500Y-135131120D01*
X168200500Y-134868880D01*
X168200499Y-134868872D01*
X169199500Y-134868872D01*
X169199500Y-135131127D01*
X169215151Y-135250000D01*
X169233730Y-135391116D01*
X169271950Y-135533755D01*
X169301602Y-135644418D01*
X169301605Y-135644428D01*
X169401953Y-135886690D01*
X169401958Y-135886700D01*
X169533075Y-136113803D01*
X169692718Y-136321851D01*
X169692726Y-136321860D01*
X169878140Y-136507274D01*
X169878148Y-136507281D01*
X170086196Y-136666924D01*
X170313299Y-136798041D01*
X170313309Y-136798046D01*
X170555571Y-136898394D01*
X170555581Y-136898398D01*
X170808884Y-136966270D01*
X171057188Y-136998960D01*
X171065074Y-136999999D01*
X171068880Y-137000500D01*
X171068887Y-137000500D01*
X171331113Y-137000500D01*
X171331120Y-137000500D01*
X171591116Y-136966270D01*
X171844419Y-136898398D01*
X172086697Y-136798043D01*
X172313803Y-136666924D01*
X172521851Y-136507282D01*
X172521855Y-136507277D01*
X172521860Y-136507274D01*
X172707274Y-136321860D01*
X172707277Y-136321855D01*
X172707282Y-136321851D01*
X172866924Y-136113803D01*
X172998043Y-135886697D01*
X173098398Y-135644419D01*
X173166270Y-135391116D01*
X173200500Y-135131120D01*
X173200500Y-134868880D01*
X173166270Y-134608884D01*
X173098398Y-134355581D01*
X173045346Y-134227502D01*
X172998046Y-134113309D01*
X172998041Y-134113299D01*
X172896055Y-133936653D01*
X172866924Y-133886196D01*
X172861180Y-133878711D01*
X190349500Y-133878711D01*
X190349500Y-134121288D01*
X190381161Y-134361785D01*
X190443947Y-134596104D01*
X190522857Y-134786609D01*
X190536776Y-134820212D01*
X190658064Y-135030289D01*
X190658066Y-135030292D01*
X190658067Y-135030293D01*
X190805733Y-135222736D01*
X190805739Y-135222743D01*
X190977256Y-135394260D01*
X190977262Y-135394265D01*
X191169711Y-135541936D01*
X191379788Y-135663224D01*
X191603900Y-135756054D01*
X191838211Y-135818838D01*
X192018586Y-135842584D01*
X192078711Y-135850500D01*
X192078712Y-135850500D01*
X192321289Y-135850500D01*
X192369388Y-135844167D01*
X192561789Y-135818838D01*
X192796100Y-135756054D01*
X193020212Y-135663224D01*
X193230289Y-135541936D01*
X193422738Y-135394265D01*
X193594265Y-135222738D01*
X193741936Y-135030289D01*
X193863224Y-134820212D01*
X193956054Y-134596100D01*
X194018838Y-134361789D01*
X194050500Y-134121288D01*
X194050500Y-133878712D01*
X194018838Y-133638211D01*
X193956054Y-133403900D01*
X193863224Y-133179788D01*
X193741936Y-132969711D01*
X193594265Y-132777262D01*
X193594260Y-132777256D01*
X193422743Y-132605739D01*
X193422736Y-132605733D01*
X193230293Y-132458067D01*
X193230292Y-132458066D01*
X193230289Y-132458064D01*
X193020212Y-132336776D01*
X193020205Y-132336773D01*
X192796104Y-132243947D01*
X192561785Y-132181161D01*
X192321289Y-132149500D01*
X192321288Y-132149500D01*
X192078712Y-132149500D01*
X192078711Y-132149500D01*
X191838214Y-132181161D01*
X191603895Y-132243947D01*
X191379794Y-132336773D01*
X191379785Y-132336777D01*
X191169706Y-132458067D01*
X190977263Y-132605733D01*
X190977256Y-132605739D01*
X190805739Y-132777256D01*
X190805733Y-132777263D01*
X190658067Y-132969706D01*
X190536777Y-133179785D01*
X190536773Y-133179794D01*
X190443947Y-133403895D01*
X190381161Y-133638214D01*
X190349500Y-133878711D01*
X172861180Y-133878711D01*
X172707281Y-133678148D01*
X172707274Y-133678140D01*
X172521860Y-133492726D01*
X172521851Y-133492718D01*
X172313803Y-133333075D01*
X172086700Y-133201958D01*
X172086690Y-133201953D01*
X171844428Y-133101605D01*
X171844421Y-133101603D01*
X171844419Y-133101602D01*
X171591116Y-133033730D01*
X171533339Y-133026123D01*
X171331127Y-132999500D01*
X171331120Y-132999500D01*
X171068880Y-132999500D01*
X171068872Y-132999500D01*
X170837772Y-133029926D01*
X170808884Y-133033730D01*
X170723364Y-133056645D01*
X170555581Y-133101602D01*
X170555571Y-133101605D01*
X170313309Y-133201953D01*
X170313299Y-133201958D01*
X170086196Y-133333075D01*
X169878148Y-133492718D01*
X169692718Y-133678148D01*
X169533075Y-133886196D01*
X169401958Y-134113299D01*
X169401953Y-134113309D01*
X169301605Y-134355571D01*
X169301602Y-134355581D01*
X169237155Y-134596104D01*
X169233730Y-134608885D01*
X169199500Y-134868872D01*
X168200499Y-134868872D01*
X168166270Y-134608884D01*
X168098398Y-134355581D01*
X168052977Y-134245927D01*
X168045509Y-134176462D01*
X168076783Y-134113983D01*
X168079830Y-134110825D01*
X173953838Y-128236819D01*
X174015161Y-128203334D01*
X174041519Y-128200500D01*
X193768995Y-128200500D01*
X193860041Y-128182389D01*
X193904328Y-128173580D01*
X194031811Y-128120775D01*
X194146542Y-128044114D01*
X194244114Y-127946542D01*
X194320775Y-127831811D01*
X194373580Y-127704328D01*
X194400500Y-127568993D01*
X194400500Y-113781007D01*
X194400500Y-113781004D01*
X194373581Y-113645677D01*
X194373580Y-113645676D01*
X194373580Y-113645672D01*
X194338053Y-113559901D01*
X194320778Y-113518195D01*
X194320776Y-113518191D01*
X194320775Y-113518189D01*
X194286718Y-113467219D01*
X194244114Y-113403457D01*
X194244112Y-113403454D01*
X194244109Y-113403451D01*
X189019990Y-108179333D01*
X188986505Y-108118010D01*
X188991489Y-108048318D01*
X188993490Y-108043779D01*
X188993354Y-108043723D01*
X188995211Y-108039235D01*
X188995220Y-108039219D01*
X189058477Y-107844534D01*
X189090500Y-107642352D01*
X189090500Y-107437648D01*
X189058477Y-107235466D01*
X188995220Y-107040781D01*
X188995218Y-107040778D01*
X188995218Y-107040776D01*
X188961503Y-106974607D01*
X188902287Y-106858390D01*
X188872963Y-106818028D01*
X188781971Y-106692786D01*
X188637213Y-106548028D01*
X188471614Y-106427715D01*
X188460902Y-106422257D01*
X188378917Y-106380483D01*
X188328123Y-106332511D01*
X188311328Y-106264690D01*
X188333865Y-106198555D01*
X188378917Y-106159516D01*
X188471610Y-106112287D01*
X188527108Y-106071966D01*
X188637213Y-105991971D01*
X188637215Y-105991968D01*
X188637219Y-105991966D01*
X188781966Y-105847219D01*
X188781968Y-105847215D01*
X188781971Y-105847213D01*
X188856117Y-105745158D01*
X188902287Y-105681610D01*
X188995220Y-105499219D01*
X189058477Y-105304534D01*
X189090500Y-105102352D01*
X189090500Y-104897648D01*
X189058477Y-104695466D01*
X189058476Y-104695462D01*
X189058476Y-104695461D01*
X189024565Y-104591094D01*
X189013697Y-104557648D01*
X190899500Y-104557648D01*
X190899500Y-104762352D01*
X190900835Y-104770781D01*
X190931522Y-104964534D01*
X190994781Y-105159223D01*
X191019375Y-105207490D01*
X191087629Y-105341446D01*
X191087715Y-105341613D01*
X191208028Y-105507213D01*
X191352786Y-105651971D01*
X191481047Y-105745156D01*
X191518390Y-105772287D01*
X191615602Y-105821819D01*
X191700776Y-105865218D01*
X191700778Y-105865218D01*
X191700781Y-105865220D01*
X191729724Y-105874624D01*
X191895465Y-105928477D01*
X191996557Y-105944488D01*
X192097648Y-105960500D01*
X192097649Y-105960500D01*
X192302351Y-105960500D01*
X192302352Y-105960500D01*
X192504534Y-105928477D01*
X192699219Y-105865220D01*
X192881610Y-105772287D01*
X193006413Y-105681613D01*
X193047213Y-105651971D01*
X193047215Y-105651968D01*
X193047219Y-105651966D01*
X193191966Y-105507219D01*
X193191968Y-105507215D01*
X193191971Y-105507213D01*
X193257324Y-105417261D01*
X193312287Y-105341610D01*
X193405220Y-105159219D01*
X193468477Y-104964534D01*
X193500500Y-104762352D01*
X193500500Y-104557648D01*
X193491492Y-104500776D01*
X193468477Y-104355465D01*
X193405218Y-104160776D01*
X193337497Y-104027868D01*
X193312287Y-103978390D01*
X193282367Y-103937208D01*
X193191971Y-103812786D01*
X193047213Y-103668028D01*
X192881613Y-103547715D01*
X192881612Y-103547714D01*
X192881610Y-103547713D01*
X192789501Y-103500781D01*
X192699223Y-103454781D01*
X192504534Y-103391522D01*
X192329995Y-103363878D01*
X192302352Y-103359500D01*
X192097648Y-103359500D01*
X192073329Y-103363351D01*
X191895465Y-103391522D01*
X191700776Y-103454781D01*
X191518386Y-103547715D01*
X191352786Y-103668028D01*
X191208028Y-103812786D01*
X191087715Y-103978386D01*
X190994781Y-104160776D01*
X190931522Y-104355465D01*
X190908507Y-104500781D01*
X190899500Y-104557648D01*
X189013697Y-104557648D01*
X188995218Y-104500776D01*
X188958164Y-104428055D01*
X188902287Y-104318390D01*
X188840093Y-104232786D01*
X188781971Y-104152786D01*
X188637213Y-104008028D01*
X188471614Y-103887715D01*
X188465006Y-103884348D01*
X188378917Y-103840483D01*
X188328123Y-103792511D01*
X188311328Y-103724690D01*
X188333865Y-103658555D01*
X188378917Y-103619516D01*
X188471610Y-103572287D01*
X188505431Y-103547715D01*
X188637213Y-103451971D01*
X188637215Y-103451968D01*
X188637219Y-103451966D01*
X188781966Y-103307219D01*
X188781968Y-103307215D01*
X188781971Y-103307213D01*
X188851563Y-103211426D01*
X188902287Y-103141610D01*
X188995220Y-102959219D01*
X189058477Y-102764534D01*
X189090500Y-102562352D01*
X189090500Y-102357648D01*
X189070406Y-102230781D01*
X189058477Y-102155465D01*
X189021822Y-102042654D01*
X188995220Y-101960781D01*
X188995218Y-101960778D01*
X188995218Y-101960776D01*
X188955642Y-101883105D01*
X188902287Y-101778390D01*
X188847396Y-101702838D01*
X188781971Y-101612786D01*
X188637213Y-101468028D01*
X188471614Y-101347715D01*
X188465006Y-101344348D01*
X188378917Y-101300483D01*
X188328123Y-101252511D01*
X188311328Y-101184690D01*
X188333865Y-101118555D01*
X188378917Y-101079516D01*
X188471610Y-101032287D01*
X188543323Y-100980185D01*
X188637213Y-100911971D01*
X188637215Y-100911968D01*
X188637219Y-100911966D01*
X188781966Y-100767219D01*
X188781968Y-100767215D01*
X188781971Y-100767213D01*
X188885133Y-100625220D01*
X188902287Y-100601610D01*
X188995220Y-100419219D01*
X189058477Y-100224534D01*
X189090500Y-100022352D01*
X189090500Y-99817648D01*
X189084411Y-99779205D01*
X189058477Y-99615465D01*
X189001110Y-99438910D01*
X188995220Y-99420781D01*
X188995218Y-99420778D01*
X188995218Y-99420776D01*
X188961503Y-99354607D01*
X188902287Y-99238390D01*
X188876904Y-99203453D01*
X188781971Y-99072786D01*
X188637213Y-98928028D01*
X188471614Y-98807715D01*
X188433498Y-98788294D01*
X188378917Y-98760483D01*
X188328123Y-98712511D01*
X188311328Y-98644690D01*
X188333865Y-98578555D01*
X188378917Y-98539516D01*
X188471610Y-98492287D01*
X188492770Y-98476913D01*
X188637213Y-98371971D01*
X188637215Y-98371968D01*
X188637219Y-98371966D01*
X188781966Y-98227219D01*
X188781968Y-98227215D01*
X188781971Y-98227213D01*
X188894167Y-98072786D01*
X188902287Y-98061610D01*
X188995220Y-97879219D01*
X189058477Y-97684534D01*
X189090500Y-97482352D01*
X189090500Y-97277648D01*
X189058477Y-97075466D01*
X188995220Y-96880781D01*
X188995218Y-96880778D01*
X188995218Y-96880776D01*
X188961503Y-96814607D01*
X188902287Y-96698390D01*
X188872967Y-96658034D01*
X188781971Y-96532786D01*
X188637213Y-96388028D01*
X188471614Y-96267715D01*
X188442165Y-96252710D01*
X188378917Y-96220483D01*
X188328123Y-96172511D01*
X188311328Y-96104690D01*
X188333865Y-96038555D01*
X188378917Y-95999516D01*
X188471610Y-95952287D01*
X188527108Y-95911966D01*
X188637213Y-95831971D01*
X188637215Y-95831968D01*
X188637219Y-95831966D01*
X188781966Y-95687219D01*
X188781968Y-95687215D01*
X188781971Y-95687213D01*
X188886892Y-95542799D01*
X188902287Y-95521610D01*
X188995220Y-95339219D01*
X189058477Y-95144534D01*
X189090500Y-94942352D01*
X189090500Y-94737648D01*
X189058477Y-94535466D01*
X189058476Y-94535462D01*
X189058476Y-94535461D01*
X189024565Y-94431094D01*
X189013697Y-94397648D01*
X190899500Y-94397648D01*
X190899500Y-94602351D01*
X190931522Y-94804534D01*
X190994781Y-94999223D01*
X191035685Y-95079500D01*
X191084233Y-95174781D01*
X191087715Y-95181613D01*
X191208028Y-95347213D01*
X191352786Y-95491971D01*
X191503694Y-95601610D01*
X191518390Y-95612287D01*
X191634607Y-95671503D01*
X191700776Y-95705218D01*
X191700778Y-95705218D01*
X191700781Y-95705220D01*
X191805137Y-95739127D01*
X191895465Y-95768477D01*
X191996557Y-95784488D01*
X192097648Y-95800500D01*
X192097649Y-95800500D01*
X192302351Y-95800500D01*
X192302352Y-95800500D01*
X192504534Y-95768477D01*
X192699219Y-95705220D01*
X192881610Y-95612287D01*
X193006413Y-95521613D01*
X193047213Y-95491971D01*
X193047215Y-95491968D01*
X193047219Y-95491966D01*
X193191966Y-95347219D01*
X193191968Y-95347215D01*
X193191971Y-95347213D01*
X193244732Y-95274590D01*
X193312287Y-95181610D01*
X193405220Y-94999219D01*
X193468477Y-94804534D01*
X193500500Y-94602352D01*
X193500500Y-94397648D01*
X193479139Y-94262781D01*
X193468477Y-94195465D01*
X193415900Y-94033652D01*
X193405220Y-94000781D01*
X193405218Y-94000778D01*
X193405218Y-94000776D01*
X193360904Y-93913806D01*
X193312287Y-93818390D01*
X193288188Y-93785220D01*
X193191971Y-93652786D01*
X193047213Y-93508028D01*
X192881613Y-93387715D01*
X192881612Y-93387714D01*
X192881610Y-93387713D01*
X192814567Y-93353553D01*
X192699223Y-93294781D01*
X192504534Y-93231522D01*
X192329995Y-93203878D01*
X192302352Y-93199500D01*
X192097648Y-93199500D01*
X192073441Y-93203334D01*
X191895465Y-93231522D01*
X191700776Y-93294781D01*
X191518386Y-93387715D01*
X191352786Y-93508028D01*
X191208028Y-93652786D01*
X191087715Y-93818386D01*
X190994781Y-94000776D01*
X190931522Y-94195465D01*
X190899500Y-94397648D01*
X189013697Y-94397648D01*
X188995218Y-94340776D01*
X188958131Y-94267990D01*
X188902287Y-94158390D01*
X188853576Y-94091344D01*
X188781971Y-93992786D01*
X188637213Y-93848028D01*
X188471613Y-93727715D01*
X188471612Y-93727714D01*
X188471610Y-93727713D01*
X188402077Y-93692284D01*
X188289223Y-93634781D01*
X188094534Y-93571522D01*
X187919995Y-93543878D01*
X187892352Y-93539500D01*
X186887648Y-93539500D01*
X186833704Y-93548044D01*
X186685464Y-93571523D01*
X186685457Y-93571524D01*
X186652817Y-93582130D01*
X186582976Y-93584125D01*
X186523143Y-93548044D01*
X186492316Y-93485343D01*
X186490500Y-93464199D01*
X186490500Y-92441004D01*
X186463581Y-92305677D01*
X186463580Y-92305676D01*
X186463580Y-92305672D01*
X186463578Y-92305667D01*
X186410776Y-92178191D01*
X186394247Y-92153453D01*
X186394247Y-92153452D01*
X186394245Y-92153451D01*
X186354158Y-92093455D01*
X186334115Y-92063458D01*
X186334111Y-92063453D01*
X177016805Y-82746148D01*
X176983320Y-82684825D01*
X176982013Y-82639068D01*
X176984903Y-82620821D01*
X177000500Y-82522352D01*
X177000500Y-82317648D01*
X176968477Y-82115466D01*
X176905220Y-81920781D01*
X176905218Y-81920778D01*
X176905218Y-81920776D01*
X176832761Y-81778573D01*
X176812287Y-81738390D01*
X176768597Y-81678255D01*
X176691971Y-81572786D01*
X176547217Y-81428032D01*
X176542793Y-81424818D01*
X176500128Y-81369488D01*
X176494149Y-81299875D01*
X176526755Y-81238080D01*
X176587594Y-81203722D01*
X176615679Y-81200500D01*
X183048481Y-81200500D01*
X183115520Y-81220185D01*
X183136162Y-81236819D01*
X185751337Y-83851994D01*
X185784822Y-83913317D01*
X185779838Y-83983009D01*
X185737966Y-84038942D01*
X185683054Y-84062148D01*
X185482047Y-84093985D01*
X185272396Y-84162103D01*
X185272393Y-84162104D01*
X185075974Y-84262187D01*
X184897641Y-84391752D01*
X184897636Y-84391756D01*
X184741756Y-84547636D01*
X184741752Y-84547641D01*
X184612187Y-84725974D01*
X184512104Y-84922393D01*
X184512103Y-84922396D01*
X184443985Y-85132047D01*
X184409500Y-85349778D01*
X184409500Y-85570221D01*
X184443985Y-85787952D01*
X184512103Y-85997603D01*
X184512104Y-85997606D01*
X184571921Y-86115000D01*
X184605232Y-86180377D01*
X184612187Y-86194025D01*
X184741752Y-86372358D01*
X184741756Y-86372363D01*
X184897636Y-86528243D01*
X184897641Y-86528247D01*
X184999591Y-86602317D01*
X185075978Y-86657815D01*
X185204375Y-86723237D01*
X185272393Y-86757895D01*
X185272396Y-86757896D01*
X185377221Y-86791955D01*
X185482049Y-86826015D01*
X185699778Y-86860500D01*
X185699779Y-86860500D01*
X185920221Y-86860500D01*
X185920222Y-86860500D01*
X186137951Y-86826015D01*
X186347606Y-86757895D01*
X186544022Y-86657815D01*
X186722365Y-86528242D01*
X186772536Y-86478070D01*
X186833857Y-86444586D01*
X186903548Y-86449570D01*
X186959482Y-86491441D01*
X186976398Y-86522419D01*
X187006202Y-86602328D01*
X187006206Y-86602335D01*
X187092452Y-86717544D01*
X187092455Y-86717547D01*
X187207664Y-86803793D01*
X187207671Y-86803797D01*
X187342517Y-86854091D01*
X187342516Y-86854091D01*
X187349444Y-86854835D01*
X187402127Y-86860500D01*
X189297872Y-86860499D01*
X189357483Y-86854091D01*
X189492331Y-86803796D01*
X189607546Y-86717546D01*
X189693796Y-86602331D01*
X189744091Y-86467483D01*
X189750500Y-86407873D01*
X189750499Y-84512128D01*
X189744091Y-84452517D01*
X189721429Y-84391758D01*
X189693797Y-84317671D01*
X189693793Y-84317664D01*
X189607547Y-84202455D01*
X189607544Y-84202452D01*
X189492335Y-84116206D01*
X189492328Y-84116202D01*
X189357482Y-84065908D01*
X189357483Y-84065908D01*
X189297883Y-84059501D01*
X189297881Y-84059500D01*
X189297873Y-84059500D01*
X189297865Y-84059500D01*
X187991519Y-84059500D01*
X187924480Y-84039815D01*
X187903838Y-84023181D01*
X183836546Y-79955888D01*
X183836545Y-79955887D01*
X183721807Y-79879222D01*
X183594332Y-79826421D01*
X183594322Y-79826418D01*
X183458996Y-79799500D01*
X183458994Y-79799500D01*
X183458993Y-79799500D01*
X171831941Y-79799500D01*
X171764902Y-79779815D01*
X171719147Y-79727011D01*
X171709203Y-79657853D01*
X171738228Y-79594297D01*
X171744260Y-79587819D01*
X171821786Y-79510292D01*
X171821789Y-79510289D01*
X171909394Y-79379179D01*
X171969737Y-79233497D01*
X172000500Y-79078842D01*
X172000500Y-78921158D01*
X172000500Y-78921155D01*
X172000499Y-78921153D01*
X171986354Y-78850044D01*
X171969737Y-78766503D01*
X171909939Y-78622136D01*
X171900500Y-78574684D01*
X171900500Y-75124499D01*
X171920185Y-75057460D01*
X171972989Y-75011705D01*
X172024500Y-75000499D01*
X172747871Y-75000499D01*
X172747872Y-75000499D01*
X172807483Y-74994091D01*
X172942331Y-74943796D01*
X173057546Y-74857546D01*
X173143796Y-74742331D01*
X173194091Y-74607483D01*
X173200500Y-74547873D01*
X173200500Y-73878711D01*
X190349500Y-73878711D01*
X190349500Y-74121288D01*
X190380344Y-74355581D01*
X190381162Y-74361789D01*
X190404798Y-74450000D01*
X190443947Y-74596104D01*
X190536773Y-74820205D01*
X190536774Y-74820208D01*
X190536776Y-74820212D01*
X190658064Y-75030289D01*
X190658066Y-75030292D01*
X190658067Y-75030293D01*
X190805733Y-75222736D01*
X190805739Y-75222743D01*
X190977256Y-75394260D01*
X190977262Y-75394265D01*
X191169711Y-75541936D01*
X191379788Y-75663224D01*
X191603900Y-75756054D01*
X191838211Y-75818838D01*
X192018586Y-75842584D01*
X192078711Y-75850500D01*
X192078712Y-75850500D01*
X192321289Y-75850500D01*
X192369388Y-75844167D01*
X192561789Y-75818838D01*
X192796100Y-75756054D01*
X193020212Y-75663224D01*
X193230289Y-75541936D01*
X193422738Y-75394265D01*
X193594265Y-75222738D01*
X193741936Y-75030289D01*
X193863224Y-74820212D01*
X193956054Y-74596100D01*
X194018838Y-74361789D01*
X194050500Y-74121288D01*
X194050500Y-73878712D01*
X194049253Y-73869243D01*
X194034205Y-73754935D01*
X194018838Y-73638211D01*
X193956054Y-73403900D01*
X193863224Y-73179788D01*
X193741936Y-72969711D01*
X193611901Y-72800246D01*
X193594266Y-72777263D01*
X193594260Y-72777256D01*
X193422743Y-72605739D01*
X193422736Y-72605733D01*
X193230293Y-72458067D01*
X193230290Y-72458065D01*
X193230289Y-72458064D01*
X193036150Y-72345978D01*
X193020214Y-72336777D01*
X193020205Y-72336773D01*
X192796104Y-72243947D01*
X192561785Y-72181161D01*
X192321289Y-72149500D01*
X192321288Y-72149500D01*
X192078712Y-72149500D01*
X192078711Y-72149500D01*
X191838214Y-72181161D01*
X191603895Y-72243947D01*
X191379794Y-72336773D01*
X191379785Y-72336777D01*
X191169706Y-72458067D01*
X190977263Y-72605733D01*
X190977256Y-72605739D01*
X190805739Y-72777256D01*
X190805733Y-72777263D01*
X190658067Y-72969706D01*
X190536777Y-73179785D01*
X190536773Y-73179794D01*
X190443947Y-73403895D01*
X190381161Y-73638214D01*
X190349500Y-73878711D01*
X173200500Y-73878711D01*
X173200499Y-72999500D01*
X173200499Y-71452129D01*
X173200498Y-71452123D01*
X173200497Y-71452116D01*
X173194091Y-71392517D01*
X173189133Y-71379225D01*
X173143797Y-71257671D01*
X173143793Y-71257664D01*
X173057547Y-71142455D01*
X173057544Y-71142452D01*
X172942335Y-71056206D01*
X172942328Y-71056202D01*
X172807482Y-71005908D01*
X172807483Y-71005908D01*
X172747883Y-70999501D01*
X172747881Y-70999500D01*
X172747873Y-70999500D01*
X172747864Y-70999500D01*
X169652129Y-70999500D01*
X169652123Y-70999501D01*
X169592516Y-71005908D01*
X169457671Y-71056202D01*
X169457664Y-71056206D01*
X169342455Y-71142452D01*
X169342452Y-71142455D01*
X169256206Y-71257664D01*
X169256202Y-71257671D01*
X169205908Y-71392517D01*
X169202550Y-71423755D01*
X169199501Y-71452123D01*
X169199500Y-71452135D01*
X169199500Y-74547870D01*
X169199501Y-74547876D01*
X169205908Y-74607483D01*
X169256202Y-74742328D01*
X169256206Y-74742335D01*
X169342452Y-74857544D01*
X169342455Y-74857547D01*
X169457664Y-74943793D01*
X169457671Y-74943797D01*
X169592517Y-74994091D01*
X169592516Y-74994091D01*
X169599444Y-74994835D01*
X169652127Y-75000500D01*
X170375500Y-75000499D01*
X170442539Y-75020183D01*
X170488294Y-75072987D01*
X170499500Y-75124499D01*
X170499500Y-78574684D01*
X170490061Y-78622136D01*
X170430264Y-78766498D01*
X170430261Y-78766510D01*
X170399500Y-78921153D01*
X170399500Y-79078846D01*
X170430261Y-79233489D01*
X170430264Y-79233501D01*
X170490602Y-79379172D01*
X170490609Y-79379185D01*
X170578210Y-79510288D01*
X170578213Y-79510292D01*
X170655740Y-79587819D01*
X170689225Y-79649142D01*
X170684241Y-79718834D01*
X170642369Y-79774767D01*
X170576905Y-79799184D01*
X170568059Y-79799500D01*
X155631004Y-79799500D01*
X155495677Y-79826418D01*
X155495667Y-79826421D01*
X155368192Y-79879222D01*
X155253454Y-79955887D01*
X155253453Y-79955888D01*
X154655887Y-80553455D01*
X154655883Y-80553459D01*
X154645506Y-80568992D01*
X154645505Y-80568994D01*
X154579228Y-80668182D01*
X154579221Y-80668195D01*
X154526421Y-80795667D01*
X154526418Y-80795677D01*
X154499500Y-80931004D01*
X154499500Y-81678255D01*
X154479815Y-81745294D01*
X154448385Y-81778573D01*
X154352787Y-81848028D01*
X154352782Y-81848032D01*
X154208028Y-81992786D01*
X154087715Y-82158386D01*
X153994781Y-82340776D01*
X153942431Y-82501894D01*
X153902993Y-82559569D01*
X153838634Y-82586767D01*
X153769788Y-82574852D01*
X153718312Y-82527608D01*
X153700500Y-82463575D01*
X153700500Y-79841518D01*
X153720185Y-79774479D01*
X153736814Y-79753841D01*
X154673852Y-78816803D01*
X154735173Y-78783320D01*
X154780929Y-78782013D01*
X154835395Y-78790639D01*
X154897648Y-78800500D01*
X154897649Y-78800500D01*
X155102351Y-78800500D01*
X155102352Y-78800500D01*
X155304534Y-78768477D01*
X155499219Y-78705220D01*
X155681610Y-78612287D01*
X155780604Y-78540364D01*
X155847213Y-78491971D01*
X155847215Y-78491968D01*
X155847219Y-78491966D01*
X155991966Y-78347219D01*
X155991968Y-78347215D01*
X155991971Y-78347213D01*
X156044732Y-78274590D01*
X156112287Y-78181610D01*
X156205220Y-77999219D01*
X156268477Y-77804534D01*
X156300500Y-77602352D01*
X156300500Y-77397648D01*
X156268477Y-77195466D01*
X156205220Y-77000781D01*
X156205218Y-77000778D01*
X156205218Y-77000776D01*
X156153053Y-76898398D01*
X156112287Y-76818390D01*
X156097503Y-76798041D01*
X155991971Y-76652786D01*
X155847213Y-76508028D01*
X155681613Y-76387715D01*
X155681612Y-76387714D01*
X155681610Y-76387713D01*
X155628171Y-76360484D01*
X155577376Y-76312510D01*
X155560581Y-76244689D01*
X155583118Y-76178554D01*
X155628172Y-76139515D01*
X155681610Y-76112287D01*
X155822582Y-76009866D01*
X155847213Y-75991971D01*
X155847215Y-75991968D01*
X155847219Y-75991966D01*
X155991966Y-75847219D01*
X155991968Y-75847215D01*
X155991971Y-75847213D01*
X156044732Y-75774590D01*
X156112287Y-75681610D01*
X156205220Y-75499219D01*
X156268477Y-75304534D01*
X156300500Y-75102352D01*
X156300500Y-74897648D01*
X156294148Y-74857544D01*
X156268477Y-74695465D01*
X156207332Y-74507281D01*
X156205220Y-74500781D01*
X156205218Y-74500778D01*
X156205218Y-74500776D01*
X156171503Y-74434607D01*
X156112287Y-74318390D01*
X156082806Y-74277812D01*
X155991971Y-74152786D01*
X155847213Y-74008028D01*
X155681613Y-73887715D01*
X155681612Y-73887714D01*
X155681610Y-73887713D01*
X155624653Y-73858691D01*
X155499223Y-73794781D01*
X155304534Y-73731522D01*
X155122663Y-73702717D01*
X155102352Y-73699500D01*
X154897648Y-73699500D01*
X154780929Y-73717986D01*
X154711636Y-73709031D01*
X154673851Y-73683194D01*
X153943160Y-72952502D01*
X153859530Y-72868872D01*
X159199500Y-72868872D01*
X159199500Y-73131127D01*
X159224242Y-73319047D01*
X159233730Y-73391116D01*
X159301602Y-73644418D01*
X159301605Y-73644428D01*
X159401953Y-73886690D01*
X159401958Y-73886700D01*
X159533075Y-74113803D01*
X159692718Y-74321851D01*
X159692726Y-74321860D01*
X159878140Y-74507274D01*
X159878148Y-74507281D01*
X160086196Y-74666924D01*
X160313299Y-74798041D01*
X160313309Y-74798046D01*
X160553768Y-74897647D01*
X160555581Y-74898398D01*
X160808884Y-74966270D01*
X161057188Y-74998960D01*
X161068864Y-75000498D01*
X161068880Y-75000500D01*
X161068887Y-75000500D01*
X161331113Y-75000500D01*
X161331120Y-75000500D01*
X161591116Y-74966270D01*
X161844419Y-74898398D01*
X162086697Y-74798043D01*
X162313803Y-74666924D01*
X162521851Y-74507282D01*
X162521855Y-74507277D01*
X162521860Y-74507274D01*
X162707274Y-74321860D01*
X162707277Y-74321855D01*
X162707282Y-74321851D01*
X162866924Y-74113803D01*
X162998043Y-73886697D01*
X163098398Y-73644419D01*
X163166270Y-73391116D01*
X163200500Y-73131120D01*
X163200500Y-72868880D01*
X163200499Y-72868872D01*
X164199500Y-72868872D01*
X164199500Y-73131127D01*
X164224242Y-73319047D01*
X164233730Y-73391116D01*
X164301602Y-73644418D01*
X164301605Y-73644428D01*
X164401953Y-73886690D01*
X164401958Y-73886700D01*
X164533075Y-74113803D01*
X164692718Y-74321851D01*
X164692726Y-74321860D01*
X164878140Y-74507274D01*
X164878148Y-74507281D01*
X165086196Y-74666924D01*
X165313299Y-74798041D01*
X165313309Y-74798046D01*
X165553768Y-74897647D01*
X165555581Y-74898398D01*
X165808884Y-74966270D01*
X166057188Y-74998960D01*
X166068864Y-75000498D01*
X166068880Y-75000500D01*
X166068887Y-75000500D01*
X166331113Y-75000500D01*
X166331120Y-75000500D01*
X166591116Y-74966270D01*
X166844419Y-74898398D01*
X167086697Y-74798043D01*
X167313803Y-74666924D01*
X167521851Y-74507282D01*
X167521855Y-74507277D01*
X167521860Y-74507274D01*
X167707274Y-74321860D01*
X167707277Y-74321855D01*
X167707282Y-74321851D01*
X167866924Y-74113803D01*
X167998043Y-73886697D01*
X168098398Y-73644419D01*
X168166270Y-73391116D01*
X168200500Y-73131120D01*
X168200500Y-72868880D01*
X168166270Y-72608884D01*
X168098398Y-72355581D01*
X168090609Y-72336776D01*
X167998046Y-72113309D01*
X167998041Y-72113299D01*
X167866924Y-71886196D01*
X167722868Y-71698461D01*
X167707282Y-71678149D01*
X167707281Y-71678148D01*
X167707274Y-71678140D01*
X167521860Y-71492726D01*
X167521851Y-71492718D01*
X167313803Y-71333075D01*
X167086700Y-71201958D01*
X167086690Y-71201953D01*
X166844428Y-71101605D01*
X166844421Y-71101603D01*
X166844419Y-71101602D01*
X166591116Y-71033730D01*
X166533339Y-71026123D01*
X166331127Y-70999500D01*
X166331120Y-70999500D01*
X166068880Y-70999500D01*
X166068872Y-70999500D01*
X165837772Y-71029926D01*
X165808884Y-71033730D01*
X165555581Y-71101602D01*
X165555571Y-71101605D01*
X165313309Y-71201953D01*
X165313299Y-71201958D01*
X165086196Y-71333075D01*
X164878148Y-71492718D01*
X164692718Y-71678148D01*
X164533075Y-71886196D01*
X164401958Y-72113299D01*
X164401953Y-72113309D01*
X164301605Y-72355571D01*
X164301602Y-72355581D01*
X164234575Y-72605733D01*
X164233730Y-72608885D01*
X164199500Y-72868872D01*
X163200499Y-72868872D01*
X163166270Y-72608884D01*
X163098398Y-72355581D01*
X163090609Y-72336776D01*
X162998046Y-72113309D01*
X162998041Y-72113299D01*
X162866924Y-71886196D01*
X162722868Y-71698461D01*
X162707282Y-71678149D01*
X162707281Y-71678148D01*
X162707274Y-71678140D01*
X162521860Y-71492726D01*
X162521851Y-71492718D01*
X162313803Y-71333075D01*
X162086700Y-71201958D01*
X162086690Y-71201953D01*
X161844428Y-71101605D01*
X161844421Y-71101603D01*
X161844419Y-71101602D01*
X161591116Y-71033730D01*
X161533339Y-71026123D01*
X161331127Y-70999500D01*
X161331120Y-70999500D01*
X161068880Y-70999500D01*
X161068872Y-70999500D01*
X160837772Y-71029926D01*
X160808884Y-71033730D01*
X160555581Y-71101602D01*
X160555571Y-71101605D01*
X160313309Y-71201953D01*
X160313299Y-71201958D01*
X160086196Y-71333075D01*
X159878148Y-71492718D01*
X159692718Y-71678148D01*
X159533075Y-71886196D01*
X159401958Y-72113299D01*
X159401953Y-72113309D01*
X159301605Y-72355571D01*
X159301602Y-72355581D01*
X159234575Y-72605733D01*
X159233730Y-72608885D01*
X159199500Y-72868872D01*
X153859530Y-72868872D01*
X153526545Y-72535887D01*
X153411807Y-72459222D01*
X153284332Y-72406421D01*
X153284322Y-72406418D01*
X153148996Y-72379500D01*
X153148994Y-72379500D01*
X153148993Y-72379500D01*
X147485351Y-72379500D01*
X147418312Y-72359815D01*
X147385035Y-72328388D01*
X147268242Y-72167635D01*
X147112365Y-72011758D01*
X147112363Y-72011756D01*
X147112358Y-72011752D01*
X146934025Y-71882187D01*
X146934024Y-71882186D01*
X146934022Y-71882185D01*
X146871096Y-71850122D01*
X146737606Y-71782104D01*
X146737603Y-71782103D01*
X146527952Y-71713985D01*
X146419086Y-71696742D01*
X146310222Y-71679500D01*
X146089778Y-71679500D01*
X146017201Y-71690995D01*
X145872047Y-71713985D01*
X145662396Y-71782103D01*
X145662393Y-71782104D01*
X145465974Y-71882187D01*
X145287641Y-72011752D01*
X145287636Y-72011756D01*
X145131756Y-72167636D01*
X145131752Y-72167641D01*
X145002187Y-72345974D01*
X144902104Y-72542393D01*
X144902103Y-72542396D01*
X144833985Y-72752047D01*
X144822510Y-72824500D01*
X144799500Y-72969778D01*
X144799500Y-73190222D01*
X144804006Y-73218670D01*
X144833985Y-73407952D01*
X144902103Y-73617603D01*
X144902104Y-73617606D01*
X145002187Y-73814025D01*
X145131752Y-73992358D01*
X145131756Y-73992363D01*
X145287636Y-74148243D01*
X145287641Y-74148247D01*
X145412172Y-74238723D01*
X145465978Y-74277815D01*
X145594375Y-74343237D01*
X145662393Y-74377895D01*
X145662396Y-74377896D01*
X145767221Y-74411955D01*
X145872049Y-74446015D01*
X146089778Y-74480500D01*
X146089779Y-74480500D01*
X146310221Y-74480500D01*
X146310222Y-74480500D01*
X146527951Y-74446015D01*
X146737606Y-74377895D01*
X146934022Y-74277815D01*
X147112365Y-74148242D01*
X147268242Y-73992365D01*
X147385034Y-73831613D01*
X147440362Y-73788949D01*
X147485351Y-73780500D01*
X152738481Y-73780500D01*
X152805520Y-73800185D01*
X152826162Y-73816819D01*
X153683194Y-74673851D01*
X153716679Y-74735174D01*
X153717986Y-74780929D01*
X153699500Y-74897647D01*
X153699500Y-75102351D01*
X153731522Y-75304534D01*
X153794781Y-75499223D01*
X153887715Y-75681613D01*
X154008028Y-75847213D01*
X154152786Y-75991971D01*
X154318388Y-76112286D01*
X154371828Y-76139516D01*
X154422623Y-76187490D01*
X154439418Y-76255312D01*
X154416880Y-76321446D01*
X154371828Y-76360484D01*
X154318388Y-76387713D01*
X154152786Y-76508028D01*
X154008028Y-76652786D01*
X153887715Y-76818386D01*
X153794781Y-77000776D01*
X153731522Y-77195465D01*
X153699500Y-77397648D01*
X153699500Y-77602351D01*
X153717986Y-77719068D01*
X153709031Y-77788362D01*
X153683194Y-77826147D01*
X152455887Y-79053454D01*
X152379222Y-79168192D01*
X152326421Y-79295667D01*
X152326418Y-79295677D01*
X152299500Y-79431004D01*
X152299500Y-93804478D01*
X152291048Y-93833260D01*
X152285006Y-93862654D01*
X152281305Y-93866439D01*
X152279815Y-93871517D01*
X152257145Y-93891160D01*
X152236170Y-93912622D01*
X152231010Y-93913806D01*
X152227011Y-93917272D01*
X152197313Y-93921542D01*
X152168072Y-93928255D01*
X152162039Y-93926614D01*
X152157853Y-93927216D01*
X152133501Y-93921149D01*
X152126154Y-93918504D01*
X152099219Y-93904780D01*
X151984326Y-93867449D01*
X151982501Y-93866792D01*
X151955800Y-93847277D01*
X151928506Y-93828614D01*
X151927720Y-93826754D01*
X151926091Y-93825564D01*
X151914181Y-93794717D01*
X151901308Y-93764256D01*
X151901114Y-93760875D01*
X151900925Y-93760384D01*
X151901051Y-93759768D01*
X151900500Y-93750121D01*
X151900500Y-91931004D01*
X151873581Y-91795677D01*
X151873580Y-91795676D01*
X151873580Y-91795672D01*
X151820775Y-91668189D01*
X151792252Y-91625501D01*
X151744114Y-91553457D01*
X151744112Y-91553454D01*
X149146545Y-88955887D01*
X149031807Y-88879222D01*
X148904332Y-88826421D01*
X148904322Y-88826418D01*
X148768996Y-88799500D01*
X148768994Y-88799500D01*
X148768993Y-88799500D01*
X144625316Y-88799500D01*
X144577864Y-88790061D01*
X144433501Y-88730264D01*
X144433489Y-88730261D01*
X144278845Y-88699500D01*
X144278842Y-88699500D01*
X144121158Y-88699500D01*
X144121155Y-88699500D01*
X143966510Y-88730261D01*
X143966498Y-88730264D01*
X143820827Y-88790602D01*
X143820814Y-88790609D01*
X143689711Y-88878210D01*
X143689707Y-88878213D01*
X143578213Y-88989707D01*
X143578210Y-88989711D01*
X143490609Y-89120814D01*
X143490602Y-89120827D01*
X143430264Y-89266498D01*
X143430261Y-89266510D01*
X143399500Y-89421153D01*
X143399500Y-89578846D01*
X143430261Y-89733489D01*
X143430264Y-89733501D01*
X143490602Y-89879172D01*
X143490609Y-89879185D01*
X143578210Y-90010288D01*
X143578213Y-90010292D01*
X143689707Y-90121786D01*
X143689711Y-90121789D01*
X143820814Y-90209390D01*
X143820827Y-90209397D01*
X143887031Y-90236819D01*
X143966503Y-90269737D01*
X144121153Y-90300499D01*
X144121156Y-90300500D01*
X144121158Y-90300500D01*
X144278844Y-90300500D01*
X144278845Y-90300499D01*
X144433497Y-90269737D01*
X144512969Y-90236819D01*
X144577864Y-90209939D01*
X144625316Y-90200500D01*
X148358481Y-90200500D01*
X148425520Y-90220185D01*
X148446162Y-90236819D01*
X150463181Y-92253838D01*
X150496666Y-92315161D01*
X150499500Y-92341519D01*
X150499500Y-93750121D01*
X150479815Y-93817160D01*
X150427011Y-93862915D01*
X150413818Y-93868052D01*
X150300778Y-93904781D01*
X150118386Y-93997715D01*
X149952786Y-94118028D01*
X149808028Y-94262786D01*
X149687715Y-94428386D01*
X149594781Y-94610776D01*
X149531522Y-94805465D01*
X149500835Y-94999219D01*
X149499500Y-95007648D01*
X149499500Y-95212352D01*
X149501822Y-95227011D01*
X149531522Y-95414534D01*
X149594781Y-95609223D01*
X149646135Y-95710009D01*
X149681796Y-95779998D01*
X149687715Y-95791613D01*
X149808028Y-95957213D01*
X149952786Y-96101971D01*
X150080882Y-96195036D01*
X150118390Y-96222287D01*
X150201530Y-96264649D01*
X150211080Y-96269515D01*
X150261876Y-96317490D01*
X150278671Y-96385311D01*
X150256134Y-96451446D01*
X150211080Y-96490485D01*
X150118386Y-96537715D01*
X149952786Y-96658028D01*
X149808028Y-96802786D01*
X149687715Y-96968386D01*
X149594781Y-97150776D01*
X149531522Y-97345465D01*
X149503193Y-97524332D01*
X149499500Y-97547648D01*
X149499500Y-97752352D01*
X149508269Y-97807715D01*
X149531523Y-97954535D01*
X149531523Y-97954538D01*
X149594779Y-98149218D01*
X149596643Y-98153718D01*
X149594567Y-98154577D01*
X149605696Y-98214144D01*
X149579359Y-98278860D01*
X149570008Y-98289334D01*
X145437026Y-102422315D01*
X145375703Y-102455800D01*
X145306011Y-102450816D01*
X145250078Y-102408944D01*
X145231414Y-102372952D01*
X145230087Y-102368867D01*
X145185220Y-102230781D01*
X145092287Y-102048390D01*
X145059163Y-102002798D01*
X144971971Y-101882786D01*
X144827213Y-101738028D01*
X144661614Y-101617715D01*
X144651930Y-101612781D01*
X144568917Y-101570483D01*
X144518123Y-101522511D01*
X144501328Y-101454690D01*
X144523865Y-101388555D01*
X144568917Y-101349516D01*
X144661610Y-101302287D01*
X144723114Y-101257602D01*
X144827213Y-101181971D01*
X144827215Y-101181968D01*
X144827219Y-101181966D01*
X144971966Y-101037219D01*
X144975552Y-101032284D01*
X145041425Y-100941616D01*
X145096755Y-100898949D01*
X145141744Y-100890500D01*
X146078996Y-100890500D01*
X146187774Y-100868862D01*
X146214328Y-100863580D01*
X146278069Y-100837177D01*
X146341807Y-100810777D01*
X146341808Y-100810776D01*
X146341811Y-100810775D01*
X146456543Y-100734114D01*
X147394586Y-99796069D01*
X147434810Y-99769192D01*
X147504910Y-99740157D01*
X147579173Y-99709397D01*
X147579176Y-99709395D01*
X147579179Y-99709394D01*
X147710289Y-99621789D01*
X147821789Y-99510289D01*
X147909394Y-99379179D01*
X147969737Y-99233497D01*
X148000500Y-99078842D01*
X148000500Y-98921158D01*
X148000500Y-98921155D01*
X148000499Y-98921153D01*
X147989636Y-98866543D01*
X147969737Y-98766503D01*
X147967991Y-98762287D01*
X147909397Y-98620827D01*
X147909390Y-98620814D01*
X147821789Y-98489711D01*
X147821786Y-98489707D01*
X147710292Y-98378213D01*
X147710288Y-98378210D01*
X147579185Y-98290609D01*
X147579172Y-98290602D01*
X147433501Y-98230264D01*
X147433489Y-98230261D01*
X147278845Y-98199500D01*
X147278842Y-98199500D01*
X147121158Y-98199500D01*
X147121155Y-98199500D01*
X146966510Y-98230261D01*
X146966498Y-98230264D01*
X146820827Y-98290602D01*
X146820814Y-98290609D01*
X146689711Y-98378210D01*
X146689707Y-98378213D01*
X146578213Y-98489707D01*
X146578210Y-98489711D01*
X146490609Y-98620814D01*
X146490604Y-98620823D01*
X146430809Y-98765184D01*
X146403929Y-98805412D01*
X145756162Y-99453181D01*
X145694839Y-99486666D01*
X145668481Y-99489500D01*
X145141744Y-99489500D01*
X145074705Y-99469815D01*
X145041425Y-99438384D01*
X144971969Y-99342784D01*
X144827213Y-99198028D01*
X144661614Y-99077715D01*
X144580860Y-99036569D01*
X144568917Y-99030483D01*
X144518123Y-98982511D01*
X144501328Y-98914690D01*
X144523865Y-98848555D01*
X144568917Y-98809516D01*
X144661610Y-98762287D01*
X144717823Y-98721446D01*
X144827213Y-98641971D01*
X144827215Y-98641968D01*
X144827219Y-98641966D01*
X144971966Y-98497219D01*
X144971968Y-98497215D01*
X144971971Y-98497213D01*
X145058428Y-98378213D01*
X145092287Y-98331610D01*
X145185220Y-98149219D01*
X145248477Y-97954534D01*
X145280500Y-97752352D01*
X145280500Y-97547648D01*
X145248477Y-97345466D01*
X145185220Y-97150781D01*
X145185218Y-97150778D01*
X145185218Y-97150776D01*
X145146845Y-97075466D01*
X145092287Y-96968390D01*
X145084556Y-96957749D01*
X144971971Y-96802786D01*
X144827219Y-96658034D01*
X144775936Y-96620775D01*
X144733547Y-96589978D01*
X144690882Y-96534649D01*
X144684903Y-96465036D01*
X144717508Y-96403240D01*
X144767426Y-96371955D01*
X144849334Y-96344814D01*
X144998656Y-96252712D01*
X145122712Y-96128656D01*
X145214814Y-95979334D01*
X145269999Y-95812797D01*
X145280500Y-95710009D01*
X145280499Y-94509992D01*
X145272439Y-94431094D01*
X145269999Y-94407203D01*
X145269998Y-94407200D01*
X145247987Y-94340776D01*
X145214814Y-94240666D01*
X145122712Y-94091344D01*
X144998656Y-93967288D01*
X144865493Y-93885153D01*
X144849336Y-93875187D01*
X144849331Y-93875185D01*
X144827805Y-93868052D01*
X144682797Y-93820001D01*
X144682795Y-93820000D01*
X144580010Y-93809500D01*
X142579998Y-93809500D01*
X142579981Y-93809501D01*
X142477203Y-93820000D01*
X142477200Y-93820001D01*
X142310668Y-93875185D01*
X142310663Y-93875187D01*
X142161342Y-93967289D01*
X142037289Y-94091342D01*
X141945187Y-94240663D01*
X141945185Y-94240668D01*
X141925525Y-94300000D01*
X141890001Y-94407203D01*
X141890001Y-94407204D01*
X141890000Y-94407204D01*
X141879500Y-94509983D01*
X139934203Y-94509983D01*
X139924614Y-94480471D01*
X139905220Y-94420781D01*
X139905218Y-94420778D01*
X139905218Y-94420776D01*
X139859885Y-94331807D01*
X139812287Y-94238390D01*
X139787540Y-94204328D01*
X139691971Y-94072786D01*
X139547213Y-93928028D01*
X139381613Y-93807715D01*
X139381612Y-93807714D01*
X139381610Y-93807713D01*
X139296321Y-93764256D01*
X139199223Y-93714781D01*
X139004534Y-93651522D01*
X138829995Y-93623878D01*
X138802352Y-93619500D01*
X138597648Y-93619500D01*
X138573329Y-93623351D01*
X138395465Y-93651522D01*
X138200776Y-93714781D01*
X138018386Y-93807715D01*
X137852786Y-93928028D01*
X137708028Y-94072786D01*
X137587715Y-94238386D01*
X137494781Y-94420776D01*
X137431522Y-94615465D01*
X137399500Y-94817648D01*
X137399500Y-95022351D01*
X137417986Y-95139068D01*
X137409031Y-95208362D01*
X137383194Y-95246147D01*
X131455887Y-101173454D01*
X131379222Y-101288192D01*
X131326421Y-101415667D01*
X131326418Y-101415679D01*
X131299964Y-101548675D01*
X131299961Y-101548692D01*
X131299500Y-101551007D01*
X131299500Y-104915201D01*
X131279815Y-104982240D01*
X131240598Y-105020739D01*
X131181344Y-105057287D01*
X131057289Y-105181342D01*
X130965187Y-105330663D01*
X130965185Y-105330668D01*
X130947336Y-105384534D01*
X130910001Y-105497203D01*
X130910001Y-105497204D01*
X130910000Y-105497204D01*
X130899500Y-105599983D01*
X110450500Y-105599983D01*
X110450500Y-104731378D01*
X110447705Y-104678759D01*
X110403245Y-104448874D01*
X110320574Y-104229810D01*
X110202070Y-104027868D01*
X110202065Y-104027861D01*
X110051143Y-103848858D01*
X110051141Y-103848856D01*
X109872138Y-103697934D01*
X109872131Y-103697929D01*
X109670189Y-103579425D01*
X109572513Y-103542564D01*
X109451126Y-103496755D01*
X109451121Y-103496754D01*
X109451116Y-103496752D01*
X109448470Y-103496240D01*
X109447451Y-103495713D01*
X109446050Y-103495317D01*
X109446130Y-103495031D01*
X109386392Y-103464177D01*
X109351503Y-103403641D01*
X109354881Y-103333853D01*
X109395452Y-103276970D01*
X109460337Y-103251052D01*
X109472009Y-103250499D01*
X112997872Y-103250499D01*
X113057483Y-103244091D01*
X113192331Y-103193796D01*
X113307546Y-103107546D01*
X113393796Y-102992331D01*
X113444091Y-102857483D01*
X113450500Y-102797873D01*
X113450499Y-99791517D01*
X113470184Y-99724479D01*
X113486813Y-99703842D01*
X118744114Y-94446543D01*
X118820775Y-94331811D01*
X118873580Y-94204328D01*
X118890745Y-94118034D01*
X118900500Y-94068996D01*
X118900500Y-92341519D01*
X118920185Y-92274480D01*
X118936819Y-92253838D01*
X119704112Y-91486545D01*
X119704114Y-91486543D01*
X119780775Y-91371811D01*
X119833580Y-91244328D01*
X119860500Y-91108994D01*
X119860500Y-90971006D01*
X119860500Y-88872351D01*
X119880185Y-88805312D01*
X119932989Y-88759557D01*
X119971247Y-88749061D01*
X120017483Y-88744091D01*
X120152331Y-88693796D01*
X120267546Y-88607546D01*
X120330734Y-88523136D01*
X120386667Y-88481267D01*
X120456359Y-88476283D01*
X120517682Y-88509768D01*
X120529260Y-88523130D01*
X120592454Y-88607546D01*
X120638643Y-88642123D01*
X120707664Y-88693793D01*
X120707671Y-88693797D01*
X120842516Y-88744091D01*
X120888757Y-88749063D01*
X120953307Y-88775801D01*
X120993155Y-88833194D01*
X120999500Y-88872352D01*
X120999500Y-98078480D01*
X120979815Y-98145519D01*
X120963181Y-98166161D01*
X119696183Y-99433158D01*
X119634860Y-99466643D01*
X119570184Y-99463408D01*
X119494787Y-99438910D01*
X119312256Y-99410000D01*
X119245962Y-99399500D01*
X118994038Y-99399500D01*
X118927738Y-99410001D01*
X118745214Y-99438910D01*
X118505616Y-99516760D01*
X118281151Y-99631132D01*
X118077350Y-99779201D01*
X118077345Y-99779205D01*
X117899205Y-99957345D01*
X117899201Y-99957350D01*
X117751132Y-100161151D01*
X117636760Y-100385616D01*
X117558910Y-100625214D01*
X117536419Y-100767219D01*
X117519500Y-100874038D01*
X117519500Y-101125962D01*
X117554908Y-101349515D01*
X117558910Y-101374785D01*
X117636760Y-101614383D01*
X117751132Y-101838848D01*
X117899201Y-102042649D01*
X117899205Y-102042654D01*
X118077345Y-102220794D01*
X118077350Y-102220798D01*
X118227655Y-102330000D01*
X118281155Y-102368870D01*
X118386047Y-102422315D01*
X118505616Y-102483239D01*
X118505618Y-102483239D01*
X118505621Y-102483241D01*
X118745215Y-102561090D01*
X118994038Y-102600500D01*
X118994039Y-102600500D01*
X119245961Y-102600500D01*
X119245962Y-102600500D01*
X119494785Y-102561090D01*
X119734379Y-102483241D01*
X119958845Y-102368870D01*
X120162656Y-102220793D01*
X120340793Y-102042656D01*
X120488870Y-101838845D01*
X120603241Y-101614379D01*
X120681090Y-101374785D01*
X120720500Y-101125962D01*
X120720500Y-100874038D01*
X120681090Y-100625215D01*
X120656589Y-100549812D01*
X120654595Y-100479973D01*
X120686838Y-100423817D01*
X121010673Y-100099982D01*
X127679500Y-100099982D01*
X127679500Y-101900017D01*
X127690000Y-102002796D01*
X127710886Y-102065826D01*
X127745186Y-102169335D01*
X127837288Y-102318656D01*
X127961344Y-102442712D01*
X128110665Y-102534814D01*
X128277202Y-102589999D01*
X128379990Y-102600500D01*
X128379995Y-102600500D01*
X130180005Y-102600500D01*
X130180010Y-102600500D01*
X130282798Y-102589999D01*
X130449335Y-102534814D01*
X130598656Y-102442712D01*
X130722712Y-102318656D01*
X130814814Y-102169335D01*
X130869999Y-102002798D01*
X130880500Y-101900010D01*
X130880500Y-100099990D01*
X130869999Y-99997202D01*
X130814814Y-99830665D01*
X130722712Y-99681344D01*
X130598656Y-99557288D01*
X130598655Y-99557287D01*
X130586605Y-99549855D01*
X130539880Y-99497908D01*
X130528657Y-99428945D01*
X130556500Y-99364863D01*
X130564009Y-99356646D01*
X135974113Y-93946543D01*
X135986481Y-93928034D01*
X136050775Y-93831811D01*
X136103580Y-93704328D01*
X136104981Y-93697288D01*
X136109721Y-93673457D01*
X136130500Y-93568993D01*
X136130500Y-91425316D01*
X136139939Y-91377864D01*
X136195249Y-91244332D01*
X136199737Y-91233497D01*
X136230500Y-91078842D01*
X136230500Y-90921158D01*
X136230500Y-90921155D01*
X136230499Y-90921153D01*
X136218341Y-90860031D01*
X136199737Y-90766503D01*
X136139939Y-90622136D01*
X136130500Y-90574684D01*
X136130500Y-79116999D01*
X136150185Y-79049960D01*
X136202989Y-79004205D01*
X136254500Y-78992999D01*
X136477871Y-78992999D01*
X136477872Y-78992999D01*
X136537483Y-78986591D01*
X136672331Y-78936296D01*
X136787546Y-78850046D01*
X136873796Y-78734831D01*
X136924091Y-78599983D01*
X136930500Y-78540373D01*
X136930499Y-76539628D01*
X136924091Y-76480017D01*
X136879508Y-76360485D01*
X136873797Y-76345171D01*
X136873793Y-76345164D01*
X136787547Y-76229955D01*
X136787544Y-76229952D01*
X136672335Y-76143706D01*
X136672326Y-76143701D01*
X136643974Y-76133127D01*
X136588040Y-76091257D01*
X136563622Y-76025792D01*
X136578473Y-75957519D01*
X136586988Y-75944059D01*
X136719788Y-75761276D01*
X136823582Y-75557570D01*
X136894234Y-75340128D01*
X136908509Y-75250000D01*
X135920748Y-75250000D01*
X135942518Y-75212292D01*
X135980000Y-75072409D01*
X135980000Y-74927591D01*
X135942518Y-74787708D01*
X135920748Y-74750000D01*
X136908509Y-74750000D01*
X136894234Y-74659871D01*
X136823582Y-74442429D01*
X136719788Y-74238723D01*
X136585402Y-74053757D01*
X136423742Y-73892097D01*
X136339135Y-73830626D01*
X136296470Y-73775296D01*
X136290491Y-73705682D01*
X136323097Y-73643887D01*
X136339125Y-73629999D01*
X136424066Y-73568286D01*
X136585786Y-73406566D01*
X136720217Y-73221538D01*
X136824048Y-73017758D01*
X136894722Y-72800245D01*
X136894723Y-72800238D01*
X136895846Y-72795561D01*
X136930633Y-72734967D01*
X136992657Y-72702799D01*
X137016422Y-72700500D01*
X139875500Y-72700500D01*
X139942539Y-72720185D01*
X139988294Y-72772989D01*
X139999500Y-72824500D01*
X139999500Y-85185881D01*
X139979815Y-85252920D01*
X139963181Y-85273562D01*
X138873561Y-86363181D01*
X138812238Y-86396666D01*
X138785880Y-86399500D01*
X138327399Y-86399500D01*
X138327381Y-86399501D01*
X138224604Y-86410000D01*
X138224601Y-86410001D01*
X138058069Y-86465185D01*
X138058064Y-86465187D01*
X137908743Y-86557289D01*
X137784690Y-86681342D01*
X137692588Y-86830663D01*
X137692586Y-86830668D01*
X137682701Y-86860499D01*
X137637402Y-86997203D01*
X137637402Y-86997204D01*
X137637401Y-86997204D01*
X137626901Y-87099983D01*
X137626901Y-87900001D01*
X137626902Y-87900019D01*
X137637401Y-88002796D01*
X137637402Y-88002799D01*
X137692586Y-88169331D01*
X137692588Y-88169336D01*
X137727470Y-88225888D01*
X137784689Y-88318656D01*
X137908745Y-88442712D01*
X138058067Y-88534814D01*
X138224604Y-88589999D01*
X138327392Y-88600500D01*
X139127409Y-88600499D01*
X139127417Y-88600498D01*
X139127420Y-88600498D01*
X139183703Y-88594748D01*
X139230198Y-88589999D01*
X139396735Y-88534814D01*
X139546057Y-88442712D01*
X139552480Y-88436289D01*
X140144662Y-88436289D01*
X140144663Y-88436290D01*
X140150872Y-88440801D01*
X140305143Y-88519408D01*
X140469816Y-88572914D01*
X140640830Y-88600000D01*
X140813972Y-88600000D01*
X140984985Y-88572914D01*
X141149658Y-88519408D01*
X141303926Y-88440803D01*
X141310137Y-88436289D01*
X141310138Y-88436289D01*
X140727402Y-87853553D01*
X140727401Y-87853553D01*
X140144662Y-88436289D01*
X139552480Y-88436289D01*
X139670113Y-88318656D01*
X139762215Y-88169334D01*
X139781568Y-88110930D01*
X139811592Y-88062254D01*
X140432546Y-87441300D01*
X140427401Y-87460504D01*
X140427401Y-87539496D01*
X140447845Y-87615796D01*
X140487341Y-87684205D01*
X140543196Y-87740060D01*
X140611605Y-87779556D01*
X140687905Y-87800000D01*
X140766897Y-87800000D01*
X140843197Y-87779556D01*
X140911606Y-87740060D01*
X140967461Y-87684205D01*
X141006957Y-87615796D01*
X141027401Y-87539496D01*
X141027401Y-87499999D01*
X141080954Y-87499999D01*
X141080954Y-87500001D01*
X141663690Y-88082737D01*
X141663690Y-88082736D01*
X141668204Y-88076525D01*
X141746809Y-87922257D01*
X141800315Y-87757584D01*
X141827401Y-87586571D01*
X141827401Y-87413428D01*
X141800315Y-87242415D01*
X141746809Y-87077742D01*
X141668202Y-86923471D01*
X141663691Y-86917262D01*
X141663690Y-86917261D01*
X141080954Y-87499999D01*
X141027401Y-87499999D01*
X141027401Y-87460504D01*
X141006957Y-87384204D01*
X140967461Y-87315795D01*
X140911606Y-87259940D01*
X140843197Y-87220444D01*
X140766897Y-87200000D01*
X140687905Y-87200000D01*
X140668701Y-87205145D01*
X141310138Y-86563709D01*
X141303926Y-86559196D01*
X141149660Y-86480592D01*
X141030995Y-86442035D01*
X140973320Y-86402597D01*
X140946122Y-86338238D01*
X140958037Y-86269392D01*
X140981625Y-86236431D01*
X141244114Y-85973944D01*
X141320775Y-85859212D01*
X141373580Y-85731730D01*
X141386987Y-85664328D01*
X141400500Y-85596394D01*
X141400500Y-84369818D01*
X144800000Y-84369818D01*
X144800000Y-84590181D01*
X144834473Y-84807835D01*
X144902567Y-85017410D01*
X145002611Y-85213756D01*
X145048932Y-85277513D01*
X145484152Y-84842292D01*
X145491049Y-84858942D01*
X145578599Y-84989970D01*
X145690030Y-85101401D01*
X145821058Y-85188951D01*
X145837705Y-85195846D01*
X145402485Y-85631065D01*
X145402485Y-85631066D01*
X145466243Y-85677388D01*
X145662589Y-85777432D01*
X145872164Y-85845526D01*
X146089819Y-85880000D01*
X146310181Y-85880000D01*
X146527835Y-85845526D01*
X146737410Y-85777432D01*
X146933760Y-85677386D01*
X146997513Y-85631066D01*
X146997514Y-85631066D01*
X146562294Y-85195846D01*
X146578942Y-85188951D01*
X146709970Y-85101401D01*
X146821401Y-84989970D01*
X146908951Y-84858942D01*
X146915846Y-84842294D01*
X147351066Y-85277514D01*
X147351066Y-85277513D01*
X147397386Y-85213760D01*
X147497432Y-85017410D01*
X147565526Y-84807835D01*
X147600000Y-84590181D01*
X147600000Y-84369818D01*
X147565526Y-84152164D01*
X147497432Y-83942589D01*
X147397388Y-83746243D01*
X147351066Y-83682485D01*
X147351065Y-83682485D01*
X146915846Y-84117704D01*
X146908951Y-84101058D01*
X146821401Y-83970030D01*
X146709970Y-83858599D01*
X146578942Y-83771049D01*
X146562292Y-83764152D01*
X146997513Y-83328932D01*
X146933756Y-83282611D01*
X146737410Y-83182567D01*
X146527835Y-83114473D01*
X146310181Y-83080000D01*
X146089819Y-83080000D01*
X145872164Y-83114473D01*
X145662589Y-83182567D01*
X145466233Y-83282616D01*
X145402485Y-83328931D01*
X145402485Y-83328932D01*
X145837706Y-83764153D01*
X145821058Y-83771049D01*
X145690030Y-83858599D01*
X145578599Y-83970030D01*
X145491049Y-84101058D01*
X145484153Y-84117706D01*
X145048932Y-83682485D01*
X145048931Y-83682485D01*
X145002616Y-83746233D01*
X144902567Y-83942589D01*
X144834473Y-84152164D01*
X144800000Y-84369818D01*
X141400500Y-84369818D01*
X141400500Y-81269778D01*
X144799500Y-81269778D01*
X144799500Y-81490221D01*
X144833985Y-81707952D01*
X144902103Y-81917603D01*
X144902104Y-81917606D01*
X145002187Y-82114025D01*
X145131752Y-82292358D01*
X145131756Y-82292363D01*
X145287636Y-82448243D01*
X145287641Y-82448247D01*
X145407688Y-82535465D01*
X145465978Y-82577815D01*
X145586193Y-82639068D01*
X145662393Y-82677895D01*
X145662396Y-82677896D01*
X145767221Y-82711955D01*
X145872049Y-82746015D01*
X146089778Y-82780500D01*
X146089779Y-82780500D01*
X146310221Y-82780500D01*
X146310222Y-82780500D01*
X146527951Y-82746015D01*
X146737606Y-82677895D01*
X146934022Y-82577815D01*
X147112365Y-82448242D01*
X147268242Y-82292365D01*
X147397815Y-82114022D01*
X147497895Y-81917606D01*
X147566015Y-81707951D01*
X147600500Y-81490222D01*
X147600500Y-81269778D01*
X147566015Y-81052049D01*
X147497895Y-80842394D01*
X147497895Y-80842393D01*
X147463237Y-80774375D01*
X147397815Y-80645978D01*
X147341882Y-80568992D01*
X147268247Y-80467641D01*
X147268243Y-80467636D01*
X147112363Y-80311756D01*
X147112358Y-80311752D01*
X146934025Y-80182187D01*
X146934024Y-80182186D01*
X146934022Y-80182185D01*
X146871096Y-80150122D01*
X146737606Y-80082104D01*
X146737603Y-80082103D01*
X146527952Y-80013985D01*
X146419086Y-79996742D01*
X146310222Y-79979500D01*
X146089778Y-79979500D01*
X146017201Y-79990995D01*
X145872047Y-80013985D01*
X145662396Y-80082103D01*
X145662393Y-80082104D01*
X145465974Y-80182187D01*
X145287641Y-80311752D01*
X145287636Y-80311756D01*
X145131756Y-80467636D01*
X145131752Y-80467641D01*
X145002187Y-80645974D01*
X144902104Y-80842393D01*
X144902103Y-80842396D01*
X144833985Y-81052047D01*
X144799500Y-81269778D01*
X141400500Y-81269778D01*
X141400500Y-71931007D01*
X141400500Y-71931004D01*
X141373581Y-71795677D01*
X141373580Y-71795676D01*
X141373580Y-71795672D01*
X141373578Y-71795667D01*
X141320778Y-71668195D01*
X141320771Y-71668182D01*
X141244114Y-71553458D01*
X141244111Y-71553454D01*
X141146545Y-71455888D01*
X141146541Y-71455885D01*
X141031817Y-71379228D01*
X141031804Y-71379221D01*
X140904332Y-71326421D01*
X140904322Y-71326418D01*
X140768995Y-71299500D01*
X140768993Y-71299500D01*
X136392490Y-71299500D01*
X136325451Y-71279815D01*
X136319612Y-71275824D01*
X136239038Y-71217283D01*
X136208951Y-71201953D01*
X136035255Y-71113450D01*
X135817748Y-71042778D01*
X135648326Y-71015944D01*
X135591854Y-71007000D01*
X135268146Y-71007000D01*
X135192849Y-71018926D01*
X135042253Y-71042778D01*
X135042250Y-71042778D01*
X134824744Y-71113450D01*
X134620961Y-71217283D01*
X134534894Y-71279815D01*
X134435934Y-71351714D01*
X134435932Y-71351716D01*
X134435931Y-71351716D01*
X134274216Y-71513431D01*
X134274216Y-71513432D01*
X134274214Y-71513434D01*
X134245138Y-71553454D01*
X134139783Y-71698461D01*
X134035950Y-71902244D01*
X133965278Y-72119750D01*
X133965278Y-72119753D01*
X133929500Y-72345646D01*
X133929500Y-72574353D01*
X133965278Y-72800246D01*
X133965278Y-72800249D01*
X134035950Y-73017755D01*
X134135631Y-73213390D01*
X134139783Y-73221538D01*
X134274214Y-73406566D01*
X134435934Y-73568286D01*
X134520864Y-73629991D01*
X134563529Y-73685321D01*
X134569508Y-73754935D01*
X134536902Y-73816730D01*
X134520864Y-73830627D01*
X134436257Y-73892097D01*
X134274597Y-74053757D01*
X134140211Y-74238723D01*
X134036417Y-74442429D01*
X133965765Y-74659871D01*
X133951491Y-74750000D01*
X134939252Y-74750000D01*
X134917482Y-74787708D01*
X134880000Y-74927591D01*
X134880000Y-75072409D01*
X134917482Y-75212292D01*
X134939252Y-75250000D01*
X133951491Y-75250000D01*
X133965765Y-75340128D01*
X134036417Y-75557570D01*
X134140213Y-75761279D01*
X134273011Y-75944060D01*
X134296491Y-76009866D01*
X134280666Y-76077920D01*
X134230560Y-76126615D01*
X134216026Y-76133127D01*
X134187671Y-76143702D01*
X134187664Y-76143706D01*
X134072455Y-76229952D01*
X134072452Y-76229955D01*
X133986206Y-76345164D01*
X133986202Y-76345171D01*
X133935908Y-76480017D01*
X133929501Y-76539616D01*
X133929501Y-76539623D01*
X133929500Y-76539635D01*
X133929500Y-78540370D01*
X133929501Y-78540376D01*
X133935908Y-78599983D01*
X133986202Y-78734828D01*
X133986206Y-78734835D01*
X134072452Y-78850044D01*
X134072455Y-78850047D01*
X134187664Y-78936293D01*
X134187671Y-78936297D01*
X134232618Y-78953061D01*
X134322517Y-78986591D01*
X134382127Y-78993000D01*
X134605500Y-78992999D01*
X134672539Y-79012683D01*
X134718294Y-79065487D01*
X134729500Y-79116999D01*
X134729500Y-90574684D01*
X134720061Y-90622136D01*
X134660264Y-90766498D01*
X134660261Y-90766510D01*
X134629500Y-90921153D01*
X134629500Y-91078846D01*
X134660261Y-91233489D01*
X134660264Y-91233501D01*
X134720061Y-91377864D01*
X134729500Y-91425316D01*
X134729500Y-93158480D01*
X134709815Y-93225519D01*
X134693181Y-93246161D01*
X128735888Y-99203453D01*
X128735887Y-99203454D01*
X128659224Y-99318190D01*
X128657254Y-99322948D01*
X128613415Y-99377353D01*
X128547122Y-99399421D01*
X128542691Y-99399500D01*
X128379982Y-99399500D01*
X128277203Y-99410000D01*
X128277202Y-99410001D01*
X128220033Y-99428945D01*
X128110667Y-99465185D01*
X128110662Y-99465187D01*
X127961342Y-99557289D01*
X127837289Y-99681342D01*
X127745187Y-99830662D01*
X127745186Y-99830665D01*
X127690001Y-99997202D01*
X127690001Y-99997203D01*
X127690000Y-99997203D01*
X127679500Y-100099982D01*
X121010673Y-100099982D01*
X122244114Y-98866543D01*
X122320775Y-98751811D01*
X122321733Y-98749500D01*
X122352384Y-98675500D01*
X122373580Y-98624328D01*
X122398864Y-98497219D01*
X122400500Y-98488996D01*
X122400500Y-88872351D01*
X122420185Y-88805312D01*
X122472989Y-88759557D01*
X122511247Y-88749061D01*
X122557483Y-88744091D01*
X122692331Y-88693796D01*
X122807546Y-88607546D01*
X122870734Y-88523136D01*
X122926667Y-88481267D01*
X122996359Y-88476283D01*
X123057682Y-88509768D01*
X123069260Y-88523130D01*
X123132454Y-88607546D01*
X123178643Y-88642123D01*
X123247664Y-88693793D01*
X123247671Y-88693797D01*
X123382517Y-88744091D01*
X123382516Y-88744091D01*
X123389444Y-88744835D01*
X123442127Y-88750500D01*
X125037872Y-88750499D01*
X125097483Y-88744091D01*
X125232331Y-88693796D01*
X125347546Y-88607546D01*
X125433796Y-88492331D01*
X125484091Y-88357483D01*
X125490500Y-88297873D01*
X125490499Y-86702128D01*
X125484091Y-86642517D01*
X125469101Y-86602328D01*
X125433797Y-86507671D01*
X125433793Y-86507664D01*
X125347547Y-86392455D01*
X125347544Y-86392452D01*
X125232335Y-86306206D01*
X125232328Y-86306202D01*
X125097482Y-86255908D01*
X125097483Y-86255908D01*
X125037883Y-86249501D01*
X125037881Y-86249500D01*
X125037873Y-86249500D01*
X125037864Y-86249500D01*
X123442129Y-86249500D01*
X123442123Y-86249501D01*
X123382516Y-86255908D01*
X123247671Y-86306202D01*
X123247664Y-86306206D01*
X123132455Y-86392452D01*
X123132452Y-86392455D01*
X123069266Y-86476861D01*
X123013332Y-86518732D01*
X122943641Y-86523716D01*
X122882318Y-86490230D01*
X122870734Y-86476861D01*
X122807547Y-86392455D01*
X122807544Y-86392452D01*
X122692335Y-86306206D01*
X122692328Y-86306202D01*
X122557482Y-86255908D01*
X122557483Y-86255908D01*
X122497883Y-86249501D01*
X122497881Y-86249500D01*
X122497873Y-86249500D01*
X122497864Y-86249500D01*
X120902129Y-86249500D01*
X120902123Y-86249501D01*
X120842516Y-86255908D01*
X120707671Y-86306202D01*
X120707664Y-86306206D01*
X120592455Y-86392452D01*
X120592452Y-86392455D01*
X120529266Y-86476861D01*
X120473332Y-86518732D01*
X120403641Y-86523716D01*
X120342318Y-86490230D01*
X120330734Y-86476861D01*
X120267547Y-86392455D01*
X120267544Y-86392452D01*
X120152335Y-86306206D01*
X120152328Y-86306202D01*
X120017482Y-86255908D01*
X120017483Y-86255908D01*
X119957883Y-86249501D01*
X119957881Y-86249500D01*
X119957873Y-86249500D01*
X119957864Y-86249500D01*
X118362129Y-86249500D01*
X118362123Y-86249501D01*
X118302516Y-86255908D01*
X118167671Y-86306202D01*
X118167664Y-86306206D01*
X118052455Y-86392452D01*
X118052452Y-86392455D01*
X117966206Y-86507664D01*
X117966202Y-86507671D01*
X117915908Y-86642517D01*
X117911734Y-86681344D01*
X117909500Y-86702127D01*
X117909500Y-87181359D01*
X117909501Y-87540500D01*
X117889817Y-87607539D01*
X117837013Y-87653294D01*
X117785501Y-87664500D01*
X113574499Y-87664500D01*
X113507460Y-87644815D01*
X113461705Y-87592011D01*
X113450499Y-87540500D01*
X113450499Y-86567129D01*
X113450498Y-86567123D01*
X113450497Y-86567116D01*
X113444091Y-86507517D01*
X113437643Y-86490230D01*
X113393797Y-86372671D01*
X113393793Y-86372664D01*
X113307547Y-86257455D01*
X113307544Y-86257452D01*
X113192335Y-86171206D01*
X113192328Y-86171202D01*
X113057482Y-86120908D01*
X113057483Y-86120908D01*
X112997883Y-86114501D01*
X112997881Y-86114500D01*
X112997873Y-86114500D01*
X112997864Y-86114500D01*
X109402129Y-86114500D01*
X109402123Y-86114501D01*
X109342516Y-86120908D01*
X109207671Y-86171202D01*
X109207664Y-86171206D01*
X109092455Y-86257452D01*
X109092452Y-86257455D01*
X109006206Y-86372664D01*
X109006202Y-86372671D01*
X108955908Y-86507517D01*
X108949867Y-86563709D01*
X108949501Y-86567123D01*
X108949500Y-86567135D01*
X108949500Y-90162870D01*
X108949501Y-90162876D01*
X108955908Y-90222483D01*
X109006202Y-90357328D01*
X109006206Y-90357335D01*
X109092452Y-90472544D01*
X109092455Y-90472547D01*
X109207664Y-90558793D01*
X109207673Y-90558798D01*
X109254937Y-90576426D01*
X109310871Y-90618296D01*
X109335289Y-90683760D01*
X109320438Y-90752033D01*
X109271033Y-90801439D01*
X109205028Y-90816433D01*
X109168657Y-90814501D01*
X109168628Y-90814500D01*
X109168622Y-90814500D01*
X107231378Y-90814500D01*
X107231370Y-90814500D01*
X107231347Y-90814501D01*
X107178756Y-90817295D01*
X107178755Y-90817295D01*
X106948878Y-90861754D01*
X106948876Y-90861754D01*
X106948874Y-90861755D01*
X106874933Y-90889659D01*
X106729810Y-90944425D01*
X106527868Y-91062929D01*
X106527861Y-91062934D01*
X106348858Y-91213856D01*
X106348856Y-91213858D01*
X106197934Y-91392861D01*
X106197929Y-91392868D01*
X106079425Y-91594810D01*
X106067843Y-91625502D01*
X105996755Y-91813874D01*
X105996754Y-91813876D01*
X105996754Y-91813878D01*
X105952295Y-92043755D01*
X105952295Y-92043756D01*
X105949501Y-92096347D01*
X105949500Y-92096386D01*
X97700500Y-92096386D01*
X97700500Y-87300803D01*
X103200000Y-87300803D01*
X103200000Y-88115000D01*
X104700000Y-88115000D01*
X104700000Y-88615000D01*
X103200001Y-88615000D01*
X103200001Y-89429197D01*
X103210400Y-89561332D01*
X103265377Y-89779519D01*
X103358428Y-89984374D01*
X103358431Y-89984380D01*
X103486559Y-90169323D01*
X103486569Y-90169335D01*
X103645664Y-90328430D01*
X103645676Y-90328440D01*
X103830619Y-90456568D01*
X103830625Y-90456571D01*
X104035480Y-90549622D01*
X104253667Y-90604599D01*
X104385810Y-90614999D01*
X104949999Y-90614999D01*
X104950000Y-90614998D01*
X104950000Y-89798012D01*
X105007007Y-89830925D01*
X105134174Y-89865000D01*
X105265826Y-89865000D01*
X105392993Y-89830925D01*
X105450000Y-89798012D01*
X105450000Y-90614999D01*
X106014182Y-90614999D01*
X106014197Y-90614998D01*
X106146332Y-90604599D01*
X106364519Y-90549622D01*
X106569374Y-90456571D01*
X106569380Y-90456568D01*
X106754323Y-90328440D01*
X106754335Y-90328430D01*
X106913430Y-90169335D01*
X106913440Y-90169323D01*
X107041568Y-89984380D01*
X107041571Y-89984374D01*
X107134622Y-89779519D01*
X107189599Y-89561332D01*
X107199999Y-89429196D01*
X107200000Y-89429184D01*
X107200000Y-88615000D01*
X105700000Y-88615000D01*
X105700000Y-88115000D01*
X107199999Y-88115000D01*
X107199999Y-87300817D01*
X107199998Y-87300802D01*
X107189599Y-87168667D01*
X107134622Y-86950480D01*
X107041571Y-86745625D01*
X107041568Y-86745619D01*
X106913440Y-86560676D01*
X106913430Y-86560664D01*
X106754335Y-86401569D01*
X106754323Y-86401559D01*
X106569380Y-86273431D01*
X106569374Y-86273428D01*
X106364519Y-86180377D01*
X106146332Y-86125400D01*
X106014196Y-86115000D01*
X105450000Y-86115000D01*
X105450000Y-86931988D01*
X105392993Y-86899075D01*
X105265826Y-86865000D01*
X105134174Y-86865000D01*
X105007007Y-86899075D01*
X104950000Y-86931988D01*
X104950000Y-86115000D01*
X104385817Y-86115000D01*
X104385802Y-86115001D01*
X104253667Y-86125400D01*
X104035480Y-86180377D01*
X103830625Y-86273428D01*
X103830619Y-86273431D01*
X103645676Y-86401559D01*
X103645664Y-86401569D01*
X103486569Y-86560664D01*
X103486559Y-86560676D01*
X103358431Y-86745619D01*
X103358428Y-86745625D01*
X103265377Y-86950480D01*
X103210400Y-87168667D01*
X103200000Y-87300803D01*
X97700500Y-87300803D01*
X97700500Y-74002706D01*
X97700618Y-73997297D01*
X97705796Y-73878711D01*
X100349500Y-73878711D01*
X100349500Y-74121288D01*
X100380344Y-74355581D01*
X100381162Y-74361789D01*
X100404798Y-74450000D01*
X100443947Y-74596104D01*
X100536773Y-74820205D01*
X100536774Y-74820208D01*
X100536776Y-74820212D01*
X100658064Y-75030289D01*
X100658066Y-75030292D01*
X100658067Y-75030293D01*
X100805733Y-75222736D01*
X100805739Y-75222743D01*
X100977256Y-75394260D01*
X100977262Y-75394265D01*
X101169711Y-75541936D01*
X101379788Y-75663224D01*
X101603900Y-75756054D01*
X101838211Y-75818838D01*
X102018586Y-75842584D01*
X102078711Y-75850500D01*
X102078712Y-75850500D01*
X102321289Y-75850500D01*
X102369388Y-75844167D01*
X102561789Y-75818838D01*
X102796100Y-75756054D01*
X103020212Y-75663224D01*
X103230289Y-75541936D01*
X103422738Y-75394265D01*
X103594265Y-75222738D01*
X103741936Y-75030289D01*
X103835130Y-74868872D01*
X116769500Y-74868872D01*
X116769500Y-75131127D01*
X116785151Y-75250000D01*
X116803730Y-75391116D01*
X116844141Y-75541932D01*
X116871602Y-75644418D01*
X116871605Y-75644428D01*
X116971953Y-75886690D01*
X116971958Y-75886700D01*
X117103075Y-76113803D01*
X117262718Y-76321851D01*
X117262726Y-76321860D01*
X117448140Y-76507274D01*
X117448148Y-76507281D01*
X117656196Y-76666924D01*
X117883299Y-76798041D01*
X117883309Y-76798046D01*
X118125571Y-76898394D01*
X118125581Y-76898398D01*
X118378884Y-76966270D01*
X118638880Y-77000500D01*
X118638887Y-77000500D01*
X118901113Y-77000500D01*
X118901120Y-77000500D01*
X119161116Y-76966270D01*
X119414419Y-76898398D01*
X119656697Y-76798043D01*
X119883803Y-76666924D01*
X120091851Y-76507282D01*
X120091855Y-76507277D01*
X120091860Y-76507274D01*
X120277274Y-76321860D01*
X120277277Y-76321855D01*
X120277282Y-76321851D01*
X120436924Y-76113803D01*
X120568043Y-75886697D01*
X120668398Y-75644419D01*
X120736270Y-75391116D01*
X120770500Y-75131120D01*
X120770500Y-74868880D01*
X120736270Y-74608884D01*
X120668398Y-74355581D01*
X120652993Y-74318390D01*
X120568046Y-74113309D01*
X120568041Y-74113299D01*
X120436924Y-73886196D01*
X120277281Y-73678148D01*
X120277274Y-73678140D01*
X120091860Y-73492726D01*
X120091851Y-73492718D01*
X119883803Y-73333075D01*
X119656700Y-73201958D01*
X119656690Y-73201953D01*
X119414428Y-73101605D01*
X119414421Y-73101603D01*
X119414419Y-73101602D01*
X119161116Y-73033730D01*
X119103339Y-73026123D01*
X118901127Y-72999500D01*
X118901120Y-72999500D01*
X118638880Y-72999500D01*
X118638872Y-72999500D01*
X118407772Y-73029926D01*
X118378884Y-73033730D01*
X118125581Y-73101602D01*
X118125571Y-73101605D01*
X117883309Y-73201953D01*
X117883299Y-73201958D01*
X117656196Y-73333075D01*
X117448148Y-73492718D01*
X117262718Y-73678148D01*
X117103075Y-73886196D01*
X116971958Y-74113299D01*
X116971953Y-74113309D01*
X116871605Y-74355571D01*
X116871602Y-74355581D01*
X116804106Y-74607483D01*
X116803730Y-74608885D01*
X116769500Y-74868872D01*
X103835130Y-74868872D01*
X103863224Y-74820212D01*
X103956054Y-74596100D01*
X104018838Y-74361789D01*
X104050500Y-74121288D01*
X104050500Y-73878712D01*
X104049253Y-73869243D01*
X104034205Y-73754935D01*
X104018838Y-73638211D01*
X103956054Y-73403900D01*
X103863224Y-73179788D01*
X103741936Y-72969711D01*
X103611901Y-72800246D01*
X103594266Y-72777263D01*
X103594260Y-72777256D01*
X103422743Y-72605739D01*
X103422736Y-72605733D01*
X103240949Y-72466244D01*
X103230289Y-72458064D01*
X103220105Y-72452184D01*
X103213137Y-72448161D01*
X103213136Y-72448161D01*
X103140840Y-72406421D01*
X103052766Y-72355571D01*
X103020214Y-72336777D01*
X103020205Y-72336773D01*
X102796104Y-72243947D01*
X102561785Y-72181161D01*
X102321289Y-72149500D01*
X102321288Y-72149500D01*
X102078712Y-72149500D01*
X102078711Y-72149500D01*
X101838214Y-72181161D01*
X101603895Y-72243947D01*
X101379794Y-72336773D01*
X101379785Y-72336777D01*
X101169706Y-72458067D01*
X100977263Y-72605733D01*
X100977256Y-72605739D01*
X100805739Y-72777256D01*
X100805733Y-72777263D01*
X100658067Y-72969706D01*
X100536777Y-73179785D01*
X100536773Y-73179794D01*
X100443947Y-73403895D01*
X100381161Y-73638214D01*
X100349500Y-73878711D01*
X97705796Y-73878711D01*
X97706209Y-73869244D01*
X97706209Y-73869243D01*
X97709460Y-73794780D01*
X97717386Y-73613226D01*
X97718325Y-73602496D01*
X97768151Y-73224032D01*
X97770024Y-73213402D01*
X97852648Y-72840714D01*
X97855446Y-72830276D01*
X97970230Y-72466227D01*
X97973917Y-72456095D01*
X98120003Y-72103412D01*
X98124561Y-72093638D01*
X98300822Y-71755045D01*
X98306217Y-71745700D01*
X98511325Y-71423744D01*
X98517515Y-71414905D01*
X98749896Y-71112060D01*
X98756834Y-71103791D01*
X99014726Y-70822352D01*
X99022352Y-70814726D01*
X99303791Y-70556834D01*
X99312060Y-70549896D01*
X99614905Y-70317515D01*
X99623744Y-70311325D01*
X99945700Y-70106217D01*
X99955045Y-70100822D01*
X100293638Y-69924561D01*
X100303412Y-69920003D01*
X100656095Y-69773917D01*
X100666227Y-69770230D01*
X101030285Y-69655443D01*
X101040714Y-69652648D01*
X101413402Y-69570024D01*
X101424032Y-69568151D01*
X101802496Y-69518325D01*
X101813224Y-69517387D01*
X102197297Y-69500617D01*
X102202706Y-69500500D01*
X102265892Y-69500500D01*
X192134108Y-69500500D01*
X192197294Y-69500500D01*
X192202702Y-69500617D01*
G37*
%TD.AperFunction*%
%TD*%
M02*
