M48
; DRILL file KiCad 10.0.1 date 2026-06-06T14:49:54
; FORMAT={-:-/ absolute / metric / decimal}
; #@! TF.CreationDate,2026-06-06T14:49:54-04:00
; #@! TF.GenerationSoftware,Kicad,Pcbnew,10.0.1
; #@! TF.FileFunction,Plated,1,2,PTH
FMAT,2
METRIC
; #@! TA.AperFunction,Plated,PTH,ViaDrill
T1C0.300
; #@! TA.AperFunction,Plated,PTH,ComponentDrill
T2C0.600
; #@! TA.AperFunction,Plated,PTH,ComponentDrill
T3C0.700
; #@! TA.AperFunction,Plated,PTH,ComponentDrill
T4C0.800
; #@! TA.AperFunction,Plated,PTH,ComponentDrill
T5C0.900
; #@! TA.AperFunction,Plated,PTH,ComponentDrill
T6C1.000
; #@! TA.AperFunction,Plated,PTH,ComponentDrill
T7C1.100
; #@! TA.AperFunction,Plated,PTH,ComponentDrill
T8C1.200
; #@! TA.AperFunction,Plated,PTH,ComponentDrill
T9C1.600
%
G90
G05
T1
X135.43Y-91.0
X144.2Y-89.5
X146.2Y-90.3
X146.2Y-92.0
X147.2Y-99.0
X157.2Y-97.5
X158.2Y-102.0
X160.2Y-83.0
X162.2Y-117.0
X171.2Y-79.0
X171.2Y-83.5
X172.2Y-110.03
X185.09Y-100.5
T2
X132.0Y-106.0
X134.0Y-106.0
X138.727Y-87.5
X140.727Y-87.5
T3
X119.16Y-87.5
X121.7Y-87.5
X124.24Y-87.5
T4
X105.7Y-114.0
X105.7Y-116.5
X138.7Y-94.92
X138.7Y-105.08
X143.58Y-95.11
X143.58Y-97.65
X143.58Y-100.19
X143.58Y-102.73
X143.58Y-105.27
X143.58Y-107.81
X143.58Y-110.35
X143.58Y-112.89
X151.2Y-95.11
X151.2Y-97.65
X151.2Y-100.19
X151.2Y-102.73
X151.2Y-105.27
X151.2Y-107.81
X151.2Y-110.35
X151.2Y-112.89
X155.0Y-75.0
X155.0Y-77.5
X155.2Y-82.84
X155.2Y-93.0
X161.58Y-96.38
X161.58Y-98.92
X161.58Y-101.46
X161.58Y-104.0
X161.58Y-106.54
X161.58Y-109.08
X161.58Y-111.62
X163.7Y-122.0
X163.9Y-86.5
X165.7Y-122.0
X167.7Y-86.5
X169.2Y-96.38
X169.2Y-98.92
X169.2Y-101.46
X169.2Y-104.0
X169.2Y-106.54
X169.2Y-109.08
X169.2Y-111.62
X174.2Y-122.0
X175.7Y-82.42
X175.7Y-92.58
X176.2Y-122.0
X179.77Y-94.84
X179.77Y-97.38
X179.77Y-99.92
X179.77Y-102.46
X179.77Y-105.0
X179.77Y-107.54
X179.77Y-110.08
X179.77Y-112.62
X187.39Y-94.84
X187.39Y-97.38
X187.39Y-99.92
X187.39Y-102.46
X187.39Y-105.0
X187.39Y-107.54
X187.39Y-110.08
X187.39Y-112.62
X192.2Y-94.5
X192.2Y-104.66
T5
X185.81Y-85.46
X185.81Y-122.46
X188.35Y-85.46
X188.35Y-122.46
T6
X99.7Y-113.96
X99.7Y-116.5
X99.7Y-119.04
T7
X119.12Y-101.0
X129.28Y-101.0
X135.43Y-72.46
X135.43Y-75.0
X135.43Y-77.54
T8
X161.2Y-73.0
X161.2Y-135.0
X166.2Y-73.0
X166.2Y-135.0
X171.2Y-73.0
X171.2Y-135.0
T9
X146.2Y-73.08
X146.2Y-81.38
X146.2Y-84.48
T6
G00X105.2Y-87.365
M15
G01X105.2Y-89.365
M16
G05
G00X105.2Y-100.0
M15
G01X105.2Y-102.0
M16
G05
G00X107.2Y-93.065
M15
G01X109.2Y-93.065
M16
G05
G00X107.2Y-105.7
M15
G01X109.2Y-105.7
M16
G05
G00X111.2Y-87.365
M15
G01X111.2Y-89.365
M16
G05
G00X111.2Y-100.0
M15
G01X111.2Y-102.0
M16
G05
M30
