%TF.GenerationSoftware,KiCad,Pcbnew,10.0.1*%
%TF.CreationDate,2026-06-06T14:49:55-04:00*%
%TF.ProjectId,g-03-osc-02-rev-a,672d3033-2d6f-4736-932d-30322d726576,rev?*%
%TF.SameCoordinates,Original*%
%TF.FileFunction,Legend,Bot*%
%TF.FilePolarity,Positive*%
%FSLAX46Y46*%
G04 Gerber Fmt 4.6, Leading zero omitted, Abs format (unit mm)*
G04 Created by KiCad (PCBNEW 10.0.1) date 2026-06-06 14:49:55*
%MOMM*%
%LPD*%
G01*
G04 APERTURE LIST*
%ADD10C,0.300000*%
G04 APERTURE END LIST*
D10*
X147802632Y-133800828D02*
X147802632Y-135015114D01*
X147802632Y-135015114D02*
X147874060Y-135157971D01*
X147874060Y-135157971D02*
X147945489Y-135229400D01*
X147945489Y-135229400D02*
X148088346Y-135300828D01*
X148088346Y-135300828D02*
X148302632Y-135300828D01*
X148302632Y-135300828D02*
X148445489Y-135229400D01*
X147802632Y-134729400D02*
X147945489Y-134800828D01*
X147945489Y-134800828D02*
X148231203Y-134800828D01*
X148231203Y-134800828D02*
X148374060Y-134729400D01*
X148374060Y-134729400D02*
X148445489Y-134657971D01*
X148445489Y-134657971D02*
X148516917Y-134515114D01*
X148516917Y-134515114D02*
X148516917Y-134086542D01*
X148516917Y-134086542D02*
X148445489Y-133943685D01*
X148445489Y-133943685D02*
X148374060Y-133872257D01*
X148374060Y-133872257D02*
X148231203Y-133800828D01*
X148231203Y-133800828D02*
X147945489Y-133800828D01*
X147945489Y-133800828D02*
X147802632Y-133872257D01*
X147088346Y-134229400D02*
X145945489Y-134229400D01*
X144945488Y-133300828D02*
X144802631Y-133300828D01*
X144802631Y-133300828D02*
X144659774Y-133372257D01*
X144659774Y-133372257D02*
X144588346Y-133443685D01*
X144588346Y-133443685D02*
X144516917Y-133586542D01*
X144516917Y-133586542D02*
X144445488Y-133872257D01*
X144445488Y-133872257D02*
X144445488Y-134229400D01*
X144445488Y-134229400D02*
X144516917Y-134515114D01*
X144516917Y-134515114D02*
X144588346Y-134657971D01*
X144588346Y-134657971D02*
X144659774Y-134729400D01*
X144659774Y-134729400D02*
X144802631Y-134800828D01*
X144802631Y-134800828D02*
X144945488Y-134800828D01*
X144945488Y-134800828D02*
X145088346Y-134729400D01*
X145088346Y-134729400D02*
X145159774Y-134657971D01*
X145159774Y-134657971D02*
X145231203Y-134515114D01*
X145231203Y-134515114D02*
X145302631Y-134229400D01*
X145302631Y-134229400D02*
X145302631Y-133872257D01*
X145302631Y-133872257D02*
X145231203Y-133586542D01*
X145231203Y-133586542D02*
X145159774Y-133443685D01*
X145159774Y-133443685D02*
X145088346Y-133372257D01*
X145088346Y-133372257D02*
X144945488Y-133300828D01*
X143945489Y-133300828D02*
X143016917Y-133300828D01*
X143016917Y-133300828D02*
X143516917Y-133872257D01*
X143516917Y-133872257D02*
X143302632Y-133872257D01*
X143302632Y-133872257D02*
X143159775Y-133943685D01*
X143159775Y-133943685D02*
X143088346Y-134015114D01*
X143088346Y-134015114D02*
X143016917Y-134157971D01*
X143016917Y-134157971D02*
X143016917Y-134515114D01*
X143016917Y-134515114D02*
X143088346Y-134657971D01*
X143088346Y-134657971D02*
X143159775Y-134729400D01*
X143159775Y-134729400D02*
X143302632Y-134800828D01*
X143302632Y-134800828D02*
X143731203Y-134800828D01*
X143731203Y-134800828D02*
X143874060Y-134729400D01*
X143874060Y-134729400D02*
X143945489Y-134657971D01*
X142374061Y-134229400D02*
X141231204Y-134229400D01*
X140302632Y-134800828D02*
X140445489Y-134729400D01*
X140445489Y-134729400D02*
X140516918Y-134657971D01*
X140516918Y-134657971D02*
X140588346Y-134515114D01*
X140588346Y-134515114D02*
X140588346Y-134086542D01*
X140588346Y-134086542D02*
X140516918Y-133943685D01*
X140516918Y-133943685D02*
X140445489Y-133872257D01*
X140445489Y-133872257D02*
X140302632Y-133800828D01*
X140302632Y-133800828D02*
X140088346Y-133800828D01*
X140088346Y-133800828D02*
X139945489Y-133872257D01*
X139945489Y-133872257D02*
X139874061Y-133943685D01*
X139874061Y-133943685D02*
X139802632Y-134086542D01*
X139802632Y-134086542D02*
X139802632Y-134515114D01*
X139802632Y-134515114D02*
X139874061Y-134657971D01*
X139874061Y-134657971D02*
X139945489Y-134729400D01*
X139945489Y-134729400D02*
X140088346Y-134800828D01*
X140088346Y-134800828D02*
X140302632Y-134800828D01*
X139231203Y-134729400D02*
X139088346Y-134800828D01*
X139088346Y-134800828D02*
X138802632Y-134800828D01*
X138802632Y-134800828D02*
X138659775Y-134729400D01*
X138659775Y-134729400D02*
X138588346Y-134586542D01*
X138588346Y-134586542D02*
X138588346Y-134515114D01*
X138588346Y-134515114D02*
X138659775Y-134372257D01*
X138659775Y-134372257D02*
X138802632Y-134300828D01*
X138802632Y-134300828D02*
X139016918Y-134300828D01*
X139016918Y-134300828D02*
X139159775Y-134229400D01*
X139159775Y-134229400D02*
X139231203Y-134086542D01*
X139231203Y-134086542D02*
X139231203Y-134015114D01*
X139231203Y-134015114D02*
X139159775Y-133872257D01*
X139159775Y-133872257D02*
X139016918Y-133800828D01*
X139016918Y-133800828D02*
X138802632Y-133800828D01*
X138802632Y-133800828D02*
X138659775Y-133872257D01*
X137302632Y-134729400D02*
X137445489Y-134800828D01*
X137445489Y-134800828D02*
X137731203Y-134800828D01*
X137731203Y-134800828D02*
X137874060Y-134729400D01*
X137874060Y-134729400D02*
X137945489Y-134657971D01*
X137945489Y-134657971D02*
X138016917Y-134515114D01*
X138016917Y-134515114D02*
X138016917Y-134086542D01*
X138016917Y-134086542D02*
X137945489Y-133943685D01*
X137945489Y-133943685D02*
X137874060Y-133872257D01*
X137874060Y-133872257D02*
X137731203Y-133800828D01*
X137731203Y-133800828D02*
X137445489Y-133800828D01*
X137445489Y-133800828D02*
X137302632Y-133872257D01*
X136659775Y-134229400D02*
X135516918Y-134229400D01*
X134516917Y-133300828D02*
X134374060Y-133300828D01*
X134374060Y-133300828D02*
X134231203Y-133372257D01*
X134231203Y-133372257D02*
X134159775Y-133443685D01*
X134159775Y-133443685D02*
X134088346Y-133586542D01*
X134088346Y-133586542D02*
X134016917Y-133872257D01*
X134016917Y-133872257D02*
X134016917Y-134229400D01*
X134016917Y-134229400D02*
X134088346Y-134515114D01*
X134088346Y-134515114D02*
X134159775Y-134657971D01*
X134159775Y-134657971D02*
X134231203Y-134729400D01*
X134231203Y-134729400D02*
X134374060Y-134800828D01*
X134374060Y-134800828D02*
X134516917Y-134800828D01*
X134516917Y-134800828D02*
X134659775Y-134729400D01*
X134659775Y-134729400D02*
X134731203Y-134657971D01*
X134731203Y-134657971D02*
X134802632Y-134515114D01*
X134802632Y-134515114D02*
X134874060Y-134229400D01*
X134874060Y-134229400D02*
X134874060Y-133872257D01*
X134874060Y-133872257D02*
X134802632Y-133586542D01*
X134802632Y-133586542D02*
X134731203Y-133443685D01*
X134731203Y-133443685D02*
X134659775Y-133372257D01*
X134659775Y-133372257D02*
X134516917Y-133300828D01*
X133445489Y-133443685D02*
X133374061Y-133372257D01*
X133374061Y-133372257D02*
X133231204Y-133300828D01*
X133231204Y-133300828D02*
X132874061Y-133300828D01*
X132874061Y-133300828D02*
X132731204Y-133372257D01*
X132731204Y-133372257D02*
X132659775Y-133443685D01*
X132659775Y-133443685D02*
X132588346Y-133586542D01*
X132588346Y-133586542D02*
X132588346Y-133729400D01*
X132588346Y-133729400D02*
X132659775Y-133943685D01*
X132659775Y-133943685D02*
X133516918Y-134800828D01*
X133516918Y-134800828D02*
X132588346Y-134800828D01*
X131945490Y-134229400D02*
X130802633Y-134229400D01*
X130088347Y-134800828D02*
X130088347Y-133800828D01*
X130088347Y-134086542D02*
X130016918Y-133943685D01*
X130016918Y-133943685D02*
X129945490Y-133872257D01*
X129945490Y-133872257D02*
X129802632Y-133800828D01*
X129802632Y-133800828D02*
X129659775Y-133800828D01*
X128588347Y-134729400D02*
X128731204Y-134800828D01*
X128731204Y-134800828D02*
X129016919Y-134800828D01*
X129016919Y-134800828D02*
X129159776Y-134729400D01*
X129159776Y-134729400D02*
X129231204Y-134586542D01*
X129231204Y-134586542D02*
X129231204Y-134015114D01*
X129231204Y-134015114D02*
X129159776Y-133872257D01*
X129159776Y-133872257D02*
X129016919Y-133800828D01*
X129016919Y-133800828D02*
X128731204Y-133800828D01*
X128731204Y-133800828D02*
X128588347Y-133872257D01*
X128588347Y-133872257D02*
X128516919Y-134015114D01*
X128516919Y-134015114D02*
X128516919Y-134157971D01*
X128516919Y-134157971D02*
X129231204Y-134300828D01*
X128016919Y-133800828D02*
X127659776Y-134800828D01*
X127659776Y-134800828D02*
X127302633Y-133800828D01*
X126731205Y-134229400D02*
X125588348Y-134229400D01*
X124231205Y-134800828D02*
X124231205Y-134015114D01*
X124231205Y-134015114D02*
X124302633Y-133872257D01*
X124302633Y-133872257D02*
X124445490Y-133800828D01*
X124445490Y-133800828D02*
X124731205Y-133800828D01*
X124731205Y-133800828D02*
X124874062Y-133872257D01*
X124231205Y-134729400D02*
X124374062Y-134800828D01*
X124374062Y-134800828D02*
X124731205Y-134800828D01*
X124731205Y-134800828D02*
X124874062Y-134729400D01*
X124874062Y-134729400D02*
X124945490Y-134586542D01*
X124945490Y-134586542D02*
X124945490Y-134443685D01*
X124945490Y-134443685D02*
X124874062Y-134300828D01*
X124874062Y-134300828D02*
X124731205Y-134229400D01*
X124731205Y-134229400D02*
X124374062Y-134229400D01*
X124374062Y-134229400D02*
X124231205Y-134157971D01*
M02*
