M48
; DRILL file KiCad 10.0.1 date 2026-06-06T13:04:05
; FORMAT={-:-/ absolute / metric / decimal}
; #@! TF.CreationDate,2026-06-06T13:04:05-04:00
; #@! TF.GenerationSoftware,Kicad,Pcbnew,10.0.1
; #@! TF.FileFunction,Plated,1,2,PTH
FMAT,2
METRIC
; #@! TA.AperFunction,Plated,PTH,ViaDrill
T1C0.300
; #@! TA.AperFunction,Plated,PTH,ComponentDrill
T2C0.600
; #@! TA.AperFunction,Plated,PTH,ComponentDrill
T3C0.700
; #@! TA.AperFunction,Plated,PTH,ComponentDrill
T4C0.800
; #@! TA.AperFunction,Plated,PTH,ComponentDrill
T5C0.900
; #@! TA.AperFunction,Plated,PTH,ComponentDrill
T6C1.000
; #@! TA.AperFunction,Plated,PTH,ComponentDrill
T7C1.100
; #@! TA.AperFunction,Plated,PTH,ComponentDrill
T8C1.600
%
G90
G05
T1
X147.656Y-129.162
X148.624Y-130.174
X150.547Y-102.772
X151.25Y-80.45
X155.008Y-79.3
X155.783Y-102.35
X156.875Y-136.35
X157.058Y-99.0
X159.983Y-102.45
X163.683Y-95.675
X164.308Y-81.925
X166.858Y-98.0
X170.458Y-76.0
X171.588Y-74.77
X175.0Y-145.0
X175.808Y-119.5
X177.108Y-73.975
X179.683Y-73.925
X180.258Y-75.0
T2
X170.308Y-118.0
X172.308Y-118.0
T3
X157.728Y-150.5
X160.268Y-150.5
X162.808Y-150.5
T4
X118.833Y-146.538
X118.855Y-123.198
X118.879Y-100.155
X118.92Y-77.0
X128.993Y-146.538
X129.015Y-123.198
X129.039Y-100.155
X129.08Y-77.0
X132.22Y-77.85
X132.228Y-61.965
X132.228Y-84.988
X132.228Y-108.012
X132.228Y-131.035
X132.228Y-123.894
X132.42Y-146.8
X132.57Y-100.65
X133.39Y-115.64
X133.498Y-138.28
X133.54Y-69.565
X133.54Y-92.65
X135.93Y-115.64
X136.038Y-138.28
X136.08Y-69.565
X136.08Y-92.65
X138.47Y-115.64
X138.578Y-138.28
X138.62Y-69.565
X138.62Y-92.65
X142.38Y-77.85
X142.388Y-61.965
X142.388Y-84.988
X142.388Y-108.012
X142.388Y-131.035
X142.388Y-123.894
X142.58Y-146.8
X142.73Y-100.65
X160.748Y-76.96
X160.748Y-79.5
X160.748Y-82.04
X160.748Y-84.58
X160.748Y-87.12
X160.748Y-89.66
X160.748Y-92.2
X160.748Y-94.74
X168.368Y-76.96
X168.368Y-79.5
X168.368Y-82.04
X168.368Y-84.58
X168.368Y-87.12
X168.368Y-89.66
X168.368Y-92.2
X168.368Y-94.74
X169.808Y-129.0
X170.308Y-110.5
X172.228Y-78.5
X172.228Y-85.587
X172.228Y-101.5
X172.808Y-110.5
X173.498Y-93.183
X173.608Y-129.0
X176.038Y-93.183
X178.578Y-93.183
X179.0Y-151.0
X182.388Y-78.5
X182.388Y-85.587
X182.388Y-101.5
X188.645Y-124.25
X188.728Y-62.5
X188.728Y-85.524
X188.728Y-108.547
X188.728Y-131.571
X188.765Y-78.625
X188.77Y-101.6
X188.945Y-146.85
X189.16Y-151.0
X189.99Y-116.24
X190.04Y-93.465
X190.167Y-70.101
X190.2Y-139.479
X192.53Y-116.24
X192.58Y-93.465
X192.707Y-70.101
X192.74Y-139.479
X195.07Y-116.24
X195.12Y-93.465
X195.247Y-70.101
X195.28Y-139.479
X198.805Y-124.25
X198.888Y-62.5
X198.888Y-85.524
X198.888Y-108.547
X198.888Y-131.571
X198.925Y-78.625
X198.93Y-101.6
X199.105Y-146.85
X200.84Y-78.0
X201.188Y-133.209
X201.23Y-99.623
X201.268Y-122.687
X211.0Y-78.0
X211.348Y-133.209
X211.39Y-99.623
X211.428Y-122.687
T5
X146.5Y-116.05
X146.538Y-139.5
X146.76Y-70.5
X147.185Y-92.975
X149.04Y-116.05
X149.078Y-139.5
X149.3Y-70.5
X149.725Y-92.975
X163.543Y-102.5
X166.083Y-102.5
X184.21Y-115.475
X184.485Y-92.6
X184.538Y-70.5
X184.55Y-139.55
X186.75Y-115.475
X187.025Y-92.6
X187.078Y-70.5
X187.09Y-139.55
T7
X155.768Y-127.73
X158.308Y-127.73
X160.848Y-127.73
X162.808Y-134.84
X162.808Y-145.0
T8
X119.888Y-70.5
X119.888Y-93.5
X119.888Y-116.5
X119.888Y-139.5
X128.188Y-70.5
X128.188Y-93.5
X128.188Y-116.5
X128.188Y-139.5
X131.288Y-70.5
X131.288Y-93.5
X131.288Y-116.5
X131.288Y-139.5
X172.308Y-139.1
X172.308Y-142.2
X172.308Y-150.5
X198.408Y-139.5
X198.828Y-70.5
X198.908Y-93.0
X198.908Y-116.0
X201.508Y-139.5
X201.928Y-70.5
X202.008Y-93.0
X202.008Y-116.0
X209.808Y-139.5
X210.228Y-70.5
X210.308Y-93.0
X210.308Y-116.0
T6
G00X154.608Y-66.0
M15
G01X154.608Y-68.0
M16
G05
G00X160.308Y-64.0
M15
G01X158.308Y-64.0
M16
G05
G00X160.308Y-70.0
M15
G01X158.308Y-70.0
M16
G05
G00X167.808Y-66.0
M15
G01X167.808Y-68.0
M16
G05
G00X173.508Y-64.0
M15
G01X171.508Y-64.0
M16
G05
G00X173.508Y-70.0
M15
G01X171.508Y-70.0
M16
G05
M30
