%TF.GenerationSoftware,KiCad,Pcbnew,10.0.1*%
%TF.CreationDate,2026-06-06T12:38:04-04:00*%
%TF.ProjectId,secuenciador-02-v03,73656375-656e-4636-9961-646f722d3032,rev?*%
%TF.SameCoordinates,Original*%
%TF.FileFunction,Soldermask,Top*%
%TF.FilePolarity,Negative*%
%FSLAX46Y46*%
G04 Gerber Fmt 4.6, Leading zero omitted, Abs format (unit mm)*
G04 Created by KiCad (PCBNEW 10.0.1) date 2026-06-06 12:38:04*
%MOMM*%
%LPD*%
G01*
G04 APERTURE LIST*
G04 Aperture macros list*
%AMRoundRect*
0 Rectangle with rounded corners*
0 $1 Rounding radius*
0 $2 $3 $4 $5 $6 $7 $8 $9 X,Y pos of 4 corners*
0 Add a 4 corners polygon primitive as box body*
4,1,4,$2,$3,$4,$5,$6,$7,$8,$9,$2,$3,0*
0 Add four circle primitives for the rounded corners*
1,1,$1+$1,$2,$3*
1,1,$1+$1,$4,$5*
1,1,$1+$1,$6,$7*
1,1,$1+$1,$8,$9*
0 Add four rect primitives between the rounded corners*
20,1,$1+$1,$2,$3,$4,$5,0*
20,1,$1+$1,$4,$5,$6,$7,0*
20,1,$1+$1,$6,$7,$8,$9,0*
20,1,$1+$1,$8,$9,$2,$3,0*%
G04 Aperture macros list end*
%ADD10C,3.200000*%
%ADD11R,1.500000X1.500000*%
%ADD12C,1.500000*%
%ADD13C,1.800000*%
%ADD14C,1.600000*%
%ADD15R,1.800000X1.800000*%
%ADD16RoundRect,0.250000X-0.350000X-0.350000X0.350000X-0.350000X0.350000X0.350000X-0.350000X0.350000X0*%
%ADD17C,1.200000*%
%ADD18R,3.500000X3.500000*%
%ADD19RoundRect,0.750000X-1.000000X0.750000X-1.000000X-0.750000X1.000000X-0.750000X1.000000X0.750000X0*%
%ADD20RoundRect,0.875000X-0.875000X0.875000X-0.875000X-0.875000X0.875000X-0.875000X0.875000X0.875000X0*%
%ADD21RoundRect,0.250000X-0.550000X-0.550000X0.550000X-0.550000X0.550000X0.550000X-0.550000X0.550000X0*%
%ADD22C,3.500000*%
%ADD23R,1.905000X2.000000*%
%ADD24O,1.905000X2.000000*%
%ADD25RoundRect,0.250000X-0.950000X-0.550000X0.950000X-0.550000X0.950000X0.550000X-0.950000X0.550000X0*%
%ADD26O,2.400000X1.600000*%
%ADD27RoundRect,0.249999X-0.850001X0.850001X-0.850001X-0.850001X0.850001X-0.850001X0.850001X0.850001X0*%
%ADD28C,2.200000*%
G04 APERTURE END LIST*
D10*
%TO.C,H4*%
X211000000Y-128000000D03*
%TD*%
%TO.C,H3*%
X118000000Y-130000000D03*
%TD*%
%TO.C,H2*%
X183000000Y-59000000D03*
%TD*%
%TO.C,H1*%
X148000000Y-59000000D03*
%TD*%
D11*
%TO.C,Q10*%
X138620000Y-69565000D03*
D12*
X136080000Y-69565000D03*
X133540000Y-69565000D03*
%TD*%
D11*
%TO.C,Q9*%
X138620000Y-92650449D03*
D12*
X136080000Y-92650449D03*
X133540000Y-92650449D03*
%TD*%
D11*
%TO.C,Q8*%
X138470000Y-115640000D03*
D12*
X135930000Y-115640000D03*
X133390000Y-115640000D03*
%TD*%
D11*
%TO.C,Q7*%
X138578000Y-138280000D03*
D12*
X136038000Y-138280000D03*
X133498000Y-138280000D03*
%TD*%
D11*
%TO.C,Q6*%
X195280445Y-139479205D03*
D12*
X192740445Y-139479205D03*
X190200445Y-139479205D03*
%TD*%
D11*
%TO.C,Q5*%
X195070000Y-116240000D03*
D12*
X192530000Y-116240000D03*
X189990000Y-116240000D03*
%TD*%
D11*
%TO.C,Q4*%
X195120000Y-93465000D03*
D12*
X192580000Y-93465000D03*
X190040000Y-93465000D03*
%TD*%
D11*
%TO.C,Q3*%
X195247180Y-70101178D03*
D12*
X192707180Y-70101178D03*
X190167180Y-70101178D03*
%TD*%
D11*
%TO.C,Q1*%
X178578000Y-93183333D03*
D12*
X176038000Y-93183333D03*
X173498000Y-93183333D03*
%TD*%
D13*
%TO.C,J6*%
X172308000Y-139100000D03*
X172308000Y-142200000D03*
X172308000Y-150500000D03*
%TD*%
D14*
%TO.C,R30*%
X129080000Y-77000000D03*
X118920000Y-77000000D03*
%TD*%
%TO.C,R29*%
X129038557Y-100155226D03*
X118878557Y-100155226D03*
%TD*%
%TO.C,R28*%
X129014516Y-123197682D03*
X118854516Y-123197682D03*
%TD*%
%TO.C,R27*%
X128992809Y-146537701D03*
X118832809Y-146537701D03*
%TD*%
%TO.C,R26*%
X201187892Y-133208946D03*
X211347892Y-133208946D03*
%TD*%
%TO.C,R25*%
X201268391Y-122687336D03*
X211428391Y-122687336D03*
%TD*%
%TO.C,R24*%
X201229649Y-99623077D03*
X211389649Y-99623077D03*
%TD*%
%TO.C,R23*%
X200840000Y-78000000D03*
X211000000Y-78000000D03*
%TD*%
%TO.C,R13*%
X189160000Y-151000000D03*
X179000000Y-151000000D03*
%TD*%
D13*
%TO.C,J7*%
X198828000Y-70500000D03*
X201928000Y-70500000D03*
X210228000Y-70500000D03*
%TD*%
%TO.C,J8*%
X198908000Y-93000000D03*
X202008000Y-93000000D03*
X210308000Y-93000000D03*
%TD*%
%TO.C,J9*%
X198908000Y-116000000D03*
X202008000Y-116000000D03*
X210308000Y-116000000D03*
%TD*%
%TO.C,J10*%
X198408000Y-139500000D03*
X201508000Y-139500000D03*
X209808000Y-139500000D03*
%TD*%
%TO.C,J11*%
X131288000Y-139500000D03*
X128188000Y-139500000D03*
X119888000Y-139500000D03*
%TD*%
%TO.C,J12*%
X131288000Y-116500000D03*
X128188000Y-116500000D03*
X119888000Y-116500000D03*
%TD*%
%TO.C,J13*%
X131288000Y-93500000D03*
X128188000Y-93500000D03*
X119888000Y-93500000D03*
%TD*%
%TO.C,J14*%
X131288000Y-70500000D03*
X128188000Y-70500000D03*
X119888000Y-70500000D03*
%TD*%
D14*
%TO.C,R4*%
X198925000Y-78625000D03*
X188765000Y-78625000D03*
%TD*%
D15*
%TO.C,D3*%
X186750000Y-115475000D03*
D13*
X184210000Y-115475000D03*
%TD*%
D16*
%TO.C,C8*%
X170308000Y-118000000D03*
D17*
X172308000Y-118000000D03*
%TD*%
D15*
%TO.C,D2*%
X187025000Y-92600000D03*
D13*
X184485000Y-92600000D03*
%TD*%
D14*
%TO.C,R17*%
X188728000Y-108547273D03*
X198888000Y-108547273D03*
%TD*%
D15*
%TO.C,D12*%
X166083000Y-102500000D03*
D13*
X163543000Y-102500000D03*
%TD*%
D14*
%TO.C,R10*%
X132570000Y-100650000D03*
X142730000Y-100650000D03*
%TD*%
%TO.C,R5*%
X198930000Y-101600000D03*
X188770000Y-101600000D03*
%TD*%
D15*
%TO.C,D6*%
X149040000Y-116050000D03*
D13*
X146500000Y-116050000D03*
%TD*%
D15*
%TO.C,D4*%
X187090000Y-139550000D03*
D13*
X184550000Y-139550000D03*
%TD*%
D14*
%TO.C,R18*%
X188728000Y-131570909D03*
X198888000Y-131570909D03*
%TD*%
%TO.C,R9*%
X132228405Y-123893964D03*
X142388405Y-123893964D03*
%TD*%
D18*
%TO.C,J4*%
X172508000Y-70000000D03*
D19*
X172508000Y-64000000D03*
D20*
X167808000Y-67000000D03*
%TD*%
D14*
%TO.C,R16*%
X188728000Y-85523636D03*
X198888000Y-85523636D03*
%TD*%
%TO.C,R11*%
X132220000Y-77850000D03*
X142380000Y-77850000D03*
%TD*%
D21*
%TO.C,C7*%
X169808000Y-129000000D03*
D14*
X173608000Y-129000000D03*
%TD*%
%TO.C,R3*%
X182388000Y-78500000D03*
X172228000Y-78500000D03*
%TD*%
%TO.C,R6*%
X198805000Y-124250000D03*
X188645000Y-124250000D03*
%TD*%
%TO.C,R15*%
X198888000Y-62500000D03*
X188728000Y-62500000D03*
%TD*%
D15*
%TO.C,D8*%
X149300000Y-70500000D03*
D13*
X146760000Y-70500000D03*
%TD*%
D15*
%TO.C,D1*%
X187078000Y-70500000D03*
D13*
X184538000Y-70500000D03*
%TD*%
D14*
%TO.C,C9*%
X170308000Y-110500000D03*
X172808000Y-110500000D03*
%TD*%
D15*
%TO.C,D7*%
X149725000Y-92975000D03*
D13*
X147185000Y-92975000D03*
%TD*%
D14*
%TO.C,R2*%
X172228000Y-85586667D03*
X182388000Y-85586667D03*
%TD*%
D11*
%TO.C,SW4*%
X162808000Y-150500000D03*
X160268000Y-150500000D03*
X157728000Y-150500000D03*
%TD*%
D22*
%TO.C,U4*%
X158308000Y-111070000D03*
D23*
X155768000Y-127730000D03*
D24*
X158308000Y-127730000D03*
X160848000Y-127730000D03*
%TD*%
D14*
%TO.C,R21*%
X132228000Y-84988181D03*
X142388000Y-84988181D03*
%TD*%
%TO.C,R12*%
X172228000Y-101500000D03*
X182388000Y-101500000D03*
%TD*%
D25*
%TO.C,U2*%
X160748000Y-76960000D03*
D26*
X160748000Y-79500000D03*
X160748000Y-82040000D03*
X160748000Y-84580000D03*
X160748000Y-87120000D03*
X160748000Y-89660000D03*
X160748000Y-92200000D03*
X160748000Y-94740000D03*
X168368000Y-94740000D03*
X168368000Y-92200000D03*
X168368000Y-89660000D03*
X168368000Y-87120000D03*
X168368000Y-84580000D03*
X168368000Y-82040000D03*
X168368000Y-79500000D03*
X168368000Y-76960000D03*
%TD*%
D14*
%TO.C,R7*%
X199105000Y-146850000D03*
X188945000Y-146850000D03*
%TD*%
D15*
%TO.C,D5*%
X149078000Y-139500000D03*
D13*
X146538000Y-139500000D03*
%TD*%
D18*
%TO.C,J2*%
X159308000Y-70000000D03*
D19*
X159308000Y-64000000D03*
D20*
X154608000Y-67000000D03*
%TD*%
D14*
%TO.C,R8*%
X132420000Y-146800000D03*
X142580000Y-146800000D03*
%TD*%
D27*
%TO.C,D11*%
X162808000Y-134840000D03*
D28*
X162808000Y-145000000D03*
%TD*%
D14*
%TO.C,R20*%
X132228000Y-108011818D03*
X142388000Y-108011818D03*
%TD*%
%TO.C,R19*%
X132228000Y-131035454D03*
X142388000Y-131035454D03*
%TD*%
%TO.C,R22*%
X132228000Y-61964545D03*
X142388000Y-61964545D03*
%TD*%
M02*
